<?xml version="1.0" encoding="utf-8"?>
<!-- Generator: Adobe Illustrator 26.0.3, SVG Export Plug-In . SVG Version: 6.00 Build 0)  -->
<svg version="1.1" id="Layer_1" xmlns="http://www.w3.org/2000/svg" xmlns:xlink="http://www.w3.org/1999/xlink" x="0px" y="0px"
	 viewBox="0 0 180.7 180.7" style="enable-background:new 0 0 180.7 180.7;" xml:space="preserve">
<style type="text/css">
	.st0{fill:#00264D;}
	.st1{fill:url(#SVGID_1_);}
	.st2{fill:url(#SVGID_00000101078005110184731760000000874892994008134787_);}
	.st3{fill:url(#SVGID_00000075849760934948593730000003045534525170085291_);}
	.st4{fill:url(#SVGID_00000002360265179534175030000009386931454482593692_);}
	.st5{fill:url(#SVGID_00000142157779934649089770000010084142055603407022_);}
	.st6{fill:url(#SVGID_00000022526925369175040740000004785093109259742613_);}
	.st7{fill:url(#SVGID_00000044870488707080833610000015996778494311387046_);}
	.st8{fill:url(#SVGID_00000116951115930436445890000015579784345530449046_);}
	.st9{fill:url(#SVGID_00000011027930025631112960000002528467853319529391_);}
	.st10{opacity:0.25;fill:#FFFFFF;enable-background:new    ;}
	.st11{fill:url(#SVGID_00000177485068934576209580000008181405645746128318_);}
	.st12{fill:#FFFFFF;}
</style>
<g id="Слой_2">
	<g id="Layer_1_00000076566640612769431510000017773879384230929060_">
		<circle class="st0" cx="90.4" cy="90.4" r="90.4"/>
		
			<linearGradient id="SVGID_1_" gradientUnits="userSpaceOnUse" x1="73.6679" y1="84.4653" x2="11.0179" y2="59.6153" gradientTransform="matrix(1 0 0 1 0 -2)">
			<stop  offset="0" style="stop-color:#CC7400"/>
			<stop  offset="1" style="stop-color:#F2A41C"/>
		</linearGradient>
		<path class="st1" d="M73.3,87.2c0.4-2.4,1.4-4.6,2.7-6.7c0.8-1.2,0.7-2.8-0.3-3.8L30.2,31.2C29,30,27.1,30,26,31.2l-0.1,0.1
			C11.9,46.4,3.8,66,2.9,86.5c-0.1,1.7,1.2,3.1,2.8,3.1c0.1,0,0.1,0,0.2,0h64.4C71.8,89.6,73,88.6,73.3,87.2z"/>
		
			<linearGradient id="SVGID_00000070109247105112467870000018199174396424290467_" gradientUnits="userSpaceOnUse" x1="90.9665" y1="71.2639" x2="124.6465" y2="11.9739" gradientTransform="matrix(1 0 0 1 0 -2)">
			<stop  offset="0" style="stop-color:#CC7400"/>
			<stop  offset="1" style="stop-color:#F2A41C"/>
		</linearGradient>
		<path style="fill:url(#SVGID_00000070109247105112467870000018199174396424290467_);" d="M91.1,5.9v64.4c0,1.4,1,2.7,2.4,2.9
			c2.4,0.4,4.7,1.4,6.7,2.7c1.2,0.8,2.8,0.7,3.8-0.3l45.5-45.5c1.2-1.2,1.2-3.1,0-4.2l-0.1-0.1c-15.1-13.9-34.7-22-55.2-22.9
			c-1.7-0.1-3.1,1.2-3.2,2.8C91.1,5.8,91.1,5.9,91.1,5.9z"/>
		
			<linearGradient id="SVGID_00000165945542243716744240000002423855604646386311_" gradientUnits="userSpaceOnUse" x1="85.8356" y1="75.0958" x2="56.6856" y2="11.9358" gradientTransform="matrix(1 0 0 1 0 -2)">
			<stop  offset="0" style="stop-color:#992E2E"/>
			<stop  offset="1" style="stop-color:#F24C4C"/>
		</linearGradient>
		<path style="fill:url(#SVGID_00000165945542243716744240000002423855604646386311_);" d="M80.5,76c2-1.4,4.3-2.3,6.7-2.8
			c1.4-0.3,2.4-1.5,2.4-2.9V5.9c0-1.7-1.3-3-3-3c-0.1,0-0.1,0-0.2,0c-20.5,0.9-40,9-55.2,22.9c-1.2,1.1-1.3,3-0.2,4.2l0.1,0.1
			l45.5,45.5C77.8,76.7,79.4,76.8,80.5,76z"/>
		
			<linearGradient id="SVGID_00000112615126286561347870000015957723709682524858_" gradientUnits="userSpaceOnUse" x1="73.0343" y1="98.4298" x2="9.5743" y2="125.9798" gradientTransform="matrix(1 0 0 1 0 -2)">
			<stop  offset="0" style="stop-color:#105B99"/>
			<stop  offset="1" style="stop-color:#1C9CF2"/>
		</linearGradient>
		<path style="fill:url(#SVGID_00000112615126286561347870000015957723709682524858_);" d="M76,100.2c-1.4-2-2.3-4.3-2.8-6.7
			c-0.3-1.4-1.5-2.4-2.9-2.4H5.9c-1.7,0-3,1.3-3,3c0,0.1,0,0.1,0,0.2c0.9,20.5,9,40,22.9,55.2c1.1,1.2,3,1.3,4.2,0.2l0.1-0.1
			L75.7,104C76.7,103,76.8,101.4,76,100.2z"/>
		
			<linearGradient id="SVGID_00000138540454471283018360000016943471349415048593_" gradientUnits="userSpaceOnUse" x1="106.0237" y1="81.8728" x2="172.3937" y2="58.9329" gradientTransform="matrix(1 0 0 1 0 -2)">
			<stop  offset="0" style="stop-color:#007F12"/>
			<stop  offset="1" style="stop-color:#00BF1B"/>
		</linearGradient>
		<path style="fill:url(#SVGID_00000138540454471283018360000016943471349415048593_);" d="M104.7,80.5c1.4,2,2.3,4.3,2.8,6.7
			c0.3,1.4,1.5,2.4,2.9,2.4h64.4c1.7,0,3-1.3,3-3c0-0.1,0-0.1,0-0.2c-0.9-20.5-9-40-22.9-55.2c-1.1-1.2-3-1.3-4.2-0.2l-0.1,0.1
			l-45.5,45.5C104,77.8,103.9,79.4,104.7,80.5z"/>
		
			<linearGradient id="SVGID_00000031898480171787218470000001128881434064357782_" gradientUnits="userSpaceOnUse" x1="108.9088" y1="96.1931" x2="171.2388" y2="126.4131" gradientTransform="matrix(1 0 0 1 0 -2)">
			<stop  offset="0" style="stop-color:#7B287F"/>
			<stop  offset="1" style="stop-color:#C83ECC"/>
		</linearGradient>
		<path style="fill:url(#SVGID_00000031898480171787218470000001128881434064357782_);" d="M107.4,93.5c-0.4,2.4-1.4,4.7-2.8,6.7
			c-0.8,1.2-0.7,2.8,0.3,3.8l45.5,45.5c1.2,1.2,3.1,1.2,4.2,0l0.1-0.1c13.9-15.1,22-34.7,22.9-55.2c0.1-1.7-1.2-3.1-2.8-3.2
			c-0.1,0-0.1,0-0.2,0h-64.4C109,91.1,107.7,92.1,107.4,93.5z"/>
		
			<linearGradient id="SVGID_00000107555547259884555010000002616141750506013313_" gradientUnits="userSpaceOnUse" x1="83.8251" y1="108.9869" x2="57.0751" y2="172.4669" gradientTransform="matrix(1 0 0 1 0 -2)">
			<stop  offset="0" style="stop-color:#007F12"/>
			<stop  offset="1" style="stop-color:#00BF1B"/>
		</linearGradient>
		<path style="fill:url(#SVGID_00000107555547259884555010000002616141750506013313_);" d="M87.2,107.4c-2.4-0.4-4.7-1.4-6.7-2.8
			c-1.2-0.8-2.8-0.7-3.8,0.3l-45.5,45.5c-1.2,1.2-1.2,3.1,0,4.2l0.1,0.1c15.1,13.9,34.7,22,55.2,22.9c1.7,0.1,3.1-1.2,3.1-2.8
			c0-0.1,0-0.1,0-0.2v-64.4C89.6,109,88.6,107.7,87.2,107.4z"/>
		
			<linearGradient id="SVGID_00000003071903633160985020000017504894875494514314_" gradientUnits="userSpaceOnUse" x1="95.3791" y1="109.9113" x2="123.9891" y2="172.8113" gradientTransform="matrix(1 0 0 1 0 -2)">
			<stop  offset="0" style="stop-color:#CC7400"/>
			<stop  offset="1" style="stop-color:#F2A41C"/>
		</linearGradient>
		<path style="fill:url(#SVGID_00000003071903633160985020000017504894875494514314_);" d="M100.2,104.7c-2,1.4-4.3,2.3-6.7,2.8
			c-1.4,0.3-2.4,1.5-2.4,2.9v64.4c0,1.7,1.3,3,3,3c0.1,0,0.1,0,0.2,0c20.5-0.9,40-9,55.2-22.9c1.2-1.1,1.3-3,0.2-4.2l-0.1-0.1
			L104,105.1C103,104,101.4,103.9,100.2,104.7z"/>
		<circle class="st0" cx="90.4" cy="90.4" r="30.2"/>
		
			<linearGradient id="SVGID_00000183249174008709513260000009099674225270669478_" gradientUnits="userSpaceOnUse" x1="90.4028" y1="65" x2="90.4028" y2="119.41" gradientTransform="matrix(1 0 0 1 -2.838802e-03 -2.0012)">
			<stop  offset="0" style="stop-color:#FFC033"/>
			<stop  offset="1" style="stop-color:#E5962E"/>
		</linearGradient>
		<circle style="fill:url(#SVGID_00000183249174008709513260000009099674225270669478_);" cx="90.4" cy="90.4" r="28.6"/>
		<circle class="st10" cx="90.4" cy="90.4" r="23.9"/>
		
			<linearGradient id="SVGID_00000092452887141170981030000011187886433878127236_" gradientUnits="userSpaceOnUse" x1="90.0256" y1="1092.7281" x2="90.0256" y2="1137.4781" gradientTransform="matrix(1.0041 0 0 -1.0041 5.347350e-03 1205.5831)">
			<stop  offset="0" style="stop-color:#FFC033"/>
			<stop  offset="1" style="stop-color:#E5962E"/>
		</linearGradient>
		<circle style="fill:url(#SVGID_00000092452887141170981030000011187886433878127236_);" cx="90.4" cy="90.4" r="23.6"/>
		<path class="st12" d="M128.8,112.7l-1.9-0.8l2.3-5.1l0.2-0.4c0.1-0.1,0.1-0.3,0.2-0.4l0.2-0.5l0.2-0.4l-0.1,0.1l-0.2,0.1l-0.3,0.1
			l-0.3,0.1l-1.4,0.3l-0.4-1.5l3.8-1l1.5,0.7L128.8,112.7z"/>
		<path class="st12" d="M138.9,106.7l2.7,1.2c1,0.4,1.8,1,2.5,1.8c0.4,0.6,0.4,1.4,0.1,2.1c-0.2,0.5-0.5,0.9-0.9,1.1
			s-0.9,0.3-1.3,0.1v0.1c0.4,0.3,0.8,0.7,0.9,1.2c0.1,0.5,0,1.1-0.2,1.5c-0.3,0.7-0.9,1.3-1.7,1.5c-0.9,0.2-1.8,0-2.7-0.4l-3.3-1.5
			L138.9,106.7z M139.2,111l1.1,0.5c0.4,0.2,0.8,0.3,1.2,0.3c0.3-0.1,0.6-0.3,0.7-0.6c0.2-0.3,0.2-0.6,0-0.9
			c-0.3-0.3-0.7-0.6-1.1-0.8l-1-0.4L139.2,111z M138.6,112.5l-1,2.3l1.2,0.6c0.4,0.2,0.8,0.3,1.3,0.2c0.4-0.1,0.6-0.4,0.8-0.7
			c0.3-0.7,0-1.3-1.1-1.8L138.6,112.5z"/>
		<path class="st12" d="M146.4,120.7l-1.9-0.8l3.3-7.2l-2.4-1.1l0.7-1.6l6.6,3l-0.7,1.6l-2.4-1.1L146.4,120.7z"/>
		<path class="st12" d="M157.1,116.6c-0.6-0.3-1.4-0.3-2,0.1c-0.7,0.5-1.3,1.1-1.6,1.9c-0.9,2-0.6,3.3,0.9,3.9
			c0.8,0.3,1.6,0.5,2.4,0.6l-0.7,1.6c-0.9,0-1.8-0.3-2.6-0.6c-1.1-0.4-2-1.3-2.4-2.5c-0.3-1.3-0.1-2.6,0.5-3.8
			c0.4-0.8,0.9-1.6,1.6-2.2c0.6-0.5,1.4-0.8,2.1-0.9c0.8-0.1,1.7,0.1,2.4,0.4c0.9,0.4,1.7,1,2.3,1.8l-1.3,1.2
			c-0.3-0.3-0.5-0.6-0.8-0.9C157.8,117,157.5,116.8,157.1,116.6z"/>
		<path class="st12" d="M118.4,20.3c0.6,0.2,1,0.7,1.2,1.3c0.2,0.7,0.1,1.5-0.1,2.2l1.2,0.5l-0.4,0.8l-1.2-0.5
			c-0.4,0.9-0.9,1.7-1.6,2.3l-1.6-0.7c0.4-0.3,0.7-0.6,1-1s0.6-0.8,0.8-1.2l-1.9-0.8l-0.3,0.3c-0.5,0.5-1.1,1-1.7,1.2
			c-0.5,0.2-1.1,0.1-1.6-0.1c-0.6-0.2-1-0.7-1.1-1.3c-0.2-0.7-0.1-1.5,0.1-2.2l-0.8-0.2l0.4-0.8l0.9,0.4c0.4-0.9,0.9-1.6,1.6-2.3
			l1.2,1.2c-0.5,0.5-0.9,1.1-1.3,1.7l1.8,0.8c0.5-0.5,1-0.9,1.5-1.3c0.3-0.2,0.6-0.3,1-0.4C117.7,20.1,118.1,20.1,118.4,20.3z
			 M113.1,22.9c0.2,0.1,0.4,0.1,0.5,0c0.2-0.1,0.4-0.3,0.6-0.4l-1.4-0.6C112.6,22.5,112.7,22.8,113.1,22.9z M117.7,22.1
			c-0.2-0.1-0.4-0.1-0.5,0c-0.2,0.1-0.4,0.3-0.6,0.5l1.5,0.7C118.2,22.7,118.1,22.3,117.7,22.1z"/>
		<path class="st12" d="M108.7,49.9l-0.8,1.8l-5.1-2.2l-0.4-0.2l-0.4-0.2l-0.5-0.2l-0.4-0.2c0,0,0,0.1,0.1,0.2
			c0,0.1,0.1,0.1,0.1,0.2s0.1,0.2,0.1,0.3s0.1,0.2,0.1,0.3l0.4,1.4l-1.5,0.4l-1-3.8l0.7-1.5L108.7,49.9z"/>
		<path class="st12" d="M107.6,40.3c0.6,0.3,1.2,0.6,1.8,1c0.5,0.3,0.9,0.7,1.2,1.1c0.3,0.4,0.4,0.8,0.5,1.3c0,0.5-0.1,1-0.3,1.5
			c-0.2,0.5-0.5,0.9-0.9,1.2s-0.8,0.5-1.3,0.6s-1.1,0.1-1.7-0.1c-0.7-0.1-1.4-0.4-2-0.6c-0.6-0.3-1.3-0.6-1.8-1
			c-0.5-0.3-0.9-0.7-1.2-1.1c-0.3-0.4-0.4-0.8-0.5-1.3c0-0.5,0.1-1,0.3-1.5c0.2-0.5,0.5-0.9,0.9-1.2s0.8-0.5,1.3-0.6
			c0.6-0.1,1.1-0.1,1.7,0C106.3,39.8,106.9,40,107.6,40.3z M105.8,44.5c0.7,0.4,1.5,0.6,2.4,0.7c0.5,0.1,0.9-0.1,1.1-0.6
			c0.2-0.4,0-1-0.4-1.2c-0.6-0.5-1.4-0.9-2.2-1.2c-0.7-0.4-1.6-0.6-2.4-0.7c-0.5-0.1-1,0.1-1.2,0.6c-0.1,0.2-0.1,0.4,0,0.6
			c0.1,0.2,0.2,0.4,0.4,0.6c0.3,0.2,0.5,0.4,0.9,0.6C104.9,44.1,105.3,44.3,105.8,44.5L105.8,44.5z"/>
		<path class="st12" d="M110.5,33.6c0.6,0.3,1.2,0.6,1.8,1c0.5,0.3,0.9,0.7,1.2,1.1c0.3,0.4,0.4,0.8,0.5,1.3c0,0.5-0.1,1-0.3,1.5
			c-0.2,0.5-0.5,0.9-0.9,1.2s-0.8,0.5-1.3,0.5c-0.5,0.1-1.1,0.1-1.7,0c-0.7-0.1-1.4-0.4-2-0.6c-0.6-0.3-1.3-0.6-1.8-1
			c-0.5-0.3-0.9-0.7-1.2-1.1c-0.3-0.4-0.5-0.8-0.5-1.3s0.1-1,0.3-1.5c0.2-0.5,0.5-0.9,0.9-1.2c0.4-0.3,0.8-0.5,1.3-0.6
			c0.6-0.1,1.1-0.1,1.7,0C109.2,33.1,109.8,33.3,110.5,33.6z M108.7,37.7c0.7,0.4,1.5,0.6,2.4,0.7c0.5,0.1,1.1-0.2,1.2-0.8
			c0.1-0.4-0.1-0.8-0.4-1c-0.6-0.5-1.4-0.9-2.2-1.2c-0.8-0.4-1.6-0.6-2.4-0.7c-0.5-0.1-0.9,0.1-1.1,0.6c-0.1,0.2-0.1,0.4,0,0.6
			s0.2,0.4,0.4,0.6c0.3,0.2,0.5,0.4,0.9,0.6C107.8,37.3,108.3,37.5,108.7,37.7z"/>
		<path class="st12" d="M113.4,26.8c0.6,0.3,1.2,0.6,1.8,1c0.5,0.3,0.9,0.7,1.2,1.1c0.3,0.4,0.4,0.9,0.5,1.4c0,0.5-0.1,1-0.3,1.5
			c-0.2,0.5-0.5,0.9-0.9,1.2c-0.4,0.3-0.8,0.5-1.3,0.6c-0.5,0.1-1.1,0.1-1.7-0.1c-0.7-0.1-1.4-0.4-2-0.6c-0.6-0.3-1.3-0.6-1.8-1
			c-0.5-0.3-0.9-0.7-1.2-1.1c-0.3-0.4-0.4-0.8-0.5-1.3c0-0.5,0.1-1,0.3-1.5c0.2-0.5,0.5-0.9,0.9-1.2c0.4-0.3,0.8-0.5,1.3-0.6
			c0.6-0.1,1.1-0.1,1.7,0C112.1,26.3,112.8,26.5,113.4,26.8z M111.6,31c0.7,0.4,1.5,0.6,2.4,0.7c0.5,0.1,0.9-0.1,1.1-0.6
			c0.2-0.4,0-1-0.4-1.2c-0.6-0.5-1.4-0.9-2.2-1.2c-0.7-0.4-1.6-0.6-2.4-0.7c-0.5-0.1-0.9,0.1-1.1,0.6c-0.1,0.2-0.1,0.4,0,0.6
			s0.2,0.4,0.4,0.6c0.3,0.2,0.5,0.4,0.9,0.6C110.7,30.5,111.1,30.7,111.6,31z"/>
		<path class="st12" d="M104.5,124.7c0.2,0.4,0.2,0.8,0.3,1.2c0,0.4,0,0.8-0.2,1.1c-0.1,0.4-0.4,0.7-0.7,1c-0.3,0.3-0.7,0.6-1.2,0.7
			c-0.5,0.2-1,0.3-1.5,0.3s-0.9-0.1-1.3-0.3s-0.8-0.5-1.1-0.9c-0.4-0.4-0.7-1-0.9-1.5c-0.1-0.2-0.2-0.5-0.2-0.7
			c-0.1-0.2-0.1-0.5-0.2-0.7c0-0.2-0.1-0.4-0.1-0.7c0-0.2,0-0.4,0-0.6l1.7-0.7c0,0.2,0,0.4,0,0.6s0,0.5,0,0.7s0.1,0.5,0.1,0.7
			s0.1,0.4,0.2,0.6c0.2,0.5,0.5,0.9,0.9,1.2c0.4,0.2,0.9,0.2,1.3,0c0.4-0.1,0.7-0.5,0.9-0.9c0.1-0.5,0-1-0.2-1.5
			c-0.1-0.1-0.1-0.2-0.2-0.3c-0.1-0.1-0.1-0.2-0.2-0.3c-0.1-0.1-0.1-0.2-0.2-0.3c-0.1-0.1-0.1-0.2-0.2-0.3l0.1-1l5-1.6l2,5l-1.7,0.7
			l-1.3-3.2l-1.9,0.6c0.1,0.1,0.2,0.3,0.3,0.4C104.3,124.2,104.4,124.4,104.5,124.7z"/>
		<path class="st12" d="M107.3,135.5c-0.7,0.3-1.4,0.5-2.1,0.6c-0.6,0.1-1.2,0.1-1.8,0c-0.5-0.1-1-0.3-1.4-0.6
			c-0.4-0.4-0.7-0.8-0.9-1.4c-0.2-0.5-0.3-1-0.2-1.6c0.1-0.5,0.3-1,0.6-1.4c0.4-0.5,0.8-0.9,1.3-1.2c0.6-0.4,1.3-0.7,2-1
			s1.4-0.5,2.1-0.6c0.6-0.1,1.2-0.1,1.8,0c0.5,0.1,1,0.3,1.3,0.7c0.4,0.4,0.7,0.8,0.9,1.4c0.2,0.5,0.3,1,0.2,1.6
			c-0.1,0.5-0.3,1-0.6,1.4c-0.4,0.5-0.8,0.9-1.3,1.2C108.7,134.9,108,135.2,107.3,135.5z M105.5,131c-0.8,0.3-1.6,0.7-2.3,1.2
			c-0.4,0.3-0.6,0.8-0.4,1.3s0.7,0.7,1.2,0.6c0.9-0.1,1.7-0.3,2.6-0.7c0.8-0.3,1.6-0.7,2.3-1.3c0.4-0.3,0.6-0.8,0.4-1.3
			c-0.1-0.2-0.2-0.4-0.4-0.5c-0.2-0.1-0.5-0.2-0.8-0.1c-0.4,0-0.7,0.1-1.1,0.2C106.6,130.6,106.1,130.8,105.5,131z"/>
		<path class="st12" d="M110.2,142.8c-0.7,0.3-1.4,0.5-2.1,0.6c-0.6,0.1-1.2,0.1-1.8,0c-0.5-0.1-1-0.3-1.4-0.6
			c-0.4-0.4-0.7-0.8-0.9-1.4c-0.2-0.5-0.3-1-0.2-1.6c0.1-0.5,0.3-1,0.6-1.4c0.4-0.5,0.8-0.9,1.3-1.2c0.6-0.4,1.3-0.7,2-1
			s1.4-0.5,2.1-0.6c0.6-0.1,1.2-0.1,1.8,0c0.5,0.1,1,0.3,1.4,0.6c0.8,0.7,1.2,1.8,1.2,2.9c-0.1,0.5-0.3,1-0.6,1.4
			c-0.4,0.5-0.8,0.9-1.3,1.2C111.6,142.2,110.9,142.5,110.2,142.8z M108.4,138.3c-0.8,0.3-1.6,0.7-2.3,1.2c-0.4,0.3-0.6,0.8-0.4,1.3
			s0.7,0.7,1.2,0.6c1.8-0.3,3.4-0.9,4.9-2c0.4-0.3,0.6-0.8,0.4-1.3c-0.1-0.2-0.2-0.4-0.4-0.5c-0.2-0.1-0.5-0.2-0.8-0.1
			c-0.4,0-0.7,0.1-1.1,0.2C109.4,137.9,108.9,138.1,108.4,138.3z"/>
		<g>
			<path class="st12" d="M14.6,121.2l0.7,1.7l-1,0.4l-1.7-4.5l1.3-0.5c0.5-0.2,1-0.3,1.5-0.2c0.4,0.1,0.7,0.4,0.8,0.8
				c0.1,0.3,0.1,0.5,0.1,0.8c-0.1,0.3-0.2,0.5-0.4,0.7l2.1,1.4l-1.1,0.4l-1.7-1.3L14.6,121.2z M14.3,120.4l0.3-0.1
				c0.2-0.1,0.5-0.2,0.6-0.4c0.1-0.2,0.1-0.4,0-0.6s-0.2-0.3-0.4-0.4c-0.3,0-0.5,0-0.7,0.1l-0.3,0.1L14.3,120.4z"/>
			<path class="st12" d="M21.2,120.6l-0.8-0.9l-1.6,0.7l0.1,1.2l-1,0.4l-0.2-5.1l1.2-0.5l3.3,3.9L21.2,120.6z M19.9,118.9l-1.2-1.4
				c-0.1-0.1-0.2-0.2-0.2-0.3c0,0.3,0.1,1,0.2,2.2L19.9,118.9z"/>
			<path class="st12" d="M26.4,118.5l-1.1,0.4l-1.9-1.4l-0.3,0.4l0.6,1.6l-1,0.4l-1.8-4.5l1-0.4l0.8,2l0.2-0.7l0.6-2l1-0.4l-0.8,2.6
				L26.4,118.5z"/>
			<path class="st12" d="M29.6,117.3l-2.6,1l-1.8-4.5l2.6-1l0.3,0.8l-1.6,0.6l0.4,1l1.5-0.6l0.3,0.8l-1.5,0.6l0.4,1.1l1.6-0.6
				L29.6,117.3z"/>
			<path class="st12" d="M28.7,112.5l1.4-0.6c0.5-0.2,1-0.3,1.5-0.3c0.4,0.1,0.7,0.3,0.8,0.7c0.1,0.2,0.1,0.5,0.1,0.7
				c-0.1,0.2-0.2,0.4-0.4,0.5l0,0c0.3-0.1,0.5,0,0.8,0.1c0.2,0.2,0.4,0.4,0.5,0.6c0.2,0.4,0.1,0.8-0.1,1.1c-0.3,0.4-0.6,0.7-1.1,0.8
				l-1.7,0.7L28.7,112.5z M30.4,113.9l0.5-0.2c0.2-0.1,0.4-0.2,0.5-0.3c0.1-0.1,0.1-0.3,0-0.5c0-0.2-0.2-0.3-0.3-0.3
				c-0.2,0-0.4,0-0.6,0.1l-0.5,0.2L30.4,113.9z M30.7,114.6l0.5,1.2l0.6-0.2c0.2-0.1,0.4-0.2,0.5-0.4c0.1-0.2,0.1-0.4,0-0.5
				c-0.2-0.4-0.5-0.5-1-0.2L30.7,114.6z"/>
			<path class="st12" d="M37.4,114.2l-0.7-0.9l-1.6,0.6l0.1,1.2l-1,0.4l-0.2-5.1l1.2-0.4l3.4,3.9L37.4,114.2z M36.1,112.6l-1.2-1.4
				c-0.1-0.1-0.1-0.2-0.2-0.3c0,0.3,0.1,1,0.2,2.2L36.1,112.6z"/>
			<path class="st12" d="M39.3,109.1c-0.3,0.1-0.6,0.4-0.7,0.7c-0.1,0.4,0,0.9,0.2,1.2c0.4,1,1,1.4,1.7,1.1c0.4-0.2,0.7-0.4,1-0.7
				l0.3,0.8c-0.3,0.3-0.7,0.6-1.2,0.7c-0.5,0.3-1.2,0.3-1.7,0c-0.6-0.3-1-0.9-1.2-1.5c-0.2-0.4-0.3-0.9-0.2-1.3
				c0-0.4,0.2-0.8,0.4-1.1c0.3-0.3,0.6-0.6,1-0.7c0.5-0.2,1-0.2,1.4-0.2v0.9c-0.2,0-0.4,0-0.6,0C39.7,109,39.5,109.1,39.3,109.1z"/>
			<path class="st12" d="M46.6,110.6l-1.1,0.4l-1.9-1.4l-0.3,0.4l0.6,1.6l-1,0.4l-1.8-4.5l1-0.4l0.8,2l0.2-0.7l0.6-2l1-0.4l-0.8,2.6
				L46.6,110.6z"/>
			<path class="st12" d="M51.4,108.7l-3,1.2l-0.3-0.7l0.6-1.6c0.1-0.2,0.1-0.4,0.2-0.5c0.1-0.1,0.1-0.3,0.2-0.5c0-0.1,0-0.3,0-0.4
				s0-0.3-0.1-0.4c0-0.1-0.1-0.2-0.3-0.3c-0.1-0.1-0.3-0.1-0.4,0c-0.2,0.1-0.3,0.2-0.4,0.3c-0.1,0.2-0.2,0.3-0.3,0.5l-0.8-0.4
				c0.1-0.1,0.1-0.2,0.2-0.4c0.1-0.1,0.2-0.2,0.2-0.3c0.1-0.1,0.2-0.2,0.3-0.3c0.1-0.1,0.3-0.2,0.5-0.2c0.2-0.1,0.4-0.1,0.6-0.1
				c0.2,0,0.4,0,0.5,0.1c0.2,0.1,0.3,0.2,0.4,0.3c0.1,0.1,0.2,0.3,0.3,0.5s0.1,0.4,0.1,0.6s0,0.4-0.1,0.6c0,0.2-0.1,0.4-0.2,0.6
				c-0.1,0.2-0.2,0.4-0.3,0.6l-0.3,0.8l0,0l1.8-0.7L51.4,108.7z"/>
			<path class="st12" d="M54,105.1c0.1,0.3,0.2,0.7,0.3,1c0,0.3,0,0.6,0,0.8c0,0.2-0.2,0.5-0.3,0.6c-0.2,0.2-0.4,0.4-0.6,0.4
				c-0.2,0.1-0.5,0.1-0.7,0.1s-0.5-0.1-0.7-0.3c-0.2-0.2-0.4-0.4-0.6-0.6c-0.2-0.3-0.4-0.6-0.5-0.9s-0.2-0.7-0.3-1
				c0-0.3,0-0.6,0-0.8c0-0.2,0.1-0.5,0.3-0.7s0.4-0.3,0.6-0.4c0.2-0.1,0.5-0.1,0.7-0.1s0.5,0.1,0.7,0.3c0.2,0.2,0.4,0.4,0.6,0.6
				C53.7,104.5,53.9,104.8,54,105.1z M51.9,106c0.1,0.4,0.3,0.8,0.6,1.1c0.1,0.2,0.4,0.3,0.6,0.2c0.2-0.1,0.3-0.3,0.3-0.6
				c0-0.4-0.2-0.8-0.3-1.2c-0.1-0.4-0.3-0.8-0.6-1.1c-0.1-0.2-0.4-0.3-0.6-0.2c-0.1,0-0.2,0.1-0.2,0.2c-0.1,0.1-0.1,0.2-0.1,0.4
				c0,0.2,0,0.4,0.1,0.5C51.7,105.5,51.8,105.7,51.9,106z"/>
			<path class="st12" d="M56.4,103.5c0.1,0.2,0.1,0.3,0.1,0.5c0,0.1,0,0.3-0.1,0.4s-0.1,0.3-0.2,0.3c-0.1,0.1-0.3,0.2-0.4,0.3
				c-0.2,0.1-0.3,0.1-0.5,0.1c-0.1,0-0.3,0-0.4-0.1c-0.1-0.1-0.2-0.2-0.3-0.3c-0.1-0.1-0.2-0.3-0.2-0.5c-0.1-0.2-0.1-0.3-0.1-0.5
				c0-0.1,0-0.3,0-0.4c0.1-0.1,0.1-0.3,0.2-0.3c0.1-0.1,0.3-0.2,0.5-0.3c0.2-0.1,0.3-0.1,0.5-0.1c0.1,0,0.3,0,0.4,0.1
				c0.1,0.1,0.2,0.2,0.3,0.3C56.2,103.2,56.3,103.4,56.4,103.5z M55,104.1c0,0.1,0.1,0.2,0.2,0.3c0.1,0.1,0.2,0.1,0.3,0
				c0.1,0,0.2-0.1,0.2-0.2s0-0.3-0.1-0.4c-0.1-0.3-0.3-0.4-0.5-0.4c-0.1,0-0.2,0.1-0.2,0.2C54.9,103.8,54.9,103.9,55,104.1z
				 M58,101.7l-0.9,4.9l-0.7,0.3l0.9-4.9L58,101.7z M60.1,104.1c0.1,0.2,0.1,0.3,0.1,0.5c0,0.1,0,0.3-0.1,0.4s-0.1,0.3-0.2,0.3
				c-0.1,0.1-0.3,0.2-0.4,0.3c-0.2,0.1-0.3,0.1-0.5,0.1c-0.1,0-0.3,0-0.4-0.1c-0.1-0.1-0.2-0.2-0.3-0.3c-0.1-0.1-0.2-0.3-0.3-0.4
				c-0.1-0.2-0.1-0.3-0.1-0.5c0-0.1,0-0.3,0-0.4c0.1-0.1,0.1-0.3,0.2-0.3c0.1-0.1,0.3-0.2,0.5-0.3c0.2-0.1,0.3-0.1,0.5-0.1
				c0.1,0,0.3,0,0.4,0.1c0.1,0.1,0.3,0.2,0.4,0.3C59.9,103.8,60,103.9,60.1,104.1L60.1,104.1z M58.7,104.6c0,0.1,0.1,0.3,0.2,0.3
				c0.1,0.1,0.2,0.1,0.3,0c0.1,0,0.2-0.1,0.2-0.2s0-0.3-0.1-0.4c-0.1-0.3-0.3-0.5-0.5-0.4c-0.1,0-0.2,0.1-0.2,0.2
				C58.6,104.4,58.6,104.5,58.7,104.6L58.7,104.6z"/>
		</g>
		<g>
			<path class="st12" d="M67.2,20.8l0.8,1.8l-2.4,1c-0.2-0.3-0.4-0.5-0.6-0.8c-0.1-0.2-0.3-0.5-0.4-0.8c-0.3-0.7-0.3-1.3,0-1.9
				c0.3-0.5,0.8-1,1.5-1.3c0.7-0.3,1.4-0.3,2-0.1c0.6,0.3,1,0.8,1.4,1.5c0.2,0.5,0.3,1,0.3,1.5l-0.9,0c0-0.4,0-0.8-0.2-1.2
				c-0.2-0.4-0.5-0.7-0.8-0.8c-0.4-0.1-0.8-0.1-1.3,0.1c-0.5,0.2-0.8,0.5-1,0.8c-0.2,0.3-0.2,0.7,0,1.1c0.1,0.2,0.2,0.4,0.3,0.6
				l1-0.4l-0.4-0.9L67.2,20.8z"/>
			<path class="st12" d="M69.9,28c-0.8,0.3-1.4,0.4-2,0.2c-0.6-0.2-1-0.7-1.3-1.4c-0.3-0.7-0.3-1.3-0.1-1.9c0.3-0.5,0.8-1,1.5-1.3
				s1.4-0.4,2-0.2c0.6,0.2,1,0.7,1.3,1.4c0.3,0.7,0.3,1.3,0.1,1.9C71.2,27.3,70.7,27.7,69.9,28z M68.5,24.7c-0.5,0.2-0.9,0.5-1,0.8
				c-0.2,0.3-0.2,0.7,0,1c0.3,0.8,1,1,2,0.5c1-0.4,1.4-1,1.1-1.8c-0.2-0.4-0.4-0.6-0.8-0.7C69.4,24.4,69,24.5,68.5,24.7z"/>
			<path class="st12" d="M68,30l4.6-1.9l0.4,1l-3.8,1.6l0.8,1.9l-0.8,0.3L68,30z"/>
			<path class="st12" d="M73.4,36.5c-0.8,0.3-1.4,0.3-2,0.1c-0.6-0.3-1-0.8-1.4-1.6l-0.5-1.3l4.6-1.9l0.6,1.4c0.3,0.8,0.4,1.4,0.1,2
				C74.6,35.7,74.2,36.2,73.4,36.5z M73,35.5c1-0.4,1.3-1.1,0.9-1.9L73.7,33l-3,1.2l0.2,0.4C71.3,35.6,72,35.9,73,35.5z"/>
			<path class="st12" d="M72.6,41.1l-1.1-2.7l4.6-1.9l1.1,2.7l-0.8,0.3l-0.7-1.7l-1,0.4l0.6,1.6l-0.8,0.3l-0.6-1.6L72.7,39l0.7,1.7
				L72.6,41.1z"/>
			<path class="st12" d="M74.7,46.1l-0.5-1.2l2.7-3.5l0,0c-0.6,0.3-1,0.5-1.3,0.6l-2.2,0.9L73,42l4.6-1.9l0.5,1.2l-2.6,3.4l0,0
				c0.6-0.3,1-0.5,1.3-0.6l2.2-0.9l0.4,0.9L74.7,46.1z"/>
			<path class="st12" d="M76.3,49.9l-1.1-2.7l4.6-1.9l1.1,2.7l-0.8,0.3l-0.7-1.7l-1,0.4l0.6,1.6L78.2,49l-0.6-1.6l-1.2,0.5l0.7,1.7
				L76.3,49.9z"/>
			<path class="st12" d="M55.4,18c-0.4,0.2-0.8,0.2-1.2,0c-0.4-0.2-0.7-0.6-0.9-1.1c-0.2-0.5-0.3-1-0.3-1.4l0.9-0.4
				c0,0.4,0,0.7,0,0.9s0.1,0.4,0.2,0.6c0.1,0.2,0.2,0.4,0.3,0.4c0.1,0.1,0.3,0.1,0.4,0c0.1,0,0.2-0.1,0.2-0.2c0-0.1,0.1-0.2,0.1-0.3
				c0-0.1,0-0.4,0.1-0.7c0-0.3,0.1-0.6,0.1-0.8c0.1-0.2,0.2-0.4,0.3-0.5c0.1-0.2,0.3-0.3,0.5-0.4c0.4-0.2,0.8-0.2,1.1,0
				c0.3,0.2,0.6,0.5,0.8,1c0.1,0.2,0.2,0.5,0.2,0.7c0,0.2,0,0.5,0,0.8l-0.9,0c0-0.3,0-0.5,0-0.7c0-0.2-0.1-0.3-0.1-0.5
				c-0.1-0.2-0.2-0.3-0.3-0.4c-0.1-0.1-0.3-0.1-0.4,0c-0.1,0-0.2,0.1-0.2,0.2c0,0.1-0.1,0.2-0.1,0.3c0,0.1,0,0.4-0.1,0.8
				c0,0.5-0.1,0.9-0.3,1.1C55.9,17.7,55.7,17.9,55.4,18z"/>
			<path class="st12" d="M59.2,19.8c-0.2-0.4-0.4-0.6-0.8-0.7c-0.4-0.1-0.8,0-1.3,0.2c-1,0.4-1.4,1-1.1,1.8c0.1,0.3,0.4,0.7,0.7,1.1
				L56,22.5c-0.3-0.3-0.6-0.7-0.8-1.2c-0.3-0.7-0.3-1.3,0-1.8c0.3-0.5,0.8-0.9,1.5-1.3c0.5-0.2,0.9-0.3,1.4-0.3
				c0.4,0,0.8,0.2,1.1,0.4c0.3,0.2,0.6,0.6,0.8,1c0.2,0.4,0.3,0.9,0.2,1.5l-0.9,0c0-0.2,0-0.4,0-0.6C59.3,20.1,59.2,19.9,59.2,19.8z
				"/>
			<path class="st12" d="M57.8,27.3l-0.4-1l2-0.8l-0.8-1.8l-2,0.8l-0.4-1l4.6-1.9l0.4,1l-1.8,0.8l0.8,1.8l1.8-0.8l0.4,1L57.8,27.3z"
				/>
			<path class="st12" d="M59.4,31.3l1-0.8l-0.7-1.7l-1.2,0.1L58,27.9l5.3-0.3l0.5,1.2l-4,3.6L59.4,31.3z M61.1,29.9
				c0.9-0.7,1.4-1.1,1.5-1.2c0.1-0.1,0.2-0.2,0.3-0.2c-0.3,0-1,0.1-2.2,0.2L61.1,29.9z"/>
			<path class="st12" d="M60.8,34.5l-0.4-1l3.8-1.6l-0.5-1.3l0.8-0.3l1.4,3.5l-0.8,0.3l-0.5-1.3L60.8,34.5z"/>
			<path class="st12" d="M62.8,39.5L61.4,36l0.6-0.3l4.1,0.9l-0.9-2.2l0.8-0.3l1.4,3.3l-0.6,0.3l-4.1-0.9l0.9,2.3L62.8,39.5z"/>
			<path class="st12" d="M63.9,42l-0.4-1l3.8-1.6l-0.5-1.3l0.8-0.3l1.4,3.5l-0.8,0.3l-0.5-1.3L63.9,42z"/>
			<path class="st12" d="M66.9,44.2l-1.8,0.7l-0.4-1l4.6-1.9l0.6,1.3c0.3,0.6,0.3,1.1,0.2,1.5s-0.4,0.7-0.9,0.9
				c-0.3,0.1-0.5,0.1-0.8,0.1c-0.3-0.1-0.5-0.2-0.8-0.4l-1.4,2.2l-0.5-1.1l1.3-1.8L66.9,44.2z M67.7,43.8l0.1,0.3
				c0.1,0.3,0.3,0.5,0.4,0.6c0.2,0.1,0.4,0.1,0.6,0c0.2-0.1,0.3-0.2,0.4-0.4c0-0.2,0-0.4-0.2-0.8l-0.1-0.3L67.7,43.8z"/>
			<path class="st12" d="M72.6,50l-3,1.2c-0.3,0.1-0.7,0.2-1,0.1c-0.3,0-0.6-0.2-0.9-0.4c-0.3-0.2-0.5-0.5-0.6-0.9
				c-0.2-0.6-0.3-1.1-0.1-1.6c0.2-0.5,0.5-0.8,1-1l3-1.2l0.4,1l-2.8,1.2c-0.4,0.1-0.6,0.3-0.7,0.5c-0.1,0.2-0.1,0.5,0,0.8
				c0.1,0.3,0.3,0.5,0.5,0.6c0.2,0.1,0.5,0,0.9-0.1l2.8-1.2L72.6,50z"/>
			<path class="st12" d="M70.1,56.9l-0.4-1l2-0.8l-0.8-1.8l-2,0.8l-0.4-1l4.6-1.9l0.4,1l-1.8,0.8l0.8,1.8l1.8-0.8l0.4,1L70.1,56.9z"
				/>
			<path class="st12" d="M71.7,60.7L70.6,58l4.6-1.9l1.1,2.7l-0.8,0.3l-0.7-1.7l-1,0.4l0.6,1.6l-0.8,0.3L73,58.2l-1.2,0.5l0.7,1.7
				L71.7,60.7z"/>
		</g>
		<g>
			<path class="st12" d="M107.8,55.3l0.5-1.2c0.2-0.6,0.5-0.9,0.8-1.1c0.3-0.2,0.6-0.2,0.9-0.1c0.2,0.1,0.4,0.2,0.5,0.4
				c0.1,0.2,0.1,0.4,0.1,0.6l0,0c0.2-0.2,0.3-0.4,0.5-0.4c0.2,0,0.4,0,0.7,0.1c0.4,0.2,0.6,0.4,0.7,0.7c0.1,0.3,0,0.7-0.1,1.2
				l-0.6,1.5L107.8,55.3z M109.7,55.1l0.2-0.5c0.1-0.2,0.1-0.4,0.1-0.5c0-0.1-0.1-0.2-0.3-0.3c-0.2-0.1-0.3-0.1-0.4,0
				c-0.1,0.1-0.2,0.2-0.3,0.5l-0.2,0.4L109.7,55.1z M110.4,55.4l1,0.4l0.2-0.5c0.1-0.2,0.1-0.4,0.1-0.6c0-0.1-0.2-0.3-0.3-0.3
				c-0.3-0.1-0.6,0-0.8,0.5L110.4,55.4z"/>
			<path class="st12" d="M114.3,51l-1,2.3l-3.9-1.7l1-2.3l0.7,0.3l-0.6,1.4l0.9,0.4l0.6-1.3l0.7,0.3l-0.6,1.3l1,0.4l0.6-1.4
				L114.3,51z"/>
			<path class="st12" d="M114.6,50.2l-3.9-1.7l0.4-0.8l3.3,1.4l0.7-1.6l0.7,0.3L114.6,50.2z"/>
			<path class="st12" d="M115.4,42.7c0.7,0.3,1.1,0.6,1.3,1.1c0.2,0.5,0.2,1-0.1,1.6s-0.6,1-1.1,1.2c-0.5,0.2-1.1,0.1-1.7-0.2
				c-0.7-0.3-1.1-0.7-1.3-1.1c-0.2-0.5-0.2-1,0.1-1.6s0.6-1,1.1-1.2C114.2,42.4,114.8,42.4,115.4,42.7z M114.2,45.6
				c0.4,0.2,0.8,0.2,1.1,0.2c0.3-0.1,0.5-0.3,0.7-0.6c0.3-0.7,0-1.2-0.9-1.6c-0.9-0.4-1.5-0.2-1.8,0.4c-0.1,0.3-0.1,0.6,0,0.9
				C113.5,45.1,113.8,45.4,114.2,45.6z"/>
			<path class="st12" d="M119.1,39.5l-0.4,0.8l-1.7-0.7l-0.7,1.6l1.7,0.7l-0.4,0.8l-3.9-1.7l0.4-0.8l1.5,0.7l0.7-1.6l-1.5-0.7
				l0.4-0.8L119.1,39.5z"/>
			<path class="st12" d="M121,35l-0.4,1.1l-3.7,0.5l0,0c0.5,0.2,0.9,0.3,1.1,0.4l1.9,0.8l-0.3,0.7l-3.9-1.7l0.4-1.1l3.7-0.5l0,0
				c-0.5-0.2-0.9-0.3-1.1-0.4l-1.9-0.8l0.3-0.8L121,35z"/>
			<path class="st12" d="M118.8,29.1l2.6,1.1c0.3,0.1,0.5,0.3,0.7,0.5c0.2,0.2,0.3,0.5,0.3,0.8c0,0.3-0.1,0.6-0.2,0.9
				c-0.2,0.5-0.5,0.8-0.9,1c-0.4,0.2-0.8,0.2-1.2,0l-2.5-1.1l0.4-0.8l2.4,1c0.3,0.1,0.6,0.2,0.7,0.1c0.2-0.1,0.4-0.2,0.5-0.5
				c0.1-0.3,0.1-0.5,0-0.7c-0.1-0.2-0.3-0.3-0.6-0.5l-2.4-1L118.8,29.1z"/>
			<path class="st12" d="M124.7,26.3l-0.4,1.1l-3.7,0.5l0,0c0.5,0.2,0.9,0.3,1.1,0.4l1.9,0.8l-0.3,0.7l-3.9-1.7l0.4-1.1l3.7-0.5l0,0
				c-0.5-0.2-0.9-0.3-1.1-0.4l-1.9-0.8l0.3-0.8L124.7,26.3z"/>
			<path class="st12" d="M123.5,22.9l0.7-1.6l2,0.9c0,0.3-0.1,0.6-0.1,0.8c-0.1,0.2-0.1,0.5-0.2,0.7c-0.3,0.6-0.6,1-1.1,1.1
				c-0.5,0.2-1.1,0.1-1.7-0.2c-0.6-0.3-1.1-0.7-1.3-1.2c-0.2-0.5-0.2-1.1,0.1-1.7c0.2-0.4,0.4-0.8,0.7-1.1l0.6,0.6
				c-0.3,0.2-0.5,0.5-0.6,0.8c-0.2,0.4-0.2,0.7,0,1c0.2,0.3,0.4,0.6,0.8,0.7c0.4,0.2,0.8,0.2,1.1,0.2c0.3-0.1,0.5-0.3,0.7-0.6
				c0.1-0.2,0.1-0.4,0.2-0.6l-0.8-0.3l-0.3,0.7L123.5,22.9z"/>
		</g>
	</g>
	<g>
		<path class="st12" d="M18.9,54l0.8,0.4l-3.1,3.3l-0.9-0.4l0.4-4.5l0.8,0.4l-0.3,2.7c0,0.2,0,0.3-0.1,0.5c0,0.2-0.1,0.3-0.1,0.4
			c0.1-0.2,0.3-0.4,0.6-0.8L18.9,54z"/>
		<path class="st12" d="M20.8,59.5l-2.3-1l1.7-3.9l2.3,1l-0.3,0.7l-1.4-0.6l-0.4,0.9l1.3,0.6l-0.3,0.7l-1.3-0.6l-0.4,1l1.4,0.6
			L20.8,59.5z"/>
		<path class="st12" d="M23.1,58.7l-0.7,1.5l-0.8-0.4l1.7-3.9l1.1,0.5c0.5,0.2,0.9,0.5,1.1,0.8c0.2,0.3,0.2,0.7,0,1.1
			c-0.1,0.2-0.3,0.4-0.5,0.5C24.8,59,24.6,59,24.3,59l0.4,2.2l-0.9-0.4l-0.3-1.9L23.1,58.7z M23.4,58.1l0.3,0.1
			c0.3,0.1,0.5,0.2,0.6,0.1c0.2,0,0.3-0.1,0.4-0.3c0.1-0.2,0.1-0.3,0-0.5c-0.1-0.1-0.3-0.3-0.5-0.4L23.8,57L23.4,58.1z"/>
		<path class="st12" d="M28,61.4c-0.2,0.4-0.4,0.6-0.8,0.7c-0.3,0.1-0.7,0-1.2-0.2c-0.4-0.2-0.8-0.4-1-0.7l0.3-0.8
			c0.2,0.2,0.4,0.4,0.6,0.5c0.2,0.1,0.3,0.2,0.5,0.3c0.2,0.1,0.3,0.1,0.5,0.1s0.2-0.1,0.3-0.2c0-0.1,0-0.2,0-0.2
			c0-0.1-0.1-0.2-0.1-0.3c-0.1-0.1-0.2-0.3-0.4-0.5c-0.2-0.2-0.3-0.4-0.4-0.6s-0.1-0.3-0.1-0.5s0-0.3,0.1-0.5
			c0.2-0.3,0.4-0.6,0.7-0.7c0.3-0.1,0.7-0.1,1.1,0.1c0.2,0.1,0.4,0.2,0.6,0.3c0.2,0.1,0.3,0.3,0.5,0.5l-0.6,0.5
			c-0.2-0.2-0.3-0.3-0.4-0.4c-0.1-0.1-0.2-0.2-0.4-0.2c-0.2-0.1-0.3-0.1-0.4,0c-0.1,0-0.2,0.1-0.3,0.2c0,0.1,0,0.1,0,0.2
			c0,0.1,0,0.1,0.1,0.2c0.1,0.1,0.2,0.3,0.4,0.5c0.3,0.3,0.5,0.6,0.5,0.9C28.1,60.9,28.1,61.2,28,61.4z"/>
		<path class="st12" d="M33.1,60.3L32,62.8c-0.1,0.3-0.3,0.5-0.5,0.7c-0.2,0.2-0.5,0.2-0.8,0.3c-0.3,0-0.6-0.1-0.9-0.2
			c-0.5-0.2-0.8-0.5-1-0.9c-0.2-0.4-0.1-0.8,0-1.2l1.1-2.5l0.8,0.4l-1.1,2.4c-0.1,0.3-0.2,0.6-0.1,0.7c0.1,0.2,0.2,0.4,0.5,0.5
			c0.3,0.1,0.5,0.1,0.7,0c0.2-0.1,0.3-0.3,0.5-0.6l1.1-2.4L33.1,60.3z"/>
		<path class="st12" d="M35.5,62.1c-0.3-0.1-0.6-0.1-0.9,0s-0.5,0.4-0.7,0.9c-0.4,0.9-0.2,1.5,0.4,1.7c0.3,0.1,0.6,0.2,1.1,0.2
			l-0.3,0.7c-0.4,0-0.8-0.1-1.2-0.3c-0.6-0.3-0.9-0.6-1.1-1.1c-0.1-0.5-0.1-1,0.2-1.7c0.2-0.4,0.4-0.7,0.7-1c0.3-0.2,0.6-0.4,1-0.4
			c0.4,0,0.7,0,1.1,0.2c0.4,0.2,0.7,0.4,1,0.8l-0.6,0.6c-0.1-0.1-0.2-0.3-0.4-0.4C35.8,62.2,35.6,62.2,35.5,62.1z"/>
		<path class="st12" d="M39.1,67.6l-0.8-0.4l0.7-1.7l-1.6-0.7l-0.7,1.7l-0.8-0.4l1.7-3.9l0.8,0.4l-0.7,1.5l1.6,0.7l0.7-1.5l0.8,0.4
			L39.1,67.6z"/>
		<path class="st12" d="M42.3,69l-2.3-1l1.7-3.9l2.3,1l-0.3,0.7l-1.4-0.6L41.9,66l1.3,0.6L43,67.3l-1.3-0.6l-0.4,1l1.4,0.6L42.3,69z
			"/>
		<path class="st12" d="M46.6,70.9l-1.1-0.5l-0.4-3.7l0,0c-0.2,0.5-0.3,0.9-0.4,1.1l-0.8,1.8l-0.7-0.3l1.7-3.9l1,0.5l0.4,3.7l0,0
			c0.2-0.5,0.3-0.9,0.4-1.1l0.8-1.9l0.7,0.3L46.6,70.9z"/>
		<path class="st12" d="M51.8,71.9c-0.2,0.4-0.4,0.6-0.8,0.7c-0.3,0.1-0.7,0-1.2-0.2c-0.4-0.2-0.8-0.4-1-0.7l0.3-0.8
			c0.2,0.2,0.4,0.4,0.6,0.5c0.2,0.1,0.3,0.2,0.5,0.3c0.2,0.1,0.3,0.1,0.5,0.1c0.1,0,0.2-0.1,0.3-0.2c0-0.1,0-0.2,0-0.2
			c0-0.1-0.1-0.2-0.1-0.3c-0.1-0.1-0.2-0.3-0.4-0.5c-0.2-0.2-0.3-0.4-0.4-0.6C50,69.9,50,69.7,50,69.6s0-0.3,0.1-0.5
			c0.2-0.3,0.4-0.6,0.7-0.7c0.3-0.1,0.7-0.1,1.1,0.1c0.2,0.1,0.4,0.2,0.5,0.3c0.2,0.1,0.3,0.3,0.5,0.5l-0.6,0.5
			c-0.2-0.2-0.3-0.3-0.4-0.4c-0.1-0.1-0.2-0.2-0.4-0.2c-0.2-0.1-0.3-0.1-0.4,0c-0.1,0-0.2,0.1-0.3,0.2c0,0.1,0,0.1,0,0.2
			c0,0.1,0,0.1,0.1,0.2c0.1,0.1,0.2,0.3,0.4,0.5c0.3,0.3,0.5,0.6,0.5,0.9C52,71.4,51.9,71.7,51.8,71.9z"/>
		<path class="st12" d="M53.5,74l-1.8-0.8l0.2-0.5l0.6,0l1.1-2.5l-0.4-0.4l0.2-0.5l1.8,0.8L55,70.5l-0.6,0l-1.1,2.5l0.4,0.4L53.5,74
			z"/>
		<path class="st12" d="M56.4,75.3l-2.3-1l1.7-3.9l2.3,1L57.9,72l-1.4-0.6l-0.4,0.9l1.3,0.6l-0.3,0.7l-1.3-0.6l-0.4,1l1.4,0.6
			L56.4,75.3z"/>
		<path class="st12" d="M17.4,65.9l-2.3-1l1.7-3.9l2.3,1l-0.3,0.7L17.4,62L17,62.9l1.3,0.6L18,64.2l-1.3-0.6l-0.4,1l1.4,0.6
			L17.4,65.9z"/>
		<path class="st12" d="M21,66.2c-0.2,0.4-0.4,0.6-0.8,0.7c-0.3,0.1-0.7,0-1.2-0.2c-0.4-0.2-0.8-0.4-1-0.7l0.3-0.8
			c0.2,0.2,0.4,0.4,0.6,0.5c0.2,0.1,0.3,0.2,0.5,0.3c0.2,0.1,0.3,0.1,0.5,0.1c0.1,0,0.2-0.1,0.3-0.2c0-0.1,0-0.2,0-0.2
			s-0.1-0.2-0.1-0.3c-0.1-0.1-0.2-0.3-0.4-0.5c-0.2-0.2-0.3-0.4-0.4-0.6c-0.1-0.2-0.1-0.3-0.1-0.5c0-0.2,0-0.3,0.1-0.5
			c0.2-0.3,0.4-0.6,0.7-0.7c0.3-0.1,0.7,0,1.1,0.1c0.2,0.1,0.4,0.2,0.6,0.3c0.2,0.1,0.3,0.3,0.5,0.5l-0.6,0.5
			c-0.2-0.2-0.3-0.3-0.4-0.4c-0.1-0.1-0.2-0.2-0.4-0.2c-0.2-0.1-0.3-0.1-0.4,0s-0.2,0.1-0.3,0.2c0,0.1,0,0.1,0,0.2s0,0.1,0.1,0.2
			s0.2,0.3,0.4,0.5c0.3,0.3,0.5,0.6,0.5,0.9C21.1,65.7,21.1,65.9,21,66.2z"/>
		<path class="st12" d="M26.1,69.8l-1.1-0.5l-0.4-3.7l0,0c-0.2,0.5-0.3,0.9-0.4,1.1l-0.8,1.8l-0.7-0.3l1.7-3.9l1,0.5l0.4,3.7l0,0
			c0.2-0.5,0.3-0.9,0.4-1.1l0.8-1.9l0.7,0.3L26.1,69.8z"/>
		<path class="st12" d="M31.5,69.8c-0.3,0.6-0.7,1.1-1.1,1.3c-0.5,0.2-1,0.2-1.6-0.1c-0.6-0.3-1-0.6-1.2-1.1
			c-0.2-0.5-0.1-1.1,0.2-1.7s0.7-1.1,1.1-1.3c0.5-0.2,1-0.2,1.6,0.1c0.6,0.3,1,0.6,1.2,1.1C31.9,68.6,31.8,69.1,31.5,69.8z
			 M28.7,68.5c-0.2,0.4-0.3,0.8-0.2,1.1c0.1,0.3,0.3,0.5,0.6,0.7c0.7,0.3,1.2,0,1.6-0.9c0.4-0.9,0.3-1.5-0.4-1.8
			c-0.3-0.1-0.6-0.1-0.9,0C29.1,67.8,28.9,68.1,28.7,68.5z"/>
		<path class="st12" d="M34.6,69.6c-0.3-0.1-0.6-0.1-0.9,0c-0.3,0.2-0.5,0.4-0.7,0.9c-0.4,0.9-0.3,1.5,0.4,1.7
			c0.3,0.1,0.6,0.2,1.1,0.2l-0.3,0.7c-0.4,0-0.8-0.1-1.2-0.3c-0.6-0.3-0.9-0.6-1.1-1.1c-0.1-0.5-0.1-1,0.2-1.7
			c0.2-0.4,0.4-0.7,0.7-1c0.3-0.2,0.6-0.4,1-0.4c0.3,0,0.7,0,1.1,0.2c0.4,0.2,0.7,0.4,1,0.8l-0.6,0.6c-0.1-0.1-0.2-0.3-0.4-0.4
			C34.9,69.7,34.7,69.6,34.6,69.6z"/>
		<path class="st12" d="M38.2,75.1l-0.8-0.4l0.7-1.7l-1.6-0.7L35.8,74L35,73.7l1.7-3.9l0.8,0.4l-0.7,1.5l1.6,0.7l0.7-1.5l0.8,0.4
			L38.2,75.1z"/>
		<path class="st12" d="M40.8,76.3l0.4-3.5l0,0c-0.2,0.6-0.4,1.1-0.5,1.3l-0.8,1.8l-0.7-0.3l1.7-3.9l1.1,0.5l-0.4,3.4l0,0L44,73
			l1.1,0.5l-1.7,3.9L42.6,77l0.8-1.9c0-0.1,0.1-0.2,0.1-0.3c0.1-0.1,0.2-0.4,0.4-0.9l0,0l-2.4,2.6L40.8,76.3z"/>
		<path class="st12" d="M46.8,78.9l0.1-1.1l-1.4-0.6L44.8,78l-0.9-0.4l3.1-3.3l1,0.4l-0.3,4.5L46.8,78.9z M47,77
			c0.1-1,0.2-1.5,0.2-1.6s0-0.2,0-0.3c-0.2,0.2-0.6,0.7-1.3,1.5L47,77z"/>
		<path class="st12" d="M48.1,79.5l1.7-3.9l0.8,0.4l-1.4,3.2l1.6,0.7l-0.3,0.7L48.1,79.5z"/>
	</g>
	<g>
		<path class="st12" d="M124,70.2l0.9-0.3l0,4.5l-0.9,0.3l-2.8-3.6l0.9-0.3l1.6,2.1c0.1,0.1,0.2,0.3,0.3,0.5
			c0.1,0.2,0.2,0.3,0.2,0.4c0-0.2-0.1-0.5-0.1-1L124,70.2z"/>
		<path class="st12" d="M129.1,72.9l-2.3,0.8l-1.4-4l2.3-0.8l0.2,0.7l-1.5,0.5l0.3,0.9l1.4-0.5l0.2,0.7l-1.4,0.5l0.4,1l1.5-0.5
			L129.1,72.9z"/>
		<path class="st12" d="M130.3,70.8l0.5,1.6l-0.9,0.3l-1.4-4l1.2-0.4c0.5-0.2,1-0.2,1.3-0.1c0.3,0.1,0.6,0.4,0.7,0.8
			c0.1,0.2,0.1,0.5,0,0.7c-0.1,0.2-0.2,0.4-0.4,0.6l1.8,1.3l-1,0.3l-1.5-1.2L130.3,70.8z M130,70.1l0.3-0.1c0.3-0.1,0.5-0.2,0.6-0.3
			s0.1-0.3,0-0.5c-0.1-0.2-0.2-0.3-0.3-0.3c-0.2,0-0.4,0-0.7,0.1l-0.3,0.1L130,70.1z"/>
		<path class="st12" d="M135.7,69.4c0.1,0.4,0.1,0.7-0.1,1c-0.2,0.3-0.5,0.5-1,0.7c-0.4,0.2-0.8,0.2-1.2,0.2l-0.3-0.8
			c0.3,0,0.6,0,0.8,0c0.2,0,0.4-0.1,0.5-0.1c0.2-0.1,0.3-0.2,0.4-0.3s0.1-0.2,0-0.4c0-0.1-0.1-0.1-0.1-0.2c-0.1,0-0.2-0.1-0.3-0.1
			c-0.1,0-0.3-0.1-0.6-0.1c-0.3,0-0.5-0.1-0.7-0.1c-0.2-0.1-0.3-0.2-0.4-0.3c-0.1-0.1-0.2-0.3-0.3-0.5c-0.1-0.4-0.1-0.7,0.1-1
			s0.5-0.5,0.9-0.7c0.2-0.1,0.4-0.1,0.6-0.1c0.2,0,0.4,0,0.7,0l0,0.8c-0.2,0-0.4,0-0.6,0c-0.2,0-0.3,0-0.4,0.1
			c-0.2,0.1-0.3,0.1-0.3,0.2s-0.1,0.2,0,0.3c0,0.1,0.1,0.1,0.1,0.2s0.1,0.1,0.2,0.1c0.1,0,0.3,0.1,0.6,0.1c0.4,0,0.8,0.1,1,0.3
			C135.4,68.9,135.6,69.1,135.7,69.4z"/>
		<path class="st12" d="M138.7,65l0.9,2.6c0.1,0.3,0.1,0.6,0.1,0.9c-0.1,0.3-0.2,0.5-0.4,0.7c-0.2,0.2-0.5,0.4-0.8,0.5
			c-0.5,0.2-1,0.2-1.4,0c-0.4-0.2-0.7-0.5-0.8-0.9l-0.9-2.6l0.9-0.3l0.9,2.5c0.1,0.3,0.3,0.5,0.4,0.6c0.2,0.1,0.4,0.1,0.7,0
			c0.3-0.1,0.5-0.2,0.5-0.4s0.1-0.4-0.1-0.8l-0.9-2.5L138.7,65z"/>
		<path class="st12" d="M141.6,64.7c-0.3,0.1-0.5,0.3-0.6,0.6s-0.1,0.7,0.1,1.1c0.3,0.9,0.8,1.2,1.5,1c0.3-0.1,0.6-0.3,1-0.6
			l0.3,0.7c-0.3,0.3-0.6,0.5-1,0.6c-0.6,0.2-1.1,0.2-1.5-0.1c-0.4-0.2-0.8-0.7-1-1.4c-0.1-0.4-0.2-0.8-0.2-1.2c0-0.4,0.2-0.7,0.4-1
			c0.2-0.3,0.5-0.5,0.9-0.6c0.4-0.1,0.8-0.2,1.3-0.1l0,0.8c-0.2,0-0.4,0-0.5,0C141.9,64.7,141.8,64.7,141.6,64.7z"/>
		<path class="st12" d="M148,66.3l-0.9,0.3l-0.6-1.7l-1.6,0.6l0.6,1.7l-0.9,0.3l-1.4-4l0.9-0.3l0.6,1.6l1.6-0.6l-0.6-1.6l0.9-0.3
			L148,66.3z"/>
		<path class="st12" d="M151.3,65.1l-2.3,0.8l-1.4-4l2.3-0.8l0.2,0.7l-1.5,0.5l0.3,0.9l1.4-0.5l0.2,0.7l-1.4,0.5l0.4,1l1.5-0.5
			L151.3,65.1z"/>
		<path class="st12" d="M155.8,63.6l-1.1,0.4l-2.8-2.4l0,0c0.2,0.5,0.4,0.9,0.5,1.1l0.7,1.9l-0.8,0.3l-1.4-4l1.1-0.4l2.8,2.4l0,0
			c-0.2-0.5-0.4-0.9-0.4-1.1l-0.7-1.9l0.8-0.3L155.8,63.6z"/>
		<path class="st12" d="M160.2,60.7c0.1,0.4,0.1,0.7-0.1,1c-0.2,0.3-0.5,0.5-1,0.7c-0.4,0.2-0.8,0.2-1.2,0.2l-0.3-0.8
			c0.3,0,0.6,0,0.8,0c0.2,0,0.4-0.1,0.5-0.1c0.2-0.1,0.3-0.2,0.4-0.3c0.1-0.1,0.1-0.2,0-0.4c0-0.1-0.1-0.1-0.1-0.2
			c-0.1,0-0.2-0.1-0.3-0.1c-0.1,0-0.3-0.1-0.6-0.1c-0.3,0-0.5-0.1-0.7-0.1c-0.2-0.1-0.3-0.2-0.4-0.3c-0.1-0.1-0.2-0.3-0.3-0.5
			c-0.1-0.4-0.1-0.7,0.1-1c0.2-0.3,0.5-0.5,0.9-0.7c0.2-0.1,0.4-0.1,0.6-0.1c0.2,0,0.4,0,0.7,0l0,0.8c-0.2,0-0.4,0-0.6,0
			c-0.2,0-0.3,0-0.4,0.1c-0.2,0.1-0.3,0.1-0.3,0.2c-0.1,0.1-0.1,0.2,0,0.3c0,0.1,0.1,0.1,0.1,0.2c0.1,0,0.1,0.1,0.2,0.1
			c0.1,0,0.3,0.1,0.6,0.1c0.4,0,0.8,0.1,1,0.3C160,60.3,160.2,60.5,160.2,60.7z"/>
		<path class="st12" d="M162.9,61.1l-1.8,0.6l-0.2-0.5l0.4-0.4l-0.9-2.6l-0.6-0.1l-0.2-0.5l1.8-0.6l0.2,0.5l-0.4,0.4l0.9,2.6
			l0.6,0.1L162.9,61.1z"/>
		<path class="st12" d="M165.9,60l-2.3,0.8l-1.4-4l2.3-0.8l0.2,0.7l-1.5,0.5l0.3,0.9l1.4-0.5l0.2,0.7l-1.4,0.5l0.4,1l1.5-0.5
			L165.9,60z"/>
		<path class="st12" d="M131,79.9l-2.3,0.8l-1.4-4l2.3-0.8l0.2,0.7l-1.5,0.5l0.3,0.9l1.4-0.5l0.2,0.7l-1.4,0.5l0.4,1l1.5-0.5
			L131,79.9z"/>
		<path class="st12" d="M133.9,77.6c0.1,0.4,0.1,0.7-0.1,1s-0.5,0.5-1,0.7c-0.4,0.2-0.8,0.2-1.2,0.2l-0.3-0.8c0.3,0,0.6,0,0.8,0
			c0.2,0,0.4-0.1,0.5-0.1c0.2-0.1,0.3-0.2,0.4-0.3s0.1-0.2,0-0.4c0-0.1-0.1-0.1-0.1-0.2c-0.1,0-0.2-0.1-0.3-0.1
			c-0.1,0-0.3-0.1-0.6-0.1c-0.3,0-0.5-0.1-0.7-0.1s-0.3-0.2-0.4-0.3c-0.1-0.1-0.2-0.3-0.3-0.5c-0.1-0.4-0.1-0.7,0.1-1
			c0.2-0.3,0.5-0.5,0.9-0.7c0.2-0.1,0.4-0.1,0.6-0.1c0.2,0,0.4,0,0.7,0l0,0.8c-0.2,0-0.4,0-0.6,0c-0.2,0-0.3,0-0.4,0.1
			c-0.2,0.1-0.3,0.1-0.3,0.2c-0.1,0.1-0.1,0.2,0,0.3c0,0.1,0.1,0.1,0.1,0.2c0.1,0,0.1,0.1,0.2,0.1c0.1,0,0.3,0.1,0.6,0.1
			c0.4,0,0.8,0.1,1,0.3C133.6,77.2,133.8,77.4,133.9,77.6z"/>
		<path class="st12" d="M140,76.7l-1.1,0.4l-2.8-2.4l0,0c0.2,0.5,0.4,0.9,0.5,1.1l0.7,1.9l-0.8,0.3l-1.4-4l1.1-0.4l2.8,2.4l0,0
			c-0.2-0.5-0.4-0.9-0.4-1.1l-0.7-1.9l0.8-0.3L140,76.7z"/>
		<path class="st12" d="M144,73.1c0.2,0.7,0.2,1.2,0,1.7c-0.2,0.5-0.6,0.8-1.2,1c-0.6,0.2-1.2,0.2-1.6,0s-0.8-0.7-1-1.4
			c-0.2-0.7-0.3-1.2,0-1.7c0.2-0.5,0.6-0.8,1.2-1s1.2-0.2,1.6,0C143.4,71.9,143.8,72.4,144,73.1z M141.1,74.1
			c0.2,0.5,0.4,0.8,0.6,0.9c0.3,0.2,0.5,0.2,0.9,0.1c0.7-0.2,0.9-0.8,0.5-1.7c-0.3-0.9-0.8-1.2-1.5-1c-0.3,0.1-0.6,0.3-0.6,0.6
			C140.9,73.3,140.9,73.6,141.1,74.1z"/>
		<path class="st12" d="M146.1,70.8c-0.3,0.1-0.5,0.3-0.6,0.6s-0.1,0.7,0.1,1.1c0.3,0.9,0.8,1.2,1.5,1c0.3-0.1,0.6-0.3,1-0.6
			l0.3,0.7c-0.3,0.3-0.6,0.5-1,0.6c-0.6,0.2-1.1,0.2-1.5-0.1c-0.4-0.2-0.8-0.7-1-1.4c-0.1-0.4-0.2-0.8-0.2-1.2c0-0.4,0.2-0.7,0.4-1
			c0.2-0.3,0.5-0.5,0.9-0.6c0.4-0.1,0.8-0.2,1.3-0.1l0,0.8c-0.2,0-0.4,0-0.5,0C146.4,70.7,146.2,70.7,146.1,70.8z"/>
		<path class="st12" d="M152.5,72.4l-0.9,0.3l-0.6-1.7l-1.6,0.6l0.6,1.7l-0.9,0.3l-1.4-4l0.9-0.3l0.6,1.6l1.6-0.6l-0.6-1.6l0.9-0.3
			L152.5,72.4z"/>
		<path class="st12" d="M155.2,71.4l-2.1-2.8l0,0c0.3,0.6,0.4,1.1,0.5,1.3l0.7,1.9l-0.8,0.3l-1.4-4l1.2-0.4l2,2.8l0,0l-0.1-3.4
			l1.2-0.4l1.4,4l-0.8,0.3l-0.7-1.9c0-0.1-0.1-0.2-0.1-0.3c0-0.1-0.1-0.4-0.3-1l0,0l0.1,3.5L155.2,71.4z"/>
		<path class="st12" d="M161.3,69.2l-0.6-0.9l-1.5,0.5l0,1.1l-0.9,0.3l0-4.6l1-0.4l2.9,3.6L161.3,69.2z M160.2,67.7
			c-0.6-0.8-0.9-1.2-1-1.3c-0.1-0.1-0.1-0.2-0.2-0.2c0,0.3,0.1,0.9,0.1,1.9L160.2,67.7z"/>
		<path class="st12" d="M162.7,68.7l-1.4-4l0.9-0.3l1.2,3.3l1.6-0.6l0.2,0.7L162.7,68.7z"/>
	</g>
</g>
<g>
	<path class="st12" d="M60.9,165.4c-0.2,0.3-0.4,0.5-0.5,0.7l-1.1-0.6c0.2-0.2,0.3-0.4,0.4-0.6c0.2-0.3,0.2-0.5,0.1-0.8
		c-0.1-0.2-0.4-0.5-0.7-0.7l-5.8-3.4l0.8-1.3l5.8,3.4c0.7,0.4,1.2,0.9,1.4,1.5C61.4,164.2,61.3,164.8,60.9,165.4z"/>
	<path class="st12" d="M63.3,157.1l-1.7-0.4l-1.3,2.2l1.2,1.3l-0.8,1.4l-4.9-5.8l0.9-1.6l7.5,1.4L63.3,157.1z M60.3,156.3
		c-1.6-0.4-2.5-0.6-2.7-0.6c-0.2,0-0.4-0.1-0.5-0.1c0.3,0.3,1,1.1,2.2,2.4L60.3,156.3z"/>
	<path class="st12" d="M60.9,149.3c-0.3,0.5-0.3,1-0.1,1.5c0.2,0.5,0.6,0.9,1.3,1.3c1.4,0.8,2.4,0.7,3-0.3c0.3-0.4,0.4-1,0.6-1.8
		l1.1,0.6c-0.1,0.6-0.3,1.3-0.7,1.9c-0.5,0.9-1.2,1.4-2,1.6c-0.8,0.2-1.7-0.1-2.8-0.6c-0.6-0.4-1.1-0.8-1.5-1.3
		c-0.3-0.5-0.5-1.1-0.5-1.7c0-0.6,0.2-1.2,0.5-1.8c0.3-0.6,0.8-1.1,1.5-1.6l0.8,1c-0.2,0.2-0.5,0.3-0.7,0.5
		C61.2,148.9,61,149.1,60.9,149.3z"/>
	<path class="st12" d="M70.6,144.5l-0.9,1.5l-3.5,0.1l0.1,0.8l2.2,1.3l-0.8,1.3l-6.2-3.6l0.8-1.3l2.8,1.6l-0.4-0.9l-1.1-2.9l0.8-1.5
		l1.5,3.7L70.6,144.5z"/>
	<path class="st12" d="M69.3,137c0.7,0.4,1.1,0.9,1.2,1.5c0.1,0.6-0.1,1.3-0.5,2.1l-0.3,0.6l2.2,1.3l-0.8,1.3l-6.2-3.6l1.1-2
		c0.4-0.7,0.9-1.2,1.5-1.4C68.1,136.5,68.7,136.6,69.3,137z M68.6,140.5l0.2-0.4c0.2-0.4,0.3-0.8,0.3-1c0-0.3-0.2-0.5-0.5-0.7
		c-0.3-0.2-0.6-0.2-0.8-0.1c-0.2,0.1-0.5,0.3-0.7,0.7l-0.3,0.6L68.6,140.5z"/>
	<path class="st12" d="M74.4,130.9c1,0.6,1.7,1.3,1.9,2.1c0.3,0.8,0.1,1.7-0.4,2.7c-0.5,0.9-1.2,1.5-2.1,1.7s-1.8,0-2.8-0.6
		s-1.7-1.3-1.9-2.1c-0.2-0.8-0.1-1.7,0.5-2.7s1.2-1.5,2.1-1.7C72.4,130.1,73.4,130.3,74.4,130.9z M71.8,135.4
		c0.7,0.4,1.3,0.6,1.8,0.5c0.5-0.1,0.9-0.3,1.2-0.9c0.6-1,0.2-2-1.2-2.8c-1.4-0.8-2.4-0.7-3,0.3c-0.3,0.5-0.4,1-0.2,1.5
		S71.1,135,71.8,135.4z"/>
	<path class="st12" d="M79.5,129.1l-0.8,1.3l-5.1-3l-1,1.7l-1.1-0.6l2.7-4.7l1.1,0.6l-1,1.7L79.5,129.1z"/>
</g>
<g>
	<path class="st12" d="M115.7,142.4l0.5,1.2c0.2,0.6,0.3,1,0.2,1.3c-0.1,0.3-0.3,0.5-0.6,0.7c-0.2,0.1-0.5,0.1-0.7,0.1
		c-0.2-0.1-0.3-0.2-0.5-0.3l0,0c0,0.3,0,0.5-0.1,0.7c-0.1,0.2-0.3,0.3-0.5,0.4c-0.4,0.1-0.7,0.1-1-0.1c-0.3-0.2-0.5-0.5-0.7-0.9
		l-0.6-1.5L115.7,142.4z M113.8,144.1l-1,0.4l0.2,0.6c0.1,0.2,0.2,0.4,0.3,0.5s0.3,0.1,0.5,0c0.3-0.1,0.4-0.4,0.2-0.9L113.8,144.1z
		 M114.5,143.9l0.2,0.5c0.1,0.2,0.2,0.4,0.3,0.5c0.1,0.1,0.2,0.1,0.4,0c0.2-0.1,0.2-0.2,0.3-0.3c0-0.1,0-0.3-0.1-0.6l-0.2-0.4
		L114.5,143.9z"/>
	<path class="st12" d="M113.8,149.2l-0.7-1.8l0.5-0.2l0.4,0.4l2.6-1l0-0.6l0.5-0.2l0.7,1.8l-0.5,0.2l-0.4-0.4l-2.6,1l0,0.6
		L113.8,149.2z"/>
	<path class="st12" d="M114.7,151.4l-0.3-0.8l3.3-1.3l-0.4-1.1l0.7-0.3l1.2,3l-0.7,0.3l-0.4-1.1L114.7,151.4z"/>
	<path class="st12" d="M117.4,155c-0.4,0.1-0.7,0.1-1-0.1c-0.3-0.2-0.6-0.5-0.7-1c-0.2-0.4-0.2-0.8-0.2-1.2l0.8-0.3
		c0,0.3,0,0.6,0,0.8c0,0.2,0.1,0.4,0.1,0.5c0.1,0.2,0.2,0.3,0.3,0.4c0.1,0.1,0.2,0.1,0.4,0c0.1,0,0.1-0.1,0.2-0.1
		c0-0.1,0.1-0.2,0.1-0.3c0-0.1,0-0.3,0.1-0.6c0-0.3,0.1-0.5,0.1-0.7c0.1-0.2,0.1-0.3,0.3-0.4c0.1-0.1,0.3-0.2,0.4-0.3
		c0.4-0.1,0.7-0.1,1,0c0.3,0.2,0.5,0.4,0.7,0.9c0.1,0.2,0.1,0.4,0.2,0.6c0,0.2,0,0.4,0,0.7l-0.8,0c0-0.2,0-0.4,0-0.6
		c0-0.2-0.1-0.3-0.1-0.4c-0.1-0.2-0.1-0.3-0.3-0.3c-0.1-0.1-0.2-0.1-0.3,0c-0.1,0-0.1,0.1-0.2,0.1c0,0.1-0.1,0.1-0.1,0.2
		c0,0.1,0,0.3-0.1,0.6c0,0.4-0.1,0.8-0.2,1S117.6,154.9,117.4,155z"/>
	<path class="st12" d="M116.5,156.2l4-1.6l0.3,0.8l-3.3,1.3l0.6,1.6l-0.7,0.3L116.5,156.2z"/>
	<path class="st12" d="M118.7,161.7l-0.9-2.3l4-1.6l0.9,2.3l-0.7,0.3l-0.6-1.5l-0.9,0.3l0.5,1.3l-0.7,0.3l-0.5-1.3l-1,0.4l0.6,1.5
		L118.7,161.7z"/>
	<path class="st12" d="M120.9,162.7l-1.5,0.6l-0.3-0.8l4-1.6l0.5,1.2c0.2,0.5,0.3,1,0.2,1.3s-0.3,0.6-0.7,0.7
		c-0.2,0.1-0.5,0.1-0.7,0.1c-0.2-0.1-0.4-0.2-0.6-0.4l-1.3,1.9l-0.4-0.9l1.2-1.6L120.9,162.7z M121.6,162.5l0.1,0.3
		c0.1,0.3,0.2,0.4,0.4,0.5c0.1,0.1,0.3,0.1,0.5,0c0.2-0.1,0.3-0.2,0.3-0.4c0-0.2,0-0.4-0.1-0.7l-0.1-0.3L121.6,162.5z"/>
	<path class="st12" d="M121.7,165.4l0.7-0.3l0.6,1.5l-0.7,0.3L121.7,165.4z"/>
	<path class="st12" d="M106.8,147.9l2.7-2.2l0,0c-0.6,0.3-1,0.5-1.3,0.6l-1.9,0.7l-0.3-0.8l4-1.6l0.5,1.2l-2.7,2.1l0,0l3.4-0.2
		l0.5,1.2l-4,1.6l-0.3-0.8l1.9-0.7c0.1,0,0.2-0.1,0.3-0.1s0.4-0.2,0.9-0.3l0,0l-3.5,0.2L106.8,147.9z"/>
	<path class="st12" d="M113.5,153.1l-2.6,1c-0.3,0.1-0.6,0.2-0.9,0.1c-0.3,0-0.5-0.2-0.7-0.4c-0.2-0.2-0.4-0.5-0.5-0.8
		c-0.2-0.5-0.2-1-0.1-1.3c0.2-0.4,0.5-0.7,0.9-0.9l2.6-1l0.3,0.8l-2.4,1c-0.3,0.1-0.5,0.3-0.6,0.5c-0.1,0.2-0.1,0.4,0,0.7
		c0.1,0.3,0.3,0.4,0.5,0.5c0.2,0.1,0.4,0,0.8-0.1l2.4-1L113.5,153.1z M113.2,150.2c0.1,0,0.2,0,0.3,0c0.1,0,0.2,0.1,0.2,0.2
		c0,0.1,0.1,0.2,0,0.3c0,0.1-0.1,0.2-0.2,0.2c-0.1,0-0.2,0-0.3,0s-0.2-0.1-0.2-0.2c0-0.1,0-0.2,0-0.3
		C113,150.4,113.1,150.3,113.2,150.2z M113.7,151.3c0.1,0,0.2,0,0.3,0s0.2,0.1,0.2,0.2c0,0.1,0.1,0.2,0,0.3c0,0.1-0.1,0.2-0.2,0.2
		c-0.1,0-0.2,0-0.3,0c-0.1,0-0.2-0.1-0.2-0.2c0-0.1,0-0.2,0-0.3C113.5,151.5,113.5,151.4,113.7,151.3z"/>
	<path class="st12" d="M111.3,159.2l-0.4-1.1l2.3-2.9l0,0c-0.5,0.2-0.9,0.4-1.1,0.5l-1.9,0.7l-0.3-0.8l4-1.6l0.4,1.1l-2.3,2.9l0,0
		c0.5-0.2,0.9-0.4,1.1-0.5l1.9-0.7l0.3,0.8L111.3,159.2z"/>
	<path class="st12" d="M112.7,162.8l-1.2-3l0.5-0.2l3.5,0.8l-0.7-1.9l0.7-0.3l1.1,2.9l-0.5,0.2l-3.5-0.8l0.8,2L112.7,162.8z"/>
	<path class="st12" d="M113.8,165.7l-0.9-2.3l4-1.6l0.9,2.3l-0.7,0.3l-0.6-1.4l-0.9,0.3l0.5,1.3l-0.7,0.3l-0.5-1.3l-1,0.4l0.6,1.4
		L113.8,165.7z"/>
	<path class="st12" d="M115.6,170.1l-0.4-1.1l2.3-2.9l0,0c-0.5,0.2-0.9,0.4-1.1,0.5l-1.9,0.7l-0.3-0.8l4-1.6l0.4,1.1l-2.3,2.9l0,0
		c0.5-0.2,0.9-0.4,1.1-0.5l1.9-0.7l0.3,0.8L115.6,170.1z"/>
</g>
<g>
	<path class="st12" d="M73.6,97c-0.4,0-0.8,0-1.2-0.1v-1.6c0.3,0.1,0.6,0.1,0.9,0.1c0.4,0,0.7-0.1,0.9-0.4s0.3-0.7,0.3-1.3l0-8.7
		l2,0l0,8.7c0,1.1-0.2,1.9-0.7,2.5C75.3,96.7,74.6,97,73.6,97z"/>
	<path class="st12" d="M84.2,94.3l-5.3,0l0-9.3l5.3,0l0,1.6h-3.4l0,2H84v1.6h-3.1v2.4h3.4V94.3z"/>
	<path class="st12" d="M89.8,94.3h-2v-7.6l-2.5,0l0-1.6l7,0l0,1.6l-2.5,0V94.3z"/>
	<path class="st12" d="M99.8,94.3h-6.9V93l4.5-6.4l-4.3,0l0-1.6l6.7,0l0,1.3l-4.4,6.4h4.6V94.3z"/>
	<path class="st12" d="M104.8,94.3h-2v-7.6l-2.5,0l0-1.6l7,0l0,1.6h-2.5V94.3z"/>
</g>
</svg>
