<svg width="326" height="91" viewBox="0 0 326 91" fill="none" xmlns="http://www.w3.org/2000/svg">
<path fill-rule="evenodd" clip-rule="evenodd" d="M12.2107 48.5299L53.1556 8.16535C55.0261 6.31659 55.0261 3.23533 53.1556 1.38657C51.285 -0.46219 48.1674 -0.46219 46.2968 1.38657L1.40293 45.6541C-0.467644 47.5028 -0.467644 50.5841 1.40293 52.4328C1.50685 52.5356 1.50685 52.5356 1.61077 52.6383L38.8145 89.408C40.6851 91.2568 43.5948 91.2568 45.5693 89.5107C45.5693 89.5107 45.5693 89.5107 45.6733 89.5107C45.6733 89.5107 45.7772 89.5107 45.7772 89.408L83.5005 52.1247C85.3711 50.276 85.3711 47.1947 83.5005 45.3459C83.3966 45.2432 83.3966 45.2432 83.2926 45.1405L55.9614 18.3335C54.0909 16.4848 50.9732 16.4848 49.1026 18.3335C47.2321 20.1823 47.2321 23.2635 49.1026 25.1123L72.5888 48.3245C72.9005 48.6326 72.9005 49.0435 72.5888 49.3516L42.7635 78.829C42.4517 79.1371 42.036 79.1371 41.7243 78.829L12.2107 49.6597C11.8989 49.3516 11.8989 48.838 12.2107 48.5299Z" fill="white"/>
<path fill-rule="evenodd" clip-rule="evenodd" d="M29.1499 56.6439C32.891 56.6439 35.9047 53.6653 35.9047 49.9678C35.9047 46.2703 32.891 43.2917 29.1499 43.2917C25.4087 43.2917 22.395 46.2703 22.395 49.9678C22.395 53.6653 25.4087 56.6439 29.1499 56.6439Z" fill="#00AFEF"/>
<path fill-rule="evenodd" clip-rule="evenodd" d="M55.6499 56.6439C59.391 56.6439 62.4047 53.6653 62.4047 49.9678C62.4047 46.2703 59.391 43.2917 55.6499 43.2917C51.9087 43.2917 48.895 46.2703 48.895 49.9678C48.895 53.6653 51.9087 56.6439 55.6499 56.6439Z" fill="#00AFEF"/>
<path fill-rule="evenodd" clip-rule="evenodd" d="M97.1142 67.1201H117.691C127.147 67.1201 130.161 62.1901 130.161 57.2601C130.161 53.049 128.083 49.6596 123.302 48.2217C126.836 46.7838 128.602 44.1134 128.602 40.2104C128.602 34.2533 124.238 31.0693 116.755 31.0693H97.0103V67.1201H97.1142ZM106.987 38.9779H113.949C117.067 38.9779 118.522 40.1077 118.522 42.3673C118.522 44.6269 116.859 45.7567 113.949 45.7567H106.987V38.9779ZM106.987 52.1246H115.3C118.834 52.1246 120.081 53.8707 120.081 55.7194C120.081 57.7736 118.626 59.3143 115.3 59.3143H106.987V52.1246Z" fill="white"/>
<path d="M145.645 31.0693H135.773V67.1201H145.645V31.0693Z" fill="white"/>
<path fill-rule="evenodd" clip-rule="evenodd" d="M181.602 31.0693H150.633V39.286H161.129V67.1201H171.002V39.286H181.602V31.0693Z" fill="white"/>
<path fill-rule="evenodd" clip-rule="evenodd" d="M201.451 30.5559C192.929 30.5559 186.278 34.2534 186.278 42.2647C186.278 44.3189 186.798 45.9622 187.629 47.1947C188.46 48.4272 190.019 49.557 191.474 50.3787C192.929 51.2004 195.319 52.022 197.086 52.4329L200.515 53.3573C203.737 54.1789 205.711 54.6925 206.439 55.1033C207.27 55.5141 207.582 56.2331 207.582 57.1575C207.582 58.6981 205.919 59.5198 203.841 59.5198C198.749 59.5198 193.864 58.1846 189.188 55.5141L184.823 62.8065C189.915 66.1959 195.839 67.8392 202.698 67.8392C212.258 67.8392 217.974 63.5254 217.974 56.0277C217.974 53.8708 217.454 52.1248 216.623 50.8923C215.792 49.557 214.129 48.3245 212.674 47.6056C211.219 46.7839 208.725 45.8595 206.855 45.346C205.919 45.0379 204.672 44.7297 203.321 44.3189C200.515 43.5999 198.853 43.0864 198.125 42.7783C197.398 42.3674 196.982 41.8539 196.982 41.3403C196.982 39.697 198.437 38.978 200.411 38.978C204.153 38.978 208.933 40.2105 213.09 42.3674L217.247 34.8697C212.674 31.8911 207.374 30.5559 201.451 30.5559Z" fill="white"/>
<path fill-rule="evenodd" clip-rule="evenodd" d="M233.354 31.0693H223.482V67.1201H251.229V58.3899H233.354V31.0693Z" fill="white"/>
<path fill-rule="evenodd" clip-rule="evenodd" d="M286.043 31.0693H256.113V67.1201H286.354V58.3899H265.986V53.049H284.692V44.7296H265.986V39.7996H286.043V31.0693Z" fill="white"/>
<path fill-rule="evenodd" clip-rule="evenodd" d="M291.966 67.1201H301.838V56.1303H305.995H307.658L314.725 67.1201H325.948L317.738 54.8978C322.726 53.1517 325.013 49.5569 325.013 43.5998C325.013 34.7669 320.232 31.0693 308.385 31.0693H291.966V67.1201ZM308.801 39.7996C313.062 39.7996 314.725 41.1348 314.725 44.2161C314.725 47.4 313.062 48.6325 308.801 48.6325H301.734V39.7996H308.801Z" fill="white"/>
</svg>
