<?xml version="1.0" encoding="utf-8"?>
<!-- Generator: Adobe Illustrator 26.0.3, SVG Export Plug-In . SVG Version: 6.00 Build 0)  -->
<svg version="1.1" id="Layer_1" xmlns="http://www.w3.org/2000/svg" xmlns:xlink="http://www.w3.org/1999/xlink" x="0px" y="0px"
	 viewBox="0 0 180.7 180.7" style="enable-background:new 0 0 180.7 180.7;" xml:space="preserve">
<style type="text/css">
	.st0{fill:#00264D;}
	.st1{fill:url(#SVGID_1_);}
	.st2{fill:url(#SVGID_00000035489432907461931800000005932012074204498349_);}
	.st3{fill:url(#SVGID_00000131345370191963678700000009936469717090448002_);}
	.st4{fill:url(#SVGID_00000029729884596523604430000000255700281413105592_);}
	.st5{fill:url(#SVGID_00000124875455630791127030000005342088803787831484_);}
	.st6{fill:url(#SVGID_00000009558552932512435850000001430573889476016811_);}
	.st7{fill:url(#SVGID_00000112628879005675229720000011832670807018800558_);}
	.st8{fill:url(#SVGID_00000011004694834730045440000017085316451867755949_);}
	.st9{fill:url(#SVGID_00000075136031298158935290000016526553420208733596_);}
	.st10{opacity:0.25;fill:#FFFFFF;enable-background:new    ;}
	.st11{fill:url(#SVGID_00000083067565587009687410000003683306501194570428_);}
	.st12{fill:#FFFFFF;}
</style>
<g id="Слой_2">
	<g id="Layer_1_00000076566640612769431510000017773879384230929060_">
		<circle class="st0" cx="90.4" cy="90.4" r="90.4"/>
		
			<linearGradient id="SVGID_1_" gradientUnits="userSpaceOnUse" x1="73.6679" y1="84.4653" x2="11.0179" y2="59.6153" gradientTransform="matrix(1 0 0 1 0 -2)">
			<stop  offset="0" style="stop-color:#CC7400"/>
			<stop  offset="1" style="stop-color:#F2A41C"/>
		</linearGradient>
		<path class="st1" d="M73.3,87.2c0.4-2.4,1.4-4.6,2.7-6.7c0.8-1.2,0.7-2.8-0.3-3.8L30.2,31.2C29,30,27.1,30,26,31.2l-0.1,0.1
			C11.9,46.4,3.8,66,2.9,86.5c-0.1,1.7,1.2,3.1,2.8,3.1c0.1,0,0.1,0,0.2,0h64.4C71.8,89.6,73,88.6,73.3,87.2z"/>
		
			<linearGradient id="SVGID_00000084527893238292853780000006934935428562699172_" gradientUnits="userSpaceOnUse" x1="90.9665" y1="71.2639" x2="124.6465" y2="11.9739" gradientTransform="matrix(1 0 0 1 0 -2)">
			<stop  offset="0" style="stop-color:#CC7400"/>
			<stop  offset="1" style="stop-color:#F2A41C"/>
		</linearGradient>
		<path style="fill:url(#SVGID_00000084527893238292853780000006934935428562699172_);" d="M91.1,5.9v64.4c0,1.4,1,2.7,2.4,2.9
			c2.4,0.4,4.7,1.4,6.7,2.7c1.2,0.8,2.8,0.7,3.8-0.3l45.5-45.5c1.2-1.2,1.2-3.1,0-4.2l-0.1-0.1c-15.1-13.9-34.7-22-55.2-22.9
			c-1.7-0.1-3.1,1.2-3.2,2.8C91.1,5.8,91.1,5.9,91.1,5.9z"/>
		
			<linearGradient id="SVGID_00000112596138732873848830000000073422971010908337_" gradientUnits="userSpaceOnUse" x1="85.8356" y1="75.0958" x2="56.6856" y2="11.9358" gradientTransform="matrix(1 0 0 1 0 -2)">
			<stop  offset="0" style="stop-color:#992E2E"/>
			<stop  offset="1" style="stop-color:#F24C4C"/>
		</linearGradient>
		<path style="fill:url(#SVGID_00000112596138732873848830000000073422971010908337_);" d="M80.5,76c2-1.4,4.3-2.3,6.7-2.8
			c1.4-0.3,2.4-1.5,2.4-2.9V5.9c0-1.7-1.3-3-3-3c-0.1,0-0.1,0-0.2,0c-20.5,0.9-40,9-55.2,22.9c-1.2,1.1-1.3,3-0.2,4.2l0.1,0.1
			l45.5,45.5C77.8,76.7,79.4,76.8,80.5,76z"/>
		
			<linearGradient id="SVGID_00000115513569367404451170000016978259905922761382_" gradientUnits="userSpaceOnUse" x1="73.0343" y1="98.4298" x2="9.5743" y2="125.9798" gradientTransform="matrix(1 0 0 1 0 -2)">
			<stop  offset="0" style="stop-color:#105B99"/>
			<stop  offset="1" style="stop-color:#1C9CF2"/>
		</linearGradient>
		<path style="fill:url(#SVGID_00000115513569367404451170000016978259905922761382_);" d="M76,100.2c-1.4-2-2.3-4.3-2.8-6.7
			c-0.3-1.4-1.5-2.4-2.9-2.4H5.9c-1.7,0-3,1.3-3,3c0,0.1,0,0.1,0,0.2c0.9,20.5,9,40,22.9,55.2c1.1,1.2,3,1.3,4.2,0.2l0.1-0.1
			L75.7,104C76.7,103,76.8,101.4,76,100.2z"/>
		
			<linearGradient id="SVGID_00000041985966002679754390000013777720826525520808_" gradientUnits="userSpaceOnUse" x1="106.0237" y1="81.8728" x2="172.3937" y2="58.9329" gradientTransform="matrix(1 0 0 1 0 -2)">
			<stop  offset="0" style="stop-color:#007F12"/>
			<stop  offset="1" style="stop-color:#00BF1B"/>
		</linearGradient>
		<path style="fill:url(#SVGID_00000041985966002679754390000013777720826525520808_);" d="M104.7,80.5c1.4,2,2.3,4.3,2.8,6.7
			c0.3,1.4,1.5,2.4,2.9,2.4h64.4c1.7,0,3-1.3,3-3c0-0.1,0-0.1,0-0.2c-0.9-20.5-9-40-22.9-55.2c-1.1-1.2-3-1.3-4.2-0.2l-0.1,0.1
			l-45.5,45.5C104,77.8,103.9,79.4,104.7,80.5z"/>
		
			<linearGradient id="SVGID_00000079486411798308530780000007272819033782996122_" gradientUnits="userSpaceOnUse" x1="108.9088" y1="96.1931" x2="171.2388" y2="126.4131" gradientTransform="matrix(1 0 0 1 0 -2)">
			<stop  offset="0" style="stop-color:#7B287F"/>
			<stop  offset="1" style="stop-color:#C83ECC"/>
		</linearGradient>
		<path style="fill:url(#SVGID_00000079486411798308530780000007272819033782996122_);" d="M107.4,93.5c-0.4,2.4-1.4,4.7-2.8,6.7
			c-0.8,1.2-0.7,2.8,0.3,3.8l45.5,45.5c1.2,1.2,3.1,1.2,4.2,0l0.1-0.1c13.9-15.1,22-34.7,22.9-55.2c0.1-1.7-1.2-3.1-2.8-3.2
			c-0.1,0-0.1,0-0.2,0h-64.4C109,91.1,107.7,92.1,107.4,93.5z"/>
		
			<linearGradient id="SVGID_00000155836963192087625710000007448991463564120242_" gradientUnits="userSpaceOnUse" x1="83.8251" y1="108.9869" x2="57.0751" y2="172.4669" gradientTransform="matrix(1 0 0 1 0 -2)">
			<stop  offset="0" style="stop-color:#007F12"/>
			<stop  offset="1" style="stop-color:#00BF1B"/>
		</linearGradient>
		<path style="fill:url(#SVGID_00000155836963192087625710000007448991463564120242_);" d="M87.2,107.4c-2.4-0.4-4.7-1.4-6.7-2.8
			c-1.2-0.8-2.8-0.7-3.8,0.3l-45.5,45.5c-1.2,1.2-1.2,3.1,0,4.2l0.1,0.1c15.1,13.9,34.7,22,55.2,22.9c1.7,0.1,3.1-1.2,3.1-2.8
			c0-0.1,0-0.1,0-0.2v-64.4C89.6,109,88.6,107.7,87.2,107.4z"/>
		
			<linearGradient id="SVGID_00000098908578336866757320000003257742669403337130_" gradientUnits="userSpaceOnUse" x1="95.3791" y1="109.9113" x2="123.9891" y2="172.8113" gradientTransform="matrix(1 0 0 1 0 -2)">
			<stop  offset="0" style="stop-color:#CC7400"/>
			<stop  offset="1" style="stop-color:#F2A41C"/>
		</linearGradient>
		<path style="fill:url(#SVGID_00000098908578336866757320000003257742669403337130_);" d="M100.2,104.7c-2,1.4-4.3,2.3-6.7,2.8
			c-1.4,0.3-2.4,1.5-2.4,2.9v64.4c0,1.7,1.3,3,3,3c0.1,0,0.1,0,0.2,0c20.5-0.9,40-9,55.2-22.9c1.2-1.1,1.3-3,0.2-4.2l-0.1-0.1
			L104,105.1C103,104,101.4,103.9,100.2,104.7z"/>
		<circle class="st0" cx="90.4" cy="90.4" r="30.2"/>
		
			<linearGradient id="SVGID_00000079464719408768400820000008476542980819640754_" gradientUnits="userSpaceOnUse" x1="90.4028" y1="65" x2="90.4028" y2="119.41" gradientTransform="matrix(1 0 0 1 -2.838802e-03 -2.0012)">
			<stop  offset="0" style="stop-color:#FFC033"/>
			<stop  offset="1" style="stop-color:#E5962E"/>
		</linearGradient>
		<circle style="fill:url(#SVGID_00000079464719408768400820000008476542980819640754_);" cx="90.4" cy="90.4" r="28.6"/>
		<circle class="st10" cx="90.4" cy="90.4" r="23.9"/>
		
			<linearGradient id="SVGID_00000051362756527328457540000009048799110616795301_" gradientUnits="userSpaceOnUse" x1="90.0256" y1="1092.7281" x2="90.0256" y2="1137.4781" gradientTransform="matrix(1.0041 0 0 -1.0041 5.347350e-03 1205.5831)">
			<stop  offset="0" style="stop-color:#FFC033"/>
			<stop  offset="1" style="stop-color:#E5962E"/>
		</linearGradient>
		<circle style="fill:url(#SVGID_00000051362756527328457540000009048799110616795301_);" cx="90.4" cy="90.4" r="23.6"/>
		<path class="st12" d="M128.8,112.7l-1.9-0.8l2.3-5.1l0.2-0.4c0.1-0.1,0.1-0.3,0.2-0.4l0.2-0.5l0.2-0.4l-0.1,0.1l-0.2,0.1l-0.3,0.1
			l-0.3,0.1l-1.4,0.3l-0.4-1.5l3.8-1l1.5,0.7L128.8,112.7z"/>
		<path class="st12" d="M138.9,106.7l2.7,1.2c1,0.4,1.8,1,2.5,1.8c0.4,0.6,0.4,1.4,0.1,2.1c-0.2,0.5-0.5,0.9-0.9,1.1
			s-0.9,0.3-1.3,0.1v0.1c0.4,0.3,0.8,0.7,0.9,1.2c0.1,0.5,0,1.1-0.2,1.5c-0.3,0.7-0.9,1.3-1.7,1.5c-0.9,0.2-1.8,0-2.7-0.4l-3.3-1.5
			L138.9,106.7z M139.2,111l1.1,0.5c0.4,0.2,0.8,0.3,1.2,0.3c0.3-0.1,0.6-0.3,0.7-0.6c0.2-0.3,0.2-0.6,0-0.9
			c-0.3-0.3-0.7-0.6-1.1-0.8l-1-0.4L139.2,111z M138.6,112.5l-1,2.3l1.2,0.6c0.4,0.2,0.8,0.3,1.3,0.2c0.4-0.1,0.6-0.4,0.8-0.7
			c0.3-0.7,0-1.3-1.1-1.8L138.6,112.5z"/>
		<path class="st12" d="M146.4,120.7l-1.9-0.8l3.3-7.2l-2.4-1.1l0.7-1.6l6.6,3l-0.7,1.6l-2.4-1.1L146.4,120.7z"/>
		<path class="st12" d="M157.1,116.6c-0.6-0.3-1.4-0.3-2,0.1c-0.7,0.5-1.3,1.1-1.6,1.9c-0.9,2-0.6,3.3,0.9,3.9
			c0.8,0.3,1.6,0.5,2.4,0.6l-0.7,1.6c-0.9,0-1.8-0.3-2.6-0.6c-1.1-0.4-2-1.3-2.4-2.5c-0.3-1.3-0.1-2.6,0.5-3.8
			c0.4-0.8,0.9-1.6,1.6-2.2c0.6-0.5,1.4-0.8,2.1-0.9c0.8-0.1,1.7,0.1,2.4,0.4c0.9,0.4,1.7,1,2.3,1.8l-1.3,1.2
			c-0.3-0.3-0.5-0.6-0.8-0.9C157.8,117,157.5,116.8,157.1,116.6z"/>
		<path class="st12" d="M105.9,125.9c0.2,0.4,0.2,0.8,0.3,1.2c0,0.4,0,0.8-0.2,1.1c-0.1,0.4-0.4,0.7-0.7,1c-0.3,0.3-0.7,0.6-1.2,0.7
			c-0.5,0.2-1,0.3-1.5,0.3s-0.9-0.1-1.3-0.3s-0.8-0.5-1.1-0.9c-0.4-0.4-0.7-1-0.9-1.5c-0.1-0.2-0.2-0.5-0.2-0.7
			c-0.1-0.2-0.1-0.5-0.2-0.7c0-0.2-0.1-0.4-0.1-0.7c0-0.2,0-0.4,0-0.6l1.7-0.7c0,0.2,0,0.4,0,0.6s0,0.5,0,0.7s0.1,0.5,0.1,0.7
			s0.1,0.4,0.2,0.6c0.2,0.5,0.5,0.9,0.9,1.2c0.4,0.2,0.9,0.2,1.3,0c0.4-0.1,0.7-0.5,0.9-0.9c0.1-0.5,0-1-0.2-1.5
			c-0.1-0.1-0.1-0.2-0.2-0.3c-0.1-0.1-0.1-0.2-0.2-0.3c-0.1-0.1-0.1-0.2-0.2-0.3c-0.1-0.1-0.1-0.2-0.2-0.3l0.1-1l5-1.6l2,5l-1.7,0.7
			l-1.3-3.2l-1.9,0.6c0.1,0.1,0.2,0.3,0.3,0.4C105.7,125.4,105.8,125.6,105.9,125.9z"/>
		<path class="st12" d="M108.7,136.7c-0.7,0.3-1.4,0.5-2.1,0.6c-0.6,0.1-1.2,0.1-1.8,0c-0.5-0.1-1-0.3-1.4-0.6
			c-0.4-0.4-0.7-0.8-0.9-1.4c-0.2-0.5-0.3-1-0.2-1.6c0.1-0.5,0.3-1,0.6-1.4c0.4-0.5,0.8-0.9,1.3-1.2c0.6-0.4,1.3-0.7,2-1
			s1.4-0.5,2.1-0.6c0.6-0.1,1.2-0.1,1.8,0c0.5,0.1,1,0.3,1.3,0.7c0.4,0.4,0.7,0.8,0.9,1.4c0.2,0.5,0.3,1,0.2,1.6
			c-0.1,0.5-0.3,1-0.6,1.4c-0.4,0.5-0.8,0.9-1.3,1.2C110.1,136.1,109.4,136.4,108.7,136.7z M106.9,132.2c-0.8,0.3-1.6,0.7-2.3,1.2
			c-0.4,0.3-0.6,0.8-0.4,1.3s0.7,0.7,1.2,0.6c0.9-0.1,1.7-0.3,2.6-0.7c0.8-0.3,1.6-0.7,2.3-1.3c0.4-0.3,0.6-0.8,0.4-1.3
			c-0.1-0.2-0.2-0.4-0.4-0.5c-0.2-0.1-0.5-0.2-0.8-0.1c-0.4,0-0.7,0.1-1.1,0.2C108,131.8,107.5,132,106.9,132.2z"/>
		<path class="st12" d="M111.6,144c-0.7,0.3-1.4,0.5-2.1,0.6c-0.6,0.1-1.2,0.1-1.8,0c-0.5-0.1-1-0.3-1.4-0.6
			c-0.4-0.4-0.7-0.8-0.9-1.4c-0.2-0.5-0.3-1-0.2-1.6c0.1-0.5,0.3-1,0.6-1.4c0.4-0.5,0.8-0.9,1.3-1.2c0.6-0.4,1.3-0.7,2-1
			s1.4-0.5,2.1-0.6c0.6-0.1,1.2-0.1,1.8,0c0.5,0.1,1,0.3,1.4,0.6c0.8,0.7,1.2,1.8,1.2,2.9c-0.1,0.5-0.3,1-0.6,1.4
			c-0.4,0.5-0.8,0.9-1.3,1.2C113,143.4,112.3,143.7,111.6,144z M109.8,139.5c-0.8,0.3-1.6,0.7-2.3,1.2c-0.4,0.3-0.6,0.8-0.4,1.3
			s0.7,0.7,1.2,0.6c1.8-0.3,3.4-0.9,4.9-2c0.4-0.3,0.6-0.8,0.4-1.3c-0.1-0.2-0.2-0.4-0.4-0.5c-0.2-0.1-0.5-0.2-0.8-0.1
			c-0.4,0-0.7,0.1-1.1,0.2C110.8,139.1,110.3,139.3,109.8,139.5z"/>
		<g>
			<path class="st12" d="M76.7,89.3l4.7,0v6.1c-0.8,0.2-1.5,0.4-2.1,0.5c-0.7,0.1-1.4,0.1-2.1,0.1c-1.8,0-3.1-0.5-4.1-1.6
				c-0.9-1-1.4-2.5-1.4-4.5c0-1.9,0.5-3.4,1.6-4.4c1.1-1.1,2.6-1.6,4.5-1.6c1.2,0,2.4,0.2,3.5,0.7l-0.8,2c-0.9-0.4-1.8-0.6-2.7-0.6
				c-1.1,0-1.9,0.4-2.6,1.1s-1,1.7-1,2.9c0,1.3,0.3,2.3,0.8,2.9c0.5,0.7,1.3,1,2.3,1c0.5,0,1.1-0.1,1.6-0.2v-2.5l-2.2,0L76.7,89.3z"
				/>
			<path class="st12" d="M88.6,95.9l-5.4,0v-1.4l1.4-0.7l0-7.6l-1.4-0.7v-1.4l5.4,0v1.4l-1.4,0.7l0,7.6l1.4,0.7V95.9z"/>
			<path class="st12" d="M93.1,91.4v4.5h-2.5l0-11.8H94c1.6,0,2.8,0.3,3.6,0.9s1.2,1.5,1.2,2.7c0,0.7-0.2,1.3-0.6,1.9
				c-0.4,0.5-0.9,1-1.6,1.3l3.5,5.1h-2.8l-2.8-4.5L93.1,91.4z M93.1,89.4h0.8c0.8,0,1.4-0.1,1.7-0.4s0.6-0.7,0.6-1.2
				c0-0.6-0.2-1-0.6-1.2c-0.4-0.2-1-0.4-1.8-0.4h-0.8L93.1,89.4z"/>
			<path class="st12" d="M108.3,95.9l-6.8,0l0-11.8l6.8,0v2l-4.3,0l0,2.6l4,0v2l-4,0v3h4.3V95.9z"/>
		</g>
	</g>
	<g>
		<path class="st12" d="M114,147.4l2.5-2.1l0,0c-0.6,0.3-0.9,0.4-1.1,0.5l-1.7,0.7l-0.3-0.7l3.6-1.5l0.4,1l-2.4,2l0,0l3.2-0.2l0.4,1
			l-3.6,1.5l-0.3-0.7l1.7-0.7c0.1,0,0.2-0.1,0.3-0.1c0.1,0,0.4-0.1,0.9-0.3l0,0l-3.2,0.2L114,147.4z"/>
		<path class="st12" d="M118.6,153.2c-0.6,0.3-1.1,0.3-1.6,0.1c-0.4-0.2-0.8-0.5-1-1.1c-0.2-0.6-0.2-1-0.1-1.5
			c0.2-0.4,0.6-0.8,1.2-1c0.6-0.3,1.1-0.3,1.6-0.1c0.4,0.2,0.8,0.5,1,1.1c0.2,0.6,0.2,1,0.1,1.5C119.6,152.6,119.2,153,118.6,153.2z
			 M117.5,150.6c-0.4,0.2-0.7,0.4-0.8,0.6c-0.1,0.2-0.1,0.5,0,0.8c0.3,0.6,0.8,0.7,1.6,0.4c0.8-0.3,1.1-0.8,0.8-1.4
			c-0.1-0.3-0.3-0.5-0.6-0.6C118.2,150.4,117.9,150.4,117.5,150.6z"/>
		<path class="st12" d="M117.9,156.8l-0.9-2.1l3.6-1.5l0.9,2.1l-0.6,0.3l-0.6-1.3l-0.8,0.3l0.5,1.2l-0.6,0.3l-0.5-1.2l-0.9,0.4
			l0.6,1.3L117.9,156.8z"/>
		<path class="st12" d="M121.4,159.8c-0.6,0.2-1.1,0.3-1.6,0.1c-0.5-0.2-0.8-0.6-1.1-1.3l-0.4-1l3.6-1.5l0.5,1.1
			c0.2,0.6,0.3,1.1,0.1,1.6C122.3,159.2,121.9,159.6,121.4,159.8z M121,159c0.8-0.3,1-0.8,0.7-1.5l-0.2-0.4l-2.4,1l0.1,0.3
			C119.7,159.1,120.2,159.4,121,159z"/>
		<path class="st12" d="M120.7,163.5l0.8-0.6l-0.6-1.3l-1,0.1l-0.3-0.8l4.2-0.2l0.4,0.9l-3.1,2.8L120.7,163.5z M122.1,162.4
			c0.7-0.6,1.1-0.9,1.2-1c0.1-0.1,0.2-0.1,0.2-0.2c-0.2,0-0.8,0.1-1.8,0.2L122.1,162.4z"/>
		<path class="st12" d="M123.2,166.5c-0.3,0.1-0.6,0.1-0.9,0c-0.3-0.2-0.5-0.4-0.7-0.9c-0.2-0.4-0.2-0.8-0.2-1.1l0.7-0.3
			c0,0.3,0,0.5,0,0.7c0,0.2,0.1,0.4,0.1,0.5c0.1,0.2,0.2,0.3,0.3,0.3c0.1,0.1,0.2,0.1,0.3,0c0.1,0,0.1-0.1,0.2-0.1
			c0-0.1,0.1-0.1,0.1-0.2c0-0.1,0-0.3,0-0.6c0-0.3,0-0.5,0.1-0.6s0.1-0.3,0.2-0.4c0.1-0.1,0.2-0.2,0.4-0.3c0.3-0.1,0.6-0.1,0.9,0
			c0.3,0.1,0.5,0.4,0.7,0.8c0.1,0.2,0.1,0.4,0.2,0.6c0,0.2,0,0.4,0,0.6l-0.7,0c0-0.2,0-0.4,0-0.5s-0.1-0.3-0.1-0.4
			c-0.1-0.1-0.1-0.2-0.2-0.3c-0.1,0-0.2-0.1-0.3,0c-0.1,0-0.1,0.1-0.2,0.1s-0.1,0.1-0.1,0.2c0,0.1,0,0.3-0.1,0.6
			c0,0.4-0.1,0.7-0.2,0.9C123.6,166.3,123.4,166.4,123.2,166.5z"/>
		<path class="st12" d="M111.9,146.5l0.5,1.1c0.2,0.5,0.3,0.9,0.2,1.2c0,0.3-0.2,0.5-0.6,0.6c-0.2,0.1-0.4,0.1-0.6,0.1
			c-0.2,0-0.3-0.1-0.4-0.3l0,0c0,0.3,0,0.5-0.1,0.6c-0.1,0.2-0.3,0.3-0.5,0.4c-0.3,0.1-0.6,0.1-0.9,0c-0.3-0.2-0.5-0.4-0.7-0.9
			l-0.6-1.4L111.9,146.5z M110.2,148.1l-0.9,0.4l0.2,0.5c0.1,0.2,0.2,0.4,0.3,0.4c0.1,0.1,0.3,0.1,0.4,0c0.3-0.1,0.4-0.4,0.2-0.8
			L110.2,148.1z M110.8,147.9l0.2,0.4c0.1,0.2,0.2,0.3,0.3,0.4s0.2,0.1,0.4,0c0.1-0.1,0.2-0.2,0.2-0.3s0-0.3-0.1-0.5l-0.2-0.4
			L110.8,147.9z"/>
		<path class="st12" d="M110.3,152.8l-0.7-1.6l0.4-0.2l0.4,0.4l2.3-1l0-0.5l0.4-0.2l0.7,1.6l-0.4,0.2l-0.4-0.4l-2.3,1l0,0.5
			L110.3,152.8z"/>
		<path class="st12" d="M111.1,154.8l-0.3-0.8l3-1.2l-0.4-1l0.6-0.3l1.1,2.7l-0.6,0.3l-0.4-1L111.1,154.8z"/>
		<path class="st12" d="M113.7,158.1c-0.3,0.1-0.6,0.1-0.9,0c-0.3-0.2-0.5-0.4-0.7-0.9c-0.2-0.4-0.2-0.8-0.2-1.1l0.7-0.3
			c0,0.3,0,0.5,0,0.7c0,0.2,0.1,0.4,0.1,0.5c0.1,0.2,0.2,0.3,0.3,0.3c0.1,0.1,0.2,0.1,0.3,0c0.1,0,0.1-0.1,0.2-0.1
			c0-0.1,0.1-0.1,0.1-0.2c0-0.1,0-0.3,0-0.6c0-0.3,0-0.5,0.1-0.6c0-0.2,0.1-0.3,0.2-0.4c0.1-0.1,0.2-0.2,0.4-0.3
			c0.3-0.1,0.6-0.1,0.9,0c0.3,0.1,0.5,0.4,0.7,0.8c0.1,0.2,0.1,0.4,0.2,0.6c0,0.2,0,0.4,0,0.6l-0.7,0c0-0.2,0-0.4,0-0.5
			c0-0.1-0.1-0.3-0.1-0.4c-0.1-0.1-0.1-0.2-0.2-0.3c-0.1,0-0.2-0.1-0.3,0c-0.1,0-0.1,0.1-0.2,0.1c0,0.1-0.1,0.1-0.1,0.2
			c0,0.1,0,0.3-0.1,0.6c0,0.4-0.1,0.7-0.2,0.9C114.1,157.8,113.9,158,113.7,158.1z"/>
		<path class="st12" d="M113,159.1l3.6-1.5l0.3,0.8l-3,1.2l0.6,1.5l-0.6,0.3L113,159.1z"/>
		<path class="st12" d="M115,164.1l-0.9-2.1l3.6-1.5l0.9,2.1l-0.6,0.3l-0.6-1.3l-0.8,0.3l0.5,1.2l-0.6,0.3l-0.5-1.2l-0.9,0.4
			l0.6,1.3L115,164.1z"/>
		<path class="st12" d="M117,165l-1.4,0.6l-0.3-0.8l3.6-1.5l0.4,1.1c0.2,0.5,0.3,0.9,0.2,1.2s-0.3,0.5-0.7,0.7
			c-0.2,0.1-0.4,0.1-0.6,0.1c-0.2,0-0.4-0.2-0.6-0.3l-1.1,1.7l-0.4-0.9l1-1.4L117,165z M117.7,164.8l0.1,0.2
			c0.1,0.2,0.2,0.4,0.3,0.5c0.1,0.1,0.3,0.1,0.5,0c0.2-0.1,0.3-0.2,0.3-0.3c0-0.1,0-0.3-0.1-0.6l-0.1-0.2L117.7,164.8z"/>
	</g>
</g>
<g>
	<path class="st12" d="M63.8,165.3c-0.1,0.3-0.3,0.6-0.5,0.8l-1.2-0.5c0.2-0.2,0.3-0.4,0.4-0.6c0.1-0.3,0.1-0.6,0-0.8
		c-0.1-0.2-0.4-0.4-0.8-0.6l-6.1-2.7l0.6-1.4l6.1,2.7c0.8,0.3,1.3,0.8,1.5,1.3C64.1,164.1,64.1,164.7,63.8,165.3z"/>
	<path class="st12" d="M65.3,156.8l-1.8-0.2l-1.1,2.4l1.3,1.2l-0.7,1.5l-5.5-5.2l0.8-1.7l7.6,0.6L65.3,156.8z M62.2,156.4
		c-1.6-0.2-2.5-0.3-2.7-0.3c-0.2,0-0.4-0.1-0.5-0.1c0.3,0.3,1.2,1,2.4,2.1L62.2,156.4z"/>
	<path class="st12" d="M62.1,149.4c-0.2,0.5-0.2,1,0,1.5s0.7,0.8,1.4,1.2c1.5,0.6,2.4,0.4,2.9-0.7c0.2-0.5,0.3-1.1,0.4-1.8L68,150
		c0,0.6-0.2,1.3-0.5,1.9c-0.4,0.9-1,1.5-1.8,1.8c-0.8,0.2-1.7,0.1-2.8-0.4c-0.7-0.3-1.2-0.7-1.6-1.2s-0.6-1-0.7-1.6
		c-0.1-0.6,0-1.2,0.3-1.8c0.3-0.6,0.7-1.2,1.3-1.7l0.9,0.9c-0.2,0.2-0.4,0.4-0.6,0.6C62.3,148.9,62.2,149.1,62.1,149.4z"/>
	<path class="st12" d="M71.2,143.5l-0.7,1.6l-3.5,0.5l0.2,0.8l2.3,1l-0.6,1.4l-6.5-2.9l0.6-1.4l3,1.3l-0.5-0.9l-1.4-2.8l0.7-1.5
		l1.9,3.6L71.2,143.5z"/>
	<path class="st12" d="M69.1,136.2c0.7,0.3,1.1,0.8,1.3,1.4c0.2,0.6,0.1,1.3-0.3,2.1l-0.3,0.6l2.3,1l-0.6,1.4l-6.5-2.9l0.9-2.1
		c0.4-0.8,0.8-1.3,1.3-1.6C67.8,135.9,68.4,135.9,69.1,136.2z M68.7,139.8l0.2-0.5c0.2-0.4,0.2-0.8,0.2-1.1s-0.3-0.5-0.6-0.6
		c-0.3-0.1-0.6-0.2-0.8-0.1c-0.2,0.1-0.4,0.4-0.6,0.7l-0.3,0.6L68.7,139.8z"/>
	<path class="st12" d="M73.5,129.6c1.1,0.5,1.8,1.1,2.1,1.9c0.3,0.8,0.3,1.7-0.2,2.7s-1.1,1.6-1.9,1.9c-0.8,0.3-1.8,0.2-2.9-0.3
		c-1.1-0.5-1.8-1.1-2.1-1.9c-0.3-0.8-0.3-1.7,0.2-2.7c0.4-1,1.1-1.6,1.9-1.9C71.5,129,72.4,129.1,73.5,129.6z M71.4,134.3
		c0.7,0.3,1.3,0.4,1.8,0.3c0.5-0.1,0.9-0.4,1.1-1c0.5-1.1,0-2-1.5-2.6c-1.5-0.7-2.4-0.4-2.9,0.7c-0.2,0.5-0.2,1,0,1.5
		C70.2,133.6,70.7,134,71.4,134.3z"/>
	<path class="st12" d="M78.4,127.3l-0.6,1.4l-5.4-2.4l-0.8,1.8l-1.2-0.5l2.2-4.9l1.2,0.5l-0.8,1.8L78.4,127.3z"/>
</g>
<g>
	<path class="st12" d="M14.7,118.1l0.9,2.3l-1.3,0.5l-2.4-6l1.7-0.7c0.8-0.3,1.5-0.4,2-0.3c0.5,0.1,0.9,0.5,1.1,1.1
		c0.1,0.4,0.2,0.7,0.1,1.1c-0.1,0.3-0.3,0.7-0.6,1l2.8,1.9l-1.4,0.6l-2.3-1.7L14.7,118.1z M14.3,117.1l0.4-0.2
		c0.4-0.2,0.7-0.3,0.8-0.5c0.1-0.2,0.2-0.5,0-0.7c-0.1-0.3-0.3-0.4-0.5-0.5c-0.2,0-0.6,0-1,0.2l-0.4,0.2L14.3,117.1z"/>
	<path class="st12" d="M23.5,117.3l-1-1.3l-2.2,0.9l0.1,1.6l-1.4,0.5l-0.3-6.8l1.5-0.6l4.5,5.2L23.5,117.3z M21.8,115.1
		c-0.9-1.1-1.4-1.8-1.5-1.9c-0.1-0.1-0.2-0.3-0.3-0.4c0,0.4,0.1,1.3,0.2,2.9L21.8,115.1z"/>
	<path class="st12" d="M30.4,114.6l-1.4,0.6l-2.6-1.9l-0.4,0.6l0.8,2.1l-1.3,0.5l-2.4-6l1.3-0.5l1.1,2.7l0.2-0.9l0.8-2.7l1.4-0.6
		l-1,3.5L30.4,114.6z"/>
	<path class="st12" d="M34.6,112.9l-3.4,1.4l-2.4-6l3.4-1.4l0.4,1l-2.2,0.9l0.5,1.3l2-0.8l0.4,1l-2,0.8l0.6,1.5l2.2-0.9L34.6,112.9z
		"/>
	<path class="st12" d="M33.5,106.4l1.9-0.7c0.8-0.3,1.5-0.5,2-0.4c0.5,0.1,0.8,0.4,1,0.9c0.1,0.4,0.2,0.7,0.1,1
		c-0.1,0.3-0.2,0.5-0.5,0.7l0,0c0.4-0.1,0.7,0,1,0.2c0.3,0.2,0.5,0.4,0.6,0.8c0.2,0.5,0.2,1-0.1,1.5c-0.3,0.5-0.7,0.8-1.4,1.1
		l-2.2,0.9L33.5,106.4z M35.7,108.3l0.7-0.3c0.3-0.1,0.6-0.3,0.7-0.5c0.1-0.2,0.1-0.4,0-0.6c-0.1-0.2-0.2-0.4-0.4-0.4
		c-0.2,0-0.5,0-0.9,0.2l-0.7,0.3L35.7,108.3z M36.1,109.3l0.6,1.6l0.8-0.3c0.3-0.1,0.6-0.3,0.7-0.5c0.1-0.2,0.1-0.4,0-0.7
		c-0.2-0.5-0.6-0.6-1.4-0.3L36.1,109.3z"/>
	<path class="st12" d="M45.1,108.8l-1-1.3l-2.2,0.9L42,110l-1.4,0.5l-0.3-6.8l1.5-0.6l4.5,5.2L45.1,108.8z M43.3,106.6
		c-0.9-1.1-1.4-1.8-1.5-1.9c-0.1-0.1-0.2-0.3-0.3-0.4c0,0.4,0.1,1.3,0.2,2.9L43.3,106.6z"/>
	<path class="st12" d="M47.7,102c-0.5,0.2-0.8,0.5-0.9,1c-0.1,0.5-0.1,1,0.2,1.7c0.5,1.3,1.3,1.8,2.3,1.4c0.4-0.2,0.9-0.5,1.4-0.9
		l0.4,1.1c-0.4,0.4-0.9,0.7-1.5,1c-0.9,0.3-1.6,0.3-2.3,0s-1.2-1-1.6-2c-0.2-0.6-0.3-1.2-0.3-1.8c0-0.6,0.2-1,0.6-1.5
		c0.3-0.4,0.8-0.7,1.3-1c0.6-0.2,1.2-0.3,1.9-0.3l0,1.2c-0.3,0-0.5,0-0.8,0C48.1,101.8,47.9,101.9,47.7,102z"/>
	<path class="st12" d="M57.2,104l-1.4,0.6l-2.6-1.9l-0.4,0.6l0.8,2.1l-1.3,0.5l-2.4-6l1.3-0.5l1.1,2.7l0.2-0.9l0.8-2.7l1.4-0.6
		l-1,3.5L57.2,104z"/>
	<path class="st12" d="M28.3,121.6c0.4,1,0.4,1.8,0.1,2.6s-1.1,1.3-2.1,1.7l-1.7,0.7l-2.4-6l1.9-0.7c1-0.4,1.8-0.4,2.6-0.1
		C27.4,120,27.9,120.6,28.3,121.6z M27,122.1c-0.5-1.3-1.3-1.7-2.5-1.3l-0.7,0.3l1.5,3.9l0.5-0.2C27.2,124.3,27.5,123.4,27,122.1z"
		/>
	<path class="st12" d="M34.2,122.8l-3.4,1.4l-2.4-6l3.4-1.4l0.4,1l-2.2,0.9l0.5,1.3l2-0.8l0.4,1l-2,0.8l0.6,1.5l2.2-0.9L34.2,122.8z
		"/>
	<path class="st12" d="M41.2,120l-4,1.6l-0.3-0.9l0.8-2.1c0.1-0.3,0.2-0.5,0.3-0.7s0.1-0.4,0.2-0.6s0.1-0.4,0.1-0.6s0-0.4-0.1-0.5
		c-0.1-0.2-0.2-0.3-0.4-0.4c-0.2-0.1-0.3-0.1-0.6,0c-0.2,0.1-0.4,0.2-0.6,0.4c-0.2,0.2-0.3,0.4-0.4,0.7l-1-0.5
		c0.1-0.2,0.2-0.3,0.3-0.5c0.1-0.2,0.2-0.3,0.3-0.4c0.1-0.1,0.3-0.3,0.5-0.4c0.2-0.1,0.4-0.2,0.6-0.3c0.3-0.1,0.6-0.2,0.8-0.2
		s0.5,0,0.7,0.1c0.2,0.1,0.4,0.2,0.6,0.4c0.2,0.2,0.3,0.4,0.4,0.6c0.1,0.2,0.1,0.5,0.1,0.7c0,0.2,0,0.5-0.1,0.8s-0.1,0.5-0.3,0.8
		c-0.1,0.3-0.2,0.6-0.4,0.9l-0.4,1l0,0.1l2.4-1L41.2,120z"/>
	<path class="st12" d="M44.6,115.2c0.2,0.5,0.3,0.9,0.4,1.3c0.1,0.4,0.1,0.8,0,1.1c-0.1,0.3-0.2,0.6-0.4,0.9
		c-0.2,0.2-0.5,0.4-0.9,0.6c-0.3,0.1-0.7,0.2-1,0.1c-0.3,0-0.6-0.2-0.9-0.4c-0.3-0.2-0.5-0.5-0.8-0.8s-0.4-0.8-0.6-1.2
		c-0.2-0.5-0.3-0.9-0.4-1.3c-0.1-0.4-0.1-0.8,0-1.1s0.2-0.6,0.4-0.9s0.5-0.4,0.9-0.6c0.3-0.1,0.7-0.2,1-0.1c0.3,0,0.6,0.2,0.9,0.4
		c0.3,0.2,0.5,0.5,0.8,0.8C44.2,114.3,44.5,114.7,44.6,115.2z M41.8,116.3c0.3,0.7,0.5,1.2,0.8,1.5s0.5,0.4,0.8,0.3
		c0.3-0.1,0.4-0.4,0.4-0.8c0-0.4-0.2-0.9-0.4-1.6c-0.3-0.7-0.5-1.2-0.8-1.5c-0.3-0.3-0.5-0.4-0.8-0.3c-0.1,0.1-0.2,0.1-0.3,0.3
		c-0.1,0.1-0.1,0.3-0.1,0.5c0,0.2,0,0.4,0.1,0.7C41.6,115.7,41.7,116,41.8,116.3z"/>
	<path class="st12" d="M47.8,113c0.1,0.2,0.2,0.5,0.2,0.7c0,0.2,0,0.4-0.1,0.6c-0.1,0.2-0.2,0.3-0.3,0.5c-0.2,0.1-0.4,0.3-0.6,0.4
		c-0.2,0.1-0.4,0.1-0.7,0.1c-0.2,0-0.4,0-0.6-0.1c-0.2-0.1-0.3-0.2-0.5-0.4c-0.1-0.2-0.2-0.4-0.3-0.6c-0.1-0.2-0.1-0.5-0.2-0.7
		c0-0.2,0-0.4,0.1-0.6s0.2-0.3,0.3-0.5c0.1-0.1,0.3-0.3,0.6-0.4c0.2-0.1,0.5-0.1,0.7-0.1s0.4,0,0.6,0.1c0.2,0.1,0.3,0.2,0.5,0.4
		C47.6,112.6,47.7,112.8,47.8,113z M45.9,113.8c0.1,0.2,0.2,0.4,0.3,0.5c0.1,0.1,0.2,0.1,0.4,0c0.1-0.1,0.2-0.2,0.3-0.3
		c0-0.1,0-0.3-0.1-0.5c-0.2-0.4-0.4-0.6-0.7-0.5c-0.1,0.1-0.2,0.2-0.3,0.3C45.8,113.4,45.8,113.5,45.9,113.8z M49.9,110.5l-1.2,6.5
		l-0.9,0.4l1.2-6.5L49.9,110.5z M52.7,113.8c0.1,0.2,0.1,0.5,0.2,0.7c0,0.2,0,0.4-0.1,0.6c-0.1,0.2-0.2,0.3-0.3,0.5
		c-0.2,0.1-0.4,0.3-0.6,0.4c-0.2,0.1-0.4,0.1-0.7,0.1s-0.4,0-0.6-0.1c-0.2-0.1-0.3-0.2-0.5-0.4c-0.1-0.2-0.2-0.4-0.3-0.6
		c-0.1-0.2-0.1-0.5-0.2-0.7c0-0.2,0-0.4,0.1-0.6c0.1-0.2,0.2-0.3,0.3-0.5c0.1-0.1,0.3-0.3,0.6-0.4c0.2-0.1,0.5-0.1,0.7-0.1
		c0.2,0,0.4,0,0.6,0.1c0.2,0.1,0.3,0.2,0.5,0.4C52.5,113.3,52.6,113.5,52.7,113.8z M50.9,114.5c0.1,0.2,0.2,0.4,0.3,0.5
		c0.1,0.1,0.2,0.1,0.4,0c0.1-0.1,0.2-0.2,0.3-0.3c0-0.1,0-0.3-0.1-0.5c-0.2-0.4-0.4-0.6-0.7-0.5c-0.1,0.1-0.2,0.2-0.3,0.3
		C50.7,114.1,50.8,114.3,50.9,114.5z"/>
</g>
<g>
	<path class="st12" d="M30.9,61.6l-1-0.4l1.7-3.8l-1.2-0.6l0.4-0.8l3.4,1.5l-0.4,0.8l-1.2-0.6L30.9,61.6z"/>
	<path class="st12" d="M35.5,63.7l-2.6-1.2l2-4.6l2.6,1.2l-0.4,0.8l-1.7-0.7l-0.4,1l1.5,0.7l-0.4,0.8L34.7,61l-0.5,1.2l1.7,0.7
		L35.5,63.7z"/>
	<path class="st12" d="M40.5,65.9l-1.2-0.5L38.8,61l0,0c-0.2,0.6-0.4,1.1-0.5,1.3l-1,2.1l-0.9-0.4l2-4.6l1.2,0.5l0.5,4.3l0,0
		c0.2-0.6,0.4-1,0.5-1.3l1-2.2l0.9,0.4L40.5,65.9z"/>
	<path class="st12" d="M43.4,67.2l-1-0.4l1.7-3.8l-1.2-0.6l0.4-0.8l3.4,1.5L46.3,64l-1.2-0.6L43.4,67.2z"/>
	<path class="st12" d="M48,69.2l-2.6-1.2l2-4.6l2.6,1.2l-0.4,0.8L48,64.7l-0.4,1l1.5,0.7l-0.4,0.8l-1.5-0.7l-0.5,1.2l1.7,0.7
		L48,69.2z"/>
	<path class="st12" d="M19.9,64.4l-1.2-0.5l-0.4-4.3l0,0c-0.2,0.6-0.4,1.1-0.5,1.3l-1,2.1l-0.9-0.4l2-4.6l1.2,0.5l0.5,4.3l0,0
		c0.2-0.6,0.4-1,0.5-1.3l1-2.2l0.9,0.4L19.9,64.4z"/>
	<path class="st12" d="M26.2,64.4c-0.3,0.8-0.8,1.3-1.3,1.5s-1.2,0.2-1.9-0.1c-0.7-0.3-1.1-0.8-1.3-1.3c-0.2-0.6-0.1-1.2,0.2-2
		c0.3-0.8,0.8-1.3,1.3-1.5c0.6-0.2,1.2-0.2,1.9,0.1c0.7,0.3,1.1,0.8,1.3,1.3C26.6,63,26.5,63.7,26.2,64.4z M22.8,62.9
		c-0.2,0.5-0.3,0.9-0.2,1.3c0.1,0.3,0.3,0.6,0.7,0.8c0.8,0.3,1.4,0,1.8-1c0.5-1,0.3-1.7-0.5-2.1c-0.4-0.2-0.7-0.2-1,0
		C23.3,62.1,23.1,62.4,22.8,62.9z"/>
	<path class="st12" d="M30.7,63.7l1,0.4L28.1,68L27,67.6l0.5-5.3l1,0.4l-0.4,3.1c0,0.2-0.1,0.4-0.1,0.6c0,0.2-0.1,0.4-0.1,0.5
		c0.1-0.2,0.3-0.5,0.7-0.9L30.7,63.7z"/>
	<path class="st12" d="M32.9,70.2l0.2-1.2l-1.7-0.7l-0.8,0.9l-1-0.5l3.7-3.9l1.2,0.5l-0.4,5.3L32.9,70.2z M33.2,68
		c0.1-1.1,0.2-1.8,0.2-1.9c0-0.1,0-0.3,0.1-0.3c-0.2,0.2-0.7,0.8-1.5,1.7L33.2,68z"/>
	<path class="st12" d="M36.4,71.8l0.5-4.1l0,0c-0.3,0.7-0.5,1.2-0.6,1.5l-0.9,2.1l-0.9-0.4l2-4.6l1.3,0.6l-0.5,4l0,0l2.7-3l1.3,0.6
		l-2,4.6l-0.9-0.4l1-2.2c0-0.1,0.1-0.2,0.2-0.4c0.1-0.1,0.2-0.5,0.5-1l0,0l-2.8,3.1L36.4,71.8z"/>
	<path class="st12" d="M43.2,74.8l-2.6-1.2l2-4.6l2.6,1.2L44.8,71l-1.7-0.7l-0.4,1l1.5,0.7l-0.4,0.8L42.4,72l-0.5,1.2l1.7,0.7
		L43.2,74.8z"/>
	<path class="st12" d="M48.2,77l-1.2-0.5l-0.4-4.3l0,0c-0.2,0.6-0.4,1.1-0.5,1.3l-1,2.1l-0.9-0.4l2-4.6l1.2,0.5l0.5,4.3l0,0
		c0.2-0.6,0.4-1,0.5-1.3l1-2.2l0.9,0.4L48.2,77z"/>
	<path class="st12" d="M51.1,78.3l-1-0.4l1.7-3.8l-1.2-0.6l0.4-0.8l3.4,1.5L54,75.1l-1.2-0.6L51.1,78.3z"/>
	<path class="st12" d="M55.6,80.3L53,79.1l2-4.6l2.6,1.2l-0.4,0.8l-1.7-0.7l-0.4,1l1.5,0.7l-0.4,0.8l-1.5-0.7l-0.5,1.2l1.7,0.7
		L55.6,80.3z"/>
</g>
<g>
	<path class="st12" d="M71.5,25.1l0.9,1.8c0.4,0.8,0.6,1.5,0.5,1.9c0,0.5-0.3,0.9-0.8,1.1c-0.3,0.2-0.7,0.2-1,0.2
		c-0.3-0.1-0.5-0.2-0.7-0.4l0,0c0.1,0.4,0.1,0.7-0.1,1c-0.1,0.3-0.4,0.5-0.8,0.7c-0.5,0.3-1,0.3-1.5,0.1c-0.5-0.2-0.9-0.7-1.2-1.3
		L65.8,28L71.5,25.1z M68.9,27.9l-1.5,0.8l0.4,0.8c0.2,0.3,0.4,0.5,0.6,0.6c0.2,0.1,0.4,0.1,0.7-0.1c0.5-0.2,0.5-0.7,0.2-1.4
		L68.9,27.9z M69.8,27.5l0.4,0.7c0.2,0.3,0.3,0.5,0.5,0.6c0.2,0.1,0.4,0.1,0.6,0c0.2-0.1,0.3-0.3,0.4-0.5c0-0.2-0.1-0.5-0.2-0.8
		l-0.3-0.6L69.8,27.5z"/>
	<path class="st12" d="M70.2,36.8l1.2-1.1l-1.1-2.1l-1.6,0.3l-0.7-1.3l6.8-0.9l0.8,1.5l-4.7,4.9L70.2,36.8z M72.2,34.9
		c1-1,1.6-1.6,1.8-1.7c0.1-0.1,0.2-0.2,0.3-0.3C74,33,73,33.2,71.5,33.4L72.2,34.9z"/>
	<path class="st12" d="M79.3,40.6l-3.7,1.9c-0.4,0.2-0.8,0.3-1.3,0.3c-0.4,0-0.8-0.2-1.1-0.5c-0.4-0.3-0.6-0.7-0.9-1.1
		c-0.4-0.7-0.5-1.4-0.3-2c0.2-0.6,0.6-1.1,1.2-1.4l3.7-1.9l0.6,1.2l-3.5,1.8c-0.4,0.2-0.7,0.5-0.8,0.8c-0.1,0.3-0.1,0.6,0.1,1
		c0.2,0.4,0.5,0.6,0.7,0.7c0.3,0.1,0.7,0,1.1-0.2l3.5-1.8L79.3,40.6z M78.3,37.4l0.1-0.1c0.8,0.2,1.3,0.3,1.6,0.3l0.7,1.3l-0.1,0
		c-0.2-0.1-0.5-0.2-1-0.4c-0.4-0.2-0.8-0.3-1-0.5L78.3,37.4z"/>
	<path class="st12" d="M56.8,23c-0.9,0.5-1.8,0.6-2.6,0.3c-0.8-0.3-1.4-0.9-1.9-1.9l-0.8-1.6l5.7-2.9l0.9,1.8
		c0.5,0.9,0.6,1.8,0.4,2.6C58.3,21.9,57.7,22.6,56.8,23z M56.1,21.8c1.2-0.6,1.6-1.5,1-2.6l-0.3-0.6l-3.7,1.9l0.3,0.5
		C54,22.1,54.9,22.4,56.1,21.8z"/>
	<path class="st12" d="M60,29.4c-0.9,0.5-1.8,0.6-2.5,0.4c-0.7-0.2-1.3-0.8-1.8-1.6c-0.4-0.9-0.5-1.7-0.3-2.4
		c0.3-0.7,0.9-1.3,1.8-1.8c1-0.5,1.8-0.6,2.5-0.4c0.7,0.2,1.3,0.8,1.8,1.6c0.4,0.9,0.5,1.7,0.3,2.4C61.6,28.3,60.9,28.9,60,29.4z
		 M57.9,25.2c-0.6,0.3-1.1,0.7-1.3,1.1c-0.2,0.4-0.2,0.9,0.1,1.3c0.5,1,1.4,1.1,2.7,0.5c1.3-0.7,1.7-1.5,1.2-2.4
		c-0.2-0.5-0.6-0.8-1-0.8C59.1,24.8,58.5,24.9,57.9,25.2z"/>
	<path class="st12" d="M65.8,33.8l-3.7,1.9c-0.4,0.2-0.8,0.3-1.3,0.3s-0.8-0.2-1.1-0.5c-0.4-0.3-0.7-0.7-0.9-1.1
		c-0.4-0.7-0.5-1.4-0.3-2c0.2-0.6,0.6-1.1,1.2-1.4l3.7-1.9l0.6,1.2l-3.5,1.8c-0.4,0.2-0.7,0.5-0.8,0.8c-0.1,0.3-0.1,0.6,0.1,1
		c0.2,0.4,0.4,0.6,0.7,0.7c0.3,0.1,0.7,0,1.1-0.2l3.5-1.8L65.8,33.8z"/>
	<path class="st12" d="M63.6,38.2l-2.2,1.1l-0.6-1.2l5.7-2.9l0.8,1.7c0.4,0.8,0.5,1.4,0.4,1.9s-0.4,0.9-1,1.2
		c-0.3,0.2-0.7,0.2-1,0.2c-0.4-0.1-0.7-0.2-1-0.5l-1.6,2.9l-0.7-1.3l1.5-2.5L63.6,38.2z M64.6,37.7l0.2,0.4c0.2,0.4,0.4,0.6,0.6,0.8
		c0.2,0.1,0.5,0.1,0.7,0c0.3-0.1,0.4-0.3,0.4-0.6c0-0.2-0.1-0.6-0.3-1L66.1,37L64.6,37.7z"/>
	<path class="st12" d="M65.2,46.9l1.2-1.1l-1.1-2.1L63.8,44l-0.7-1.3l6.8-0.9l0.8,1.5l-4.7,4.9L65.2,46.9z M67.3,45
		c1-1,1.6-1.6,1.8-1.7c0.1-0.1,0.2-0.2,0.3-0.3c-0.4,0.1-1.3,0.3-2.9,0.5L67.3,45z"/>
	<path class="st12" d="M71.6,52.3c-0.9,0.5-1.8,0.6-2.6,0.3s-1.4-0.9-1.9-1.9L66.3,49l5.7-2.9l0.9,1.8c0.5,0.9,0.6,1.8,0.4,2.6
		C73,51.2,72.5,51.8,71.6,52.3z M70.9,51c1.2-0.6,1.6-1.5,1-2.6l-0.3-0.6l-3.7,1.9l0.3,0.5C68.7,51.4,69.7,51.6,70.9,51z"/>
	<path class="st12" d="M74.8,58.7c-0.9,0.5-1.8,0.6-2.5,0.4c-0.7-0.2-1.3-0.8-1.8-1.6c-0.4-0.9-0.5-1.7-0.3-2.4
		c0.3-0.7,0.9-1.3,1.8-1.8c1-0.5,1.8-0.6,2.5-0.4c0.7,0.2,1.3,0.8,1.8,1.6s0.5,1.7,0.3,2.4C76.3,57.6,75.7,58.2,74.8,58.7z
		 M72.7,54.5c-0.6,0.3-1.1,0.7-1.3,1.1c-0.2,0.4-0.2,0.9,0.1,1.3c0.5,1,1.4,1.1,2.7,0.5c1.3-0.7,1.7-1.5,1.2-2.4
		c-0.2-0.5-0.6-0.8-1-0.8C73.9,54,73.3,54.2,72.7,54.5z"/>
</g>
<g>
	<path class="st12" d="M100.2,53.6l1.3,0.7l-0.4,0.7l-3.4-1.7l0.5-1c0.2-0.5,0.5-0.8,0.8-0.9c0.3-0.1,0.6-0.1,0.9,0.1
		c0.2,0.1,0.3,0.2,0.4,0.4c0.1,0.2,0.1,0.4,0.1,0.7l2-0.3l-0.4,0.8l-1.7,0.2L100.2,53.6z M99.6,53.3l0.1-0.2
		c0.1-0.2,0.2-0.4,0.1-0.6c0-0.1-0.1-0.3-0.3-0.3c-0.2-0.1-0.3-0.1-0.4,0c-0.1,0.1-0.2,0.2-0.4,0.5l-0.1,0.2L99.6,53.3z"/>
	<path class="st12" d="M103.7,49.9l-1,2l-3.4-1.7l1-2l0.6,0.3l-0.6,1.2l0.7,0.4l0.6-1.1l0.6,0.3l-0.6,1.1l0.9,0.4l0.6-1.2
		L103.7,49.9z"/>
	<path class="st12" d="M101.9,46.3c-0.1,0.3-0.1,0.5,0,0.8c0.1,0.3,0.4,0.5,0.7,0.7c0.8,0.4,1.3,0.3,1.6-0.3c0.1-0.2,0.2-0.6,0.3-1
		l0.6,0.3c0,0.3-0.1,0.7-0.3,1c-0.2,0.5-0.6,0.8-1,0.9c-0.4,0.1-0.9,0-1.5-0.3c-0.4-0.2-0.6-0.4-0.8-0.7c-0.2-0.3-0.3-0.5-0.3-0.9
		c0-0.3,0.1-0.6,0.2-1c0.2-0.3,0.4-0.6,0.7-0.9l0.5,0.5c-0.1,0.1-0.2,0.2-0.4,0.3S102,46.2,101.9,46.3z"/>
	<path class="st12" d="M105.4,42.3c0.6,0.3,0.9,0.6,1.1,1.1c0.2,0.4,0.1,0.9-0.2,1.4s-0.6,0.8-1.1,1c-0.4,0.1-0.9,0-1.5-0.2
		c-0.6-0.3-0.9-0.6-1.1-1.1s-0.1-0.9,0.2-1.4c0.3-0.5,0.6-0.8,1.1-1C104.3,41.9,104.8,42,105.4,42.3z M104.1,44.7
		c0.4,0.2,0.7,0.3,1,0.2c0.3,0,0.5-0.2,0.6-0.5c0.3-0.6,0.1-1.1-0.7-1.4c-0.8-0.4-1.3-0.3-1.6,0.3c-0.1,0.3-0.2,0.5,0,0.8
		C103.5,44.3,103.7,44.5,104.1,44.7z"/>
	<path class="st12" d="M108.2,41l-3.1-0.5l0,0c0.6,0.2,0.9,0.4,1.1,0.5l1.6,0.8l-0.3,0.6l-3.4-1.7l0.5-1l3,0.5l0,0l-2.2-2.2l0.5-1
		l3.4,1.7l-0.3,0.7l-1.6-0.8c-0.1,0-0.2-0.1-0.3-0.1c-0.1-0.1-0.4-0.2-0.8-0.4l0,0l2.2,2.2L108.2,41z"/>
	<path class="st12" d="M108.5,34.4c0.4,0.2,0.6,0.4,0.7,0.8c0.1,0.3,0,0.7-0.2,1.1l-0.2,0.3l1.2,0.6l-0.4,0.7l-3.4-1.7l0.5-1.1
		c0.2-0.4,0.5-0.7,0.7-0.8C107.9,34.2,108.2,34.2,108.5,34.4z M108.3,36.3l0.1-0.2c0.1-0.2,0.2-0.4,0.1-0.6c0-0.2-0.1-0.3-0.3-0.4
		c-0.2-0.1-0.3-0.1-0.4-0.1c-0.1,0.1-0.2,0.2-0.3,0.4l-0.2,0.3L108.3,36.3z"/>
	<path class="st12" d="M112.2,33l-1,2l-3.4-1.7l1-2l0.6,0.3l-0.6,1.2l0.7,0.4l0.6-1.1l0.6,0.3l-0.6,1.1l0.9,0.4l0.6-1.2L112.2,33z"
		/>
	<path class="st12" d="M114.1,29.3l-0.5,0.9l-3.3,0.2l0,0c0.5,0.2,0.8,0.3,1,0.4l1.6,0.8l-0.3,0.6l-3.4-1.7l0.5-0.9l3.3-0.2l0,0
		c-0.5-0.2-0.8-0.3-1-0.4l-1.6-0.8l0.3-0.6L114.1,29.3z"/>
	<path class="st12" d="M114.6,26c0.3,0.2,0.5,0.4,0.6,0.7c0.1,0.3,0,0.7-0.2,1.1c-0.2,0.4-0.4,0.6-0.7,0.9l-0.7-0.3
		c0.2-0.2,0.4-0.3,0.5-0.5c0.1-0.1,0.2-0.3,0.3-0.4c0.1-0.2,0.1-0.3,0.1-0.4c0-0.1-0.1-0.2-0.2-0.3c-0.1,0-0.1,0-0.2,0
		c-0.1,0-0.1,0-0.2,0.1s-0.2,0.2-0.5,0.3c-0.2,0.2-0.4,0.3-0.5,0.3c-0.1,0.1-0.3,0.1-0.4,0.1c-0.1,0-0.3,0-0.5-0.1
		c-0.3-0.2-0.5-0.4-0.6-0.7c-0.1-0.3,0-0.6,0.2-1c0.1-0.2,0.2-0.3,0.3-0.5c0.1-0.1,0.3-0.3,0.4-0.4l0.4,0.5
		c-0.2,0.1-0.3,0.3-0.4,0.4c-0.1,0.1-0.2,0.2-0.2,0.3c-0.1,0.1-0.1,0.3-0.1,0.4c0,0.1,0.1,0.2,0.2,0.2c0.1,0,0.1,0,0.2,0
		c0.1,0,0.1,0,0.2-0.1c0.1,0,0.2-0.2,0.5-0.3c0.3-0.2,0.6-0.4,0.8-0.4C114.1,25.8,114.3,25.9,114.6,26z"/>
	<path class="st12" d="M116.9,23.8l-0.9-0.2l-0.6,1.2l0.7,0.7l-0.4,0.8l-2.8-2.9l0.4-0.9l4,0.5L116.9,23.8z M115.2,23.5
		c-0.8-0.1-1.3-0.2-1.4-0.2c-0.1,0-0.2,0-0.3-0.1c0.2,0.2,0.6,0.5,1.2,1.2L115.2,23.5z"/>
	<path class="st12" d="M117.8,17.6c0.6,0.3,0.9,0.7,1,1.1c0.1,0.5,0.1,1-0.3,1.6l-0.5,1l-3.4-1.7l0.5-1.1c0.3-0.6,0.6-0.9,1.1-1.1
		C116.8,17.3,117.3,17.4,117.8,17.6z M117.4,18.4c-0.7-0.4-1.3-0.2-1.6,0.4l-0.2,0.4l2.2,1.1L118,20
		C118.4,19.3,118.2,18.8,117.4,18.4z"/>
	<path class="st12" d="M120.9,15.9l-1,2l-3.4-1.7l1-2l0.6,0.3l-0.6,1.2l0.7,0.4l0.6-1.1l0.6,0.3l-0.6,1.1l0.9,0.4l0.6-1.2
		L120.9,15.9z"/>
	<path class="st12" d="M106,49.4l4,2c0.5,0.2,0.8,0.5,1.1,0.9c0.2,0.4,0.4,0.8,0.3,1.3c0,0.5-0.2,1-0.4,1.5
		c-0.4,0.8-0.9,1.3-1.6,1.6c-0.6,0.2-1.3,0.2-2-0.2l-4-2l0.7-1.3l3.8,1.9c0.5,0.2,0.9,0.3,1.2,0.2c0.3-0.1,0.6-0.3,0.8-0.8
		c0.2-0.4,0.3-0.8,0.1-1.1c-0.1-0.3-0.4-0.6-0.9-0.8l-3.8-1.9L106,49.4z"/>
	<path class="st12" d="M113.1,46.5c0.6,0.3,0.9,0.7,1,1.3c0.1,0.6,0,1.2-0.4,1.9c-0.3,0.7-0.8,1.2-1.3,1.6l-1.2-0.6
		c0.4-0.3,0.7-0.6,0.9-0.9c0.2-0.3,0.4-0.5,0.5-0.7c0.1-0.3,0.2-0.5,0.2-0.7c0-0.2-0.2-0.4-0.4-0.5c-0.1-0.1-0.2-0.1-0.4-0.1
		c-0.1,0-0.3,0.1-0.4,0.2c-0.2,0.1-0.4,0.3-0.8,0.6c-0.4,0.3-0.7,0.5-0.9,0.6c-0.3,0.1-0.5,0.2-0.8,0.2c-0.3,0-0.6-0.1-0.9-0.2
		c-0.5-0.3-0.9-0.7-1-1.2c-0.1-0.5,0-1.1,0.3-1.8c0.2-0.3,0.4-0.6,0.6-0.9c0.2-0.3,0.5-0.5,0.8-0.8l0.8,0.9
		c-0.3,0.3-0.5,0.5-0.7,0.7c-0.2,0.2-0.3,0.4-0.4,0.6c-0.1,0.2-0.2,0.5-0.1,0.7c0,0.2,0.2,0.3,0.4,0.4c0.1,0.1,0.2,0.1,0.3,0.1
		c0.1,0,0.2-0.1,0.4-0.1c0.1-0.1,0.4-0.3,0.9-0.6c0.6-0.4,1.1-0.7,1.4-0.8C112.3,46.2,112.7,46.3,113.1,46.5z"/>
	<path class="st12" d="M115.5,41.4c0.5,0.2,0.7,0.6,0.8,1c0.1,0.5,0,1-0.2,1.6l0.9,0.4l-0.3,0.6l-0.9-0.4c-0.4,0.7-0.8,1.2-1.3,1.6
		l-1.1-0.6c0.2-0.2,0.5-0.4,0.8-0.7c0.3-0.3,0.5-0.6,0.6-0.8l-1.3-0.7l-0.3,0.2c-0.5,0.4-0.9,0.7-1.3,0.8c-0.4,0.1-0.8,0.1-1.1-0.1
		c-0.4-0.2-0.7-0.5-0.8-1c-0.1-0.5,0-1,0.2-1.6l-0.7-0.3l0.3-0.6l0.6,0.3c0.4-0.6,0.8-1.2,1.3-1.6l0.8,0.9c-0.4,0.4-0.7,0.7-1,1.2
		l1.3,0.6c0.5-0.4,0.9-0.7,1.1-0.9c0.3-0.2,0.5-0.2,0.8-0.3C115,41.2,115.2,41.2,115.5,41.4z M111.4,43.1c0.1,0.1,0.2,0.1,0.4,0
		c0.1,0,0.3-0.1,0.5-0.3l-1-0.5C111.1,42.7,111.2,43,111.4,43.1z M114.9,42.7c-0.1-0.1-0.2-0.1-0.4,0c-0.1,0.1-0.3,0.2-0.5,0.3
		l1.1,0.5C115.2,43.1,115.1,42.8,114.9,42.7z"/>
	<path class="st12" d="M120.5,36.3l-0.7,1.3l-3.6-1.8c-0.1,0-0.2-0.1-0.3-0.1c-0.1-0.1-0.2-0.1-0.3-0.2c-0.1-0.1-0.2-0.1-0.3-0.2
		c-0.1-0.1-0.2-0.1-0.3-0.2c0,0,0,0.1,0,0.1c0,0.1,0,0.1,0.1,0.2s0,0.1,0.1,0.2c0,0.1,0,0.1,0,0.2l0.2,1l-1.1,0.2l-0.6-2.8l0.5-1.1
		L120.5,36.3z"/>
	<path class="st12" d="M120.3,28.9c0.5,0.3,0.9,0.5,1.3,0.8c0.4,0.3,0.6,0.6,0.8,0.9c0.2,0.3,0.3,0.6,0.3,1c0,0.3-0.1,0.7-0.3,1.1
		c-0.2,0.4-0.4,0.6-0.7,0.8c-0.3,0.2-0.6,0.3-1,0.3c-0.4,0-0.8,0-1.2-0.1c-0.4-0.1-0.9-0.3-1.4-0.5c-0.5-0.3-0.9-0.5-1.3-0.8
		c-0.4-0.3-0.6-0.6-0.8-0.9c-0.2-0.3-0.3-0.6-0.3-1c0-0.3,0.1-0.7,0.3-1.1c0.2-0.4,0.4-0.6,0.7-0.8c0.3-0.2,0.6-0.3,1-0.3
		c0.4,0,0.8,0,1.2,0.1C119.3,28.4,119.8,28.6,120.3,28.9z M118.8,31.8c0.7,0.4,1.3,0.6,1.7,0.6c0.4,0.1,0.7-0.1,0.9-0.4
		c0.1-0.3,0.1-0.6-0.2-0.9c-0.3-0.3-0.8-0.6-1.5-1c-0.7-0.4-1.3-0.6-1.7-0.6c-0.4-0.1-0.7,0.1-0.9,0.4c-0.1,0.1-0.1,0.3-0.1,0.4
		c0,0.1,0.1,0.3,0.3,0.5c0.1,0.2,0.3,0.3,0.6,0.5C118.2,31.5,118.5,31.6,118.8,31.8z"/>
	<path class="st12" d="M122.7,24.1c0.5,0.3,0.9,0.5,1.3,0.8c0.4,0.3,0.6,0.6,0.8,0.9c0.2,0.3,0.3,0.6,0.3,1c0,0.3-0.1,0.7-0.3,1.1
		c-0.2,0.4-0.4,0.6-0.7,0.8c-0.3,0.2-0.6,0.3-1,0.3c-0.4,0-0.8,0-1.2-0.1c-0.4-0.1-0.9-0.3-1.4-0.5c-0.5-0.3-0.9-0.5-1.3-0.8
		c-0.4-0.3-0.6-0.6-0.8-0.9c-0.2-0.3-0.3-0.6-0.3-1c0-0.3,0.1-0.7,0.3-1.1c0.2-0.4,0.4-0.6,0.7-0.8c0.3-0.2,0.6-0.3,1-0.4
		c0.4,0,0.8,0,1.2,0.1C121.8,23.6,122.2,23.8,122.7,24.1z M121.2,27c0.7,0.4,1.3,0.6,1.7,0.6c0.4,0.1,0.7-0.1,0.9-0.4
		c0.1-0.3,0.1-0.6-0.2-0.9c-0.3-0.3-0.8-0.6-1.5-1c-0.7-0.4-1.3-0.6-1.7-0.6c-0.4-0.1-0.7,0.1-0.9,0.4c-0.1,0.1-0.1,0.3-0.1,0.4
		c0,0.1,0.1,0.3,0.3,0.5c0.1,0.2,0.3,0.3,0.6,0.5C120.6,26.7,120.9,26.8,121.2,27z"/>
	<path class="st12" d="M125.2,19.3c0.5,0.3,0.9,0.5,1.3,0.8c0.4,0.3,0.6,0.6,0.8,0.9c0.2,0.3,0.3,0.6,0.3,1c0,0.3-0.1,0.7-0.3,1.1
		c-0.2,0.4-0.4,0.6-0.7,0.8c-0.3,0.2-0.6,0.3-1,0.3c-0.4,0-0.8,0-1.2-0.1c-0.4-0.1-0.9-0.3-1.4-0.5c-0.5-0.3-0.9-0.5-1.3-0.8
		c-0.4-0.3-0.6-0.6-0.8-0.9c-0.2-0.3-0.3-0.6-0.3-1c0-0.3,0.1-0.7,0.3-1.1c0.2-0.4,0.4-0.6,0.7-0.8c0.3-0.2,0.6-0.3,1-0.3
		c0.4,0,0.8,0,1.2,0.1C124.2,18.8,124.6,19,125.2,19.3z M123.7,22.2c0.7,0.4,1.3,0.6,1.7,0.6c0.4,0.1,0.7-0.1,0.9-0.4
		c0.1-0.3,0.1-0.6-0.2-0.9c-0.3-0.3-0.8-0.6-1.5-1c-0.7-0.4-1.3-0.6-1.7-0.6c-0.4-0.1-0.7,0.1-0.9,0.4c-0.1,0.1-0.1,0.3-0.1,0.4
		c0,0.1,0.1,0.3,0.3,0.5c0.1,0.2,0.3,0.3,0.6,0.5C123,21.9,123.3,22.1,123.7,22.2z"/>
</g>
<g>
	<path class="st12" d="M137.2,70.6l-1,0.4l-1.6-3.8l-1.3,0.5l-0.3-0.8l3.5-1.5l0.3,0.8l-1.3,0.5L137.2,70.6z"/>
	<path class="st12" d="M141.8,68.6l-2.7,1.1l-1.9-4.6l2.7-1.1l0.3,0.8l-1.7,0.7l0.4,1l1.6-0.7l0.3,0.8l-1.6,0.7l0.5,1.2l1.7-0.7
		L141.8,68.6z"/>
	<path class="st12" d="M146.9,66.5l-1.2,0.5l-3.5-2.7l0,0c0.3,0.6,0.5,1,0.6,1.3l0.9,2.2l-0.9,0.4l-1.9-4.6l1.2-0.5l3.4,2.6l0,0
		c-0.3-0.6-0.5-1-0.6-1.3l-0.9-2.2l0.9-0.4L146.9,66.5z"/>
	<path class="st12" d="M149.8,65.3l-1,0.4l-1.6-3.8l-1.3,0.5l-0.3-0.8l3.5-1.5l0.3,0.8l-1.3,0.5L149.8,65.3z"/>
	<path class="st12" d="M154.4,63.4l-2.7,1.1l-1.9-4.6l2.7-1.1l0.3,0.8l-1.7,0.7l0.4,1l1.6-0.7l0.3,0.8l-1.6,0.7l0.5,1.2l1.7-0.7
		L154.4,63.4z"/>
	<path class="st12" d="M131.6,80.5l-1.2,0.5l-3.5-2.7l0,0c0.3,0.6,0.5,1,0.6,1.3l0.9,2.2l-0.9,0.4l-1.9-4.6l1.2-0.5l3.4,2.6l0,0
		c-0.3-0.6-0.5-1-0.6-1.3l-0.9-2.2l0.9-0.4L131.6,80.5z"/>
	<path class="st12" d="M136,75.9c0.3,0.8,0.4,1.4,0.2,2c-0.2,0.6-0.7,1-1.4,1.3s-1.3,0.3-1.9,0.1s-1-0.8-1.3-1.5s-0.4-1.4-0.2-2
		c0.2-0.6,0.7-1,1.4-1.3c0.7-0.3,1.3-0.3,1.9-0.1S135.6,75.2,136,75.9z M132.6,77.3c0.2,0.5,0.5,0.9,0.8,1c0.3,0.2,0.7,0.2,1,0
		c0.8-0.3,1-1,0.5-2c-0.4-1-1-1.4-1.8-1.1c-0.4,0.2-0.6,0.4-0.7,0.8S132.4,76.8,132.6,77.3z"/>
	<path class="st12" d="M138.6,72.2l1-0.4l0.4,5.3l-1.1,0.4l-3.5-4l1-0.4l2,2.4c0.1,0.1,0.2,0.3,0.4,0.5c0.1,0.2,0.2,0.3,0.3,0.4
		c-0.1-0.2-0.1-0.6-0.2-1.1L138.6,72.2z"/>
	<path class="st12" d="M144.8,75l-0.8-1l-1.7,0.7l0.1,1.2l-1.1,0.4l-0.3-5.3l1.2-0.5l3.6,3.9L144.8,75z M143.4,73.3
		c-0.7-0.9-1.1-1.4-1.2-1.5c-0.1-0.1-0.2-0.2-0.2-0.3c0,0.3,0.1,1,0.2,2.2L143.4,73.3z"/>
	<path class="st12" d="M148.3,73.5l-2.6-3.2l0,0c0.3,0.7,0.6,1.2,0.7,1.4l0.9,2.1l-0.9,0.4l-1.9-4.6l1.3-0.6l2.6,3.1l0,0l-0.3-4
		l1.3-0.6l1.9,4.6l-0.9,0.4l-0.9-2.2c0-0.1-0.1-0.2-0.1-0.4c-0.1-0.1-0.2-0.5-0.4-1.1l0,0l0.3,4.1L148.3,73.5z"/>
	<path class="st12" d="M155.1,70.7l-2.7,1.1l-1.9-4.6l2.7-1.1l0.3,0.8l-1.7,0.7l0.4,1l1.6-0.7l0.3,0.8l-1.6,0.7l0.5,1.2l1.7-0.7
		L155.1,70.7z"/>
	<path class="st12" d="M160.2,68.5l-1.2,0.5l-3.5-2.7l0,0c0.3,0.6,0.5,1,0.6,1.3l0.9,2.2l-0.9,0.4l-1.9-4.6l1.2-0.5l3.4,2.6l0,0
		c-0.3-0.6-0.5-1-0.6-1.3l-0.9-2.2l0.9-0.4L160.2,68.5z"/>
	<path class="st12" d="M163.1,67.3l-1,0.4l-1.6-3.8l-1.3,0.5l-0.3-0.8l3.5-1.5l0.3,0.8l-1.3,0.5L163.1,67.3z"/>
	<path class="st12" d="M167.7,65.4l-2.7,1.1l-1.9-4.6l2.7-1.1l0.3,0.8l-1.7,0.7l0.4,1l1.6-0.7l0.3,0.8l-1.6,0.7l0.5,1.2l1.7-0.7
		L167.7,65.4z"/>
</g>
</svg>
