<svg width="67" height="71" viewBox="0 0 67 71" fill="none" xmlns="http://www.w3.org/2000/svg">
<path fill-rule="evenodd" clip-rule="evenodd" d="M9.56916 37.864L41.3619 6.37077C42.8144 4.92833 42.8144 2.52427 41.3619 1.08183C39.9094 -0.36061 37.4887 -0.36061 36.0362 1.08183L1.17717 35.6202C-0.275285 37.0626 -0.275285 39.4667 1.17717 40.9091C1.25787 40.9893 1.25787 40.9893 1.33856 41.0694L30.2264 69.7579C31.6788 71.2003 33.9382 71.2003 35.4714 69.838C35.4714 69.838 35.4714 69.838 35.5521 69.838C35.5521 69.838 35.6327 69.838 35.6327 69.7579L64.924 40.6687C66.3765 39.2263 66.3765 36.8222 64.924 35.3798C64.8433 35.2997 64.8433 35.2997 64.7626 35.2195L43.5406 14.3042C42.0881 12.8617 39.6674 12.8617 38.2149 14.3042C36.7624 15.7466 36.7624 18.1507 38.2149 19.5931L56.4513 37.7037C56.6934 37.9441 56.6934 38.2647 56.4513 38.5051L33.2927 61.504C33.0506 61.7444 32.7278 61.7444 32.4857 61.504L9.56916 38.7455C9.32709 38.5051 9.32709 38.1044 9.56916 37.864Z" fill="white"/>
<path fill-rule="evenodd" clip-rule="evenodd" d="M22.722 44.1947C25.6269 44.1947 27.967 41.8708 27.967 38.9859C27.967 36.101 25.6269 33.7771 22.722 33.7771C19.8171 33.7771 17.477 36.101 17.477 38.9859C17.477 41.8708 19.8171 44.1947 22.722 44.1947Z" fill="#00AFEF"/>
<path fill-rule="evenodd" clip-rule="evenodd" d="M43.2985 44.1947C46.2034 44.1947 48.5435 41.8708 48.5435 38.9859C48.5435 36.101 46.2034 33.7771 43.2985 33.7771C40.3936 33.7771 38.0535 36.101 38.0535 38.9859C38.0535 41.8708 40.3936 44.1947 43.2985 44.1947Z" fill="#00AFEF"/>
</svg>
