<?xml version="1.0" standalone="no"?>
<!DOCTYPE svg PUBLIC "-//W3C//DTD SVG 20010904//EN"
 "http://www.w3.org/TR/2001/REC-SVG-20010904/DTD/svg10.dtd">
<svg version="1.0" xmlns="http://www.w3.org/2000/svg"
 width="568.000000pt" height="568.000000pt" viewBox="0 0 568.000000 568.000000"
 preserveAspectRatio="xMidYMid meet">
<metadata>
Created by potrace 1.14, written by Peter Selinger 2001-2017
</metadata>
<g transform="translate(0.000000,568.000000) scale(0.100000,-0.100000)"
fill="#000000" stroke="none">
<path d="M3175 5670 c-71 -22 -128 -71 -450 -391 -187 -186 -493 -489 -680
-674 -1551 -1535 -1826 -1811 -1845 -1851 -43 -88 -41 -201 5 -280 23 -38 284
-302 1295 -1304 228 -226 570 -566 760 -754 190 -189 361 -353 381 -364 100
-56 233 -48 328 19 25 18 242 227 481 465 239 238 602 597 805 799 734 727
1120 1114 1134 1137 29 45 41 75 45 109 3 19 5 36 7 39 2 7 2 9 -5 58 -3 24
-15 64 -26 90 -23 52 52 -24 -1658 1660 -128 126 -180 168 -223 178 -87 20
-125 19 -197 -3 -66 -20 -138 -83 -172 -149 -20 -40 -25 -63 -25 -129 1 -124
13 -142 271 -398 122 -122 461 -460 753 -750 300 -298 531 -536 531 -546 0
-20 -1860 -1872 -1892 -1883 -17 -7 -89 61 -461 431 -243 242 -664 659 -934
928 -321 318 -493 495 -493 508 0 13 147 165 427 443 543 538 1898 1881 2048
2030 141 140 170 191 168 297 -1 118 -67 222 -171 267 -51 23 -160 32 -207 18z"/>
<path d="M1873 2964 c-117 -30 -222 -117 -273 -226 -35 -75 -51 -182 -37 -243
34 -143 107 -245 217 -300 66 -33 108 -44 175 -48 228 -14 426 161 439 385 3
50 0 82 -18 163 -6 32 -64 126 -95 154 -67 62 -135 101 -206 118 -46 10 -155
9 -202 -3z"/>
<path d="M3545 2972 c-46 -6 -166 -67 -205 -104 -62 -59 -116 -152 -128 -223
-14 -86 4 -230 35 -266 7 -8 13 -21 13 -27 0 -21 124 -137 170 -159 86 -40
112 -46 213 -45 99 1 194 40 268 112 51 49 103 130 113 176 17 76 19 92 18
129 -2 178 -113 330 -282 390 -45 16 -158 25 -215 17z"/>
</g>
</svg>
