<?xml version="1.0" encoding="utf-8"?>
<!-- Generator: Adobe Illustrator 26.0.3, SVG Export Plug-In . SVG Version: 6.00 Build 0)  -->
<svg version="1.1" id="Layer_1" xmlns="http://www.w3.org/2000/svg" xmlns:xlink="http://www.w3.org/1999/xlink" x="0px" y="0px"
	 viewBox="0 0 180.7 180.7" style="enable-background:new 0 0 180.7 180.7;" xml:space="preserve">
<style type="text/css">
	.st0{fill:#00264D;}
	.st1{fill:url(#SVGID_1_);}
	.st2{fill:url(#SVGID_00000018222160625231507780000008186730028808687774_);}
	.st3{fill:url(#SVGID_00000072963817525206916960000014349872715483496106_);}
	.st4{fill:url(#SVGID_00000047745902388792244920000009066729666772392071_);}
	.st5{fill:url(#SVGID_00000035507266487471166540000004698980098287597216_);}
	.st6{fill:url(#SVGID_00000074429337271530839830000004260859877499572875_);}
	.st7{fill:url(#SVGID_00000107555936313561735160000007109659149470664638_);}
	.st8{fill:url(#SVGID_00000173159228083850591060000002148232453145928321_);}
	.st9{fill:url(#SVGID_00000007394619222948638900000007844091203565952425_);}
	.st10{opacity:0.25;fill:#FFFFFF;enable-background:new    ;}
	.st11{fill:url(#SVGID_00000117668518972197623200000011367978237991275691_);}
	.st12{fill:#FFFFFF;}
</style>
<g id="Слой_2">
	<g id="Layer_1_00000076566640612769431510000017773879384230929060_">
		<circle class="st0" cx="90.4" cy="90.4" r="90.4"/>
		
			<linearGradient id="SVGID_1_" gradientUnits="userSpaceOnUse" x1="73.6708" y1="99.5419" x2="11.0208" y2="124.3919" gradientTransform="matrix(1 0 0 -1 0 182)">
			<stop  offset="0" style="stop-color:#CC7400"/>
			<stop  offset="1" style="stop-color:#F2A41C"/>
		</linearGradient>
		<path class="st1" d="M73.3,87.2c0.4-2.4,1.4-4.6,2.7-6.7c0.8-1.2,0.7-2.8-0.3-3.8L30.2,31.2c-1.2-1.2-3.1-1.2-4.2,0
			c0,0-0.1,0.1-0.1,0.1C11.9,46.4,3.8,66,2.9,86.5c-0.1,1.7,1.2,3.1,2.8,3.1c0.1,0,0.1,0,0.2,0h64.4C71.8,89.6,73,88.6,73.3,87.2z"
			/>
		
			<linearGradient id="SVGID_00000031906994500853372480000018126171596435870123_" gradientUnits="userSpaceOnUse" x1="91.024" y1="112.7034" x2="124.704" y2="171.9934" gradientTransform="matrix(1 0 0 -1 0 182)">
			<stop  offset="0" style="stop-color:#CC7400"/>
			<stop  offset="1" style="stop-color:#F2A41C"/>
		</linearGradient>
		<path style="fill:url(#SVGID_00000031906994500853372480000018126171596435870123_);" d="M91.1,5.9v64.4c0,1.4,1,2.7,2.4,2.9
			c2.4,0.4,4.7,1.4,6.7,2.7c1.2,0.8,2.8,0.7,3.8-0.3l45.5-45.5c1.2-1.2,1.2-3.1,0-4.2c0,0-0.1-0.1-0.1-0.1
			c-15.1-13.9-34.7-22-55.2-22.9c-1.7-0.1-3.1,1.2-3.2,2.8C91.1,5.8,91.1,5.9,91.1,5.9z"/>
		
			<linearGradient id="SVGID_00000095300830406537180400000015039962050964802718_" gradientUnits="userSpaceOnUse" x1="85.8632" y1="108.9169" x2="56.7132" y2="172.0769" gradientTransform="matrix(1 0 0 -1 0 182)">
			<stop  offset="0" style="stop-color:#992E2E"/>
			<stop  offset="1" style="stop-color:#F24C4C"/>
		</linearGradient>
		<path style="fill:url(#SVGID_00000095300830406537180400000015039962050964802718_);" d="M80.5,76c2-1.4,4.3-2.3,6.7-2.8
			c1.4-0.3,2.4-1.5,2.4-2.9V5.9c0-1.7-1.3-3-3-3c-0.1,0-0.1,0-0.2,0c-20.5,0.9-40,9-55.2,22.9c-1.2,1.1-1.3,3-0.2,4.2
			c0,0,0.1,0.1,0.1,0.1l45.5,45.5C77.8,76.7,79.4,76.8,80.5,76z"/>
		
			<linearGradient id="SVGID_00000013170765158404515380000003243736952390423426_" gradientUnits="userSpaceOnUse" x1="73.0315" y1="85.5766" x2="9.5715" y2="58.0266" gradientTransform="matrix(1 0 0 -1 0 182)">
			<stop  offset="0" style="stop-color:#105B99"/>
			<stop  offset="1" style="stop-color:#1C9CF2"/>
		</linearGradient>
		<path style="fill:url(#SVGID_00000013170765158404515380000003243736952390423426_);" d="M76,100.2c-1.4-2-2.3-4.3-2.8-6.7
			c-0.3-1.4-1.5-2.4-2.9-2.4H5.9c-1.7,0-3,1.3-3,3c0,0.1,0,0.1,0,0.2c0.9,20.5,9,40,22.9,55.2c1.1,1.2,3,1.3,4.2,0.2
			c0,0,0.1-0.1,0.1-0.1L75.7,104C76.7,103,76.8,101.4,76,100.2z"/>
		
			<linearGradient id="SVGID_00000076598954273184500780000016428671219109019033_" gradientUnits="userSpaceOnUse" x1="106.0383" y1="102.0849" x2="172.4083" y2="125.0248" gradientTransform="matrix(1 0 0 -1 0 182)">
			<stop  offset="0" style="stop-color:#007F12"/>
			<stop  offset="1" style="stop-color:#00BF1B"/>
		</linearGradient>
		<path style="fill:url(#SVGID_00000076598954273184500780000016428671219109019033_);" d="M104.7,80.5c1.4,2,2.3,4.3,2.8,6.7
			c0.3,1.4,1.5,2.4,2.9,2.4h64.4c1.7,0,3-1.3,3-3c0-0.1,0-0.1,0-0.2c-0.9-20.5-9-40-22.9-55.2c-1.1-1.2-3-1.3-4.2-0.2
			c0,0-0.1,0.1-0.1,0.1l-45.5,45.5C104,77.8,103.9,79.4,104.7,80.5z"/>
		
			<linearGradient id="SVGID_00000049210971373556716180000007327310650566008727_" gradientUnits="userSpaceOnUse" x1="108.9206" y1="87.8312" x2="171.2506" y2="57.6112" gradientTransform="matrix(1 0 0 -1 0 182)">
			<stop  offset="0" style="stop-color:#7B287F"/>
			<stop  offset="1" style="stop-color:#C83ECC"/>
		</linearGradient>
		<path style="fill:url(#SVGID_00000049210971373556716180000007327310650566008727_);" d="M107.4,93.5c-0.4,2.4-1.4,4.7-2.8,6.7
			c-0.8,1.2-0.7,2.8,0.3,3.8l45.5,45.5c1.2,1.2,3.1,1.2,4.2,0c0,0,0.1-0.1,0.1-0.1c13.9-15.1,22-34.7,22.9-55.2
			c0.1-1.7-1.2-3.1-2.8-3.2c-0.1,0-0.1,0-0.2,0h-64.4C109,91.1,107.7,92.1,107.4,93.5z"/>
		
			<linearGradient id="SVGID_00000124850496148587328900000003745044466338349191_" gradientUnits="userSpaceOnUse" x1="83.8816" y1="74.9893" x2="57.1316" y2="11.5093" gradientTransform="matrix(1 0 0 -1 0 182)">
			<stop  offset="0" style="stop-color:#007F12"/>
			<stop  offset="1" style="stop-color:#00BF1B"/>
		</linearGradient>
		<path style="fill:url(#SVGID_00000124850496148587328900000003745044466338349191_);" d="M87.2,107.4c-2.4-0.4-4.7-1.4-6.7-2.8
			c-1.2-0.8-2.8-0.7-3.8,0.3l-45.5,45.5c-1.2,1.2-1.2,3.1,0,4.2c0,0,0.1,0.1,0.1,0.1c15.1,13.9,34.7,22,55.2,22.9
			c1.7,0.1,3.1-1.2,3.1-2.8c0-0.1,0-0.1,0-0.2v-64.4C89.6,109,88.6,107.7,87.2,107.4z"/>
		
			<linearGradient id="SVGID_00000136390018181678733240000011106743660858112689_" gradientUnits="userSpaceOnUse" x1="95.3624" y1="74.0811" x2="123.9724" y2="11.1811" gradientTransform="matrix(1 0 0 -1 0 182)">
			<stop  offset="0" style="stop-color:#CC7400"/>
			<stop  offset="1" style="stop-color:#F2A41C"/>
		</linearGradient>
		<path style="fill:url(#SVGID_00000136390018181678733240000011106743660858112689_);" d="M100.2,104.7c-2,1.4-4.3,2.3-6.7,2.8
			c-1.4,0.3-2.4,1.5-2.4,2.9v64.4c0,1.7,1.3,3,3,3c0.1,0,0.1,0,0.2,0c20.5-0.9,40-9,55.2-22.9c1.2-1.1,1.3-3,0.2-4.2
			c0,0-0.1-0.1-0.1-0.1L104,105.1C103,104,101.4,103.9,100.2,104.7z"/>
		<circle class="st0" cx="90.4" cy="90.4" r="30.2"/>
		
			<linearGradient id="SVGID_00000155130583854416873960000007313535416617954745_" gradientUnits="userSpaceOnUse" x1="90.3612" y1="119" x2="90.3612" y2="64.59" gradientTransform="matrix(1 0 0 -1 -2.838802e-03 181.9988)">
			<stop  offset="0" style="stop-color:#FFC033"/>
			<stop  offset="1" style="stop-color:#E5962E"/>
		</linearGradient>
		<circle style="fill:url(#SVGID_00000155130583854416873960000007313535416617954745_);" cx="90.4" cy="90.4" r="28.6"/>
		<circle class="st10" cx="90.4" cy="90.4" r="23.9"/>
		
			<linearGradient id="SVGID_00000067217632456952903140000012136971157930661768_" gradientUnits="userSpaceOnUse" x1="89.9889" y1="-910.7241" x2="89.9889" y2="-955.4741" gradientTransform="matrix(1.0041 0 0 1.0041 1.247385e-03 1022.8329)">
			<stop  offset="0" style="stop-color:#FFC033"/>
			<stop  offset="1" style="stop-color:#E5962E"/>
		</linearGradient>
		<circle style="fill:url(#SVGID_00000067217632456952903140000012136971157930661768_);" cx="90.4" cy="90.4" r="23.6"/>
		<path class="st12" d="M76.7,86.6c-0.5,0-0.9,0.2-0.9,0.6c0,1.5,5.5,0.6,5.5,4.4c0,2.2-2,3.3-4.3,3.3c-1.8,0-3.5-0.6-5-1.7l1.2-2.4
			c1.1,0.9,2.5,1.5,3.9,1.6c0.7,0,1.1-0.2,1.1-0.7c0-1.6-5.5-0.6-5.5-4.3c0-2,1.7-3.3,4.3-3.3c1.5,0,3.1,0.4,4.4,1.2l-1.2,2.4
			C79.1,87.1,77.9,86.7,76.7,86.6z"/>
		<path class="st12" d="M91.4,88c0,2.5-1.6,3.9-4.3,3.9h-1.6v2.8h-3.1V84.2h4.8C89.8,84.2,91.4,85.6,91.4,88z M88.5,88.1
			c0.1-0.7-0.4-1.4-1.2-1.5c-0.1,0-0.2,0-0.3,0h-1.5v2.9H87c0.7,0.1,1.4-0.4,1.5-1.2C88.5,88.3,88.5,88.2,88.5,88.1L88.5,88.1z"/>
		<path class="st12" d="M95.7,84.2v10.5h-3.1V84.2H95.7z"/>
		<path class="st12" d="M100.1,84.2l4.4,5.9v-5.9h2.8v10.5h-2.6l-4.4-5.8v5.8h-2.9V84.2H100.1z"/>
		<path class="st12" d="M128.8,112.7l-1.9-0.8l2.3-5.1l0.2-0.4c0.1-0.1,0.1-0.3,0.2-0.4l0.2-0.5l0.2-0.4l-0.1,0.1l-0.2,0.1l-0.3,0.1
			l-0.3,0.1l-1.4,0.3l-0.4-1.5l3.8-1l1.5,0.7L128.8,112.7z"/>
		<path class="st12" d="M138.9,106.7l2.7,1.2c1,0.4,1.8,1,2.5,1.8c0.4,0.6,0.4,1.4,0.1,2.1c-0.2,0.5-0.5,0.9-0.9,1.1
			c-0.4,0.2-0.9,0.3-1.3,0.1v0.1c0.4,0.3,0.8,0.7,0.9,1.2c0.1,0.5,0,1.1-0.2,1.5c-0.3,0.7-0.9,1.3-1.7,1.5c-0.9,0.2-1.8,0-2.7-0.4
			l-3.3-1.5L138.9,106.7z M139.2,111l1.1,0.5c0.4,0.2,0.8,0.3,1.2,0.3c0.3-0.1,0.6-0.3,0.7-0.6c0.2-0.3,0.2-0.6,0-0.9
			c-0.3-0.3-0.7-0.6-1.1-0.8l-1-0.4L139.2,111z M138.6,112.5l-1,2.3l1.2,0.6c0.4,0.2,0.8,0.3,1.3,0.2c0.4-0.1,0.6-0.4,0.8-0.7
			c0.3-0.7,0-1.3-1.1-1.8L138.6,112.5z"/>
		<path class="st12" d="M146.4,120.7l-1.9-0.8l3.3-7.2l-2.4-1.1l0.7-1.6l6.6,3l-0.7,1.6l-2.4-1.1L146.4,120.7z"/>
		<path class="st12" d="M157.1,116.6c-0.6-0.3-1.4-0.3-2,0.1c-0.7,0.5-1.3,1.1-1.6,1.9c-0.9,2-0.6,3.3,0.9,3.9
			c0.8,0.3,1.6,0.5,2.4,0.6l-0.7,1.6c-0.9,0-1.8-0.3-2.6-0.6c-1.1-0.4-2-1.3-2.4-2.5c-0.3-1.3-0.1-2.6,0.5-3.8
			c0.4-0.8,0.9-1.6,1.6-2.2c0.6-0.5,1.4-0.8,2.1-0.9c0.8-0.1,1.7,0.1,2.4,0.4c0.9,0.4,1.7,1,2.3,1.8l-1.3,1.2
			c-0.3-0.3-0.5-0.6-0.8-0.9C157.8,117,157.5,116.8,157.1,116.6z"/>
		<path class="st12" d="M130.6,77.1l-1,0.4l-1.5-3.8l-1.3,0.5l-0.3-0.8l3.5-1.4l0.3,0.8l-1.3,0.5L130.6,77.1z"/>
		<path class="st12" d="M132.9,74.1l0.7,1.8l-1,0.4l-1.9-4.6l1.4-0.6c0.5-0.2,1-0.3,1.5-0.2c0.4,0.1,0.7,0.5,0.9,0.9
			c0.1,0.3,0.1,0.5,0.1,0.8c-0.1,0.3-0.2,0.6-0.4,0.8l2.2,1.5l-1.1,0.4l-1.8-1.3L132.9,74.1z M132.6,73.3l0.3-0.1
			c0.2-0.1,0.5-0.2,0.6-0.4c0.1-0.2,0.1-0.4,0-0.6c-0.1-0.2-0.2-0.3-0.4-0.4c-0.3,0-0.5,0-0.8,0.1L132,72L132.6,73.3z"/>
		<path class="st12" d="M137.2,71.2l0.2-2.3l1.1-0.4l-0.4,3.5l0.7,1.8l-1,0.4l-0.7-1.8l-2.7-2.2l1.1-0.4L137.2,71.2z"/>
		<path class="st12" d="M145.5,71.1l-0.8-1l-1.7,0.7l0.1,1.2l-1.1,0.4l-0.2-5.3l1.2-0.5l3.5,4L145.5,71.1z M144.1,69.4l-1.2-1.5
			l-0.2-0.3c0.1,0.3,0.1,1,0.2,2.2L144.1,69.4z"/>
		<path class="st12" d="M147.8,67.1l1.8-0.8l1,2.4c-0.2,0.2-0.5,0.4-0.8,0.5c-0.3,0.1-0.5,0.3-0.8,0.4c-0.6,0.3-1.3,0.3-1.9,0
			c-0.6-0.3-1-0.9-1.3-1.5c-0.3-0.6-0.3-1.4-0.1-2c0.3-0.6,0.9-1.1,1.5-1.3c0.5-0.2,1-0.3,1.5-0.3v0.9c-0.4,0-0.8,0-1.2,0.2
			c-0.4,0.1-0.7,0.5-0.9,0.8c-0.1,0.4-0.1,0.9,0.1,1.3c0.1,0.4,0.4,0.8,0.8,1c0.3,0.2,0.7,0.2,1.1,0c0.2-0.1,0.4-0.2,0.6-0.3l-0.4-1
			l-0.9,0.3L147.8,67.1z"/>
		<path class="st12" d="M154.6,67.4l-0.8-1l-1.7,0.7l0.1,1.2l-1.1,0.4l-0.2-5.3l1.2-0.5l3.5,4L154.6,67.4z M153.2,65.7l-1.2-1.5
			l-0.2-0.3c0,0.3,0.1,1,0.2,2.2L153.2,65.7z"/>
		<path class="st12" d="M158,66l-2.1,0.8l-0.2-0.6l0.5-0.5l-1.2-3h-0.7l-0.2-0.6l2.1-0.8l0.2,0.6l-0.5,0.5l1.2,3h0.7L158,66z"/>
		<path class="st12" d="M162.9,64.1l-1.2,0.5l-3.4-2.7l0,0c0.3,0.6,0.5,1,0.6,1.3l0.9,2.2l-0.9,0.4l-1.9-4.6l1.2-0.5l3.4,2.7l0,0
			c-0.3-0.6-0.5-1-0.6-1.3l-0.9-2.2l0.9-0.4L162.9,64.1z"/>
		<path class="st12" d="M104.2,45.4c0.6,0.2,1,0.7,1.2,1.3c0.2,0.7,0.1,1.5-0.1,2.2l1.2,0.5l-0.4,0.8l-1.2-0.5
			c-0.4,0.9-0.9,1.7-1.6,2.3l-1.6-0.7c0.4-0.3,0.7-0.6,1-1c0.3-0.4,0.6-0.8,0.8-1.2l-1.9-0.8l-0.3,0.3c-0.5,0.5-1.1,1-1.7,1.2
			c-0.5,0.2-1.1,0.1-1.6-0.1c-0.6-0.2-1-0.7-1.1-1.3c-0.2-0.7-0.1-1.5,0.1-2.2L96.2,46l0.4-0.8l0.9,0.4c0.4-0.9,0.9-1.6,1.6-2.3
			l1.2,1.2c-0.5,0.5-0.9,1.1-1.3,1.7l1.8,0.8c0.5-0.5,1-0.9,1.5-1.3c0.3-0.2,0.6-0.3,1-0.4C103.5,45.2,103.9,45.2,104.2,45.4z
			 M98.9,48c0.2,0.1,0.4,0.1,0.5,0c0.2-0.1,0.4-0.3,0.6-0.4L98.6,47C98.4,47.6,98.5,47.9,98.9,48z M103.5,47.2
			c-0.2-0.1-0.4-0.1-0.5,0c-0.2,0.1-0.4,0.3-0.6,0.5l1.5,0.7C104,47.8,103.9,47.4,103.5,47.2z"/>
		<path class="st12" d="M109.3,41.2l-0.8,1.8l-5.1-2.2l-0.4-0.2l-0.4-0.2l-0.5-0.2l-0.4-0.2c0,0,0,0.1,0.1,0.2
			c0,0.1,0.1,0.1,0.1,0.2s0.1,0.2,0.1,0.3s0.1,0.2,0.1,0.3l0.4,1.4l-1.5,0.4l-1-3.8l0.7-1.5L109.3,41.2z"/>
		<path class="st12" d="M108.5,31c0.6,0.3,1.2,0.6,1.8,1c0.5,0.3,0.9,0.7,1.2,1.1c0.3,0.4,0.4,0.8,0.5,1.3c0,0.5-0.1,1-0.3,1.5
			c-0.2,0.5-0.5,0.9-0.9,1.2c-0.4,0.3-0.8,0.5-1.3,0.6c-0.5,0.1-1.1,0.1-1.7-0.1c-0.7-0.1-1.4-0.4-2-0.6c-0.6-0.3-1.3-0.6-1.8-1
			c-0.5-0.3-0.9-0.7-1.2-1.1c-0.3-0.4-0.4-0.8-0.5-1.3c0-0.5,0.1-1,0.3-1.5c0.2-0.5,0.5-0.9,0.9-1.2c0.4-0.3,0.8-0.5,1.3-0.6
			c0.6-0.1,1.1-0.1,1.7,0C107.2,30.5,107.8,30.7,108.5,31z M106.7,35.2c0.7,0.4,1.5,0.6,2.4,0.7c0.5,0.1,0.9-0.1,1.1-0.6
			c0.2-0.4,0-1-0.4-1.2c-0.6-0.5-1.4-0.9-2.2-1.2c-0.7-0.4-1.6-0.6-2.4-0.7c-0.5-0.1-1,0.1-1.2,0.6c-0.1,0.2-0.1,0.4,0,0.6
			c0.1,0.2,0.2,0.4,0.4,0.6c0.3,0.2,0.5,0.4,0.9,0.6C105.8,34.8,106.2,35,106.7,35.2L106.7,35.2z"/>
		<path class="st12" d="M111.4,24.3c0.6,0.3,1.2,0.6,1.8,1c0.5,0.3,0.9,0.7,1.2,1.1c0.3,0.4,0.4,0.8,0.5,1.3c0,0.5-0.1,1-0.3,1.5
			c-0.2,0.5-0.5,0.9-0.9,1.2c-0.4,0.3-0.8,0.5-1.3,0.5c-0.5,0.1-1.1,0.1-1.7,0c-0.7-0.1-1.4-0.4-2-0.6c-0.6-0.3-1.3-0.6-1.8-1
			c-0.5-0.3-0.9-0.7-1.2-1.1c-0.3-0.4-0.5-0.8-0.5-1.3c0-0.5,0.1-1,0.3-1.5c0.2-0.5,0.5-0.9,0.9-1.2c0.4-0.3,0.8-0.5,1.3-0.6
			c0.6-0.1,1.1-0.1,1.7,0C110.1,23.8,110.7,24,111.4,24.3z M109.6,28.4c0.7,0.4,1.5,0.6,2.4,0.7c0.5,0.1,1.1-0.2,1.2-0.8
			c0.1-0.4-0.1-0.8-0.4-1c-0.6-0.5-1.4-0.9-2.2-1.2c-0.8-0.4-1.6-0.6-2.4-0.7c-0.5-0.1-0.9,0.1-1.1,0.6c-0.1,0.2-0.1,0.4,0,0.6
			c0.1,0.2,0.2,0.4,0.4,0.6c0.3,0.2,0.5,0.4,0.9,0.6C108.7,28,109.2,28.2,109.6,28.4z"/>
		<path class="st12" d="M114.3,17.5c0.6,0.3,1.2,0.6,1.8,1c0.5,0.3,0.9,0.7,1.2,1.1c0.3,0.4,0.4,0.9,0.5,1.4c0,0.5-0.1,1-0.3,1.5
			c-0.2,0.5-0.5,0.9-0.9,1.2c-0.4,0.3-0.8,0.5-1.3,0.6c-0.5,0.1-1.1,0.1-1.7-0.1c-0.7-0.1-1.4-0.4-2-0.6c-0.6-0.3-1.3-0.6-1.8-1
			c-0.5-0.3-0.9-0.7-1.2-1.1c-0.3-0.4-0.4-0.8-0.5-1.3c0-0.5,0.1-1,0.3-1.5c0.2-0.5,0.5-0.9,0.9-1.2c0.4-0.3,0.8-0.5,1.3-0.6
			c0.6-0.1,1.1-0.1,1.7,0C113,17,113.7,17.2,114.3,17.5z M112.5,21.7c0.7,0.4,1.5,0.6,2.4,0.7c0.5,0.1,0.9-0.1,1.1-0.6
			c0.2-0.4,0-1-0.4-1.2c-0.6-0.5-1.4-0.9-2.2-1.2c-0.7-0.4-1.6-0.6-2.4-0.7c-0.5-0.1-0.9,0.1-1.1,0.6c-0.1,0.2-0.1,0.4,0,0.6
			c0.1,0.2,0.2,0.4,0.4,0.6c0.3,0.2,0.5,0.4,0.9,0.6C111.6,21.2,112,21.4,112.5,21.7z"/>
		<path class="st12" d="M113.6,48.2l1.5,0.7l-0.4,0.8l-3.9-1.7l0.5-1.1c0.1-0.4,0.4-0.8,0.8-1.1c0.3-0.2,0.7-0.2,1,0
			c0.2,0.1,0.4,0.2,0.5,0.5c0.1,0.2,0.2,0.5,0.2,0.7l2.2-0.4l-0.4,0.9l-1.9,0.3L113.6,48.2z M112.9,47.9l0.1-0.3
			c0.1-0.2,0.2-0.4,0.1-0.6c0-0.2-0.2-0.3-0.3-0.4c-0.1-0.1-0.3-0.1-0.5,0c-0.2,0.1-0.3,0.3-0.4,0.5l-0.1,0.3L112.9,47.9z"/>
		<path class="st12" d="M117.3,43.8l-1,2.3l-3.9-1.7l1-2.3l0.7,0.3l-0.6,1.4l0.9,0.4l0.6-1.3l0.7,0.3l-0.5,1.3l1,0.4l0.6-1.4
			L117.3,43.8z"/>
		<path class="st12" d="M119.3,39.1l-0.4,1l-2.3-0.4l-0.5-0.1l-0.5-0.1l0.4,0.3c0.1,0.1,0.3,0.2,0.4,0.3l1.8,1.4l-0.4,0.9l-4.4-0.7
			l0.3-0.8l2.4,0.4c0.4,0.1,0.8,0.2,1.1,0.3l-0.4-0.3c-0.2-0.1-0.3-0.2-0.4-0.3l-2-1.5l0.3-0.8l2.4,0.4l0.5,0.1l0.6,0.1l-0.5-0.3
			c-0.2-0.1-0.3-0.2-0.5-0.3l-1.9-1.4l0.3-0.8L119.3,39.1z"/>
		<path class="st12" d="M120.9,35.3l-1.1-0.1l-0.6,1.4l0.8,0.7l-0.4,0.9l-3.3-3.1l0.4-1l4.6,0.3L120.9,35.3z M119.1,35.1l-1.6-0.2
			h-0.3c0.2,0.2,0.7,0.6,1.5,1.2L119.1,35.1z"/>
		<path class="st12" d="M120.4,32.5l1.5,0.7l-0.4,0.8l-3.9-1.7l0.5-1.1c0.1-0.4,0.4-0.8,0.8-1.1c0.3-0.2,0.7-0.2,1,0
			c0.2,0.1,0.4,0.2,0.5,0.5c0.1,0.2,0.2,0.5,0.2,0.7l2.2-0.4l-0.4,0.9l-1.9,0.3L120.4,32.5z M119.7,32.2l0.1-0.3
			c0.1-0.2,0.1-0.4,0.1-0.6c0-0.2-0.2-0.3-0.3-0.4c-0.1-0.1-0.3-0.1-0.5,0c-0.2,0.1-0.3,0.3-0.4,0.5l-0.1,0.3L119.7,32.2z"/>
		<path class="st12" d="M122.5,26.2c0.6,0.2,1,0.6,1.2,1.2c0.2,0.6,0.1,1.3-0.2,1.8l-0.5,1.1l-3.9-1.7l0.5-1.2
			c0.2-0.6,0.6-1,1.2-1.3C121.4,25.9,122,25.9,122.5,26.2z M122.1,27c-0.8-0.4-1.4-0.2-1.8,0.6l-0.2,0.4l2.6,1.1l0.2-0.4
			c0.3-0.6,0.2-1.3-0.4-1.7C122.4,27.1,122.3,27,122.1,27L122.1,27z"/>
		<path class="st12" d="M106.5,127.7c0.2,0.4,0.2,0.8,0.3,1.2c0,0.4,0,0.8-0.2,1.1c-0.1,0.4-0.4,0.7-0.7,1c-0.3,0.3-0.7,0.6-1.2,0.7
			c-0.5,0.2-1,0.3-1.5,0.3c-0.5,0-0.9-0.1-1.3-0.3c-0.4-0.2-0.8-0.5-1.1-0.9c-0.4-0.4-0.7-1-0.9-1.5c-0.1-0.2-0.2-0.5-0.2-0.7
			c-0.1-0.2-0.1-0.5-0.2-0.7c0-0.2-0.1-0.4-0.1-0.7c0-0.2,0-0.4,0-0.6l1.7-0.7c0,0.2,0,0.4,0,0.6c0,0.2,0,0.5,0,0.7
			c0,0.2,0.1,0.5,0.1,0.7c0,0.2,0.1,0.4,0.2,0.6c0.2,0.5,0.5,0.9,0.9,1.2c0.4,0.2,0.9,0.2,1.3,0c0.4-0.1,0.7-0.5,0.9-0.9
			c0.1-0.5,0-1-0.2-1.5c-0.1-0.1-0.1-0.2-0.2-0.3c-0.1-0.1-0.1-0.2-0.2-0.3c-0.1-0.1-0.1-0.2-0.2-0.3c-0.1-0.1-0.1-0.2-0.2-0.3
			l0.1-1l5-1.6l2,5l-1.7,0.7l-1.3-3.2l-1.9,0.6c0.1,0.1,0.2,0.3,0.3,0.4C106.3,127.2,106.4,127.4,106.5,127.7z"/>
		<path class="st12" d="M109.3,138.5c-0.7,0.3-1.4,0.5-2.1,0.6c-0.6,0.1-1.2,0.1-1.8,0c-0.5-0.1-1-0.3-1.4-0.6
			c-0.4-0.4-0.7-0.8-0.9-1.4c-0.2-0.5-0.3-1-0.2-1.6c0.1-0.5,0.3-1,0.6-1.4c0.4-0.5,0.8-0.9,1.3-1.2c0.6-0.4,1.3-0.7,2-1
			c0.7-0.3,1.4-0.5,2.1-0.6c0.6-0.1,1.2-0.1,1.8,0c0.5,0.1,1,0.3,1.3,0.7c0.4,0.4,0.7,0.8,0.9,1.4c0.2,0.5,0.3,1,0.2,1.6
			c-0.1,0.5-0.3,1-0.6,1.4c-0.4,0.5-0.8,0.9-1.3,1.2C110.7,137.9,110,138.2,109.3,138.5z M107.5,134c-0.8,0.3-1.6,0.7-2.3,1.2
			c-0.4,0.3-0.6,0.8-0.4,1.3c0.2,0.5,0.7,0.7,1.2,0.6c0.9-0.1,1.7-0.3,2.6-0.7c0.8-0.3,1.6-0.7,2.3-1.3c0.4-0.3,0.6-0.8,0.4-1.3
			c-0.1-0.2-0.2-0.4-0.4-0.5c-0.2-0.1-0.5-0.2-0.8-0.1c-0.4,0-0.7,0.1-1.1,0.2C108.6,133.6,108.1,133.8,107.5,134z"/>
		<path class="st12" d="M112.2,145.8c-0.7,0.3-1.4,0.5-2.1,0.6c-0.6,0.1-1.2,0.1-1.8,0c-0.5-0.1-1-0.3-1.4-0.6
			c-0.4-0.4-0.7-0.8-0.9-1.4c-0.2-0.5-0.3-1-0.2-1.6c0.1-0.5,0.3-1,0.6-1.4c0.4-0.5,0.8-0.9,1.3-1.2c0.6-0.4,1.3-0.7,2-1
			c0.7-0.3,1.4-0.5,2.1-0.6c0.6-0.1,1.2-0.1,1.8,0c0.5,0.1,1,0.3,1.4,0.6c0.8,0.7,1.2,1.8,1.2,2.9c-0.1,0.5-0.3,1-0.6,1.4
			c-0.4,0.5-0.8,0.9-1.3,1.2C113.6,145.2,112.9,145.5,112.2,145.8z M110.4,141.3c-0.8,0.3-1.6,0.7-2.3,1.2c-0.4,0.3-0.6,0.8-0.4,1.3
			c0.2,0.5,0.7,0.7,1.2,0.6c1.8-0.3,3.4-0.9,4.9-2c0.4-0.3,0.6-0.8,0.4-1.3c-0.1-0.2-0.2-0.4-0.4-0.5c-0.2-0.1-0.5-0.2-0.8-0.1
			c-0.4,0-0.7,0.1-1.1,0.2C111.4,140.9,110.9,141.1,110.4,141.3z"/>
		<path class="st12" d="M117.9,147.1l0.4,1c0.2,0.3,0.2,0.7,0.2,1.1c-0.1,0.3-0.2,0.5-0.5,0.6c-0.2,0.1-0.4,0.1-0.6,0.1
			c-0.2,0-0.3-0.1-0.4-0.3l0,0c0,0.2,0,0.4-0.1,0.6c-0.3,0.4-0.8,0.5-1.3,0.3c-0.3-0.2-0.5-0.5-0.6-0.8l-0.5-1.2L117.9,147.1z
			 M116.9,148.3l0.2,0.4c0,0.1,0.1,0.3,0.2,0.4c0.1,0.1,0.2,0.1,0.3,0c0.1,0,0.2-0.1,0.2-0.2c0-0.2,0-0.3-0.1-0.5l-0.2-0.4
			L116.9,148.3z M116.4,148.5l-0.9,0.3l0.2,0.5c0,0.2,0.1,0.3,0.3,0.4c0.1,0.1,0.3,0.1,0.4,0c0.3-0.1,0.3-0.4,0.2-0.8L116.4,148.5z"
			/>
		<path class="st12" d="M116.3,152.8l-0.6-1.5l0.4-0.2l0.3,0.3l2.1-0.9v-0.5l0.4-0.2l0.6,1.5l-0.4,0.2l-0.3-0.3l-2.1,0.9v0.5
			L116.3,152.8z"/>
		<path class="st12" d="M117.1,154.6l-0.3-0.7l2.7-1.1l-0.4-0.9l0.6-0.2l1,2.5l-0.6,0.2l-0.4-0.9L117.1,154.6z"/>
		<path class="st12" d="M119.3,157.6c-0.3,0.1-0.6,0.1-0.8,0c-0.3-0.2-0.5-0.5-0.6-0.8c-0.1-0.3-0.2-0.7-0.2-1l0.7-0.3
			c0,0.2,0,0.4,0,0.6c0,0.2,0.1,0.3,0.1,0.4c0,0.1,0.1,0.2,0.2,0.3c0.1,0.1,0.2,0.1,0.3,0c0.1,0,0.1-0.1,0.2-0.1
			c0-0.1,0.1-0.1,0.1-0.2c0-0.2,0-0.3,0-0.5c0-0.2,0-0.4,0.1-0.6c0-0.1,0.1-0.3,0.2-0.4c0.1-0.1,0.2-0.2,0.4-0.2
			c0.3-0.1,0.6-0.1,0.8,0c0.3,0.2,0.5,0.4,0.6,0.7c0.1,0.2,0.1,0.3,0.1,0.5c0,0.2,0,0.4,0,0.6h-0.6c0-0.2,0-0.4,0-0.5
			c0-0.1-0.1-0.2-0.1-0.4c0-0.1-0.1-0.2-0.2-0.3c-0.1,0-0.2,0-0.3,0c-0.1,0-0.1,0.1-0.1,0.1c0,0.1-0.1,0.1-0.1,0.2
			c0,0.2-0.1,0.4-0.1,0.5c0,0.3-0.1,0.6-0.2,0.8C119.6,157.4,119.5,157.5,119.3,157.6z"/>
		<path class="st12" d="M118.7,158.6l3.3-1.3l0.3,0.7l-2.7,1l0.5,1.3l-0.6,0.2L118.7,158.6z"/>
		<path class="st12" d="M120.5,163.1l-0.8-1.9l3.3-1.3l0.8,1.9l-0.6,0.2l-0.5-1.2l-0.7,0.3l0.4,1.1l-0.6,0.2l-0.4-1.1l-0.8,0.3
			l0.5,1.2L120.5,163.1z"/>
		<path class="st12" d="M122.3,164l-1.3,0.5l-0.3-0.7l3.3-1.3l0.4,1c0.2,0.3,0.2,0.7,0.2,1.1c-0.2,0.5-0.7,0.8-1.2,0.7
			c-0.2-0.1-0.4-0.2-0.5-0.3l-1.1,1.6l-0.3-0.8l1-1.3L122.3,164z M122.9,163.8l0.1,0.2c0.1,0.2,0.2,0.3,0.3,0.4
			c0.1,0.1,0.3,0.1,0.4,0c0.1,0,0.2-0.1,0.3-0.3c0-0.2,0-0.4-0.1-0.6l-0.1-0.2L122.9,163.8z"/>
		<path class="st12" d="M112.4,150.9c-0.1-0.2-0.3-0.4-0.5-0.5c-0.3-0.1-0.6,0-0.9,0.1c-0.7,0.3-1,0.7-0.8,1.3
			c0.1,0.3,0.3,0.5,0.5,0.8l-0.6,0.2c-0.2-0.2-0.4-0.5-0.5-0.9c-0.2-0.4-0.2-0.9,0-1.3c0.3-0.4,0.6-0.7,1.1-0.9
			c0.3-0.1,0.7-0.2,1-0.2c0.3,0,0.6,0.1,0.8,0.3c0.2,0.2,0.4,0.4,0.5,0.7c0.1,0.3,0.2,0.7,0.2,1.1h-0.7c0-0.1,0-0.3,0-0.4
			C112.5,151.2,112.4,151,112.4,150.9z"/>
		<path class="st12" d="M113.1,155.9c-0.4,0.2-1,0.2-1.4,0.1c-0.4-0.2-0.8-0.5-0.9-1c-0.2-0.4-0.2-0.9,0-1.4
			c0.2-0.4,0.6-0.8,1.1-0.9c0.4-0.2,1-0.3,1.4-0.1c0.4,0.2,0.8,0.6,0.9,1c0.2,0.4,0.2,0.9,0,1.3
			C113.9,155.4,113.5,155.7,113.1,155.9z M112.1,153.4c-0.3,0.1-0.6,0.3-0.8,0.6c-0.1,0.2-0.1,0.5,0,0.7c0.2,0.6,0.7,0.7,1.4,0.4
			s1-0.7,0.8-1.3c-0.1-0.3-0.3-0.4-0.5-0.5C112.7,153.3,112.4,153.3,112.1,153.4L112.1,153.4z"/>
		<path class="st12" d="M112.2,158.5l-0.6-1.5l0.4-0.2l0.3,0.3l2.1-0.9v-0.5l0.4-0.2l0.6,1.5l-0.4,0.2l-0.3-0.3l-2.1,0.9v0.5
			L112.2,158.5z"/>
		<path class="st12" d="M113.6,162l-0.3-0.9l1.9-2.4l0,0l-0.9,0.4l-1.6,0.6l-0.2-0.6l3.3-1.3l0.4,0.9l-1.9,2.4l0,0l0.9-0.4l1.6-0.6
			l0.3,0.6L113.6,162z"/>
		<path class="st12" d="M115.6,164.4c-0.3,0.1-0.6,0.1-0.8-0.1c-0.3-0.2-0.5-0.5-0.6-0.8c-0.1-0.3-0.2-0.7-0.2-1l0.7-0.3
			c0,0.2,0,0.4,0,0.6c0,0.2,0,0.3,0.1,0.4c0,0.1,0.1,0.2,0.2,0.3c0.1,0.1,0.2,0.1,0.3,0c0.1,0,0.1-0.1,0.2-0.1
			c0-0.1,0.1-0.1,0.1-0.2c0-0.2,0-0.3,0-0.5c0-0.2,0-0.4,0.1-0.6c0-0.1,0.1-0.3,0.2-0.4c0.1-0.1,0.2-0.2,0.4-0.2
			c0.3-0.1,0.6-0.1,0.8,0c0.3,0.2,0.5,0.4,0.6,0.7c0.1,0.2,0.1,0.3,0.1,0.5c0,0.2,0,0.4,0,0.6h-0.6c0-0.2,0-0.3,0-0.5
			c0-0.1-0.1-0.2-0.1-0.4c0-0.1-0.1-0.2-0.2-0.3c-0.1,0-0.2,0-0.3,0c-0.1,0-0.1,0.1-0.1,0.1c0,0.1-0.1,0.1-0.1,0.2
			c0,0.2,0,0.4,0,0.5c0,0.3-0.1,0.6-0.2,0.8C115.9,164.2,115.8,164.3,115.6,164.4z"/>
		<path class="st12" d="M69.8,24.1l0.8,2l-2.7,1c-0.4-0.5-0.7-1.1-1-1.7c-0.3-0.6-0.3-1.4,0-2c0.4-0.7,1-1.2,1.7-1.4
			c0.7-0.3,1.5-0.3,2.2,0c0.7,0.4,1.2,1,1.5,1.7c0.2,0.5,0.3,1.1,0.3,1.7l-1,0c0-0.4,0-0.9-0.2-1.3c-0.1-0.4-0.5-0.8-0.9-1
			c-0.5-0.2-1-0.1-1.5,0.1c-0.5,0.1-0.9,0.4-1.2,0.8c-0.2,0.4-0.2,0.8,0,1.2c0.1,0.2,0.2,0.5,0.3,0.7l1-0.5l-0.4-1L69.8,24.1z"/>
		<path class="st12" d="M72.5,32.2c-0.7,0.3-1.5,0.4-2.2,0.1c-0.7-0.3-1.2-0.9-1.4-1.6c-0.3-0.7-0.3-1.4,0-2.1
			c0.4-0.7,1-1.2,1.7-1.4c0.7-0.3,1.5-0.4,2.2-0.1c0.6,0.3,1.1,0.9,1.3,1.6c0.3,0.7,0.3,1.4,0,2.1C73.8,31.5,73.2,32,72.5,32.2z
			 M71,28.4c-0.5,0.1-0.9,0.4-1.2,0.8c-0.2,0.4-0.2,0.8,0,1.2c0.3,0.9,1.1,1.1,2.2,0.7c1.2-0.4,1.6-1.1,1.3-2
			c-0.1-0.4-0.4-0.7-0.8-0.8C72,28.1,71.5,28.2,71,28.4z"/>
		<path class="st12" d="M70.3,34.3l5.2-1.9l0.4,1.1l-4.3,1.6l0.8,2.1l-0.9,0.3L70.3,34.3z"/>
		<path class="st12" d="M76.1,41.6c-0.7,0.3-1.5,0.3-2.2,0c-0.7-0.4-1.2-1.1-1.5-1.8l-0.6-1.5l5.2-1.9l0.6,1.6
			c0.3,0.7,0.3,1.5,0.1,2.2C77.4,40.9,76.8,41.4,76.1,41.6z M75.6,40.5c1.1-0.4,1.5-1.1,1.1-2.1l-0.2-0.6l-3.4,1.3l0.2,0.5
			c0.2,0.8,1.1,1.3,1.9,1.1C75.4,40.7,75.5,40.6,75.6,40.5L75.6,40.5z"/>
		<path class="st12" d="M74.9,46.7l-1.1-3l5.2-1.9l1.1,3l-0.9,0.3l-0.7-1.9l-1.1,0.4l0.7,1.7l-0.9,0.3L76.5,44l-1.3,0.5l0.8,1.9
			L74.9,46.7z"/>
		<path class="st12" d="M77.1,52.4L76.6,51l3.1-3.7l0,0c-0.7,0.3-1.2,0.5-1.5,0.6l-2.4,0.9l-0.4-1l5.2-1.9l0.5,1.4L78,51l0,0
			c0.7-0.3,1.1-0.5,1.4-0.6l2.5-1l0.4,1L77.1,52.4z"/>
		<path class="st12" d="M63.9,31.2c-0.1-0.4-0.4-0.7-0.8-0.8c-0.5-0.1-1-0.1-1.4,0.2c-1.2,0.4-1.6,1.1-1.2,2
			c0.2,0.4,0.4,0.8,0.7,1.2l-0.9,0.3c-0.4-0.4-0.6-0.8-0.8-1.3c-0.3-0.6-0.3-1.4,0-2c0.4-0.7,1-1.2,1.8-1.4c0.5-0.2,1-0.3,1.5-0.2
			c0.5,0,0.9,0.2,1.3,0.5c0.4,0.3,0.6,0.7,0.8,1.2c0.2,0.5,0.3,1.1,0.2,1.7l-1,0c0-0.2,0-0.5,0-0.7C64,31.6,63.9,31.4,63.9,31.2z"/>
		<path class="st12" d="M62,39.6l-0.4-1.1l2.2-0.9l-0.8-2l-2.2,0.9l-0.4-1.1l5.2-1.9l0.5,1.1l-2,0.8l0.8,2l2-0.8l0.4,1.1L62,39.6z"
			/>
		<path class="st12" d="M63.7,43.9l-1.1-3l5.2-1.9l1.1,3L68,42.3l-0.7-1.9l-1.1,0.4l0.7,1.7l-0.9,0.3l-0.7-1.8l-1.3,0.5l0.7,1.9
			L63.7,43.9z"/>
		<path class="st12" d="M66.7,47.5c-0.4,0.2-0.9,0.1-1.3-0.1c-0.5-0.3-0.8-0.7-1-1.3c-0.2-0.5-0.3-1.1-0.2-1.6l1-0.4
			c0,0.3,0,0.7,0,1c0,0.2,0.1,0.5,0.2,0.7c0.1,0.2,0.2,0.4,0.3,0.5c0.2,0.1,0.3,0.1,0.5,0c0.1,0,0.2-0.1,0.2-0.2
			c0.1-0.1,0.1-0.2,0.1-0.3c0-0.3,0.1-0.5,0.1-0.8c0-0.3,0.1-0.6,0.2-0.9c0.1-0.2,0.2-0.4,0.3-0.6c0.5-0.5,1.2-0.6,1.8-0.3
			c0.4,0.3,0.7,0.7,0.9,1.1c0.1,0.3,0.2,0.5,0.2,0.8c0,0.3,0,0.6,0,0.9l-1,0c0-0.3,0-0.5,0-0.8c0-0.2-0.1-0.4-0.1-0.6
			c-0.1-0.2-0.2-0.3-0.3-0.4c-0.1-0.1-0.3-0.1-0.4,0C68,44.4,68,44.5,68,44.5c-0.1,0.1-0.1,0.2-0.1,0.3c-0.1,0.3-0.1,0.6-0.1,0.8
			c0,0.4-0.1,0.9-0.3,1.3C67.2,47.2,67,47.4,66.7,47.5z"/>
		<path class="st12" d="M66.3,51l-0.5-1.1l4.3-1.6l-0.5-1.4l0.9-0.3l1.5,3.9l-0.9,0.3l-0.5-1.4L66.3,51z"/>
		<g>
			<path class="st12" d="M20.5,62.9l-1-0.4l1.7-3.8l-1.2-0.6l0.4-0.8l3.5,1.5l-0.3,0.8l-1.2-0.6L20.5,62.9z"/>
			<path class="st12" d="M24.2,62.4l-0.8,1.8l-1-0.4l2-4.6l1.3,0.6c0.5,0.2,0.9,0.5,1.2,0.9c0.2,0.4,0.2,0.8,0,1.2
				c-0.1,0.3-0.3,0.5-0.5,0.6c-0.3,0.1-0.6,0.2-0.8,0.2l0.5,2.6L25,64.9l-0.3-2.2L24.2,62.4z M24.6,61.6l0.3,0.1
				c0.2,0.1,0.5,0.2,0.8,0.2c0.2,0,0.4-0.2,0.4-0.4c0.1-0.2,0.1-0.4,0-0.6c-0.2-0.2-0.4-0.4-0.6-0.4l-0.3-0.1L24.6,61.6z"/>
			<path class="st12" d="M29.3,63.5l1.8-1.5l1,0.5l-2.7,2.1l-0.8,1.8l-1-0.4l0.8-1.8l-0.3-3.5l1,0.5L29.3,63.5z"/>
			<path class="st12" d="M35.2,69.3l0.1-1.2l-1.7-0.7l-0.8,1l-1-0.5l3.6-3.9l1.2,0.5l-0.4,5.3L35.2,69.3z M35.4,67.2
				c0.1-1.1,0.2-1.8,0.2-1.9c0-0.1,0-0.2,0-0.3c-0.2,0.2-0.7,0.8-1.5,1.7L35.4,67.2z"/>
			<path class="st12" d="M39.6,68.2l1.8,0.8l-1,2.4c-0.3,0-0.6-0.1-0.9-0.2c-0.3-0.1-0.6-0.2-0.8-0.3c-0.6-0.2-1.1-0.7-1.3-1.3
				c-0.2-0.7-0.1-1.4,0.2-2c0.2-0.6,0.7-1.1,1.4-1.4c0.7-0.2,1.4-0.2,2,0.2c0.5,0.2,0.9,0.5,1.3,0.8l-0.7,0.6
				c-0.2-0.3-0.6-0.5-0.9-0.7c-0.4-0.2-0.8-0.2-1.2,0c-0.4,0.2-0.7,0.6-0.9,1c-0.2,0.4-0.3,0.8-0.2,1.3c0.1,0.4,0.4,0.7,0.7,0.8
				c0.2,0.1,0.4,0.2,0.6,0.2l0.4-1L39.2,69L39.6,68.2z"/>
			<path class="st12" d="M44.2,73.2l0.2-1.2l-1.7-0.7l-0.8,1l-1-0.5l3.6-3.9l1.2,0.5l-0.4,5.3L44.2,73.2z M44.4,71.1
				c0.1-1.1,0.2-1.8,0.2-1.9c0-0.1,0-0.3,0-0.3c-0.2,0.2-0.7,0.8-1.5,1.7L44.4,71.1z"/>
			<path class="st12" d="M47.5,74.7l-2.1-0.9l0.2-0.6h0.7l1.3-3l-0.4-0.5l0.2-0.6l2.1,0.9l-0.2,0.5h-0.7l-1.3,3l0.4,0.5L47.5,74.7z"
				/>
			<path class="st12" d="M52.4,76.8l-1.2-0.5L50.7,72l0,0c-0.2,0.6-0.4,1.1-0.5,1.3l-1,2.2l-0.9-0.4l2-4.6l1.2,0.5l0.5,4.3l0,0
				c0.2-0.6,0.4-1,0.5-1.3l1-2.2l0.8,0.4L52.4,76.8z"/>
		</g>
		<g>
			<path class="st12" d="M14.6,121.2l0.7,1.7l-1,0.4l-1.7-4.5l1.3-0.5c0.5-0.2,1-0.3,1.5-0.2c0.4,0.1,0.7,0.4,0.8,0.8
				c0.1,0.3,0.1,0.5,0.1,0.8c-0.1,0.3-0.2,0.5-0.4,0.7l2.1,1.4l-1.1,0.4l-1.7-1.3L14.6,121.2z M14.3,120.4l0.3-0.1
				c0.2-0.1,0.5-0.2,0.6-0.4c0.1-0.2,0.1-0.4,0-0.6c-0.1-0.2-0.2-0.3-0.4-0.4c-0.3,0-0.5,0-0.7,0.1l-0.3,0.1L14.3,120.4z"/>
			<path class="st12" d="M21.2,120.6l-0.8-0.9l-1.6,0.7l0.1,1.2l-1,0.4l-0.2-5.1l1.2-0.5l3.3,3.9L21.2,120.6z M19.9,118.9l-1.2-1.4
				c-0.1-0.1-0.2-0.2-0.2-0.3c0,0.3,0.1,1,0.2,2.2L19.9,118.9z"/>
			<path class="st12" d="M26.4,118.5l-1.1,0.4l-1.9-1.4l-0.3,0.4l0.6,1.6l-1,0.4l-1.8-4.5l1-0.4l0.8,2l0.2-0.7l0.6-2l1-0.4l-0.8,2.6
				L26.4,118.5z"/>
			<path class="st12" d="M29.6,117.3l-2.6,1l-1.8-4.5l2.6-1l0.3,0.8l-1.6,0.6l0.4,1l1.5-0.6l0.3,0.8l-1.5,0.6l0.4,1.1l1.6-0.6
				L29.6,117.3z"/>
			<path class="st12" d="M28.7,112.5l1.4-0.6c0.5-0.2,1-0.3,1.5-0.3c0.4,0.1,0.7,0.3,0.8,0.7c0.1,0.2,0.1,0.5,0.1,0.7
				c-0.1,0.2-0.2,0.4-0.4,0.5l0,0c0.3-0.1,0.5,0,0.8,0.1c0.2,0.2,0.4,0.4,0.5,0.6c0.2,0.4,0.1,0.8-0.1,1.1c-0.3,0.4-0.6,0.7-1.1,0.8
				l-1.7,0.7L28.7,112.5z M30.4,113.9l0.5-0.2c0.2-0.1,0.4-0.2,0.5-0.3c0.1-0.1,0.1-0.3,0-0.5c0-0.2-0.2-0.3-0.3-0.3
				c-0.2,0-0.4,0-0.6,0.1l-0.5,0.2L30.4,113.9z M30.7,114.6l0.5,1.2l0.6-0.2c0.2-0.1,0.4-0.2,0.5-0.4c0.1-0.2,0.1-0.4,0-0.5
				c-0.2-0.4-0.5-0.5-1-0.2L30.7,114.6z"/>
			<path class="st12" d="M37.4,114.2l-0.7-0.9l-1.6,0.6l0.1,1.2l-1,0.4l-0.2-5.1l1.2-0.4l3.4,3.9L37.4,114.2z M36.1,112.6l-1.2-1.4
				c-0.1-0.1-0.1-0.2-0.2-0.3c0,0.3,0.1,1,0.2,2.2L36.1,112.6z"/>
			<path class="st12" d="M39.3,109.1c-0.3,0.1-0.6,0.4-0.7,0.7c-0.1,0.4,0,0.9,0.2,1.2c0.4,1,1,1.4,1.7,1.1c0.4-0.2,0.7-0.4,1-0.7
				l0.3,0.8c-0.3,0.3-0.7,0.6-1.2,0.7c-0.5,0.3-1.2,0.3-1.7,0c-0.6-0.3-1-0.9-1.2-1.5c-0.2-0.4-0.3-0.9-0.2-1.3
				c0-0.4,0.2-0.8,0.4-1.1c0.3-0.3,0.6-0.6,1-0.7c0.5-0.2,1-0.2,1.4-0.2v0.9c-0.2,0-0.4,0-0.6,0C39.7,109,39.5,109.1,39.3,109.1z"/>
			<path class="st12" d="M46.6,110.6l-1.1,0.4l-1.9-1.4l-0.3,0.4l0.6,1.6l-1,0.4l-1.8-4.5l1-0.4l0.8,2l0.2-0.7l0.6-2l1-0.4l-0.8,2.6
				L46.6,110.6z"/>
			<path class="st12" d="M51.4,108.7l-3,1.2l-0.3-0.7l0.6-1.6c0.1-0.2,0.1-0.4,0.2-0.5c0.1-0.1,0.1-0.3,0.2-0.5c0-0.1,0-0.3,0-0.4
				c0-0.1,0-0.3-0.1-0.4c0-0.1-0.1-0.2-0.3-0.3c-0.1-0.1-0.3-0.1-0.4,0c-0.2,0.1-0.3,0.2-0.4,0.3c-0.1,0.2-0.2,0.3-0.3,0.5l-0.8-0.4
				c0.1-0.1,0.1-0.2,0.2-0.4c0.1-0.1,0.2-0.2,0.2-0.3c0.1-0.1,0.2-0.2,0.3-0.3c0.1-0.1,0.3-0.2,0.5-0.2c0.2-0.1,0.4-0.1,0.6-0.1
				c0.2,0,0.4,0,0.5,0.1c0.2,0.1,0.3,0.2,0.4,0.3c0.1,0.1,0.2,0.3,0.3,0.5c0.1,0.2,0.1,0.4,0.1,0.6c0,0.2,0,0.4-0.1,0.6
				c0,0.2-0.1,0.4-0.2,0.6c-0.1,0.2-0.2,0.4-0.3,0.6l-0.3,0.8l0,0l1.8-0.7L51.4,108.7z"/>
			<path class="st12" d="M54,105.1c0.1,0.3,0.2,0.7,0.3,1c0,0.3,0,0.6,0,0.8c0,0.2-0.2,0.5-0.3,0.6c-0.2,0.2-0.4,0.4-0.6,0.4
				c-0.2,0.1-0.5,0.1-0.7,0.1c-0.2,0-0.5-0.1-0.7-0.3c-0.2-0.2-0.4-0.4-0.6-0.6c-0.2-0.3-0.4-0.6-0.5-0.9c-0.1-0.3-0.2-0.7-0.3-1
				c0-0.3,0-0.6,0-0.8c0-0.2,0.1-0.5,0.3-0.7c0.2-0.2,0.4-0.3,0.6-0.4c0.2-0.1,0.5-0.1,0.7-0.1c0.2,0,0.5,0.1,0.7,0.3
				c0.2,0.2,0.4,0.4,0.6,0.6C53.7,104.5,53.9,104.8,54,105.1z M51.9,106c0.1,0.4,0.3,0.8,0.6,1.1c0.1,0.2,0.4,0.3,0.6,0.2
				c0.2-0.1,0.3-0.3,0.3-0.6c0-0.4-0.2-0.8-0.3-1.2c-0.1-0.4-0.3-0.8-0.6-1.1c-0.1-0.2-0.4-0.3-0.6-0.2c-0.1,0-0.2,0.1-0.2,0.2
				c-0.1,0.1-0.1,0.2-0.1,0.4c0,0.2,0,0.4,0.1,0.5C51.7,105.5,51.8,105.7,51.9,106z"/>
			<path class="st12" d="M56.4,103.5c0.1,0.2,0.1,0.3,0.1,0.5c0,0.1,0,0.3-0.1,0.4c-0.1,0.1-0.1,0.3-0.2,0.3
				c-0.1,0.1-0.3,0.2-0.4,0.3c-0.2,0.1-0.3,0.1-0.5,0.1c-0.1,0-0.3,0-0.4-0.1c-0.1-0.1-0.2-0.2-0.3-0.3c-0.1-0.1-0.2-0.3-0.2-0.5
				c-0.1-0.2-0.1-0.3-0.1-0.5c0-0.1,0-0.3,0-0.4c0.1-0.1,0.1-0.3,0.2-0.3c0.1-0.1,0.3-0.2,0.5-0.3c0.2-0.1,0.3-0.1,0.5-0.1
				c0.1,0,0.3,0,0.4,0.1c0.1,0.1,0.2,0.2,0.3,0.3C56.2,103.2,56.3,103.4,56.4,103.5z M55,104.1c0,0.1,0.1,0.2,0.2,0.3
				c0.1,0.1,0.2,0.1,0.3,0c0.1,0,0.2-0.1,0.2-0.2c0-0.1,0-0.3-0.1-0.4c-0.1-0.3-0.3-0.4-0.5-0.4c-0.1,0-0.2,0.1-0.2,0.2
				C54.9,103.8,54.9,103.9,55,104.1z M58,101.7l-0.9,4.9l-0.7,0.3l0.9-4.9L58,101.7z M60.1,104.1c0.1,0.2,0.1,0.3,0.1,0.5
				c0,0.1,0,0.3-0.1,0.4c-0.1,0.1-0.1,0.3-0.2,0.3c-0.1,0.1-0.3,0.2-0.4,0.3c-0.2,0.1-0.3,0.1-0.5,0.1c-0.1,0-0.3,0-0.4-0.1
				c-0.1-0.1-0.2-0.2-0.3-0.3c-0.1-0.1-0.2-0.3-0.3-0.4c-0.1-0.2-0.1-0.3-0.1-0.5c0-0.1,0-0.3,0-0.4c0.1-0.1,0.1-0.3,0.2-0.3
				c0.1-0.1,0.3-0.2,0.5-0.3c0.2-0.1,0.3-0.1,0.5-0.1c0.1,0,0.3,0,0.4,0.1c0.1,0.1,0.3,0.2,0.4,0.3C59.9,103.8,60,103.9,60.1,104.1
				L60.1,104.1z M58.7,104.6c0,0.1,0.1,0.3,0.2,0.3c0.1,0.1,0.2,0.1,0.3,0c0.1,0,0.2-0.1,0.2-0.2c0-0.1,0-0.3-0.1-0.4
				c-0.1-0.3-0.3-0.5-0.5-0.4c-0.1,0-0.2,0.1-0.2,0.2C58.6,104.4,58.6,104.5,58.7,104.6L58.7,104.6z"/>
		</g>
		<g>
			<path class="st12" d="M59.9,151.3c0.5,0.2,0.9,0.6,1.1,1.2c0.1,0.6,0,1.3-0.2,1.9c-0.2,0.6-0.6,1.1-1.1,1.6l-1.2-0.5
				c0.3-0.3,0.6-0.6,0.8-0.9c0.2-0.2,0.3-0.5,0.4-0.7c0.1-0.2,0.2-0.5,0.1-0.7c0-0.2-0.2-0.4-0.4-0.4c-0.1,0-0.2,0-0.4,0
				c-0.1,0-0.3,0.1-0.4,0.2c-0.3,0.2-0.5,0.4-0.8,0.6c-0.3,0.2-0.6,0.5-0.9,0.6c-0.2,0.1-0.5,0.2-0.8,0.2c-0.3,0-0.6,0-0.8-0.2
				c-0.5-0.2-0.9-0.6-1-1.1c-0.1-0.6-0.1-1.2,0.2-1.7c0.1-0.3,0.3-0.6,0.5-0.9c0.2-0.3,0.5-0.5,0.7-0.8l0.8,0.9
				c-0.2,0.2-0.4,0.4-0.6,0.7c-0.1,0.2-0.3,0.4-0.4,0.6c-0.1,0.2-0.1,0.4-0.1,0.6c0,0.2,0.2,0.3,0.4,0.4c0.1,0,0.2,0,0.3,0
				c0.1,0,0.3-0.1,0.4-0.1c0.3-0.2,0.5-0.4,0.8-0.6c0.4-0.4,0.8-0.6,1.3-0.8C59.2,151.1,59.6,151.2,59.9,151.3z"/>
			<path class="st12" d="M63.1,148.7l-1.2,2.7l-0.7-0.3v-0.9l-4-1.7l-0.7,0.6l-0.7-0.3L57,146l0.7,0.3v0.9l4,1.7l0.7-0.6L63.1,148.7
				z"/>
			<path class="st12" d="M63.6,147.6l-6.1-2.7l0.6-1.3l5,2.2l1.1-2.5l1.1,0.4L63.6,147.6z"/>
			<path class="st12" d="M61,136.7l0.6-1.3l5.2,4.8l-0.6,1.4l-7-0.6l0.6-1.3l4.1,0.4c0.2,0,0.5,0.1,0.8,0.1l0.7,0.1
				c-0.4-0.3-0.8-0.6-1.2-1L61,136.7z"/>
			<path class="st12" d="M69.6,133.8l-1.5,3.5l-6.1-2.7l1.5-3.5l1.1,0.5l-1,2.2l1.4,0.6l0.9-2.1l1.1,0.5l-0.9,2.1l1.6,0.7l1-2.2
				L69.6,133.8z"/>
			<path class="st12" d="M68.4,130.2l2.3,1l-0.6,1.3l-6.1-2.7l0.8-1.8c0.2-0.7,0.7-1.2,1.3-1.6c0.5-0.3,1.1-0.3,1.6,0
				c0.3,0.1,0.6,0.4,0.8,0.7c0.2,0.3,0.3,0.7,0.3,1.1l3.5-0.6l-0.6,1.4l-3,0.4L68.4,130.2z M67.3,129.7l0.2-0.4
				c0.2-0.3,0.2-0.7,0.2-1c-0.1-0.3-0.3-0.5-0.5-0.6c-0.2-0.1-0.5-0.1-0.8,0c-0.3,0.2-0.5,0.5-0.6,0.9l-0.2,0.4L67.3,129.7z"/>
			<path class="st12" d="M66.5,154.7c-0.2,0.4-0.2,1,0.1,1.4c0.3,0.5,0.8,0.9,1.4,1.1c1.4,0.6,2.3,0.4,2.7-0.6
				c0.2-0.5,0.3-1.1,0.4-1.7l1.1,0.5c0,0.6-0.2,1.2-0.4,1.8c-0.3,0.8-0.9,1.4-1.7,1.7c-0.9,0.2-1.8,0.1-2.6-0.3
				c-0.6-0.2-1.1-0.6-1.5-1.1c-0.4-0.4-0.6-0.9-0.7-1.5c-0.1-0.6,0-1.2,0.3-1.7c0.3-0.6,0.7-1.2,1.2-1.6l0.9,0.9
				c-0.2,0.2-0.4,0.4-0.6,0.6C66.8,154.2,66.6,154.4,66.5,154.7z"/>
			<path class="st12" d="M75.1,149l-0.6,1.3l-2.6-1.2l-1.1,2.4l2.6,1.1l-0.6,1.3l-6.1-2.6l0.6-1.3l2.4,1.1l1.1-2.4l-2.4-1.1l0.6-1.3
				L75.1,149z"/>
			<path class="st12" d="M77.3,144l-1.5,3.5l-6.1-2.7l1.6-3.5l1,0.5l-1,2.2l1.3,0.6l0.9-2.1l1.1,0.5l-0.9,2.1l1.6,0.7l1-2.2
				L77.3,144z"/>
			<path class="st12" d="M77.7,138.3c0.5,0.2,0.9,0.6,1.1,1.2c0.1,0.6,0,1.3-0.2,1.9c-0.3,0.6-0.6,1.1-1.1,1.6l-1.2-0.5
				c0.3-0.3,0.6-0.6,0.8-0.9c0.2-0.2,0.3-0.5,0.5-0.7c0.1-0.2,0.2-0.5,0.1-0.7c0-0.2-0.2-0.4-0.4-0.4c-0.1,0-0.2,0-0.4,0
				c-0.1,0-0.3,0.1-0.4,0.2c-0.3,0.2-0.5,0.4-0.8,0.6c-0.3,0.2-0.6,0.5-0.9,0.6c-0.2,0.1-0.5,0.2-0.8,0.2c-0.9,0-1.6-0.5-1.9-1.3
				c-0.1-0.6-0.1-1.2,0.2-1.7c0.1-0.3,0.3-0.6,0.5-0.9c0.2-0.3,0.5-0.5,0.7-0.8l0.8,0.9c-0.2,0.2-0.4,0.4-0.6,0.7
				c-0.1,0.2-0.3,0.4-0.3,0.6c-0.1,0.2-0.1,0.4-0.1,0.6c0.1,0.3,0.4,0.5,0.7,0.4c0.1,0,0.3-0.1,0.4-0.1c0.3-0.2,0.5-0.4,0.8-0.6
				c0.4-0.4,0.8-0.7,1.3-0.8C77,138.1,77.4,138.2,77.7,138.3z"/>
			<path class="st12" d="M81,135.6l-0.6,1.3l-5-2.2l-0.7,1.7l-1.1-0.5l2-4.6l1.1,0.5l-0.7,1.7L81,135.6z"/>
		</g>
	</g>
</g>
</svg>
