<?xml version="1.0" encoding="utf-8"?>
<!-- Generator: Adobe Illustrator 26.0.3, SVG Export Plug-In . SVG Version: 6.00 Build 0)  -->
<svg version="1.1" id="Layer_1" xmlns="http://www.w3.org/2000/svg" xmlns:xlink="http://www.w3.org/1999/xlink" x="0px" y="0px"
	 viewBox="0 0 247 247" style="enable-background:new 0 0 247 247;" xml:space="preserve">
<style type="text/css">
	.st0{opacity:0.5;fill-rule:evenodd;clip-rule:evenodd;fill:#FFFFFF;enable-background:new    ;}
	.st1{fill:none;stroke:#FFFFFF;stroke-width:2.978;stroke-linecap:round;stroke-linejoin:round;stroke-miterlimit:10;}
	.st2{fill:#247CC2;}
	.st3{fill:url(#SVGID_1_);}
	.st4{opacity:0.2;fill-rule:evenodd;clip-rule:evenodd;fill:#FFFFFF;enable-background:new    ;}
</style>
<g>
	<path class="st0" d="M123.6,19.8C66.7,19.8,20.4,66.1,20.4,123s46.3,103.2,103.2,103.2S226.8,179.9,226.8,123
		S180.5,19.8,123.6,19.8z M123.6,224.3c-55.8,0-101.3-45.4-101.3-101.3c0-55.8,45.4-101.3,101.3-101.3
		c55.8,0,101.3,45.4,101.3,101.3C224.8,178.8,179.4,224.3,123.6,224.3z"/>
	<path class="st1" d="M180.3,201.4c-15.9,11.6-35.6,18.4-56.7,18.4s-40.8-6.8-56.7-18.4"/>
	<path class="st1" d="M30,147.6c-5-19.1-4.3-39.8,3.3-59.6C41,68.3,54.4,52.5,71,41.8"/>
	<path class="st1" d="M217.1,147.6c5-19.1,4.3-39.8-3.3-59.6s-21.1-35.6-37.7-46.2"/>
	<path class="st2" d="M124,45.3L92.6,24.6c22-6.6,42.5-6.3,62.7,0L124,45.3z"/>
	
		<linearGradient id="SVGID_1_" gradientUnits="userSpaceOnUse" x1="124" y1="-40.2784" x2="124" y2="-24.6116" gradientTransform="matrix(1 0 0 1 0 64)">
		<stop  offset="0" style="stop-color:#FFC033"/>
		<stop  offset="1" style="stop-color:#E5962E"/>
	</linearGradient>
	<path class="st3" d="M103.2,26.1c8.4-2.2,13.3-2.7,20.3-2.7c7.3,0,15.1,0.6,21.3,2.7L124,39.9L103.2,26.1z"/>
	<g>
		<path class="st4" d="M212,201.4c0.1-0.1,0.2-0.2,0.3-0.3c2.3-2.6,4.4-5.2,6.5-8c0-0.1,0.1-0.1,0.1-0.2c0.6-0.9,1.2-1.7,1.9-2.6
			c0.1-0.1,0.1-0.2,0.2-0.3c0.6-0.9,1.3-1.9,1.9-2.8l0,0l0,0c7-10.7,12.2-22.6,15.4-35.4c0.1-0.3,0.1-0.6,0.2-0.9
			c0.2-0.9,0.4-1.9,0.6-2.8c0.1-0.3,0.1-0.6,0.2-0.9c0.2-1.2,0.5-2.4,0.7-3.6c0-0.2,0.1-0.4,0.1-0.5c0.2-1,0.3-2.1,0.5-3.1
			c0.1-0.3,0.1-0.7,0.1-1c0.1-1,0.3-2,0.4-3.1c0-0.2,0.1-0.4,0.1-0.7c0.1-1.2,0.2-2.4,0.3-3.7c0-0.3,0-0.6,0.1-0.9
			c0.1-1,0.1-1.9,0.1-2.9c0-0.3,0-0.7,0-1.1c0-1.2,0.1-2.5,0.1-3.8c0-1,0-2,0-3c0-0.6,0-1.2-0.1-1.7c0-0.4,0-0.8-0.1-1.3
			c0-0.8-0.1-1.6-0.1-2.3c0-0.2,0-0.4,0-0.6c-0.1-0.9-0.1-1.8-0.2-2.7c0-0.1,0-0.2,0-0.2c-1.7-16.9-7-32.7-15-46.8l0,0l0,0
			c-0.6-1-1.1-2-1.7-2.9c-0.1-0.2-0.2-0.3-0.3-0.5c-0.5-0.8-0.9-1.5-1.4-2.3c-0.2-0.2-0.3-0.5-0.5-0.7c-0.5-0.7-0.9-1.4-1.4-2.1
			c-0.1-0.2-0.3-0.4-0.5-0.7c-0.6-0.8-1.2-1.7-1.8-2.5l-0.1-0.1c-0.7-0.9-1.4-1.8-2.1-2.7c-0.1-0.1-0.1-0.2-0.2-0.2
			c-0.6-0.8-1.2-1.5-1.9-2.3c-0.1-0.2-0.3-0.4-0.4-0.5c-0.6-0.7-1.2-1.4-1.8-2c-0.1-0.2-0.3-0.3-0.4-0.5c-0.7-0.8-1.4-1.6-2.2-2.4
			l0,0c-1.6-1.7-3.2-3.3-4.9-4.8c-0.1-0.1-0.2-0.2-0.3-0.3c-0.7-0.7-1.5-1.3-2.2-2c-0.1-0.1-0.2-0.2-0.3-0.3c-2.6-2.3-5.2-4.4-8-6.5
			c-0.1,0-0.1-0.1-0.2-0.1c-0.9-0.6-1.7-1.2-2.6-1.9c-0.1-0.1-0.2-0.1-0.3-0.2c-11.7-8.1-24.9-14.1-39.1-17.5l0,0l0,0
			c-4.4-1.1-9-1.9-13.6-2.5c-0.2,0-0.3,0-0.5-0.1c-0.9-0.1-1.8-0.2-2.8-0.3c-0.3,0-0.6-0.1-0.9-0.1c-0.8-0.1-1.6-0.1-2.4-0.2
			c-0.4,0-0.7-0.1-1-0.1c-0.8-0.1-1.6-0.1-2.4-0.1c-0.3,0-0.7,0-1,0c-1.1,0-2.2-0.1-3.4-0.1c-1.1,0-2.2,0-3.4,0.1c-0.3,0-0.7,0-1,0
			c-0.8,0-1.6,0.1-2.4,0.1c-0.3,0-0.7,0-1,0.1c-0.8,0.1-1.6,0.1-2.4,0.2c-0.3,0-0.6,0.1-0.9,0.1c-0.9,0.1-1.8,0.2-2.8,0.3
			c-0.2,0-0.3,0-0.5,0.1C104.5,6.2,100,7,95.6,8.1l0,0l0,0c-14.2,3.4-27.4,9.5-39.1,17.5c-0.1,0.1-0.2,0.1-0.3,0.2
			c-0.9,0.6-1.8,1.2-2.6,1.9c-0.1,0-0.1,0.1-0.2,0.1c-2.8,2-5.4,4.2-8,6.5c-0.1,0.1-0.2,0.2-0.3,0.3c-0.7,0.7-1.5,1.3-2.2,2
			c-0.1,0.1-0.2,0.2-0.3,0.3c-1.7,1.6-3.3,3.2-4.9,4.8l0,0c-0.7,0.8-1.5,1.6-2.2,2.4c-0.1,0.2-0.3,0.3-0.4,0.5
			c-0.6,0.7-1.2,1.4-1.8,2.1c-0.2,0.2-0.3,0.3-0.5,0.5c-0.6,0.8-1.3,1.5-1.9,2.3c-0.1,0.1-0.1,0.2-0.2,0.2c-0.7,0.9-1.4,1.8-2.1,2.7
			c0,0,0,0.1-0.1,0.1c-0.6,0.8-1.2,1.7-1.8,2.5c-0.1,0.2-0.3,0.4-0.5,0.7c-0.5,0.7-1,1.4-1.4,2.1c-0.2,0.2-0.3,0.5-0.5,0.7
			c-0.5,0.8-1,1.5-1.4,2.3c-0.1,0.2-0.2,0.3-0.3,0.5c-7.1,11.5-12.2,24.4-15,38.1l0,0l0,0c-0.6,2.8-1.1,5.7-1.4,8.6l0,0
			c-0.1,1-0.2,1.9-0.3,2.9c0,0.1,0,0.2,0,0.2c-0.1,0.9-0.2,1.8-0.2,2.7c0,0.2,0,0.4,0,0.6c-0.1,0.8-0.1,1.6-0.2,2.3
			c0,0.4,0,0.8-0.1,1.3c0,0.6-0.1,1.2-0.1,1.7c0,1,0,2,0,3c0,1.3,0,2.5,0.1,3.8c0,0.4,0,0.7,0,1.1c0,1,0.1,1.9,0.2,2.9
			c0,0.3,0,0.6,0.1,0.9c0.1,1.2,0.2,2.4,0.3,3.7c0,0.2,0.1,0.4,0.1,0.7c0.1,1,0.2,2,0.4,3.1c0.1,0.3,0.1,0.7,0.1,1
			c0.2,1,0.3,2.1,0.5,3.1c0,0.2,0.1,0.4,0.1,0.5c0.2,1.2,0.4,2.4,0.7,3.6c0.1,0.3,0.1,0.6,0.2,0.9c0.2,0.9,0.4,1.9,0.7,2.8
			c0.1,0.3,0.1,0.6,0.2,0.9c3.5,13.9,9.4,26.7,17.3,38.2c0.1,0.1,0.1,0.2,0.2,0.3c0.6,0.9,1.2,1.8,1.9,2.6c0,0.1,0.1,0.1,0.1,0.2
			c2,2.8,4.2,5.4,6.5,8c0.1,0.1,0.2,0.2,0.3,0.3c0.7,0.7,1.3,1.5,2,2.2c0.1,0.1,0.2,0.2,0.3,0.3c1.6,1.7,3.2,3.3,4.8,4.9l0,0
			c0.8,0.7,1.6,1.5,2.4,2.2c0.2,0.1,0.3,0.3,0.5,0.4c0.7,0.6,1.4,1.2,2,1.8c0.2,0.1,0.4,0.3,0.5,0.4c0.8,0.6,1.5,1.3,2.3,1.9
			c0.1,0.1,0.2,0.1,0.2,0.2c0.9,0.7,1.8,1.4,2.7,2.1l0.1,0.1c0.8,0.6,1.7,1.2,2.5,1.8c0.2,0.1,0.4,0.3,0.7,0.5
			c0.7,0.5,1.4,0.9,2.1,1.4c0.2,0.2,0.5,0.3,0.7,0.5c0.8,0.5,1.5,1,2.3,1.4c0.2,0.1,0.3,0.2,0.5,0.3c1,0.6,1.9,1.2,2.9,1.7l0,0l0,0
			c9.5,5.5,19.8,9.6,30.8,12.3l0,0l0,0c4.4,1.1,9,1.9,13.6,2.5c0.2,0,0.3,0,0.5,0.1c0.9,0.1,1.8,0.2,2.8,0.3c0.3,0,0.6,0.1,0.9,0.1
			c0.8,0.1,1.6,0.1,2.4,0.2c0.3,0,0.7,0.1,1,0.1c0.8,0.1,1.6,0.1,2.4,0.1c0.3,0,0.7,0,1,0c1.1,0,2.2,0.1,3.4,0.1
			c1.1,0,2.2,0,3.4-0.1c0.3,0,0.7,0,1,0c0.8,0,1.6-0.1,2.4-0.1c0.4,0,0.7,0,1-0.1c0.8-0.1,1.6-0.1,2.4-0.2c0.3,0,0.6-0.1,0.9-0.1
			c0.9-0.1,1.8-0.2,2.8-0.3c0.2,0,0.3,0,0.5-0.1c4.6-0.6,9.1-1.4,13.6-2.5l0,0l0,0c12.1-2.9,23.4-7.7,33.7-14
			c0.2-0.1,0.4-0.2,0.5-0.3c0.8-0.5,1.5-0.9,2.3-1.4c0.2-0.2,0.5-0.3,0.7-0.5c0.7-0.5,1.4-0.9,2.1-1.4c0.2-0.1,0.4-0.3,0.6-0.4
			c0.9-0.6,1.7-1.2,2.5-1.8l0.1-0.1c0.9-0.7,1.8-1.4,2.7-2.1c0.1-0.1,0.2-0.1,0.2-0.2c0.8-0.6,1.6-1.2,2.3-1.9
			c0.2-0.1,0.4-0.3,0.5-0.4c0.7-0.6,1.4-1.2,2.1-1.8c0.2-0.1,0.3-0.3,0.5-0.4c0.8-0.7,1.6-1.4,2.4-2.2l0,0c1.7-1.6,3.3-3.2,4.8-4.9
			c0.1-0.1,0.2-0.2,0.3-0.3C210.7,202.9,211.4,202.2,212,201.4z M123.6,228.4c-9.7,0-19-1.3-27.9-3.8v11.8
			c-10.5-2.6-20.5-6.6-29.7-11.8l8.4-8.4c-16.8-8.9-30.8-22.2-40.7-38.3l-8.3,8.3c-6.1-9.4-10.8-19.8-14-30.8h11.9
			c-3.3-10.2-5.1-21.1-5.1-32.4c0-8.1,0.9-15.9,2.6-23.5H9.1C11.6,87.4,16,75.9,22,65.4l8.4,8.4C39.3,57,52.5,42.9,68.6,33l-8.3-8.3
			C71,17.8,82.9,12.6,95.5,9.5v11.8c8.9-2.5,18.3-3.8,27.9-3.8s19,1.3,27.9,3.8V9.6c12.7,3.1,24.6,8.3,35.2,15.2l-8.3,8.3
			c16.1,9.9,29.4,24,38.3,40.7l8.4-8.4c6,10.5,10.4,22,12.9,34.2h-11.7c1.7,7.6,2.6,15.4,2.6,23.5c0,11.3-1.8,22.2-5.1,32.4h11.9
			c-3.2,11-7.9,21.4-14,30.8l-8.3-8.3c-9.9,16.1-24,29.4-40.7,38.3l8.4,8.4c-9.2,5.2-19.2,9.2-29.7,11.8v-11.8
			C142.6,227.1,133.2,228.4,123.6,228.4z"/>
		<path class="st4" d="M208,42.8c0,0-0.5,3-0.3,6.3c-3.3-0.2-6.3,0.3-6.3,0.3s0.5-3,0.3-6.3C205,43.3,208,42.8,208,42.8z"/>
		<path class="st4" d="M199,201.5c0,0-0.8-1.9,0.5-3.2c1.4-1.4,4.2-0.2,4.6,2.9c0.3,2.2,0.4,4.6,0.1,5.6c-1,0.2-3.4,0.2-5.6-0.1
			c-3.1-0.4-4.3-3.2-2.9-4.6C197.1,200.7,199,201.5,199,201.5z"/>
		<path class="st4" d="M233.6,124.3c0,0.3,0.1,0.7,0.2,1c-0.4-0.5-1.1-0.8-1.8-0.8c-1.3,0-2.3,1-2.4,2.3c0,1.3,1.1,2.3,2.4,2.3
			c0.7,0,1.3-0.3,1.8-0.8c-0.1,0.3-0.2,0.6-0.2,1c0,1.3,1.1,2.3,2.4,2.3c1.3,0,2.3-1,2.4-2.3c0-1.1-0.7-1.9-1.7-2.2
			c0.9,0.1,2.8,0.4,3.6,0.8v-2.1c-0.8,0.4-2.7,0.7-3.6,0.8c1-0.3,1.7-1.2,1.7-2.2c0-1.3-1.1-2.3-2.4-2.3
			C234.6,121.9,233.6,123,233.6,124.3z"/>
		<path class="st4" d="M38.8,42.8c0,0,0.5,3,0.3,6.3c3.3-0.2,6.3,0.3,6.3,0.3s-0.5-3-0.3-6.3C41.9,43.3,38.8,42.8,38.8,42.8z"/>
		<path class="st4" d="M47.9,201.5c0,0,0.8-1.9-0.5-3.2c-1.4-1.4-4.2-0.2-4.6,2.9c-0.3,2.2-0.4,4.6-0.1,5.6c1,0.2,3.4,0.2,5.6-0.1
			c3.1-0.4,4.3-3.2,2.9-4.6C49.8,200.7,47.9,201.5,47.9,201.5z"/>
		<path class="st4" d="M13.3,124.3c0,0.3-0.1,0.7-0.2,1c0.4-0.5,1.1-0.8,1.8-0.8c1.3,0,2.3,1,2.4,2.3c0,1.3-1.1,2.3-2.4,2.3
			c-0.7,0-1.3-0.3-1.8-0.8c0.1,0.3,0.2,0.6,0.2,1c0,1.3-1.1,2.3-2.4,2.3s-2.3-1-2.4-2.3c0-1.1,0.7-1.9,1.7-2.2
			c-0.9,0.1-2.8,0.4-3.6,0.8v-2.1c0.8,0.4,2.7,0.7,3.6,0.8c-1-0.3-1.7-1.2-1.7-2.2c0-1.3,1.1-2.3,2.4-2.3
			C12.2,121.9,13.3,123,13.3,124.3z"/>
		<path class="st4" d="M126.7,233.6c-1.5-1.2-2.3-1.8-3.2-3.5c-0.9,1.7-1.7,2.3-3.2,3.5c-2.3,1.9-1,4.3,0.8,4.4
			c1.2,0.1,1.8-0.7,2.2-1.3c-0.1,0.7-0.3,1.9-0.6,2.5h1.6c-0.2-0.6-0.5-1.8-0.6-2.5c0.3,0.5,1,1.3,2.2,1.3
			C127.8,237.9,129.1,235.5,126.7,233.6z"/>
		<path class="st4" d="M126.7,12.4c-1.5,1.2-2.3,1.8-3.2,3.5c-0.9-1.7-1.7-2.3-3.2-3.5c-2.3-1.9-1-4.3,0.8-4.4
			c1.2-0.1,1.8,0.7,2.2,1.3c-0.1-0.7-0.3-1.9-0.6-2.5h1.6c-0.2,0.6-0.5,1.8-0.6,2.5c0.3-0.5,1-1.3,2.2-1.3
			C127.8,8.1,129.1,10.5,126.7,12.4z"/>
	</g>
</g>
</svg>
