<svg xmlns="http://www.w3.org/2000/svg" xmlns:xlink="http://www.w3.org/1999/xlink" viewBox="0 0 180.73 180.73"><defs><style>.cls-1{fill:#00264d;}.cls-2{fill:url(#Безымянный_градиент_6);}.cls-3{fill:url(#Безымянный_градиент_6-2);}.cls-4{fill:url(#Безымянный_градиент_10);}.cls-5{fill:url(#Безымянный_градиент_8);}.cls-6{fill:url(#Безымянный_градиент_7);}.cls-7{fill:url(#Безымянный_градиент_5);}.cls-8{fill:url(#Безымянный_градиент_7-2);}.cls-9{fill:url(#Безымянный_градиент_6-3);}.cls-10{fill:url(#linear-gradient);}.cls-11,.cls-13{fill:#fff;}.cls-11{opacity:0.25;}.cls-12{fill:url(#linear-gradient-2);}</style><linearGradient id="Безымянный_градиент_6" x1="73.67" y1="82.46" x2="11.02" y2="57.61" gradientUnits="userSpaceOnUse"><stop offset="0" stop-color="#cc7400"/><stop offset="1" stop-color="#f2a41c"/></linearGradient><linearGradient id="Безымянный_градиент_6-2" x1="91.03" y1="69.3" x2="124.71" y2="10.01" xlink:href="#Безымянный_градиент_6"/><linearGradient id="Безымянный_градиент_10" x1="85.87" y1="73.08" x2="56.72" y2="9.92" gradientUnits="userSpaceOnUse"><stop offset="0" stop-color="#992e2e"/><stop offset="1" stop-color="#f24c4c"/></linearGradient><linearGradient id="Безымянный_градиент_8" x1="73.03" y1="96.42" x2="9.57" y2="123.97" gradientUnits="userSpaceOnUse"><stop offset="0" stop-color="#105b99"/><stop offset="1" stop-color="#1c9cf2"/></linearGradient><linearGradient id="Безымянный_градиент_7" x1="106.04" y1="79.92" x2="172.41" y2="56.98" gradientUnits="userSpaceOnUse"><stop offset="0" stop-color="#007f12"/><stop offset="1" stop-color="#00bf1b"/></linearGradient><linearGradient id="Безымянный_градиент_5" x1="108.92" y1="94.17" x2="171.25" y2="124.39" gradientUnits="userSpaceOnUse"><stop offset="0" stop-color="#7b287f"/><stop offset="1" stop-color="#c83ecc"/></linearGradient><linearGradient id="Безымянный_градиент_7-2" x1="83.88" y1="107.01" x2="57.13" y2="170.49" xlink:href="#Безымянный_градиент_7"/><linearGradient id="Безымянный_градиент_6-3" x1="95.36" y1="107.92" x2="123.97" y2="170.82" xlink:href="#Безымянный_градиент_6"/><linearGradient id="linear-gradient" x1="90.36" y1="63" x2="90.36" y2="117.41" gradientTransform="translate(90.36 -37.43) rotate(45)" gradientUnits="userSpaceOnUse"><stop offset="0" stop-color="#ffc033"/><stop offset="1" stop-color="#e5962e"/></linearGradient><linearGradient id="linear-gradient-2" x1="90.36" y1="1094.72" x2="90.36" y2="1139.47" gradientTransform="matrix(0.71, 0.71, 0.71, -0.71, -763.53, 816.46)" xlink:href="#linear-gradient"/></defs><g id="Слой_2" data-name="Слой 2"><g id="Layer_1" data-name="Layer 1"><circle class="cls-1" cx="90.36" cy="90.36" r="90.36" transform="translate(-37.43 90.36) rotate(-45)"/><path class="cls-2" d="M73.28,87.19A17.32,17.32,0,0,1,76,80.54a3,3,0,0,0-.35-3.81L30.16,31.2a3,3,0,0,0-4.35.1A87.25,87.25,0,0,0,2.91,86.47a3,3,0,0,0,3,3.15H70.34A3,3,0,0,0,73.28,87.19Z"/><path class="cls-3" d="M91.1,5.92V70.34a3,3,0,0,0,2.43,2.94A17.3,17.3,0,0,1,100.19,76a3,3,0,0,0,3.81-.35l45.53-45.52a3,3,0,0,0-.1-4.35A87.25,87.25,0,0,0,94.26,2.91,3,3,0,0,0,91.1,5.92Z"/><path class="cls-4" d="M80.54,76a17.32,17.32,0,0,1,6.65-2.75,3,3,0,0,0,2.43-2.94V5.92a3,3,0,0,0-3.15-3A87.25,87.25,0,0,0,31.3,25.81a3,3,0,0,0-.1,4.35L76.73,75.68A3,3,0,0,0,80.54,76Z"/><path class="cls-5" d="M76,100.19a17.3,17.3,0,0,1-2.75-6.66,3,3,0,0,0-2.94-2.43H5.92a3,3,0,0,0-3,3.16,87.25,87.25,0,0,0,22.9,55.17,3,3,0,0,0,4.35.1L75.68,104A3,3,0,0,0,76,100.19Z"/><path class="cls-6" d="M104.7,80.54a17.32,17.32,0,0,1,2.75,6.65,3,3,0,0,0,2.94,2.43h64.42a3,3,0,0,0,3-3.15,87.25,87.25,0,0,0-22.9-55.17,3,3,0,0,0-4.35-.1L105.05,76.73A3,3,0,0,0,104.7,80.54Z"/><path class="cls-7" d="M107.45,93.53a17.3,17.3,0,0,1-2.75,6.66,3,3,0,0,0,.35,3.81l45.52,45.53a3,3,0,0,0,4.35-.1,87.25,87.25,0,0,0,22.9-55.17,3,3,0,0,0-3-3.16H110.39A3,3,0,0,0,107.45,93.53Z"/><path class="cls-8" d="M87.19,107.45a17.32,17.32,0,0,1-6.65-2.75,3,3,0,0,0-3.81.35L31.2,150.57a3,3,0,0,0,.1,4.35,87.25,87.25,0,0,0,55.17,22.9,3,3,0,0,0,3.15-3V110.39A3,3,0,0,0,87.19,107.45Z"/><path class="cls-9" d="M100.19,104.7a17.3,17.3,0,0,1-6.66,2.75,3,3,0,0,0-2.43,2.94v64.42a3,3,0,0,0,3.16,3,87.25,87.25,0,0,0,55.17-22.9,3,3,0,0,0,.1-4.35L104,105.05A3,3,0,0,0,100.19,104.7Z"/><circle class="cls-1" cx="90.36" cy="90.36" r="30.2" transform="translate(-37.43 90.36) rotate(-45)"/><circle class="cls-10" cx="90.36" cy="90.36" r="28.63" transform="translate(-37.43 90.36) rotate(-45)"/><circle class="cls-11" cx="90.36" cy="90.36" r="23.88" transform="translate(-37.43 90.36) rotate(-45)"/><circle class="cls-12" cx="90.36" cy="90.36" r="23.55" transform="translate(-37.43 90.36) rotate(-45)"/><path class="cls-13" d="M76.66,86.55c-.52,0-.87.18-.87.57,0,1.54,5.47.63,5.47,4.41,0,2.22-2,3.28-4.32,3.28a8.51,8.51,0,0,1-5-1.65l1.16-2.36A7.18,7.18,0,0,0,77,92.39c.66,0,1.08-.22,1.08-.7,0-1.58-5.47-.58-5.47-4.27,0-2,1.72-3.3,4.33-3.3a8.47,8.47,0,0,1,4.38,1.21l-1.15,2.39A8.78,8.78,0,0,0,76.66,86.55Z"/><path class="cls-13" d="M91.4,88c0,2.5-1.55,3.93-4.26,3.93H85.5v2.82H82.39V84.25h4.75C89.85,84.25,91.4,85.6,91.4,88Zm-2.94.09A1.31,1.31,0,0,0,87,86.64H85.5v2.87H87A1.32,1.32,0,0,0,88.46,88.06Z"/><path class="cls-13" d="M95.7,84.25V94.72H92.59V84.25Z"/><path class="cls-13" d="M100.12,84.25l4.44,5.86V84.25h2.83V94.72h-2.64l-4.44-5.82v5.82H97.46V84.25Z"/><path class="cls-13" d="M128.78,112.65l-1.86-.84,2.3-5.09.18-.38c.06-.14.14-.29.22-.45l.23-.47.21-.43-.15.06-.23.09-.27.09-.26.08-1.38.35-.39-1.52,3.85-1,1.53.69Z"/><path class="cls-13" d="M138.94,106.65l2.74,1.24a5.76,5.76,0,0,1,2.47,1.76,2,2,0,0,1,.08,2.08,2.33,2.33,0,0,1-.95,1.12A1.59,1.59,0,0,1,142,113l0,.06a2.12,2.12,0,0,1,.89,1.25,2.56,2.56,0,0,1-.24,1.53,2.49,2.49,0,0,1-1.72,1.48,4.19,4.19,0,0,1-2.67-.4L135,115.44Zm.29,4.33,1.08.49a2.31,2.31,0,0,0,1.21.26,1,1,0,0,0,.69-.62.87.87,0,0,0,0-.9,2.74,2.74,0,0,0-1.08-.75l-1-.44Zm-.67,1.48-1,2.29,1.22.55a2,2,0,0,0,1.27.22,1.19,1.19,0,0,0,.77-.74c.33-.73,0-1.33-1.07-1.8Z"/><path class="cls-13" d="M146.45,120.65l-1.86-.85,3.28-7.24-2.39-1.08.7-1.55,6.64,3-.7,1.55-2.39-1.08Z"/><path class="cls-13" d="M157.15,116.6a2.09,2.09,0,0,0-2,.06,4,4,0,0,0-1.58,1.94c-.89,2-.59,3.28.88,3.94a7.47,7.47,0,0,0,2.45.55l-.7,1.57a7,7,0,0,1-2.63-.64,4.05,4.05,0,0,1-2.41-2.5,5.43,5.43,0,0,1,.5-3.8,6,6,0,0,1,1.59-2.18,4,4,0,0,1,2.15-.93,4.69,4.69,0,0,1,2.44.44,6.45,6.45,0,0,1,2.29,1.79l-1.28,1.24a11.09,11.09,0,0,0-.81-.86A3.3,3.3,0,0,0,157.15,116.6Z"/><path class="cls-13" d="M75.29,136.08a1.71,1.71,0,0,1-1.05-1.16,2.86,2.86,0,0,1,.25-1.87,4.14,4.14,0,0,1,1.12-1.57l1.21.52a7.41,7.41,0,0,0-.85.88,3.12,3.12,0,0,0-.45.74,1.18,1.18,0,0,0-.13.72.59.59,0,0,0,.39.44.56.56,0,0,0,.36,0,.94.94,0,0,0,.4-.18,6.25,6.25,0,0,0,.76-.61,4.39,4.39,0,0,1,.88-.62,2.19,2.19,0,0,1,.76-.2,1.76,1.76,0,0,1,.82.16,1.73,1.73,0,0,1,1,1.11,2.53,2.53,0,0,1-.2,1.73,4.34,4.34,0,0,1-.51.86,7.05,7.05,0,0,1-.71.76l-.83-.86a5.13,5.13,0,0,0,.63-.68,2.65,2.65,0,0,0,.36-.6.87.87,0,0,0,.07-.64.58.58,0,0,0-.36-.39.55.55,0,0,0-.33,0,.86.86,0,0,0-.36.14,9.94,9.94,0,0,0-.79.64,3.76,3.76,0,0,1-1.33.82A1.73,1.73,0,0,1,75.29,136.08Z"/><path class="cls-13" d="M72.1,138.74,73.32,136l.73.32,0,.89,4,1.73.67-.59.74.32-1.22,2.78-.73-.32,0-.89-4-1.73-.67.59Z"/><path class="cls-13" d="M71.64,139.79l6.12,2.67-.56,1.3-5-2.21L71.07,144,70,143.56Z"/><path class="cls-13" d="M74.16,150.71,73.59,152l-5.21-4.75.62-1.42,7,.6-.57,1.31-4.14-.44c-.25,0-.53-.07-.84-.13l-.66-.13A10.8,10.8,0,0,1,71,148Z"/><path class="cls-13" d="M65.59,153.64l1.54-3.52,6.12,2.67-1.54,3.52-1.06-.46,1-2.23L70.28,153l-.91,2.07-1.06-.47.91-2.07-1.58-.69-1,2.23Z"/><path class="cls-13" d="M66.82,157.24l-2.35-1,.57-1.3,6.12,2.67-.78,1.79A3.36,3.36,0,0,1,69.12,161a1.76,1.76,0,0,1-1.64,0,1.85,1.85,0,0,1-.84-.72,2.18,2.18,0,0,1-.29-1.13l-3.45.64.63-1.44,3-.44Zm1.05.46-.18.42a1.75,1.75,0,0,0-.19,1,.77.77,0,0,0,.51.57.74.74,0,0,0,.75,0,2,2,0,0,0,.59-.85l.18-.39Z"/><path class="cls-13" d="M68.68,132.75a1.46,1.46,0,0,0-.06-1.38,2.79,2.79,0,0,0-1.36-1.07c-1.36-.6-2.27-.38-2.71.64a5.2,5.2,0,0,0-.36,1.7l-1.09-.47a4.76,4.76,0,0,1,.42-1.82,2.83,2.83,0,0,1,1.7-1.69,3.8,3.8,0,0,1,2.64.31,4.25,4.25,0,0,1,1.52,1.08,2.73,2.73,0,0,1,.66,1.48,3.22,3.22,0,0,1-.28,1.69,4.5,4.5,0,0,1-1.22,1.6l-.87-.88a7.91,7.91,0,0,0,.59-.56A2.47,2.47,0,0,0,68.68,132.75Z"/><path class="cls-13" d="M60.11,138.39l.56-1.3,2.64,1.16,1.06-2.43-2.64-1.15.57-1.3L68.42,136l-.57,1.3-2.4-1.05-1.06,2.43,2.4,1.05-.56,1.29Z"/><path class="cls-13" d="M57.89,143.46l1.54-3.53,6.12,2.67L64,146.13,63,145.66l1-2.22-1.34-.59-.91,2.07-1.06-.46.91-2.07-1.58-.69-1,2.22Z"/><path class="cls-13" d="M57.46,149.09a1.75,1.75,0,0,1-1.05-1.17,2.86,2.86,0,0,1,.25-1.87,4.32,4.32,0,0,1,1.13-1.57L59,145a7.45,7.45,0,0,0-.85.88,3.08,3.08,0,0,0-.45.73,1.13,1.13,0,0,0-.12.73.62.62,0,0,0,.38.44.67.67,0,0,0,.37,0,1.34,1.34,0,0,0,.39-.18,8.48,8.48,0,0,0,.77-.61,3.67,3.67,0,0,1,.87-.62,1.87,1.87,0,0,1,.76-.2A1.91,1.91,0,0,1,63,147.49a2.44,2.44,0,0,1-.2,1.72,3.83,3.83,0,0,1-.51.86,7.11,7.11,0,0,1-.71.77l-.83-.86a7.13,7.13,0,0,0,.64-.69,3.27,3.27,0,0,0,.35-.59.94.94,0,0,0,.08-.64.67.67,0,0,0-.7-.45,1.07,1.07,0,0,0-.36.15,9,9,0,0,0-.79.63,3.41,3.41,0,0,1-1.33.82A1.79,1.79,0,0,1,57.46,149.09Z"/><path class="cls-13" d="M54.24,151.82l.57-1.3,5,2.2.73-1.66,1.08.47-2,4.62-1.08-.47.72-1.66Z"/><path class="cls-13" d="M57,103.14l-.68-1.72,1-.37L59,105.54l-1.31.51a2.44,2.44,0,0,1-1.48.2,1.3,1.3,0,0,1-.84-.84,1.35,1.35,0,0,1-.06-.79,1.63,1.63,0,0,1,.43-.73l-2.09-1.43,1.06-.42,1.74,1.3Zm.3.78L57,104a1.25,1.25,0,0,0-.61.41.61.61,0,0,0,0,.56.52.52,0,0,0,.4.36,1.35,1.35,0,0,0,.73-.13l.29-.11Z"/><path class="cls-13" d="M50.36,103.76l.75.94,1.63-.65-.09-1.19,1-.4.19,5.12-1.17.46-3.35-3.88Zm1.29,1.64,1.15,1.45c.09.11.15.2.2.27,0-.29-.1-1-.18-2.17Z"/><path class="cls-13" d="M45.16,105.8l1.08-.43,1.92,1.43.29-.44-.63-1.61,1-.37,1.76,4.49-1,.37-.8-2-.17.67-.62,2-1.05.42.78-2.6Z"/><path class="cls-13" d="M42,107l2.58-1,1.76,4.48-2.58,1-.31-.78,1.63-.64-.38-1-1.52.6-.31-.78,1.52-.6L44,107.18l-1.64.64Z"/><path class="cls-13" d="M42.84,111.88l-1.39.55a2.89,2.89,0,0,1-1.5.27,1,1,0,0,1-.77-.69,1.26,1.26,0,0,1-.07-.73.85.85,0,0,1,.38-.51v0a1.06,1.06,0,0,1-.75-.11,1.25,1.25,0,0,1-.46-.62,1.23,1.23,0,0,1,.06-1.14,2.13,2.13,0,0,1,1.07-.81l1.68-.66Zm-1.65-1.4-.55.22a1,1,0,0,0-.51.34.46.46,0,0,0,0,.46.45.45,0,0,0,.33.3,1.43,1.43,0,0,0,.64-.12l.5-.2Zm-.29-.75-.46-1.17-.62.24a1,1,0,0,0-.52.38.58.58,0,0,0,0,.53c.15.38.49.46,1,.25Z"/><path class="cls-13" d="M34.18,110.11l.74.94,1.63-.64-.09-1.2,1-.4.18,5.13-1.16.45-3.36-3.88Zm1.28,1.65,1.15,1.44a2.26,2.26,0,0,1,.2.27c0-.29-.09-1-.18-2.17Z"/><path class="cls-13" d="M32.22,115.22a1,1,0,0,0,.67-.73,2,2,0,0,0-.15-1.24c-.39-1-1-1.36-1.71-1.06a3.62,3.62,0,0,0-1.05.68l-.32-.79a3.41,3.41,0,0,1,1.15-.72,2,2,0,0,1,1.73,0,2.69,2.69,0,0,1,1.18,1.5,2.93,2.93,0,0,1,.23,1.32,2,2,0,0,1-.41,1.1,2.45,2.45,0,0,1-1,.72,3.26,3.26,0,0,1-1.44.2v-.9a3.9,3.9,0,0,0,.59,0A1.57,1.57,0,0,0,32.22,115.22Z"/><path class="cls-13" d="M25,113.7l1.08-.43L28,114.7l.29-.44-.63-1.61.95-.37,1.76,4.49-.95.37-.8-2-.17.67-.62,2-1.05.42.78-2.6Z"/><path class="cls-13" d="M20.14,115.62l3-1.18.26.66-.61,1.55c-.08.19-.14.37-.2.54a3.07,3.07,0,0,0-.15.46,2.12,2.12,0,0,0,0,.42,1,1,0,0,0,.09.41.51.51,0,0,0,.27.3.56.56,0,0,0,.42,0,1,1,0,0,0,.42-.3,2.41,2.41,0,0,0,.33-.53l.76.41c-.06.12-.13.24-.2.36a2.39,2.39,0,0,1-.25.33,1.66,1.66,0,0,1-.34.3,2.29,2.29,0,0,1-.47.24,1.79,1.79,0,0,1-.61.14,1.39,1.39,0,0,1-.54-.08,1.21,1.21,0,0,1-.43-.29,1.31,1.31,0,0,1-.3-.48,1.5,1.5,0,0,1-.11-.55,2.34,2.34,0,0,1,.07-.57,4.11,4.11,0,0,1,.19-.6c.08-.21.17-.42.26-.64l.33-.76,0,0-1.83.72Z"/><path class="cls-13" d="M17.56,119.22a4.46,4.46,0,0,1-.3-1,2.34,2.34,0,0,1,0-.83,1.33,1.33,0,0,1,.31-.64,1.55,1.55,0,0,1,.64-.44,1.65,1.65,0,0,1,.74-.11,1.45,1.45,0,0,1,.66.27,2.38,2.38,0,0,1,.56.61,4.34,4.34,0,0,1,.48.94,5.83,5.83,0,0,1,.3,1,2.33,2.33,0,0,1,0,.83,1.38,1.38,0,0,1-.29.65,1.64,1.64,0,0,1-.65.43,1.47,1.47,0,0,1-.73.11,1.37,1.37,0,0,1-.66-.27,2.27,2.27,0,0,1-.58-.61A4.84,4.84,0,0,1,17.56,119.22Zm2.12-.83a4.25,4.25,0,0,0-.58-1.11.51.51,0,0,0-.61-.2.53.53,0,0,0-.31.56,4,4,0,0,0,.32,1.21,4.06,4.06,0,0,0,.59,1.11.51.51,0,0,0,.61.2.44.44,0,0,0,.24-.2.8.8,0,0,0,.07-.36,3.09,3.09,0,0,0-.09-.53A5.66,5.66,0,0,0,19.68,118.39Z"/><path class="cls-13" d="M15.21,120.83a1.65,1.65,0,0,1-.12-.5.91.91,0,0,1,.05-.44.84.84,0,0,1,.25-.35,1.23,1.23,0,0,1,.45-.27,1.3,1.3,0,0,1,.49-.1,1,1,0,0,1,.42.09,1.1,1.1,0,0,1,.34.28,1.56,1.56,0,0,1,.25.46,1.61,1.61,0,0,1,.13.5.87.87,0,0,1,0,.43.92.92,0,0,1-.24.35,1.61,1.61,0,0,1-.45.26,1.37,1.37,0,0,1-.49.11,1,1,0,0,1-.43-.09,1,1,0,0,1-.34-.28A1.61,1.61,0,0,1,15.21,120.83Zm1.39-.55a.79.79,0,0,0-.22-.34.27.27,0,0,0-.3,0,.3.3,0,0,0-.2.22.85.85,0,0,0,.07.41c.13.33.31.45.52.36a.27.27,0,0,0,.2-.21A.74.74,0,0,0,16.6,120.28Zm-3,2.41.92-4.87.7-.28-.92,4.88Zm-2.11-2.43a2.18,2.18,0,0,1-.13-.5,1,1,0,0,1,.06-.44.92.92,0,0,1,.24-.35,1.42,1.42,0,0,1,.45-.27,1.34,1.34,0,0,1,.49-.1,1,1,0,0,1,.42.09,1,1,0,0,1,.34.28,1.61,1.61,0,0,1,.26.45,1.71,1.71,0,0,1,.12.51.88.88,0,0,1,0,.43,1,1,0,0,1-.24.35A1.42,1.42,0,0,1,13,121a1.39,1.39,0,0,1-.5.1.85.85,0,0,1-.42-.08,1.14,1.14,0,0,1-.35-.28A1.6,1.6,0,0,1,11.51,120.26Zm1.38-.55a.75.75,0,0,0-.22-.35.29.29,0,0,0-.29,0,.31.31,0,0,0-.2.22.75.75,0,0,0,.07.41c.13.33.3.46.52.37a.27.27,0,0,0,.19-.22A.7.7,0,0,0,12.89,119.71Z"/><path class="cls-13" d="M130.64,77.06l-1,.39-1.54-3.81-1.26.5-.33-.82,3.5-1.41.33.82-1.26.51Z"/><path class="cls-13" d="M132.88,74.09l.71,1.77-1,.4-1.87-4.63,1.35-.55a2.51,2.51,0,0,1,1.54-.22,1.35,1.35,0,0,1,.87.86,1.3,1.3,0,0,1,.07.82,1.63,1.63,0,0,1-.43.76l2.17,1.47-1.09.44-1.82-1.33Zm-.33-.8.32-.13a1.41,1.41,0,0,0,.63-.43.62.62,0,0,0,0-.58.55.55,0,0,0-.41-.38,1.58,1.58,0,0,0-.76.14l-.3.12Z"/><path class="cls-13" d="M137.24,71.22l.2-2.29,1.06-.43L138.1,72l.73,1.8-1,.4-.71-1.77-2.7-2.25,1.07-.43Z"/><path class="cls-13" d="M145.47,71.07l-.78-1-1.69.68.11,1.24-1.06.42-.24-5.31,1.2-.48,3.52,4Zm-1.35-1.69-1.21-1.49-.21-.27c.05.29.11,1,.22,2.24Z"/><path class="cls-13" d="M147.76,67.13l1.84-.75,1,2.41a5.65,5.65,0,0,1-.76.54,5.23,5.23,0,0,1-.79.38,2.14,2.14,0,0,1-1.85,0,2.75,2.75,0,0,1-1.26-1.54,2.49,2.49,0,0,1-.07-2,2.66,2.66,0,0,1,1.53-1.35,3.79,3.79,0,0,1,1.49-.27v.92a2.69,2.69,0,0,0-1.16.17,1.44,1.44,0,0,0-.85.84,1.78,1.78,0,0,0,.09,1.31,2,2,0,0,0,.77,1,1.16,1.16,0,0,0,1.06,0,4.28,4.28,0,0,0,.6-.31l-.39-1-.88.35Z"/><path class="cls-13" d="M154.59,67.4l-.78-1-1.69.68.11,1.24-1.06.43-.24-5.32,1.2-.48,3.52,4Zm-1.35-1.7L152,64.22l-.21-.28q.06.45.21,2.25Z"/><path class="cls-13" d="M158,66l-2.1.85-.23-.56.46-.49-1.21-3-.67,0-.22-.56,2.1-.85.23.56-.46.49,1.21,3,.67,0Z"/><path class="cls-13" d="M162.87,64.06l-1.25.5-3.43-2.69h0c.29.6.49,1,.6,1.3l.87,2.18-.87.36-1.87-4.64,1.24-.5,3.41,2.66h0c-.27-.59-.46-1-.56-1.26l-.89-2.19.89-.36Z"/><path class="cls-13" d="M51.86,71.32l1,.42-1.66,3.77,1.25.55-.36.81-3.45-1.52.35-.81,1.24.55Z"/><path class="cls-13" d="M48.17,71.79,48.94,70l1,.42L47.9,75l-1.33-.59a2.47,2.47,0,0,1-1.23-.94,1.33,1.33,0,0,1,0-1.23,1.36,1.36,0,0,1,.54-.62,1.65,1.65,0,0,1,.85-.22l-.48-2.58,1.08.47.32,2.24Zm-.35.79-.31-.13a1.26,1.26,0,0,0-.75-.15.61.61,0,0,0-.43.39.58.58,0,0,0,0,.56,1.47,1.47,0,0,0,.64.44l.29.13Z"/><path class="cls-13" d="M43.07,70.67l-1.78,1.47-1-.46L43,69.55l.78-1.78,1,.42L44,69.94l.28,3.5-1-.47Z"/><path class="cls-13" d="M37.21,64.89l-.14,1.24,1.66.73.81-1,1.05.46L37,70.26l-1.19-.52.4-5.31ZM36.94,67c-.13,1.12-.2,1.76-.22,1.9a2.24,2.24,0,0,1,0,.35c.19-.24.68-.81,1.46-1.72Z"/><path class="cls-13" d="M32.79,66,31,65.22,32,62.85a4.78,4.78,0,0,1,.91.16,5.11,5.11,0,0,1,.83.29,2.18,2.18,0,0,1,1.31,1.3,2.77,2.77,0,0,1-.22,2A2.52,2.52,0,0,1,33.46,68a2.61,2.61,0,0,1-2-.15A3.85,3.85,0,0,1,30.19,67l.67-.63a2.44,2.44,0,0,0,.93.7,1.38,1.38,0,0,0,1.19,0,1.77,1.77,0,0,0,.88-1,2,2,0,0,0,.19-1.27,1.12,1.12,0,0,0-.71-.78,3.43,3.43,0,0,0-.64-.21l-.42,1,.86.38Z"/><path class="cls-13" d="M28.21,60.94l-.15,1.24,1.67.73.81-.95,1.05.46L28,66.31l-1.19-.52.4-5.31Zm-.27,2.15c-.13,1.12-.2,1.76-.22,1.9s0,.26,0,.35c.19-.24.67-.81,1.46-1.73Z"/><path class="cls-13" d="M24.88,59.48l2.08.91-.24.55h-.67l-1.3,3,.44.5L25,65l-2.08-.92.24-.55h.67l1.3-3-.44-.5Z"/><path class="cls-13" d="M20,57.35l1.23.54.47,4.34h0c.23-.63.4-1.07.51-1.33l.95-2.16.87.38-2,4.58-1.23-.54-.48-4.3h0q-.34.91-.51,1.29l-1,2.16L18,61.93Z"/><path class="cls-13" d="M69.46,51.46l-.8-2,2.68-1.05a6,6,0,0,1,1,1.72,2.4,2.4,0,0,1,0,2,3,3,0,0,1-1.73,1.39,2.76,2.76,0,0,1-2.23,0,2.94,2.94,0,0,1-1.48-1.71,4.22,4.22,0,0,1-.28-1.65l1,0a2.75,2.75,0,0,0,.18,1.28,1.52,1.52,0,0,0,.92.95,2,2,0,0,0,1.45-.07,2.22,2.22,0,0,0,1.15-.85,1.28,1.28,0,0,0,0-1.18,3.76,3.76,0,0,0-.34-.66L70,50.13l.38,1Z"/><path class="cls-13" d="M66.65,43.38a3,3,0,0,1,2.22-.14,2.53,2.53,0,0,1,1.4,1.55,2.56,2.56,0,0,1,0,2.1,3,3,0,0,1-1.73,1.41,3,3,0,0,1-2.22.13A2.58,2.58,0,0,1,65,46.87a2.54,2.54,0,0,1,0-2.09A3,3,0,0,1,66.65,43.38Zm1.48,3.77a2.35,2.35,0,0,0,1.17-.84,1.21,1.21,0,0,0,0-1.16c-.34-.87-1.09-1.08-2.25-.62s-1.58,1.11-1.23,2a1.24,1.24,0,0,0,.82.82A2.42,2.42,0,0,0,68.13,47.15Z"/><path class="cls-13" d="M68.82,41.29l-5.17,2-.43-1.1,4.26-1.67-.82-2.09.91-.36Z"/><path class="cls-13" d="M62.9,34a2.74,2.74,0,0,1,2.24,0,3.21,3.21,0,0,1,1.5,1.83l.58,1.46-5.17,2-.64-1.62a3,3,0,0,1-.1-2.23A2.65,2.65,0,0,1,62.9,34Zm.48,1.13c-1.11.43-1.47,1.14-1.09,2.12l.23.58,3.36-1.32L65.7,36A1.56,1.56,0,0,0,63.38,35.08Z"/><path class="cls-13" d="M64,28.88l1.17,3-5.17,2-1.17-3,.9-.35.74,1.88L61.55,32l-.68-1.74.89-.36.69,1.75,1.33-.52L63,29.23Z"/><path class="cls-13" d="M61.73,23.22l.54,1.39-3,3.78v0c.67-.32,1.16-.53,1.45-.65l2.43-.95.39,1-5.17,2-.54-1.38,3-3.76v0c-.66.3-1.13.5-1.4.61l-2.45,1-.39-1Z"/><path class="cls-13" d="M75.26,44.23a1.18,1.18,0,0,0,.84.77,2.24,2.24,0,0,0,1.42-.17c1.16-.45,1.56-1.11,1.22-2A4.19,4.19,0,0,0,78,41.65l.92-.36a3.87,3.87,0,0,1,.83,1.31,2.36,2.36,0,0,1,0,2A3.13,3.13,0,0,1,78,46a3.43,3.43,0,0,1-1.53.26,2.23,2.23,0,0,1-1.26-.47,2.69,2.69,0,0,1-.82-1.16,3.65,3.65,0,0,1-.23-1.66h1c0,.23,0,.46,0,.68A1.8,1.8,0,0,0,75.26,44.23Z"/><path class="cls-13" d="M77,35.88,77.4,37l-2.22.88.8,2L78.21,39l.43,1.09-5.17,2L73,41l2-.79-.81-2-2,.8-.43-1.09Z"/><path class="cls-13" d="M75.3,31.61l1.17,3-5.17,2-1.17-3,.9-.35.74,1.88,1.13-.45L72.22,33l.89-.35.69,1.75,1.33-.52L74.39,32Z"/><path class="cls-13" d="M72.25,28a1.45,1.45,0,0,1,1.3.07,2.4,2.4,0,0,1,1,1.24,3.66,3.66,0,0,1,.26,1.59l-1,.4a5.48,5.48,0,0,0,0-1,2.77,2.77,0,0,0-.16-.7,1,1,0,0,0-.35-.49.5.5,0,0,0-.49,0,.57.57,0,0,0-.24.19,1.34,1.34,0,0,0-.13.34,5.88,5.88,0,0,0-.08.81,4,4,0,0,1-.15.88,1.84,1.84,0,0,1-.33.56,1.6,1.6,0,0,1-1.84.35,2.11,2.11,0,0,1-.9-1.13,3.47,3.47,0,0,1-.2-.8,6.11,6.11,0,0,1,0-.87h1a4.51,4.51,0,0,0,0,.78,2.09,2.09,0,0,0,.14.56.73.73,0,0,0,.33.42.52.52,0,0,0,.44,0A.51.51,0,0,0,71,31a.7.7,0,0,0,.12-.3,6.43,6.43,0,0,0,.09-.83,3.16,3.16,0,0,1,.31-1.27A1.43,1.43,0,0,1,72.25,28Z"/><path class="cls-13" d="M72.53,24.55,73,25.64l-4.25,1.67.55,1.41-.91.35-1.53-3.9.91-.35.55,1.4Z"/><path class="cls-13" d="M104.23,45.37a2.09,2.09,0,0,1,1.23,1.35,3.72,3.72,0,0,1-.14,2.23l1.23.53-.36.82-1.2-.52a7.17,7.17,0,0,1-1.63,2.35l-1.58-.69a7.3,7.3,0,0,0,1-1,8.08,8.08,0,0,0,.8-1.21l-1.86-.81-.33.34A4.88,4.88,0,0,1,99.65,50a2.15,2.15,0,0,1-1.57-.09,1.93,1.93,0,0,1-1.14-1.3,3.75,3.75,0,0,1,.14-2.19l-.92-.4.36-.82.89.39A7.47,7.47,0,0,1,99,43.29l1.16,1.17a7.17,7.17,0,0,0-1.29,1.72l1.77.76a10.24,10.24,0,0,1,1.49-1.33,2.59,2.59,0,0,1,1-.41A2,2,0,0,1,104.23,45.37Zm-5.38,2.68a.63.63,0,0,0,.52,0,2.29,2.29,0,0,0,.6-.44L98.57,47C98.42,47.56,98.51,47.91,98.85,48.05Zm4.69-.84a.63.63,0,0,0-.52,0,3.13,3.13,0,0,0-.62.46l1.49.65C104,47.75,103.92,47.38,103.54,47.21Z"/><path class="cls-13" d="M109.29,41.18l-.8,1.85-5.08-2.19-.37-.16-.45-.21-.47-.22-.43-.21a1.51,1.51,0,0,1,.06.15c0,.07.06.14.09.23s.07.17.1.26.06.18.08.26l.37,1.36-1.5.41-1-3.79.66-1.53Z"/><path class="cls-13" d="M108.47,31a11.35,11.35,0,0,1,1.82,1,4.65,4.65,0,0,1,1.19,1.14,2.72,2.72,0,0,1,.48,1.32,3.16,3.16,0,0,1-.29,1.51,2.88,2.88,0,0,1-.88,1.19,2.7,2.7,0,0,1-1.29.56,4.66,4.66,0,0,1-1.65-.06,9.62,9.62,0,0,1-2-.64,10.37,10.37,0,0,1-1.83-1,4.5,4.5,0,0,1-1.19-1.14,2.64,2.64,0,0,1-.49-1.31,3.19,3.19,0,0,1,.28-1.52,2.91,2.91,0,0,1,.88-1.18,2.79,2.79,0,0,1,1.29-.56,4.53,4.53,0,0,1,1.67,0A9.81,9.81,0,0,1,108.47,31Zm-1.8,4.17a7.92,7.92,0,0,0,2.37.71,1,1,0,0,0,1.14-.56,1,1,0,0,0-.36-1.23,7.9,7.9,0,0,0-2.15-1.24,7.67,7.67,0,0,0-2.38-.71,1,1,0,0,0-1.15.57.89.89,0,0,0,0,.62,1.57,1.57,0,0,0,.42.6,4.25,4.25,0,0,0,.86.61Q105.92,34.87,106.67,35.2Z"/><path class="cls-13" d="M111.39,24.27a10.94,10.94,0,0,1,1.82,1,4.5,4.5,0,0,1,1.19,1.14,2.72,2.72,0,0,1,.48,1.32,3.2,3.2,0,0,1-.29,1.52,3,3,0,0,1-.88,1.19,2.69,2.69,0,0,1-1.29.55,4.9,4.9,0,0,1-1.65,0,10.27,10.27,0,0,1-2-.64,10.73,10.73,0,0,1-1.83-1,4.5,4.5,0,0,1-1.19-1.14,2.57,2.57,0,0,1-.49-1.31,3,3,0,0,1,.29-1.51,2.93,2.93,0,0,1,.87-1.19,2.88,2.88,0,0,1,1.3-.56,4.71,4.71,0,0,1,1.66.05A9.69,9.69,0,0,1,111.39,24.27Zm-1.8,4.16a8.31,8.31,0,0,0,2.37.72,1,1,0,0,0,.78-1.79,7.88,7.88,0,0,0-2.15-1.25,8,8,0,0,0-2.38-.71,1,1,0,0,0-1.14.57.87.87,0,0,0,0,.63,1.57,1.57,0,0,0,.42.6,4.25,4.25,0,0,0,.86.6A11.15,11.15,0,0,0,109.59,28.43Z"/><path class="cls-13" d="M114.31,17.5a10.94,10.94,0,0,1,1.82,1,4.5,4.5,0,0,1,1.19,1.14A2.72,2.72,0,0,1,117.8,21a3,3,0,0,1-.29,1.51,2.88,2.88,0,0,1-.88,1.19,2.7,2.7,0,0,1-1.29.56,4.67,4.67,0,0,1-1.65-.06,9.62,9.62,0,0,1-2-.64,11.13,11.13,0,0,1-1.83-1,4.5,4.5,0,0,1-1.19-1.14,2.74,2.74,0,0,1-.49-1.31,3.09,3.09,0,0,1,.29-1.52,2.89,2.89,0,0,1,.87-1.18,2.78,2.78,0,0,1,1.3-.56,4.48,4.48,0,0,1,1.66.05A9.62,9.62,0,0,1,114.31,17.5Zm-1.8,4.17a7.92,7.92,0,0,0,2.37.71,1,1,0,0,0,1.14-.56,1,1,0,0,0-.36-1.23,7.74,7.74,0,0,0-2.15-1.24,7.6,7.6,0,0,0-2.38-.71,1,1,0,0,0-1.14.57.79.79,0,0,0,0,.62,1.43,1.43,0,0,0,.41.6,4.25,4.25,0,0,0,.86.61Q111.76,21.34,112.51,21.67Z"/><path class="cls-13" d="M113.58,48.19l1.5.65-.36.83L110.79,48l.5-1.14a2.12,2.12,0,0,1,.8-1.06,1.14,1.14,0,0,1,1,0,1.2,1.2,0,0,1,.54.45,1.44,1.44,0,0,1,.19.73l2.21-.42-.4.93-1.91.28Zm-.68-.3.11-.26a1,1,0,0,0,.12-.64.49.49,0,0,0-.33-.37.45.45,0,0,0-.48,0,1.29,1.29,0,0,0-.38.54l-.1.26Z"/><path class="cls-13" d="M117.27,43.77l-1,2.27-3.93-1.7,1-2.27.68.3-.61,1.43.86.37.57-1.33.69.3L115,44.47l1,.44.61-1.44Z"/><path class="cls-13" d="M119.28,39.12l-.41,1-2.3-.36-.49-.09-.5-.12.43.28a5,5,0,0,1,.41.3l1.84,1.42-.41.94-4.37-.69.35-.82,2.37.42c.43.09.8.17,1.11.26l-.44-.28a3.79,3.79,0,0,1-.45-.33l-2-1.52.34-.79,2.45.38.49.1.56.14-.48-.31c-.19-.13-.35-.24-.46-.33l-1.93-1.43.35-.82Z"/><path class="cls-13" d="M120.92,35.33l-1.06-.12-.62,1.43.81.69-.38.9-3.35-3.09.44-1,4.55.31Zm-1.85-.23-1.63-.17-.29,0c.2.15.7.57,1.48,1.24Z"/><path class="cls-13" d="M120.37,32.45l1.51.65-.36.83-3.93-1.69.49-1.15a2.08,2.08,0,0,1,.81-1.06,1.14,1.14,0,0,1,1,0,1.12,1.12,0,0,1,.53.45,1.35,1.35,0,0,1,.19.73l2.22-.42-.4.93-1.92.28Zm-.68-.29.12-.27a1.2,1.2,0,0,0,.12-.64.49.49,0,0,0-.33-.37.48.48,0,0,0-.48,0,1.21,1.21,0,0,0-.38.54l-.11.26Z"/><path class="cls-13" d="M122.5,26.17a2.11,2.11,0,0,1,1.24,1.19,2.43,2.43,0,0,1-.17,1.82l-.48,1.12-3.93-1.7.53-1.24a2.25,2.25,0,0,1,1.16-1.27A2,2,0,0,1,122.5,26.17Zm-.36.87c-.84-.36-1.42-.17-1.75.58l-.19.44,2.56,1.11.16-.36A1.21,1.21,0,0,0,122.14,27Z"/><path class="cls-13" d="M106.53,127.67a3.45,3.45,0,0,1,.26,1.2,2.66,2.66,0,0,1-.18,1.13,2.7,2.7,0,0,1-.66,1,3.45,3.45,0,0,1-1.15.71,3.89,3.89,0,0,1-1.48.31,2.77,2.77,0,0,1-1.31-.29,3.19,3.19,0,0,1-1.11-.89,5.45,5.45,0,0,1-.86-1.49c-.09-.24-.18-.48-.25-.72a6.62,6.62,0,0,1-.17-.71,5.31,5.31,0,0,1-.08-.67,3.08,3.08,0,0,1,0-.61l1.73-.69a3.11,3.11,0,0,0,0,.62,5.62,5.62,0,0,0,0,.7,5.25,5.25,0,0,0,.13.69,5.36,5.36,0,0,0,.19.64,2.24,2.24,0,0,0,.89,1.17,1.45,1.45,0,0,0,1.32,0,1.42,1.42,0,0,0,.89-.87,2.36,2.36,0,0,0-.18-1.51,3.7,3.7,0,0,0-.17-.35,4,4,0,0,0-.2-.35q-.11-.18-.21-.33a2,2,0,0,0-.19-.26l.11-1,5-1.56,2,5-1.69.67-1.3-3.25-1.92.58c.09.13.18.28.28.45A3.73,3.73,0,0,1,106.53,127.67Z"/><path class="cls-13" d="M109.33,138.5a11,11,0,0,1-2.11.64,5,5,0,0,1-1.75,0,2.9,2.9,0,0,1-1.36-.63,3.29,3.29,0,0,1-.93-1.36,3.15,3.15,0,0,1-.24-1.56,3,3,0,0,1,.56-1.39,5.34,5.34,0,0,1,1.28-1.21,11,11,0,0,1,2-1,12.47,12.47,0,0,1,2.12-.64,5,5,0,0,1,1.76,0A2.8,2.8,0,0,1,112,132a3.25,3.25,0,0,1,.93,1.35,3.09,3.09,0,0,1,.24,1.55,3,3,0,0,1-.55,1.4,4.9,4.9,0,0,1-1.29,1.22A10.73,10.73,0,0,1,109.33,138.5ZM107.54,134a8.64,8.64,0,0,0-2.32,1.25,1.08,1.08,0,0,0-.43,1.29,1.1,1.1,0,0,0,1.2.64,8,8,0,0,0,2.55-.67,8.43,8.43,0,0,0,2.32-1.27,1.1,1.1,0,0,0,.43-1.29.89.89,0,0,0-.43-.5,1.61,1.61,0,0,0-.77-.14,4.62,4.62,0,0,0-1.1.19C108.56,133.63,108.08,133.8,107.54,134Z"/><path class="cls-13" d="M112.24,145.79a11,11,0,0,1-2.11.64,5,5,0,0,1-1.76,0,3,3,0,0,1-1.36-.63,3.37,3.37,0,0,1-.92-1.36,3.11,3.11,0,0,1-.24-1.56,3,3,0,0,1,.55-1.39,5.36,5.36,0,0,1,1.29-1.2,10.62,10.62,0,0,1,2-1,12.47,12.47,0,0,1,2.12-.64,5,5,0,0,1,1.75,0,2.83,2.83,0,0,1,1.36.62,3.6,3.6,0,0,1,1.17,2.91,3,3,0,0,1-.56,1.39,5,5,0,0,1-1.28,1.22A9.89,9.89,0,0,1,112.24,145.79Zm-1.79-4.48a8.67,8.67,0,0,0-2.32,1.24,1.08,1.08,0,0,0-.43,1.29,1.11,1.11,0,0,0,1.19.65,11,11,0,0,0,4.88-2,1.09,1.09,0,0,0,.43-1.29.89.89,0,0,0-.43-.5,1.63,1.63,0,0,0-.77-.14,5.37,5.37,0,0,0-1.11.19A14.29,14.29,0,0,0,110.45,141.31Z"/><path class="cls-13" d="M117.91,147.07l.41,1a2.11,2.11,0,0,1,.21,1.1.76.76,0,0,1-.51.58.89.89,0,0,1-.55.05.55.55,0,0,1-.37-.28h0a.77.77,0,0,1-.08.56,1,1,0,0,1-1.29.3,1.49,1.49,0,0,1-.61-.79l-.5-1.24Zm-1,1.22.16.41a.86.86,0,0,0,.25.38.36.36,0,0,0,.35,0,.3.3,0,0,0,.21-.25.93.93,0,0,0-.09-.47l-.15-.37Zm-.56.23-.86.34.18.46a.69.69,0,0,0,.28.38.43.43,0,0,0,.4,0c.27-.11.33-.36.17-.76Z"/><path class="cls-13" d="M116.33,152.75l-.6-1.51.4-.16.35.33,2.14-.85,0-.48.4-.16.6,1.51-.4.16-.35-.33-2.14.85,0,.48Z"/><path class="cls-13" d="M117.07,154.6l-.28-.71,2.73-1.09-.36-.9.59-.23,1,2.5-.58.24-.36-.9Z"/><path class="cls-13" d="M119.33,157.6a.93.93,0,0,1-.83,0,1.53,1.53,0,0,1-.62-.8,2.2,2.2,0,0,1-.17-1l.65-.26a4.41,4.41,0,0,0,0,.65,2.11,2.11,0,0,0,.11.45.63.63,0,0,0,.23.32.31.31,0,0,0,.31,0,.28.28,0,0,0,.16-.12.93.93,0,0,0,.08-.22,3.27,3.27,0,0,0,0-.52,2.83,2.83,0,0,1,.09-.56,1.23,1.23,0,0,1,.21-.37.94.94,0,0,1,.38-.25.92.92,0,0,1,.81,0,1.35,1.35,0,0,1,.58.72,2.08,2.08,0,0,1,.13.52,4.86,4.86,0,0,1,0,.56h-.64c0-.2,0-.37,0-.5a1.61,1.61,0,0,0-.1-.36.5.5,0,0,0-.21-.27.37.37,0,0,0-.29,0,.3.3,0,0,0-.14.1.47.47,0,0,0-.08.19,4.12,4.12,0,0,0-.06.54,1.8,1.8,0,0,1-.19.82A1,1,0,0,1,119.33,157.6Z"/><path class="cls-13" d="M118.65,158.57l3.32-1.33.28.71L119.51,159l.54,1.34-.58.23Z"/><path class="cls-13" d="M120.46,163.1l-.76-1.91,3.31-1.32.77,1.91-.58.23-.48-1.21-.73.29.45,1.12-.58.23-.45-1.12-.85.34.48,1.21Z"/><path class="cls-13" d="M122.29,164l-1.27.5-.28-.7,3.31-1.32.39,1a1.77,1.77,0,0,1,.15,1.1,1,1,0,0,1-1.2.67,1.14,1.14,0,0,1-.54-.31l-1.06,1.55-.31-.78,1-1.3Zm.57-.23.09.23a.87.87,0,0,0,.31.44.4.4,0,0,0,.41,0,.37.37,0,0,0,.27-.29,1,1,0,0,0-.1-.55l-.08-.21Z"/><path class="cls-13" d="M112.36,150.91a.76.76,0,0,0-.54-.49,1.47,1.47,0,0,0-.92.11c-.74.3-1,.72-.78,1.28a3.18,3.18,0,0,0,.51.77l-.59.24a2.67,2.67,0,0,1-.53-.85,1.5,1.5,0,0,1,0-1.28,2,2,0,0,1,1.11-.88,2.2,2.2,0,0,1,1-.18,1.52,1.52,0,0,1,.81.31,1.74,1.74,0,0,1,.54.74,2.46,2.46,0,0,1,.15,1.06h-.66a3.09,3.09,0,0,0,0-.43A1.06,1.06,0,0,0,112.36,150.91Z"/><path class="cls-13" d="M113.05,155.87a2,2,0,0,1-1.43.1,1.61,1.61,0,0,1-.91-1,1.67,1.67,0,0,1,0-1.35,2,2,0,0,1,1.11-.91,1.91,1.91,0,0,1,1.43-.1,1.64,1.64,0,0,1,.9,1,1.57,1.57,0,0,1,0,1.34A1.94,1.94,0,0,1,113.05,155.87Zm-1-2.42a1.47,1.47,0,0,0-.75.55.8.8,0,0,0,0,.74c.22.56.71.69,1.45.4s1-.73.79-1.29a.8.8,0,0,0-.54-.52A1.59,1.59,0,0,0,112.08,153.45Z"/><path class="cls-13" d="M112.15,158.47l-.6-1.51.4-.16.35.33,2.14-.86,0-.48.4-.16.6,1.51-.4.16-.35-.33-2.14.86,0,.48Z"/><path class="cls-13" d="M113.55,162l-.35-.89,1.93-2.44v0l-.93.42-1.56.62-.25-.63,3.31-1.32.36.89L114.14,161h0l.91-.4,1.56-.62.26.63Z"/><path class="cls-13" d="M115.59,164.4a.92.92,0,0,1-.84-.05,1.47,1.47,0,0,1-.62-.79,2.2,2.2,0,0,1-.17-1l.65-.26a3.27,3.27,0,0,0,0,.65,1.87,1.87,0,0,0,.1.45.7.7,0,0,0,.23.32.33.33,0,0,0,.32,0,.44.44,0,0,0,.15-.12.93.93,0,0,0,.08-.22,3.27,3.27,0,0,0,0-.52,2.36,2.36,0,0,1,.1-.57,1,1,0,0,1,.21-.36.84.84,0,0,1,.37-.25.92.92,0,0,1,.81,0,1.31,1.31,0,0,1,.58.72,2,2,0,0,1,.13.52,3.32,3.32,0,0,1,0,.56h-.64a3.55,3.55,0,0,0,0-.5,1.36,1.36,0,0,0-.1-.36.5.5,0,0,0-.21-.27.36.36,0,0,0-.29,0,.31.31,0,0,0-.14.11.68.68,0,0,0-.08.19,3.2,3.2,0,0,0,0,.54,1.92,1.92,0,0,1-.2.82A1,1,0,0,1,115.59,164.4Z"/></g></g></svg>