<?xml version="1.0" encoding="utf-8"?>
<!-- Generator: Adobe Illustrator 26.0.3, SVG Export Plug-In . SVG Version: 6.00 Build 0)  -->
<svg version="1.1" id="Layer_1" xmlns="http://www.w3.org/2000/svg" xmlns:xlink="http://www.w3.org/1999/xlink" x="0px" y="0px"
	 viewBox="0 0 184 184" style="enable-background:new 0 0 184 184;" xml:space="preserve">
<style type="text/css">
	.st0{fill:#00264D;}
	.st1{fill:url(#SVGID_1_);}
	.st2{fill:url(#SVGID_00000143615366098489063480000008568061857285047172_);}
	.st3{fill:url(#SVGID_00000101806190219106278220000007180571577630681513_);}
	.st4{fill:url(#SVGID_00000182508585935779388580000000104558866070012043_);}
	.st5{fill:url(#SVGID_00000145040571712860699200000002343436761957143947_);}
	.st6{fill:url(#SVGID_00000124155924648484486040000011388817707046897792_);}
	.st7{fill:url(#SVGID_00000169540396906579015460000011405460070522692742_);}
	.st8{fill:url(#SVGID_00000133518644655561864350000006439194658462106808_);}
	.st9{fill:url(#SVGID_00000084500679553530179190000013189943434436206014_);}
	.st10{fill:url(#SVGID_00000060720743678028815870000002193428990405356946_);}
	.st11{fill:url(#SVGID_00000034086398947015995640000001757031165596844689_);}
	.st12{fill:url(#SVGID_00000027606124056206534350000018337327546794035123_);}
	.st13{fill:url(#SVGID_00000106839486566052347150000016540163613326665916_);}
	.st14{fill:url(#SVGID_00000090273294913396320320000002383592881485836165_);}
	.st15{fill:url(#SVGID_00000043425199758990284990000013800097829780321698_);}
	.st16{fill:url(#SVGID_00000023962758346793011630000007040624320862302137_);}
	.st17{fill:url(#SVGID_00000139291431711496521940000010205706159997745291_);}
	.st18{fill:url(#SVGID_00000097468531247967755450000006956378856208591794_);}
	.st19{fill:url(#SVGID_00000119824606388244149850000010571653874813455767_);}
	.st20{opacity:0.25;fill:#FFFFFF;enable-background:new    ;}
	.st21{fill:url(#SVGID_00000155106041839393295940000010310932605408126605_);}
	.st22{fill:#FFFFFF;}
	.st23{fill-rule:evenodd;clip-rule:evenodd;fill:#627EEA;}
	.st24{fill-rule:evenodd;clip-rule:evenodd;fill:#FFFFFF;}
	.st25{fill-rule:evenodd;clip-rule:evenodd;fill:#C1CCF7;}
	.st26{opacity:0.5;fill-rule:evenodd;clip-rule:evenodd;fill:#8198EE;enable-background:new    ;}
	.st27{fill-rule:evenodd;clip-rule:evenodd;fill:#F6911E;}
	.st28{fill-rule:evenodd;clip-rule:evenodd;fill:#F4F4F4;}
	.st29{fill-rule:evenodd;clip-rule:evenodd;fill:#345D9D;}
</style>
<g>
	<circle class="st0" cx="92" cy="92" r="92"/>
</g>
<g>
	
		<radialGradient id="SVGID_1_" cx="102.1143" cy="651.0714" r="65.4348" gradientTransform="matrix(1 0 0 1 0 -572)" gradientUnits="userSpaceOnUse">
		<stop  offset="0" style="stop-color:#992E2E"/>
		<stop  offset="1" style="stop-color:#F24C4C"/>
	</radialGradient>
	<path class="st1" d="M106.7,78.7L156.3,37c1.2-1,1.3-2.8,0.3-4c-5.3-5.7-11.3-10.7-17.8-14.9c-1.3-0.8-3.1-0.4-3.9,1l-32.3,56.2
		C101,77.8,104.3,80.6,106.7,78.7z"/>
	
		<radialGradient id="SVGID_00000081613561297889050860000003690552423008284325_" cx="96.2059" cy="679.9131" r="71.1334" gradientTransform="matrix(1 0 0 1 0 -572)" gradientUnits="userSpaceOnUse">
		<stop  offset="0" style="stop-color:#992E2E"/>
		<stop  offset="1" style="stop-color:#F24C4C"/>
	</radialGradient>
	<path style="fill:url(#SVGID_00000081613561297889050860000003690552423008284325_);" d="M96.2,111.4l11.3,63.8
		c0.3,1.6,1.8,2.6,3.3,2.2c7.8-1.7,15.1-4.4,21.8-8c1.4-0.7,1.9-2.5,1.1-3.8l-32.4-56.1C99.7,106.9,95.6,108.4,96.2,111.4z"/>
	
		<radialGradient id="SVGID_00000143604470965191340760000010346395393002135474_" cx="87.874" cy="680.0618" r="72.1706" gradientTransform="matrix(1 0 0 1 0 -572)" gradientUnits="userSpaceOnUse">
		<stop  offset="0" style="stop-color:#007F12"/>
		<stop  offset="1" style="stop-color:#00BF1B"/>
	</radialGradient>
	<path style="fill:url(#SVGID_00000143604470965191340760000010346395393002135474_);" d="M51.5,169.6c6.8,3.6,14.2,6.3,21.8,8
		c1.5,0.3,3-0.7,3.3-2.2l11.2-63.9c0.5-3-3.6-4.5-5.1-1.8l-32.3,56.2C49.6,167.1,50.1,168.8,51.5,169.6z"/>
	
		<radialGradient id="SVGID_00000159467743751994933210000000092554782329611953_" cx="77.5639" cy="646.2061" r="81.2591" gradientTransform="matrix(1 0 0 1 0 -572)" gradientUnits="userSpaceOnUse">
		<stop  offset="0" style="stop-color:#582099"/>
		<stop  offset="1" style="stop-color:#7D33E5"/>
	</radialGradient>
	<path style="fill:url(#SVGID_00000159467743751994933210000000092554782329611953_);" d="M94.7,72.3l11.2-63.9
		c0.3-1.5-0.8-3-2.3-3.2c-7.6-1-15.4-1-23.2,0c-1.7,0.3-2.8,1.7-2.5,3.3l11.3,63.9C89.8,75.4,94.1,75.4,94.7,72.3z"/>
	
		<radialGradient id="SVGID_00000000209591576241982790000008899959287842330032_" cx="96.2857" cy="648.2374" r="57.4049" gradientTransform="matrix(1 0 0 1 0 -572)" gradientUnits="userSpaceOnUse">
		<stop  offset="0" style="stop-color:#7B287F"/>
		<stop  offset="1" style="stop-color:#C83ECC"/>
	</radialGradient>
	<path style="fill:url(#SVGID_00000000209591576241982790000008899959287842330032_);" d="M132.5,14.4c-6.9-3.5-14.2-6.2-21.9-7.9
		c-1.5-0.3-3,0.7-3.3,2.2L96.1,72.6c-0.5,3,3.6,4.5,5.1,1.8l32.4-56.1C134.4,16.9,133.8,15.2,132.5,14.4z"/>
	
		<radialGradient id="SVGID_00000011726259053158764560000010813316649112585608_" cx="106.6896" cy="656.1619" r="63.133" gradientTransform="matrix(1 0 0 1 0 -572)" gradientUnits="userSpaceOnUse">
		<stop  offset="0" style="stop-color:#CC7400"/>
		<stop  offset="1" style="stop-color:#F2A41C"/>
	</radialGradient>
	<path style="fill:url(#SVGID_00000011726259053158764560000010813316649112585608_);" d="M172.9,58.6c-3-7.3-6.9-14-11.7-20.1
		c-1-1.2-2.8-1.4-4-0.4l-49.6,41.7c-2.4,2-0.2,5.8,2.7,4.7l60.9-22.2C172.7,61.7,173.5,60,172.9,58.6z"/>
	
		<radialGradient id="SVGID_00000073718596598122489610000014008999091438432160_" cx="106.8383" cy="671.2839" r="67.7658" gradientTransform="matrix(1 0 0 1 0 -572)" gradientUnits="userSpaceOnUse">
		<stop  offset="0" style="stop-color:#582099"/>
		<stop  offset="1" style="stop-color:#7D33E5"/>
	</radialGradient>
	<path style="fill:url(#SVGID_00000073718596598122489610000014008999091438432160_);" d="M107.7,104.2l49.7,41.6c1.2,1,3,0.8,4-0.4
		c4.7-6.1,8.6-12.9,11.6-20.1c0.6-1.4-0.1-3.1-1.6-3.7l-61-22.1C107.5,98.4,105.3,102.2,107.7,104.2z"/>
	
		<radialGradient id="SVGID_00000061435133155461464260000007203425652496822431_" cx="109.2566" cy="649.2858" r="70.0731" gradientTransform="matrix(1 0 0 1 0 -572)" gradientUnits="userSpaceOnUse">
		<stop  offset="0" style="stop-color:#007F12"/>
		<stop  offset="1" style="stop-color:#00BF1B"/>
	</radialGradient>
	<path style="fill:url(#SVGID_00000061435133155461464260000007203425652496822431_);" d="M176.7,91.2c1.6,0,2.8-1.3,2.8-2.9
		c-0.2-3.8-0.6-7.7-1.3-11.6s-1.6-7.7-2.8-11.3c-0.5-1.5-2.1-2.3-3.6-1.8l-60.9,22.2c-2.9,1.1-2.1,5.3,0.9,5.3L176.7,91.2z"/>
	
		<radialGradient id="SVGID_00000117646396996399657540000016111182817994485166_" cx="108.8922" cy="664.3456" r="69.231" gradientTransform="matrix(1 0 0 1 0 -572)" gradientUnits="userSpaceOnUse">
		<stop  offset="0" style="stop-color:#105B99"/>
		<stop  offset="1" style="stop-color:#1C9CF2"/>
	</radialGradient>
	<path style="fill:url(#SVGID_00000117646396996399657540000016111182817994485166_);" d="M110.9,98.1l61,22.1
		c1.5,0.5,3.1-0.3,3.6-1.8c2.3-7.3,3.7-15,4-22.9c0.1-1.6-1.2-2.9-2.8-2.9l-64.9,0.1C108.7,92.7,108,97,110.9,98.1z"/>
	
		<radialGradient id="SVGID_00000054261306129843174130000007231823252859670703_" cx="77.0091" cy="656.5059" r="69.2785" gradientTransform="matrix(1 0 0 1 0 -572)" gradientUnits="userSpaceOnUse">
		<stop  offset="0" style="stop-color:#CC7400"/>
		<stop  offset="1" style="stop-color:#F2A41C"/>
	</radialGradient>
	<path style="fill:url(#SVGID_00000054261306129843174130000007231823252859670703_);" d="M76.3,79.8L26.6,38.2c-1.2-1-3-0.8-4,0.4
		C17.9,44.8,14,51.5,11,58.7c-0.6,1.5,0.1,3.1,1.6,3.7l61,22.1C76.5,85.6,78.6,81.8,76.3,79.8z"/>
	
		<radialGradient id="SVGID_00000117667162302079669960000017344653693075539344_" cx="81.1614" cy="676.5182" r="78.8002" gradientTransform="matrix(1 0 0 1 0 -572)" gradientUnits="userSpaceOnUse">
		<stop  offset="0" style="stop-color:#105B99"/>
		<stop  offset="1" style="stop-color:#1C9CF2"/>
	</radialGradient>
	<path style="fill:url(#SVGID_00000117667162302079669960000017344653693075539344_);" d="M77.3,105.3l-49.7,41.8
		c-1.2,1-1.3,2.8-0.3,4c5.3,5.7,11.3,10.8,17.8,14.9c1.3,0.8,3.1,0.4,3.9-0.9l32.3-56.2C82.9,106.2,79.6,103.3,77.3,105.3z"/>
	
		<radialGradient id="SVGID_00000153696296225247138410000016760790608584114365_" cx="74.5956" cy="663.2032" r="66.6496" gradientTransform="matrix(1 0 0 1 0 -572)" gradientUnits="userSpaceOnUse">
		<stop  offset="0" style="stop-color:#992E2E"/>
		<stop  offset="1" style="stop-color:#F24C4C"/>
	</radialGradient>
	<path style="fill:url(#SVGID_00000153696296225247138410000016760790608584114365_);" d="M73,85.9L12.1,63.8
		c-1.5-0.5-3.1,0.3-3.6,1.8c-2.3,7.3-3.7,15-4,22.9c-0.1,1.6,1.2,2.9,2.8,2.9l64.9-0.1C75.2,91.3,75.9,87,73,85.9z"/>
	
		<radialGradient id="SVGID_00000057141769928141608760000000290027404407034768_" cx="105.9295" cy="681.826" r="66.8792" gradientTransform="matrix(1 0 0 1 0 -572)" gradientUnits="userSpaceOnUse">
		<stop  offset="0" style="stop-color:#CC7400"/>
		<stop  offset="1" style="stop-color:#F2A41C"/>
	</radialGradient>
	<path style="fill:url(#SVGID_00000057141769928141608760000000290027404407034768_);" d="M89.3,111.7l-11.2,63.9
		c-0.3,1.5,0.8,3,2.3,3.2c7.6,1,15.4,1,23.2,0c1.6-0.2,2.6-1.7,2.3-3.2l-11.3-63.9C94.2,108.6,89.8,108.6,89.3,111.7z"/>
	
		<radialGradient id="SVGID_00000127027376633326750490000001352230973740956837_" cx="102.2006" cy="676.2964" r="68.2381" gradientTransform="matrix(1 0 0 1 0 -572)" gradientUnits="userSpaceOnUse">
		<stop  offset="0" style="stop-color:#7B287F"/>
		<stop  offset="1" style="stop-color:#C83ECC"/>
	</radialGradient>
	<path style="fill:url(#SVGID_00000127027376633326750490000001352230973740956837_);" d="M102.5,108.8l32.5,56.1
		c0.8,1.4,2.6,1.8,3.9,0.9c6.6-4.2,12.6-9.3,17.8-15c1.1-1.2,0.9-3-0.3-4l-49.7-41.6C104.3,103.3,101,106.1,102.5,108.8z"/>
	
		<radialGradient id="SVGID_00000085950776150373747900000014868052251952009641_" cx="87.6415" cy="647.5527" r="73.5921" gradientTransform="matrix(1 0 0 1 0 -572)" gradientUnits="userSpaceOnUse">
		<stop  offset="0" style="stop-color:#105B99"/>
		<stop  offset="1" style="stop-color:#1C9CF2"/>
	</radialGradient>
	<path style="fill:url(#SVGID_00000085950776150373747900000014868052251952009641_);" d="M87.8,72.6L76.4,8.7
		c-0.3-1.5-1.8-2.6-3.3-2.2c-7.8,1.7-15.1,4.4-21.8,8c-1.4,0.7-1.9,2.5-1.1,3.8l32.5,56.1C84.2,77.1,88.3,75.6,87.8,72.6z"/>
	
		<radialGradient id="SVGID_00000058559650201394940800000018297079586047230354_" cx="81.5449" cy="651.0991" r="70.8136" gradientTransform="matrix(1 0 0 1 0 -572)" gradientUnits="userSpaceOnUse">
		<stop  offset="0" style="stop-color:#007F12"/>
		<stop  offset="1" style="stop-color:#00BF1B"/>
	</radialGradient>
	<path style="fill:url(#SVGID_00000058559650201394940800000018297079586047230354_);" d="M81.4,75.2L48.9,19.1
		c-0.8-1.4-2.5-1.8-3.9-0.9c-6.6,4.2-12.6,9.3-17.8,15c-1,1.2-0.9,3,0.3,4l49.7,41.6C79.6,80.7,82.9,77.9,81.4,75.2z"/>
	
		<radialGradient id="SVGID_00000008143609033416158950000016738426405170153143_" cx="75.0618" cy="678.2828" r="77.4179" gradientTransform="matrix(1 0 0 1 0 -572)" gradientUnits="userSpaceOnUse">
		<stop  offset="0" style="stop-color:#7B287F"/>
		<stop  offset="1" style="stop-color:#C83ECC"/>
	</radialGradient>
	<path style="fill:url(#SVGID_00000008143609033416158950000016738426405170153143_);" d="M7.3,92.8c-1.6,0-2.8,1.3-2.8,2.9
		c0.2,3.8,0.6,7.7,1.3,11.6s1.6,7.7,2.8,11.3c0.5,1.5,2.1,2.3,3.6,1.8l60.9-22.2c2.9-1.1,2.1-5.3-0.9-5.3L7.3,92.8z"/>
	
		<radialGradient id="SVGID_00000060014423553270913440000007831351197295609238_" cx="77.4644" cy="671.5223" r="92.5834" gradientTransform="matrix(1 0 0 1 0 -572)" gradientUnits="userSpaceOnUse">
		<stop  offset="0" style="stop-color:#582099"/>
		<stop  offset="1" style="stop-color:#7D33E5"/>
	</radialGradient>
	<path style="fill:url(#SVGID_00000060014423553270913440000007831351197295609238_);" d="M11,125.4c3,7.3,6.9,14,11.7,20.1
		c1,1.2,2.8,1.4,4,0.4l49.6-41.7c2.4-2,0.2-5.8-2.7-4.7l-60.9,22.2C11.2,122.3,10.5,123.9,11,125.4z"/>
</g>
<ellipse class="st0" cx="92" cy="92" rx="30.2" ry="30.2"/>
<g>
	
		<linearGradient id="SVGID_00000093880505119514991110000011041985609432122782_" gradientUnits="userSpaceOnUse" x1="91.9602" y1="636.5977" x2="91.9602" y2="691.0099" gradientTransform="matrix(1 0 0 1 0 -572)">
		<stop  offset="0" style="stop-color:#FFC033"/>
		<stop  offset="1" style="stop-color:#E5962E"/>
	</linearGradient>
	<circle style="fill:url(#SVGID_00000093880505119514991110000011041985609432122782_);" cx="92" cy="92" r="28.6"/>
	<ellipse class="st20" cx="92" cy="92" rx="23.9" ry="23.9"/>
	
		<linearGradient id="SVGID_00000160188323770913816860000012363544139148254891_" gradientUnits="userSpaceOnUse" x1="91.9602" y1="524.3948" x2="91.9602" y2="569.1472" gradientTransform="matrix(1 0 0 -1 0 638.86)">
		<stop  offset="0" style="stop-color:#FFC033"/>
		<stop  offset="1" style="stop-color:#E5962E"/>
	</linearGradient>
	<circle style="fill:url(#SVGID_00000160188323770913816860000012363544139148254891_);" cx="92" cy="92" r="23.6"/>
</g>
<g>
	<path class="st22" d="M78.3,88.2c-0.5,0-0.9,0.2-0.9,0.6c0,1.5,5.5,0.6,5.5,4.4c0,2.2-2,3.3-4.3,3.3c-1.8,0-3.7-0.6-5-1.7l1.2-2.4
		c1.1,0.9,2.8,1.6,3.9,1.6c0.7,0,1.1-0.2,1.1-0.7c0-1.6-5.5-0.6-5.5-4.3c0-2,1.7-3.3,4.3-3.3c1.6,0,3.2,0.5,4.4,1.2l-1.2,2.4
		C80.7,88.7,79.1,88.2,78.3,88.2z"/>
	<path class="st22" d="M93,89.6c0,2.5-1.6,3.9-4.3,3.9h-1.6v2.8H84V85.9h4.8C91.4,85.9,93,87.2,93,89.6z M90,89.7
		c0-0.9-0.5-1.4-1.5-1.4H87v2.9h1.6C89.5,91.2,90,90.6,90,89.7z"/>
	<path class="st22" d="M97.3,85.9v10.5h-3.1V85.9H97.3z"/>
	<path class="st22" d="M101.7,85.9l4.4,5.9v-5.9h2.8v10.5h-2.6l-4.4-5.8v5.8h-2.8V85.9H101.7z"/>
</g>
<g>
	<g>
		<g>
			<path class="st22" d="M46.3,98.5l1-0.2l0.7,4.1l1.3-0.2l0.2,0.9l-3.7,0.7l-0.2-0.9l1.3-0.2L46.3,98.5z"/>
			<path class="st22" d="M43.5,101l-0.3-1.9l1-0.2l0.9,4.9l-1.4,0.2c-0.7,0.1-1.2,0.1-1.5-0.1c-0.4-0.2-0.6-0.5-0.7-1
				c0-0.3,0-0.6,0.1-0.8s0.3-0.5,0.6-0.7l-1.8-1.9l1.2-0.2l1.5,1.7H43.5z M43.6,101.8l-0.3,0.1c-0.3,0.1-0.6,0.2-0.7,0.3
				c-0.1,0.1-0.2,0.3-0.1,0.6c0,0.2,0.2,0.4,0.3,0.5c0.2,0.1,0.4,0.1,0.8,0l0.3-0.1L43.6,101.8z"/>
			<path class="st22" d="M38.6,102.9l-0.7,2.2l-1.1,0.2l1.1-3.3l-0.3-1.9l1-0.2l0.3,1.9l2.2,2.8l-1.1,0.2L38.6,102.9z"/>
			<path class="st22" d="M30.5,101.3l0.6,1.1l1.8-0.3l0.2-1.2l1.1-0.2l-0.9,5.2l-1.3,0.2l-2.6-4.6L30.5,101.3z M31.5,103.3
				c0.5,1,0.8,1.6,0.9,1.7s0.1,0.2,0.2,0.3c0-0.3,0.1-1.1,0.3-2.2L31.5,103.3z"/>
			<path class="st22" d="M27.5,104.7l-2,0.3l-0.5-2.6c0.3-0.2,0.6-0.3,0.9-0.4s0.5-0.2,0.8-0.2c0.7-0.1,1.4,0,1.8,0.3s0.8,1,0.9,1.8
				s0,1.4-0.4,2c-0.4,0.5-1,0.9-1.8,1c-0.5,0.1-1,0.1-1.5,0l0.2-0.9c0.4,0.1,0.8,0.1,1.2,0.1c0.5-0.1,0.8-0.3,1-0.7
				c0.2-0.3,0.3-0.8,0.2-1.3c-0.1-0.5-0.3-0.9-0.5-1.2c-0.3-0.2-0.6-0.3-1-0.2c-0.2,0-0.4,0.1-0.6,0.2l0.2,1l0.9-0.2L27.5,104.7z"/>
			<path class="st22" d="M20.8,103.1l0.6,1.1l1.8-0.3l0.1-1.2l1.1-0.2l-0.9,5.2l-1.3,0.2l-2.6-4.6L20.8,103.1z M21.8,105
				c0.5,1,0.8,1.6,0.9,1.7s0.1,0.2,0.1,0.3c0-0.3,0.1-1.1,0.3-2.2L21.8,105z"/>
			<path class="st22" d="M17.3,103.7l2.2-0.4l0.1,0.6l-0.5,0.4l0.6,3.2l0.6,0.2l0.1,0.6l-2.2,0.4l-0.1-0.6l0.5-0.4l-0.6-3.2
				l-0.6-0.2L17.3,103.7z"/>
			<path class="st22" d="M12,104.6l1.3-0.2l2.8,3.3l0,0c-0.2-0.7-0.3-1.1-0.3-1.4l-0.4-2.3l0.9-0.2l0.9,4.9l-1.3,0.2l-2.8-3.3l0,0
				c0.1,0.6,0.2,1.1,0.3,1.3l0.4,2.3l-0.9,0.2L12,104.6z"/>
		</g>
	</g>
	<g>
		<g>
			<path class="st22" d="M64.8,125.7c-0.1,0.1-0.2,0.2-0.4,0.3c-0.2,0.1-0.3,0.1-0.5,0.1c-0.2,0-0.3,0-0.5-0.1s-0.3-0.1-0.5-0.3
				c-0.2-0.1-0.3-0.3-0.4-0.5s-0.2-0.4-0.2-0.6s0-0.4,0.1-0.6s0.2-0.4,0.4-0.6c0.1-0.1,0.1-0.2,0.2-0.2s0.2-0.1,0.2-0.2
				s0.2-0.1,0.2-0.2c0.1-0.1,0.2-0.1,0.2-0.1l0.6,0.5c-0.1,0-0.2,0.1-0.2,0.1c-0.1,0.1-0.2,0.1-0.2,0.2c-0.1,0.1-0.2,0.1-0.2,0.2
				c-0.1,0.1-0.1,0.1-0.2,0.2c-0.2,0.2-0.3,0.4-0.3,0.6s0.1,0.3,0.3,0.5c0.2,0.1,0.3,0.2,0.5,0.2c0.2,0,0.3-0.2,0.5-0.4l0.1-0.1
				c0-0.1,0.1-0.1,0.1-0.2s0.1-0.1,0.1-0.1c0-0.1,0-0.1,0.1-0.1l0.4-0.2l1.6,1.5l-1.5,1.7l-0.6-0.5l0.9-1.1l-0.6-0.6
				c0,0.1-0.1,0.1-0.1,0.2C65,125.5,64.9,125.6,64.8,125.7z"/>
			<path class="st22" d="M61.4,128.9c-0.3-0.2-0.5-0.4-0.7-0.7c-0.2-0.2-0.3-0.4-0.4-0.6s-0.1-0.4,0-0.6s0.2-0.4,0.3-0.6
				c0.2-0.2,0.3-0.3,0.5-0.4s0.4-0.1,0.6-0.1c0.2,0,0.5,0.1,0.7,0.2c0.2,0.1,0.5,0.3,0.8,0.5s0.5,0.4,0.7,0.7
				c0.2,0.2,0.3,0.4,0.4,0.6s0.1,0.4,0,0.6s-0.2,0.4-0.3,0.6c-0.2,0.2-0.3,0.3-0.5,0.4c-0.2,0.1-0.4,0.1-0.6,0.1s-0.5-0.1-0.7-0.2
				C61.9,129.3,61.6,129.1,61.4,128.9z M62.7,127.3c-0.4-0.3-0.7-0.5-0.9-0.6c-0.2-0.1-0.4-0.1-0.6,0.1c-0.1,0.2-0.1,0.3,0,0.6
				s0.4,0.5,0.8,0.8s0.7,0.5,0.9,0.6s0.4,0.1,0.6-0.1c0.1-0.1,0.1-0.2,0.1-0.3s0-0.2-0.1-0.3s-0.2-0.2-0.3-0.4
				C63,127.6,62.8,127.4,62.7,127.3z"/>
			<path class="st22" d="M57.7,129.9l0.6-0.7l3.3,2.8l-1.6,1.9l-0.6-0.5l1-1.2l-0.8-0.7l-0.9,1.1l-0.6-0.5L59,131L57.7,129.9z"/>
			<path class="st22" d="M56.8,133.5l-1.2-1.1l0.6-0.7l3.3,2.8l-0.8,0.9c-0.4,0.4-0.7,0.7-1.1,0.8s-0.7,0-1-0.3
				c-0.2-0.2-0.3-0.4-0.4-0.6s0-0.5,0-0.8l-2.2-0.2l0.7-0.8l1.9,0.3L56.8,133.5z M57.3,133.9l-0.2,0.2c-0.2,0.2-0.3,0.4-0.3,0.6
				c0,0.2,0,0.3,0.2,0.4c0.2,0.1,0.3,0.2,0.5,0.1s0.3-0.2,0.5-0.4l0.2-0.2L57.3,133.9z"/>
			<path class="st22" d="M52,136.6l1.6-1.9l3.3,2.8l-1.6,1.9l-0.6-0.5l1-1.2l-0.7-0.6l-0.9,1.1l-0.6-0.5l0.9-1.1l-0.8-0.7l-1,1.2
				L52,136.6z"/>
			<path class="st22" d="M49.8,139.2l1.6-1.9l3.3,2.8l-1.6,1.9l-0.6-0.5l1-1.2l-0.7-0.6l-0.9,1.1l-0.6-0.5l0.9-1.1l-0.8-0.7l-1,1.2
				L49.8,139.2z"/>
			<path class="st22" d="M47.5,143.8c-0.3-0.2-0.4-0.6-0.4-0.9s0.2-0.7,0.5-1.1c0.3-0.4,0.6-0.6,1-0.8l0.6,0.5
				c-0.3,0.1-0.5,0.3-0.7,0.4c-0.2,0.1-0.3,0.2-0.4,0.4c-0.1,0.1-0.2,0.3-0.2,0.4s0,0.2,0.2,0.3c0.1,0.1,0.1,0.1,0.2,0.1
				c0.1,0,0.2,0,0.3,0s0.3-0.1,0.6-0.2c0.3-0.1,0.5-0.2,0.7-0.2s0.3,0,0.5,0s0.3,0.1,0.5,0.2c0.3,0.2,0.4,0.5,0.4,0.9
				c0,0.3-0.2,0.7-0.4,1c-0.1,0.2-0.3,0.3-0.5,0.4s-0.4,0.2-0.6,0.3l-0.3-0.7c0.2-0.1,0.4-0.2,0.5-0.3s0.2-0.2,0.3-0.3
				s0.2-0.3,0.2-0.4c0-0.1,0-0.2-0.2-0.3c-0.1-0.1-0.1-0.1-0.2-0.1s-0.2,0-0.2,0c-0.1,0-0.3,0.1-0.6,0.2c-0.4,0.2-0.7,0.3-1,0.3
				C47.9,144,47.7,143.9,47.5,143.8z"/>
			<path class="st22" d="M46.4,147.7c-0.3-0.3-0.5-0.6-0.5-1s0.2-0.8,0.5-1.2l0.2-0.3l-1.2-1l0.6-0.7l3.3,2.8l-0.9,1
				c-0.3,0.4-0.7,0.6-1,0.7C47.1,148.1,46.8,148,46.4,147.7z M47.2,145.7l-0.2,0.2c-0.2,0.2-0.3,0.4-0.3,0.6s0.1,0.3,0.2,0.5
				s0.3,0.2,0.5,0.2s0.3-0.1,0.5-0.3l0.3-0.3L47.2,145.7z"/>
			<path class="st22" d="M42.6,147.7l1.3-1.5l0.4,0.3l-0.2,0.6l2.1,1.8l0.5-0.2l0.4,0.3l-1.3,1.5l-0.4-0.3l0.2-0.6l-2.1-1.8L43,148
				L42.6,147.7z"/>
			<path class="st22" d="M39.7,151.1l0.8-0.9l3.7,0.7l0,0c-0.5-0.3-0.8-0.6-1-0.8l-1.5-1.3l0.5-0.6l3.3,2.8l-0.7,0.9l-3.7-0.6l0,0
				c0.4,0.3,0.8,0.6,0.9,0.7l1.5,1.3l-0.5,0.6L39.7,151.1z"/>
			<path class="st22" d="M38.3,154.7c-0.3-0.2-0.4-0.6-0.4-0.9s0.2-0.7,0.5-1.1c0.3-0.4,0.6-0.6,1-0.8l0.6,0.5
				c-0.3,0.1-0.5,0.3-0.7,0.4c-0.2,0.1-0.3,0.2-0.4,0.4c-0.1,0.1-0.2,0.3-0.2,0.4s0,0.2,0.2,0.3C39,154,39,154,39.1,154
				c0.1,0,0.2,0,0.3,0s0.3-0.1,0.6-0.2c0.3-0.1,0.5-0.2,0.7-0.2s0.3,0,0.5,0s0.3,0.1,0.5,0.2c0.3,0.2,0.4,0.5,0.4,0.9
				c0,0.3-0.2,0.7-0.4,1c-0.1,0.2-0.3,0.3-0.5,0.4s-0.4,0.2-0.6,0.3l-0.3-0.7c0.2-0.1,0.4-0.2,0.5-0.3s0.2-0.2,0.3-0.3
				s0.2-0.3,0.2-0.4c0-0.1,0-0.2-0.2-0.3c-0.1-0.1-0.1-0.1-0.2-0.1s-0.2,0-0.2,0c-0.1,0-0.3,0.1-0.6,0.2c-0.4,0.2-0.7,0.3-1,0.3
				C38.7,154.9,38.5,154.9,38.3,154.7z"/>
		</g>
	</g>
	<g>
		<g>
			<path class="st22" d="M76.5,128.4l0.8-2.2l0.5,0.2l0.6,1.1c0.1,0.1,0.1,0.3,0.2,0.4c0.1,0.1,0.1,0.2,0.2,0.3s0.1,0.2,0.2,0.2
				s0.2,0.1,0.3,0.2c0.1,0,0.2,0,0.3,0c0.1,0,0.2-0.1,0.2-0.2c0.1-0.1,0.1-0.2,0-0.4s-0.1-0.3-0.1-0.4l0.6-0.2
				c0,0.1,0.1,0.2,0.1,0.3s0.1,0.2,0.1,0.3s0,0.2,0,0.3s-0.1,0.2-0.1,0.4c-0.1,0.2-0.1,0.3-0.2,0.4c-0.1,0.1-0.2,0.2-0.3,0.2
				c-0.1,0.1-0.2,0.1-0.4,0.1c-0.1,0-0.3,0-0.4-0.1s-0.2-0.1-0.3-0.2c-0.1-0.1-0.2-0.2-0.3-0.3c-0.1-0.1-0.2-0.3-0.2-0.4
				c-0.1-0.1-0.2-0.3-0.2-0.5l-0.2-0.6l0,0l-0.5,1.4L76.5,128.4z"/>
			<path class="st22" d="M78,130.7c-0.1,0.1-0.1,0.3-0.2,0.4s-0.2,0.2-0.3,0.2s-0.2,0.1-0.4,0.1s-0.3,0-0.5-0.1s-0.3-0.2-0.4-0.3
				s-0.2-0.2-0.3-0.4s-0.1-0.3-0.1-0.5s0.1-0.4,0.1-0.6c0-0.1,0.1-0.2,0.1-0.2c0-0.1,0.1-0.1,0.1-0.2s0.1-0.1,0.1-0.2
				s0.1-0.1,0.2-0.1L77,129c-0.1,0-0.1,0.1-0.2,0.1c-0.1,0.1-0.1,0.1-0.2,0.2s0.1,0.2,0,0.2s-0.1,0.1-0.1,0.2
				c-0.1,0.2-0.1,0.4-0.1,0.5s0.2,0.2,0.3,0.3c0.2,0.1,0.3,0.1,0.4,0s0.2-0.2,0.3-0.4V130v-0.1v-0.1v-0.1l0.3-0.2l1.7,0.8l-0.7,1.8
				l-0.6-0.2l0.4-1.1l-0.6-0.3C77.9,130.6,77.9,130.6,78,130.7C78.1,130.5,78.1,130.6,78,130.7z"/>
			<path class="st22" d="M76.2,134.1c-0.3-0.1-0.5-0.2-0.7-0.3s-0.3-0.3-0.5-0.4s-0.2-0.3-0.2-0.5s0-0.4,0.1-0.6
				c0.1-0.2,0.2-0.4,0.3-0.5s0.3-0.2,0.5-0.2s0.4,0,0.6,0s0.5,0.1,0.8,0.2c0.3,0.1,0.5,0.2,0.7,0.3s0.3,0.3,0.5,0.4
				c0.1,0.1,0.2,0.3,0.2,0.5s0,0.4-0.1,0.6c-0.1,0.2-0.2,0.3-0.3,0.5c-0.1,0.1-0.3,0.2-0.5,0.2s-0.4,0-0.6,0
				C76.7,134.3,76.4,134.2,76.2,134.1z M76.8,132.6c-0.4-0.1-0.7-0.2-0.9-0.2s-0.4,0.1-0.4,0.2c-0.1,0.2,0,0.3,0.2,0.4
				c0.2,0.1,0.4,0.3,0.8,0.4c0.4,0.1,0.7,0.2,0.9,0.2s0.4-0.1,0.4-0.2c0-0.1,0-0.2,0-0.2s-0.1-0.1-0.2-0.2c-0.1-0.1-0.2-0.1-0.3-0.2
				C77.1,132.7,77,132.6,76.8,132.6z"/>
			<path class="st22" d="M77.2,136.6l-0.4,1c-0.2,0.5-0.4,0.8-0.6,0.9c-0.2,0.2-0.5,0.2-0.8,0.1c-0.2-0.1-0.3-0.2-0.4-0.3
				s-0.1-0.3-0.1-0.5l0,0c-0.1,0.2-0.3,0.3-0.4,0.4c-0.2,0-0.3,0-0.6-0.1c-0.3-0.1-0.5-0.3-0.6-0.6s-0.1-0.6,0.1-1l0.5-1.2
				L77.2,136.6z M75,136.5l-0.9-0.3l-0.2,0.5c-0.1,0.2-0.1,0.4-0.1,0.5s0.1,0.2,0.3,0.3c0.3,0.1,0.5,0,0.6-0.4L75,136.5z
				 M75.6,136.7l-0.2,0.4c-0.1,0.2-0.1,0.3-0.1,0.4s0.1,0.2,0.2,0.2c0.1,0.1,0.2,0,0.3,0c0.1-0.1,0.2-0.2,0.2-0.4l0.1-0.4
				L75.6,136.7z"/>
			<path class="st22" d="M72.2,139.7l0.6-1.5l0.4,0.1v0.5l2.2,0.8l0.3-0.3l0.4,0.1l-0.6,1.5l-0.4-0.1v-0.5l-2.2-0.8l-0.3,0.3
				L72.2,139.7z"/>
			<path class="st22" d="M71.4,141.5l0.3-0.7l2.8,1.1l0.3-0.9l0.6,0.2l-1,2.5l-0.6-0.2l0.3-0.9L71.4,141.5z"/>
			<path class="st22" d="M71.1,145.3c-0.3-0.1-0.5-0.3-0.6-0.6s-0.1-0.6,0.1-1c0.1-0.4,0.3-0.6,0.6-0.9l0.7,0.2
				c-0.2,0.2-0.3,0.4-0.4,0.5s-0.2,0.3-0.2,0.4c-0.1,0.1-0.1,0.3-0.1,0.4c0,0.1,0.1,0.2,0.2,0.2s0.1,0,0.2,0s0.1-0.1,0.2-0.1
				c0.1-0.1,0.2-0.2,0.4-0.4c0.2-0.2,0.3-0.3,0.4-0.4c0.1-0.1,0.3-0.1,0.4-0.1s0.3,0,0.4,0.1c0.3,0.1,0.5,0.3,0.6,0.6
				s0.1,0.6-0.1,0.9c-0.1,0.2-0.2,0.3-0.2,0.5s-0.2,0.3-0.4,0.4l-0.5-0.4c0.1-0.1,0.2-0.3,0.3-0.4s0.1-0.2,0.2-0.3s0.1-0.2,0-0.3
				c0-0.1-0.1-0.2-0.2-0.2s-0.1,0-0.2,0s-0.1,0-0.2,0.1s-0.2,0.2-0.4,0.4c-0.3,0.2-0.5,0.4-0.7,0.5
				C71.5,145.4,71.3,145.3,71.1,145.3z"/>
			<path class="st22" d="M69.9,145.5l3.3,1.3l-0.3,0.7l-2.8-1.1l-0.5,1.4l-0.6-0.2L69.9,145.5z"/>
			<path class="st22" d="M68.2,150.1l0.7-1.9l3.3,1.3l-0.7,1.9l-0.6-0.2l0.5-1.2l-0.7-0.3l-0.4,1.1l-0.7-0.3l0.4-1.1l-0.9-0.3
				l-0.5,1.2L68.2,150.1z"/>
			<path class="st22" d="M68.9,152l-1.3-0.5l0.3-0.7l3.3,1.3l-0.4,1c-0.2,0.4-0.4,0.8-0.6,0.9c-0.2,0.1-0.5,0.2-0.9,0
				c-0.2-0.1-0.3-0.2-0.5-0.4c-0.1-0.2-0.2-0.4-0.2-0.6l-1.8,0.4l0.3-0.8l1.6-0.3L68.9,152z M69.5,152.2l-0.1,0.2
				c-0.1,0.2-0.1,0.4-0.1,0.5s0.1,0.2,0.3,0.3s0.3,0.1,0.4,0s0.2-0.2,0.3-0.5l0.1-0.2L69.5,152.2z"/>
			<path class="st22" d="M68.5,157.6c0.1-0.3,0.1-0.5-0.1-0.7s-0.4-0.4-0.8-0.5c-0.7-0.3-1.2-0.1-1.4,0.4c-0.1,0.2-0.1,0.5-0.2,0.9
				l-0.6-0.2c0-0.3,0.1-0.6,0.2-1c0.2-0.5,0.5-0.8,0.9-0.9c0.4-0.1,0.9-0.1,1.4,0.1c0.3,0.1,0.6,0.3,0.8,0.5s0.3,0.5,0.4,0.8
				s0,0.6-0.1,0.9s-0.3,0.6-0.6,0.9l-0.5-0.4c0.1-0.1,0.2-0.2,0.3-0.3C68.4,157.8,68.5,157.7,68.5,157.6z"/>
			<path class="st22" d="M65.7,161.7c-0.6-0.2-0.9-0.5-1.1-0.9s-0.2-0.8,0-1.4c0.2-0.5,0.5-0.9,0.9-1c0.4-0.2,0.9-0.1,1.4,0.1
				s0.9,0.5,1.1,0.9s0.2,0.8,0,1.4c-0.2,0.5-0.5,0.9-0.9,1C66.7,161.9,66.2,161.9,65.7,161.7z M66.6,159.2c-0.4-0.1-0.7-0.2-0.9-0.1
				c-0.2,0.1-0.4,0.2-0.5,0.5c-0.2,0.6,0.1,1,0.8,1.3s1.2,0.1,1.4-0.4c0.1-0.3,0.1-0.5,0-0.8C67.2,159.6,67,159.4,66.6,159.2z"/>
			<path class="st22" d="M63.3,163l0.6-1.5l0.4,0.1v0.5l2.2,0.8l0.3-0.3l0.4,0.1l-0.6,1.5l-0.4-0.1v-0.5l-2.2-0.8l-0.3,0.3L63.3,163
				z"/>
			<path class="st22" d="M61.9,166.5l0.3-0.9l3.1-0.5l0,0c-0.5-0.1-0.8-0.2-1-0.3l-1.6-0.6l0.2-0.6l3.3,1.3l-0.3,0.9l-3.1,0.5l0,0
				c0.4,0.1,0.8,0.2,0.9,0.3l1.6,0.6l-0.2,0.6L61.9,166.5z"/>
			<path class="st22" d="M61.8,169.6c-0.3-0.1-0.5-0.3-0.6-0.6s-0.1-0.6,0.1-1c0.1-0.4,0.3-0.6,0.6-0.9l0.7,0.2
				c-0.2,0.2-0.3,0.4-0.4,0.5s-0.2,0.3-0.2,0.4c-0.1,0.2-0.1,0.3-0.1,0.4s0.1,0.2,0.2,0.2s0.1,0,0.2,0s0.1-0.1,0.2-0.1
				c0.1-0.1,0.2-0.2,0.4-0.4c0.2-0.2,0.3-0.3,0.4-0.4c0.1-0.1,0.3-0.1,0.4-0.1s0.3,0,0.4,0.1c0.3,0.1,0.5,0.3,0.6,0.6
				s0.1,0.6-0.1,0.9c-0.1,0.2-0.2,0.3-0.2,0.5s-0.2,0.3-0.4,0.4l-0.5-0.4c0.1-0.1,0.2-0.3,0.3-0.4c0.1-0.1,0.1-0.2,0.2-0.3
				c0.1-0.1,0.1-0.2,0-0.3c0-0.1-0.1-0.2-0.2-0.2s-0.1,0-0.2,0s-0.1,0-0.2,0.1s-0.2,0.2-0.4,0.4c-0.3,0.2-0.5,0.4-0.7,0.5
				C62.2,169.7,62,169.7,61.8,169.6z"/>
		</g>
	</g>
	<g>
		<g>
			<path class="st22" d="M104.8,139.6c-0.1-0.3-0.2-0.5-0.2-0.7l0.9-0.3c0,0.2,0.1,0.4,0.1,0.6c0.1,0.2,0.2,0.4,0.4,0.4
				s0.5,0,0.8-0.1l5-1.8l0.4,1.1l-5,1.8c-0.6,0.2-1.2,0.3-1.6,0.1C105.4,140.5,105,140.1,104.8,139.6z"/>
			<path class="st22" d="M108.7,145.4l1.1-0.9l-0.7-2l-1.4,0.1l-0.4-1.2l6.1-0.1l0.5,1.4l-4.7,3.9L108.7,145.4z M110.7,143.9
				c1-0.8,1.6-1.2,1.8-1.3s0.2-0.2,0.3-0.2c-0.3,0-1.2,0.1-2.6,0.1L110.7,143.9z"/>
			<path class="st22" d="M114.7,147.8c-0.2-0.4-0.4-0.7-0.8-0.8s-0.9-0.1-1.5,0.1c-1.2,0.4-1.6,1.1-1.3,2c0.1,0.4,0.4,0.8,0.8,1.3
				l-1,0.3c-0.3-0.4-0.6-0.8-0.8-1.4c-0.3-0.8-0.3-1.5,0.1-2.1c0.3-0.6,0.9-1,1.8-1.4c0.6-0.2,1.1-0.3,1.6-0.2s0.9,0.2,1.3,0.5
				s0.6,0.7,0.8,1.2c0.2,0.5,0.2,1.1,0.2,1.7h-1.1c0-0.2,0-0.5,0-0.7C114.8,148.3,114.8,148,114.7,147.8z"/>
			<path class="st22" d="M112.7,156.3l-0.5-1.3l1.8-2.2l-0.5-0.4l-1.9,0.7l-0.4-1.1l5.4-1.9l0.4,1.1l-2.5,0.9l0.8,0.2l2.3,0.8
				l0.5,1.3l-3.1-1L112.7,156.3z"/>
			<path class="st22" d="M117.9,159.4c-0.6,0.2-1.1,0.2-1.5-0.1c-0.4-0.2-0.8-0.7-1-1.4l-0.2-0.5l-1.9,0.7l-0.4-1.1l5.4-1.9l0.6,1.7
				c0.2,0.6,0.3,1.2,0.1,1.6S118.5,159.1,117.9,159.4z M116.2,157.1l0.1,0.4c0.1,0.4,0.3,0.6,0.5,0.7c0.2,0.1,0.4,0.1,0.7,0
				s0.4-0.2,0.5-0.4s0.1-0.4-0.1-0.8l-0.2-0.5L116.2,157.1z"/>
			<path class="st22" d="M119.1,165.6c-0.9,0.3-1.7,0.4-2.3,0.1s-1.1-0.8-1.4-1.6s-0.3-1.5,0-2.1s0.9-1.1,1.8-1.4
				c0.9-0.3,1.7-0.4,2.3-0.1c0.6,0.3,1.1,0.8,1.4,1.6s0.3,1.5,0,2.1C120.5,164.8,119.9,165.3,119.1,165.6z M117.6,161.7
				c-0.6,0.2-1,0.5-1.2,0.8s-0.2,0.7-0.1,1.2c0.3,0.9,1.1,1.1,2.3,0.7c1.2-0.4,1.7-1.1,1.3-2c-0.2-0.4-0.4-0.7-0.8-0.9
				C118.7,161.4,118.2,161.5,117.6,161.7z"/>
			<path class="st22" d="M117.5,169.6l-0.4-1.1l4.4-1.6l-0.5-1.5l0.9-0.3l1.5,4.1l-0.9,0.3L122,168L117.5,169.6z"/>
		</g>
	</g>
	<g>
		<g>
			<path class="st22" d="M120.7,125.9l1.3,1.5l-2,1.7c-0.3-0.2-0.5-0.4-0.8-0.6s-0.4-0.4-0.6-0.6c-0.5-0.6-0.7-1.2-0.6-1.8
				s0.4-1.2,1.1-1.7c0.6-0.5,1.2-0.8,1.9-0.7c0.6,0.1,1.2,0.4,1.8,1c0.3,0.4,0.6,0.8,0.7,1.3l-0.9,0.3c-0.1-0.4-0.3-0.8-0.5-1.1
				c-0.3-0.3-0.7-0.5-1.1-0.6c-0.4,0-0.8,0.2-1.2,0.5c-0.4,0.3-0.7,0.7-0.7,1s0,0.7,0.3,1c0.1,0.2,0.3,0.3,0.5,0.5l0.8-0.7l-0.6-0.7
				L120.7,125.9z"/>
			<path class="st22" d="M122.6,132.4l0.7-1l-1.2-1.4l-1.1,0.5l-0.7-0.9l5-1.9l0.8,1l-2.7,4.6L122.6,132.4z M123.8,130.6
				c0.6-0.9,1-1.5,1-1.6s0.2-0.2,0.2-0.3c-0.3,0.1-1,0.4-2.1,0.9L123.8,130.6z"/>
			<path class="st22" d="M123.7,133.8l3.8-3.2l0.7,0.8L125,134l1.3,1.6l-0.7,0.6L123.7,133.8z"/>
			<path class="st22" d="M128.2,139.2l0.7-1l-1.2-1.4l-1.1,0.5l-0.7-0.9l5-1.9l0.8,1l-2.7,4.6L128.2,139.2z M129.4,137.4
				c0.6-0.9,1-1.5,1-1.6c0.1-0.1,0.1-0.2,0.2-0.3c-0.3,0.1-1,0.4-2.1,0.9L129.4,137.4z"/>
			<path class="st22" d="M132,143.6l-0.8-0.9l0.7-2.1l-2.2,0.3L129,140l3-0.4l0.9-2.7l0.8,0.9l-0.7,2l2.1-0.3l0.7,0.9l-2.9,0.4
				L132,143.6z"/>
			<path class="st22" d="M135.6,143.4l2.2-0.5l0.7,0.9l-3.4,0.7l-1.5,1.2l-0.7-0.8l1.5-1.2l1.3-3.2l0.7,0.9L135.6,143.4z"/>
			<path class="st22" d="M139.3,150.2c-0.4,0.3-0.7,0.4-1.1,0.3s-0.8-0.3-1.2-0.8c-0.3-0.4-0.6-0.8-0.7-1.3l0.8-0.6
				c0.1,0.4,0.2,0.6,0.3,0.9c0.1,0.2,0.2,0.4,0.3,0.6c0.1,0.2,0.3,0.3,0.4,0.3c0.1,0,0.3,0,0.4-0.1c0.1-0.1,0.1-0.1,0.1-0.2
				s0-0.2,0-0.3s-0.1-0.4-0.2-0.7c-0.1-0.3-0.1-0.6-0.1-0.8s0-0.4,0.1-0.6c0.1-0.2,0.2-0.4,0.4-0.5c0.3-0.3,0.7-0.4,1.1-0.3
				c0.4,0.1,0.8,0.3,1.1,0.7c0.2,0.2,0.3,0.4,0.4,0.6c0.1,0.2,0.2,0.5,0.3,0.7l-0.9,0.3c-0.1-0.3-0.2-0.5-0.2-0.6s-0.2-0.3-0.3-0.4
				c-0.1-0.1-0.3-0.2-0.4-0.3c-0.1,0-0.3,0-0.4,0.1c-0.1,0.1-0.1,0.1-0.1,0.2s0,0.2,0,0.3s0.1,0.4,0.2,0.7c0.1,0.5,0.2,0.9,0.1,1.2
				C139.7,149.8,139.5,150,139.3,150.2z"/>
			<path class="st22" d="M140.7,154.1l-2.1-2.6l0.6-0.5l1.7,0.1c0.2,0,0.4,0,0.6,0c0.2,0,0.4,0,0.5,0s0.3-0.1,0.4-0.1
				c0.1-0.1,0.3-0.1,0.4-0.2c0.1-0.1,0.2-0.2,0.2-0.4c0-0.1,0-0.3-0.2-0.4c-0.1-0.1-0.3-0.2-0.4-0.3c-0.2-0.1-0.4-0.1-0.6-0.2
				l0.1-0.9c0.1,0,0.3,0,0.4,0.1s0.3,0.1,0.4,0.1s0.3,0.1,0.4,0.2c0.1,0.1,0.3,0.2,0.4,0.4c0.1,0.2,0.3,0.4,0.3,0.6
				c0.1,0.2,0.1,0.4,0.1,0.6c0,0.2-0.1,0.4-0.1,0.5c-0.1,0.2-0.2,0.3-0.4,0.5c-0.1,0.1-0.3,0.2-0.5,0.3s-0.4,0.1-0.6,0.1
				c-0.2,0-0.4,0-0.7,0c-0.2,0-0.5,0-0.7-0.1l-0.9-0.1l0,0l1.3,1.6L140.7,154.1z"/>
			<path class="st22" d="M143.2,157.1l-2.1-2.6l0.6-0.5l1.7,0.1c0.2,0,0.4,0,0.6,0c0.2,0,0.4,0,0.5,0s0.3-0.1,0.4-0.1
				s0.3-0.1,0.4-0.2c0.1-0.1,0.2-0.2,0.2-0.4c0-0.1,0-0.3-0.2-0.4c-0.1-0.1-0.3-0.2-0.4-0.3c-0.2-0.1-0.4-0.1-0.6-0.2l0.1-0.9
				c0.1,0,0.3,0,0.4,0.1s0.3,0.1,0.4,0.1s0.3,0.1,0.4,0.2c0.1,0.1,0.3,0.2,0.4,0.4c0.1,0.2,0.3,0.4,0.3,0.6c0.1,0.2,0.1,0.4,0.1,0.6
				c0,0.2-0.1,0.4-0.1,0.5c-0.1,0.2-0.2,0.3-0.4,0.5c-0.1,0.1-0.3,0.2-0.5,0.3s-0.4,0.1-0.6,0.1c-0.2,0-0.4,0-0.7,0
				c-0.2,0-0.5,0-0.7-0.1l-0.9-0.1l0,0l1.3,1.6L143.2,157.1z"/>
		</g>
	</g>
	<g>
		<g>
			<path class="st22" d="M78,55.9c-0.1-0.2-0.1-0.5-0.1-0.7s0-0.4,0.1-0.6c0.1-0.2,0.2-0.4,0.4-0.5c0.2-0.2,0.4-0.3,0.7-0.4
				c0.3-0.1,0.6-0.2,0.8-0.2c0.3,0,0.5,0.1,0.7,0.2s0.4,0.3,0.6,0.5s0.3,0.5,0.4,0.8c0.1,0.1,0.1,0.3,0.1,0.4s0.1,0.3,0.1,0.4
				c0,0.1,0,0.2,0,0.4c0,0.1,0,0.2,0,0.3l-1,0.3c0-0.1,0-0.2,0-0.3s0-0.3,0-0.4c0-0.1,0-0.3-0.1-0.4s-0.1-0.2-0.1-0.4
				c-0.1-0.3-0.3-0.5-0.5-0.7c-0.2-0.1-0.4-0.1-0.7,0c-0.3,0.1-0.4,0.2-0.5,0.5c-0.1,0.2-0.1,0.5,0.1,0.8c0,0.1,0.1,0.1,0.1,0.2
				s0.1,0.1,0.1,0.2s0.1,0.1,0.1,0.2c0,0.1,0.1,0.1,0.1,0.2l-0.1,0.5l-2.7,1l-1-2.8l1-0.3l0.7,1.8l1.1-0.3c0-0.1-0.1-0.2-0.2-0.3
				C78.1,56.2,78.1,56.1,78,55.9z"/>
			<path class="st22" d="M76.6,49.8c0.4-0.2,0.8-0.3,1.2-0.3c0.4-0.1,0.7,0,1,0c0.3,0.1,0.5,0.2,0.8,0.4c0.2,0.2,0.4,0.5,0.5,0.8
				s0.2,0.6,0.1,0.9s-0.2,0.5-0.3,0.8s-0.4,0.5-0.7,0.7s-0.7,0.4-1.1,0.5s-0.8,0.3-1.2,0.3c-0.4,0.1-0.7,0-1,0
				c-0.3-0.1-0.5-0.2-0.8-0.4c-0.2-0.2-0.4-0.5-0.5-0.8s-0.2-0.6-0.1-0.9s0.2-0.5,0.3-0.8c0.2-0.2,0.4-0.5,0.8-0.7
				C75.8,50.1,76.2,49.9,76.6,49.8z M77.6,52.3c0.6-0.2,1.1-0.4,1.3-0.7c0.3-0.2,0.4-0.5,0.3-0.7s-0.3-0.4-0.7-0.4
				c-0.3,0-0.8,0.1-1.4,0.3s-1.1,0.4-1.3,0.7c-0.3,0.2-0.4,0.5-0.3,0.7c0.1,0.1,0.1,0.2,0.2,0.3s0.2,0.1,0.4,0.1
				c0.2,0,0.4,0,0.6-0.1C77,52.5,77.3,52.5,77.6,52.3z"/>
			<path class="st22" d="M72.7,45l5.7,1.3l0.3,0.8L73,45.8L72.7,45z M74.8,47c0.2-0.1,0.4-0.1,0.6-0.1s0.4,0,0.5,0.1
				s0.3,0.2,0.4,0.3s0.2,0.3,0.3,0.5c0.1,0.2,0.1,0.4,0.1,0.6s-0.1,0.3-0.1,0.5s-0.2,0.3-0.3,0.4c-0.2,0.1-0.3,0.2-0.5,0.3
				s-0.4,0.1-0.6,0.1s-0.4,0-0.5-0.1s-0.3-0.2-0.4-0.3S74.1,49,74,48.8c-0.1-0.2-0.1-0.4-0.1-0.6s0-0.3,0.1-0.5s0.2-0.3,0.3-0.4
				C74.4,47.1,74.6,47,74.8,47z M75.6,42.6c0.2-0.1,0.4-0.1,0.6-0.1s0.4,0,0.5,0.1s0.3,0.2,0.4,0.3s0.2,0.3,0.3,0.5
				c0.1,0.2,0.1,0.4,0.1,0.6s-0.1,0.3-0.1,0.5c-0.1,0.2-0.2,0.3-0.3,0.4c-0.2,0.1-0.3,0.2-0.5,0.3s-0.4,0.1-0.6,0.1s-0.4,0-0.5-0.1
				s-0.3-0.2-0.4-0.3s-0.2-0.3-0.3-0.5c-0.2-0.2-0.2-0.4-0.2-0.6s0-0.3,0.1-0.5s0.2-0.3,0.3-0.4C75.2,42.8,75.4,42.7,75.6,42.6z
				 M75.4,48.6c0.2-0.1,0.3-0.2,0.4-0.2c0.1-0.1,0.1-0.2,0-0.3s-0.1-0.2-0.2-0.2s-0.3,0-0.5,0.1c-0.4,0.1-0.6,0.3-0.4,0.6
				c0.1,0.1,0.1,0.2,0.2,0.2C75,48.7,75.2,48.7,75.4,48.6z M76.2,44.3c0.2-0.1,0.3-0.2,0.4-0.2s0.1-0.2,0-0.3c0-0.3,0-0.4-0.2-0.4
				s-0.3,0-0.5,0.1c-0.4,0.1-0.6,0.3-0.5,0.6c0.1,0.1,0.1,0.2,0.2,0.2C75.9,44.3,76,44.3,76.2,44.3z"/>
			<path class="st22" d="M70.5,41.1l-0.6-1.6c-0.3-0.8-0.4-1.4-0.3-1.8s0.4-0.7,0.8-0.9c0.3-0.1,0.6-0.1,0.9-0.1
				c0.3,0.1,0.5,0.2,0.6,0.5l0,0c-0.1-0.4,0-0.7,0.2-0.9s0.4-0.4,0.8-0.5c0.5-0.2,0.9-0.1,1.3,0.1c0.4,0.2,0.7,0.7,0.9,1.3l0.7,2
				L70.5,41.1z M72.2,39.2L72,38.5c-0.1-0.3-0.2-0.5-0.4-0.6c-0.1-0.1-0.3-0.1-0.6,0c-0.2,0.1-0.3,0.2-0.4,0.4c0,0.2,0,0.4,0.1,0.8
				l0.2,0.6L72.2,39.2z M73.1,38.9l1.4-0.5l-0.3-0.7c-0.1-0.3-0.3-0.5-0.4-0.6s-0.4-0.1-0.6,0c-0.4,0.2-0.6,0.6-0.3,1.2L73.1,38.9z"
				/>
			<path class="st22" d="M69.6,30.2c0.9-0.3,1.7-0.3,2.3-0.1c0.6,0.3,1.1,0.8,1.4,1.6c0.3,0.8,0.3,1.5,0,2.2s-0.9,1.1-1.8,1.4
				s-1.7,0.3-2.3,0.1c-0.6-0.3-1.1-0.8-1.4-1.7s-0.3-1.5,0-2.2C68.1,31,68.7,30.5,69.6,30.2z M71,34.1c0.6-0.2,1-0.5,1.2-0.8
				s0.2-0.7,0.1-1.2c-0.3-0.9-1.1-1.2-2.3-0.7c-1.2,0.4-1.7,1.1-1.3,2c0.2,0.5,0.4,0.7,0.8,0.9C69.9,34.4,70.4,34.4,71,34.1z"/>
			<path class="st22" d="M70.2,23.4l0.5,1.5l-3.2,3.8l0,0c0.7-0.3,1.2-0.5,1.5-0.6l2.5-0.9l0.4,1l-5.4,1.9L66,28.7l3.2-3.8l0,0
				c-0.7,0.3-1.2,0.5-1.5,0.6l-2.5,0.9l-0.4-1L70.2,23.4z"/>
			<path class="st22" d="M62.7,19.6l3.5-1.2c0.4-0.1,0.8-0.2,1.1-0.1s0.7,0.2,1,0.5s0.5,0.6,0.7,1.1c0.2,0.7,0.3,1.3,0.1,1.8
				c-0.2,0.5-0.6,0.9-1.2,1.1L64.4,24L64,22.9l3.3-1.2c0.4-0.1,0.7-0.3,0.8-0.6s0.1-0.5,0-0.9s-0.3-0.6-0.6-0.7
				c-0.2-0.1-0.6-0.1-1,0.1l-3.3,1.2L62.7,19.6z"/>
			<path class="st22" d="M65,13.7c0.5-0.2,0.9-0.1,1.3,0.1s0.7,0.7,0.9,1.3c0.2,0.6,0.3,1.1,0.2,1.6l-1.1,0.4c0-0.4,0-0.8,0-1
				c0-0.3-0.1-0.5-0.2-0.7s-0.2-0.4-0.3-0.5s-0.3-0.1-0.5,0c-0.1,0-0.2,0.1-0.2,0.2S65,15.3,65,15.4s-0.1,0.4-0.1,0.8
				c0,0.4-0.1,0.7-0.2,0.9s-0.1,0.4-0.3,0.5c-0.2,0.2-0.4,0.3-0.6,0.4c-0.5,0.2-0.9,0.1-1.3-0.1s-0.7-0.6-0.9-1.2
				c-0.1-0.3-0.2-0.6-0.2-0.8c0-0.3,0-0.6,0-0.9h1c0,0.3,0,0.6,0,0.8s0.1,0.4,0.1,0.6c0.1,0.2,0.2,0.4,0.3,0.4s0.3,0.1,0.5,0
				c0.1,0,0.2-0.1,0.2-0.2s0.1-0.2,0.1-0.3c0-0.1,0.1-0.4,0.1-0.9c0.1-0.6,0.2-1,0.3-1.3C64.1,13.8,64.6,13.8,65,13.7z"/>
		</g>
	</g>
	<g>
		<g>
			<path class="st22" d="M139.5,86.8l-1.1,0.2l-0.7-4.1l-1.3,0.2l-0.1-0.9l3.7-0.6l0.1,0.9l-1.3,0.2L139.5,86.8z"/>
			<path class="st22" d="M142.3,84.3l0.3,1.9l-1,0.2l-0.8-4.9l1.4-0.2c0.7-0.1,1.2-0.1,1.6,0.1s0.6,0.5,0.7,1c0.1,0.3,0,0.6-0.1,0.8
				s-0.3,0.5-0.6,0.6l1.8,1.9l-1.2,0.2l-1.5-1.7L142.3,84.3z M142.2,83.5l0.3-0.1c0.3-0.1,0.6-0.2,0.7-0.3s0.2-0.3,0.1-0.6
				c0-0.2-0.1-0.4-0.3-0.5s-0.4-0.1-0.8,0l-0.3,0.1L142.2,83.5z"/>
			<path class="st22" d="M147.2,82.5l0.7-2.2l1.1-0.2l-1.1,3.3l0.3,1.9l-1,0.2l-0.3-1.9l-2.1-2.8l1.1-0.2L147.2,82.5z"/>
			<path class="st22" d="M155.3,84.1l-0.6-1.1l-1.8,0.3l-0.2,1.2l-1.1,0.2l0.9-5.2l1.3-0.2l2.6,4.7L155.3,84.1z M154.3,82.2
				c-0.5-1-0.8-1.6-0.9-1.7c-0.1-0.1-0.1-0.2-0.1-0.3c0,0.3-0.1,1.1-0.3,2.2L154.3,82.2z"/>
			<path class="st22" d="M158.4,80.8l2-0.3l0.4,2.6c-0.3,0.2-0.6,0.3-0.9,0.4c-0.3,0.1-0.6,0.2-0.9,0.2c-0.7,0.1-1.4,0-1.8-0.4
				s-0.8-1-0.9-1.8c-0.1-0.8,0-1.4,0.4-2c0.4-0.5,1-0.8,1.8-1c0.5-0.1,1-0.1,1.5,0.1l-0.2,0.9c-0.4-0.1-0.8-0.2-1.2-0.1
				s-0.8,0.3-1,0.6s-0.3,0.8-0.2,1.3s0.3,0.9,0.5,1.2c0.3,0.2,0.6,0.3,1,0.3c0.2,0,0.4-0.1,0.6-0.2l-0.2-1l-0.9,0.2L158.4,80.8z"/>
			<path class="st22" d="M165,82.5l-0.6-1.1l-1.8,0.3l-0.2,1.2l-1.1,0.2l0.9-5.2l1.3-0.2l2.6,4.7L165,82.5z M164,80.6
				c-0.5-1-0.8-1.6-0.9-1.7s-0.1-0.2-0.1-0.3c0,0.3-0.1,1.1-0.3,2.2L164,80.6z"/>
			<path class="st22" d="M168.6,81.9l-2.2,0.4l-0.1-0.6l0.6-0.4l-0.5-3.2l-0.6-0.2l-0.1-0.6l2.2-0.4l0.1,0.6l-0.6,0.4l0.5,3.2
				l0.6,0.2L168.6,81.9z"/>
			<path class="st22" d="M173.8,81l-1.3,0.2l-2.8-3.4l0,0c0.1,0.7,0.2,1.1,0.3,1.4l0.4,2.3l-0.9,0.2l-0.8-4.9l1.3-0.2l2.8,3.3l0,0
				c-0.1-0.6-0.2-1.1-0.3-1.3l-0.4-2.3l0.9-0.2L173.8,81z"/>
		</g>
	</g>
	<g>
		<g>
			<path class="st22" d="M127.3,116.6l-1.1-0.6l1.5-2.9c0-0.1,0.1-0.1,0.1-0.2s0.1-0.2,0.1-0.3c0.1-0.1,0.1-0.2,0.1-0.3
				s0.1-0.2,0.1-0.2H128h-0.1c-0.1,0-0.1,0-0.2,0.1c-0.1,0-0.1,0-0.2,0l-0.8,0.2l-0.2-0.9l2.3-0.4l0.9,0.5L127.3,116.6z"/>
			<path class="st22" d="M132.1,115c0.2,0.1,0.4,0.2,0.6,0.4c0.1,0.2,0.3,0.3,0.3,0.6s0.1,0.4,0.1,0.7s-0.1,0.5-0.2,0.7
				c-0.1,0.3-0.3,0.5-0.5,0.7s-0.4,0.3-0.7,0.4s-0.5,0.1-0.8,0s-0.6-0.2-0.9-0.3c-0.1-0.1-0.2-0.1-0.4-0.2c-0.1-0.1-0.2-0.2-0.3-0.2
				c-0.1-0.1-0.2-0.2-0.3-0.2c-0.1-0.1-0.2-0.2-0.2-0.3l0.5-0.9c0.1,0.1,0.1,0.2,0.2,0.3c0.1,0.1,0.2,0.2,0.3,0.3s0.2,0.2,0.3,0.2
				s0.2,0.1,0.3,0.2c0.3,0.2,0.6,0.2,0.8,0.2s0.4-0.2,0.6-0.5c0.1-0.2,0.1-0.5,0.1-0.7s-0.3-0.4-0.6-0.6c-0.1,0-0.1-0.1-0.2-0.1
				c-0.1,0-0.1-0.1-0.2-0.1c-0.1,0-0.1,0-0.2-0.1s-0.1,0-0.2,0l-0.3-0.4l1.5-2.5l2.7,1.4l-0.5,0.9l-1.8-0.9l-0.6,0.9
				c0.1,0,0.2,0.1,0.3,0.1C131.8,114.9,132,114.9,132.1,115z"/>
			<path class="st22" d="M137.7,122l-2.9-1.5l2.6-5.1l2.9,1.5l-0.5,0.9l-1.8-1l-0.6,1.1l1.7,0.9l-0.5,0.9l-1.7-0.9l-0.7,1.3l1.8,1
				L137.7,122z"/>
			<path class="st22" d="M140.7,123.6l-1.1-0.6l2.2-4.2l-1.4-0.7l0.5-0.9l3.8,2l-0.5,0.9l-1.4-0.7L140.7,123.6z"/>
			<path class="st22" d="M147,126.9l-1.1-0.6l1.1-2.2l-2-1l-1.1,2.2l-1.1-0.6l2.6-5.1l1.1,0.6l-1,2l2,1l1-2l1.1,0.6L147,126.9z"/>
		</g>
		<g>
			<circle class="st23" cx="158.3" cy="130.1" r="7.8"/>
			<g>
				<polygon class="st24" points="159,128.8 160.9,125.1 161.2,128.5 161.5,132 				"/>
				<polygon class="st24" points="157.1,132.4 155.7,135.2 158.5,133.8 161.3,132.3 				"/>
				<polygon class="st24" points="160.9,125.1 159,128.8 154.9,128.6 157.9,126.8 				"/>
				<polygon class="st24" points="155.7,135.2 157.1,132.4 154.7,128.9 155.2,132.1 				"/>
				<polygon class="st25" points="161.5,132 159.4,132 157.3,132.1 157.9,130.8 159,128.8 				"/>
				<polygon class="st25" points="154.9,128.6 156.1,130.3 157.3,132.1 157.9,130.8 159,128.8 				"/>
				<path class="st26" d="M161.5,132l-0.3-3.4l-0.3-3.4l-1.9,3.7l-1,2l-0.7,1.3l2.1-0.1L161.5,132L161.5,132z M161.3,132.3l-2.8,1.4
					l-2.8,1.4l1.4-2.8L161.3,132.3z"/>
			</g>
		</g>
	</g>
	<g>
		<g>
			<path class="st22" d="M120.2,62.3l-0.6,0.7l-1.9-1.6l-0.1-0.1c-0.1,0-0.1-0.1-0.2-0.2c-0.1,0-0.1-0.1-0.2-0.2
				c-0.1,0-0.1-0.1-0.2-0.1c0,0,0,0,0,0.1s0,0.1,0,0.1v0.1v0.1v0.6h-0.7V60l0.5-0.6L120.2,62.3z"/>
			<path class="st22" d="M121.1,57.8c0.3,0.2,0.5,0.4,0.7,0.7s0.3,0.4,0.4,0.6s0.1,0.4,0,0.6c0,0.2-0.2,0.4-0.3,0.6
				c-0.2,0.2-0.3,0.3-0.5,0.4c-0.2,0.1-0.4,0.1-0.6,0.1s-0.5-0.1-0.7-0.2s-0.5-0.3-0.8-0.5s-0.5-0.4-0.7-0.7s-0.3-0.4-0.4-0.6
				s-0.1-0.4,0-0.6c0-0.2,0.2-0.4,0.3-0.6c0.2-0.2,0.3-0.3,0.5-0.4c0.2-0.1,0.4-0.1,0.6-0.1s0.5,0.1,0.7,0.2
				C120.5,57.4,120.8,57.6,121.1,57.8z M119.8,59.3c0.4,0.3,0.7,0.5,0.9,0.6c0.2,0.1,0.4,0.1,0.6-0.1s0.1-0.3,0-0.6
				s-0.4-0.5-0.8-0.8s-0.7-0.5-0.9-0.6s-0.4-0.1-0.6,0.1c-0.1,0.1-0.1,0.2-0.1,0.3s0,0.2,0.1,0.3s0.2,0.2,0.3,0.4
				C119.4,59,119.6,59.2,119.8,59.3z"/>
			<path class="st22" d="M123.2,55.2c0.3,0.2,0.5,0.4,0.7,0.7s0.3,0.4,0.4,0.6s0.1,0.4,0,0.6c0,0.2-0.2,0.4-0.3,0.6
				c-0.2,0.2-0.3,0.3-0.5,0.4c-0.2,0.1-0.4,0.1-0.6,0.1s-0.5-0.1-0.7-0.2c-0.2-0.1-0.5-0.3-0.8-0.5s-0.5-0.4-0.7-0.7
				c-0.2-0.2-0.3-0.4-0.4-0.6s-0.1-0.4,0-0.6s0.2-0.4,0.3-0.6c0.2-0.2,0.3-0.3,0.5-0.4c0.2-0.1,0.4-0.1,0.6-0.1s0.5,0.1,0.7,0.2
				S122.9,55,123.2,55.2z M121.9,56.8c0.4,0.3,0.7,0.5,0.9,0.6c0.2,0.1,0.4,0.1,0.6-0.1s0.1-0.3,0-0.6s-0.4-0.5-0.8-0.8
				s-0.7-0.5-0.9-0.6s-0.4-0.1-0.6,0.1c-0.1,0.1-0.1,0.2-0.1,0.3s0,0.2,0.1,0.3s0.2,0.2,0.3,0.4C121.5,56.5,121.7,56.7,121.9,56.8z"
				/>
			<path class="st22" d="M126.9,54.2l-0.6,0.7l-3.3-2.7l1.6-1.9l0.6,0.5l-1,1.2l0.8,0.7l0.9-1.1l0.6,0.5l-0.9,1.1L126.9,54.2z"/>
			<path class="st22" d="M127.7,50.6l1.3,1l-0.6,0.7l-3.3-2.7l0.8-1c0.4-0.5,0.7-0.7,1.1-0.8c0.3-0.1,0.7,0,1,0.3
				c0.2,0.2,0.3,0.4,0.4,0.6s0.1,0.5,0,0.8l2.2,0.2l-0.6,0.8l-1.9-0.3L127.7,50.6z M127.2,50.1l0.2-0.2c0.2-0.2,0.3-0.4,0.3-0.6
				s-0.1-0.3-0.2-0.5c-0.2-0.1-0.3-0.2-0.5-0.1c-0.1,0-0.3,0.2-0.5,0.4l-0.2,0.2L127.2,50.1z"/>
			<path class="st22" d="M132.5,47.4l-1.6,1.9l-3.3-2.8l1.6-1.9l0.6,0.5l-1,1.2l0.7,0.6l0.9-1.1l0.6,0.5l-0.9,1.1l0.9,0.7l1-1.2
				L132.5,47.4z"/>
			<path class="st22" d="M134.7,44.8l-1.6,1.9l-3.3-2.7l1.6-1.9l0.6,0.5l-1,1.2l0.7,0.6l0.9-1.1l0.6,0.5l-0.9,1.1l0.9,0.7l1-1.2
				L134.7,44.8z"/>
			<path class="st22" d="M136.9,40.2c0.3,0.2,0.4,0.5,0.4,0.9s-0.2,0.7-0.5,1.1c-0.3,0.3-0.6,0.6-1,0.8l-0.6-0.5
				c0.3-0.1,0.5-0.3,0.7-0.4s0.3-0.2,0.4-0.4c0.1-0.2,0.2-0.3,0.2-0.4c0-0.1,0-0.2-0.2-0.3c-0.1,0-0.1-0.1-0.2-0.1s-0.2,0-0.3,0
				s-0.3,0.1-0.6,0.2c-0.3,0.1-0.5,0.2-0.6,0.2s-0.3,0-0.5,0s-0.3-0.1-0.5-0.2c-0.3-0.2-0.4-0.5-0.4-0.9c0-0.3,0.1-0.7,0.4-1
				c0.1-0.2,0.3-0.3,0.5-0.4s0.4-0.2,0.6-0.3l0.4,0.7c-0.2,0.1-0.4,0.2-0.5,0.3s-0.2,0.2-0.3,0.3s-0.2,0.3-0.2,0.4
				c0,0.1,0.1,0.2,0.1,0.3c0.1,0,0.1,0.1,0.2,0.1c0.1,0,0.1,0,0.2,0s0.3-0.1,0.6-0.2c0.4-0.2,0.7-0.3,1-0.3
				C136.5,39.9,136.7,40,136.9,40.2z"/>
			<path class="st22" d="M138,36.2c0.4,0.3,0.5,0.6,0.5,1s-0.2,0.8-0.5,1.2l-0.2,0.3l1.2,1l-0.6,0.7l-3.3-2.7l0.9-1
				c0.3-0.4,0.7-0.6,1-0.7C137.3,35.8,137.6,35.9,138,36.2z M137.2,38.2l0.2-0.2c0.2-0.2,0.3-0.4,0.3-0.6s-0.1-0.3-0.2-0.5
				s-0.3-0.2-0.5-0.2c-0.1,0-0.3,0.1-0.5,0.3l-0.3,0.3L137.2,38.2z"/>
			<path class="st22" d="M141.8,36.2l-1.2,1.5l-0.4-0.3l0.1-0.5l-2.1-1.8l-0.5,0.2l-0.4-0.3l1.2-1.5l0.4,0.3l-0.1,0.5l2.1,1.8
				l0.5-0.2L141.8,36.2z"/>
			<path class="st22" d="M144.7,32.7l-0.7,0.9l-3.7-0.6l0,0c0.5,0.3,0.8,0.6,1,0.7l1.6,1.3l-0.5,0.6l-3.3-2.7l0.7-0.9l3.7,0.6l0,0
				c-0.4-0.3-0.8-0.6-0.9-0.7l-1.6-1.3l0.5-0.6L144.7,32.7z"/>
			<path class="st22" d="M146,29.2c0.3,0.2,0.4,0.5,0.4,0.9s-0.2,0.7-0.5,1.1c-0.3,0.3-0.6,0.6-1,0.8l-0.6-0.5
				c0.3-0.1,0.5-0.3,0.7-0.4s0.3-0.2,0.4-0.4c0.1-0.2,0.2-0.3,0.2-0.4c0-0.1,0-0.2-0.2-0.3c-0.1,0-0.1-0.1-0.2-0.1s-0.2,0-0.3,0
				s-0.3,0.1-0.6,0.2c-0.3,0.1-0.5,0.2-0.6,0.2s-0.3,0-0.5,0s-0.3-0.1-0.5-0.2c-0.3-0.2-0.4-0.5-0.4-0.9c0-0.3,0.1-0.7,0.4-1
				c0.1-0.2,0.3-0.3,0.5-0.4s0.4-0.2,0.6-0.4l0.4,0.7c-0.2,0.1-0.4,0.2-0.5,0.3s-0.2,0.2-0.3,0.3c-0.1,0.1-0.2,0.3-0.2,0.4
				s0.1,0.2,0.1,0.3c0.1,0,0.1,0.1,0.2,0.1c0.1,0,0.1,0,0.2,0s0.3-0.1,0.6-0.2c0.4-0.2,0.7-0.3,1-0.3S145.8,29,146,29.2z"/>
		</g>
	</g>
	<g>
		<g>
			<path class="st22" d="M95.3,49v1.3h-3.7c-0.1,0-0.2,0-0.3,0c-0.1,0-0.2,0-0.3,0c-0.1,0-0.2,0-0.3,0c-0.1,0-0.2,0-0.3,0
				c0,0,0,0,0.1,0.1l0.1,0.1l0.1,0.1l0.1,0.1l0.6,0.7l-0.8,0.8l-1.6-2v-1.1L95.3,49z"/>
			<path class="st22" d="M88.9,44.6v-2c0-0.9,0.1-1.5,0.4-2S90,40,90.5,40c0.4,0,0.7,0.1,0.9,0.3s0.4,0.4,0.4,0.7l0,0
				c0.1-0.4,0.3-0.7,0.5-0.9s0.6-0.3,1-0.3c0.6,0,1,0.2,1.3,0.6c0.3,0.4,0.5,1,0.5,1.7v2.4L88.9,44.6L88.9,44.6z M91.4,43.3v-0.8
				c0-0.4-0.1-0.6-0.2-0.8s-0.3-0.2-0.6-0.2c-0.2,0-0.4,0.1-0.5,0.3s-0.2,0.5-0.2,0.8v0.7H91.4z M92.5,43.3h1.7v-0.9
				c0-0.4-0.1-0.6-0.2-0.8s-0.4-0.3-0.7-0.3c-0.5,0-0.8,0.4-0.8,1.1V43.3z"/>
			<path class="st22" d="M95.3,36.3v1.3h-5.2v1.7H89v-4.8h1.1v1.7L95.3,36.3L95.3,36.3z"/>
			<path class="st22" d="M90,31c0,0.5,0.2,0.9,0.6,1.2c0.4,0.3,0.9,0.4,1.6,0.4c1.4,0,2.1-0.5,2.1-1.6c0-0.4-0.1-1-0.3-1.6h1.1
				c0.2,0.5,0.3,1.1,0.3,1.7c0,0.9-0.3,1.6-0.8,2.1s-1.4,0.7-2.4,0.7c-0.7,0-1.2-0.1-1.7-0.4s-0.9-0.6-1.1-1c-0.3-0.5-0.4-1-0.4-1.6
				s0.2-1.2,0.4-1.9l1.1,0.4c-0.1,0.2-0.2,0.5-0.3,0.7C90,30.6,90,30.8,90,31z"/>
		</g>
		<g>
			<circle class="st27" cx="92.4" cy="17.9" r="7.8"/>
			<path class="st28" d="M94.5,18.6c-0.1,0-1.7,0-1.8,0c0-0.2,0-0.5,0-0.7c0-0.5,0-0.8,0.3-1.2c0.1-0.2,0.3-0.3,0.6-0.4
				c0.5,0,0.8,0.3,0.9,0.9C94.5,17.5,94.5,18.3,94.5,18.6L94.5,18.6z M90.2,18.6c-0.1-0.2,0-1,0-1.2c0.1-0.3,0.2-0.7,0.7-0.8
				c0.9-0.1,0.9,1.2,0.9,1.9L90.2,18.6L90.2,18.6z M89.2,19.5v1.7c0.1,0,0.7,0,0.9,0c0-0.2,0-0.6,0-0.8c0.1-0.3,0.3-0.3,0.6-0.3h3
				c0.2,0,0.6-0.1,0.7,0.1s0,0.6,0.1,0.8l1,0.1v-1.7h1.4v-0.8h-1.3c0-0.1,0-0.6,0-0.7h1.3v-0.8h-1.4c0-0.1,0-0.3,0-0.4
				s0-0.3-0.1-0.4c-0.2-0.8-0.4-1.4-1.2-1.6c-0.4-0.1-1-0.1-1.4,0.1s-0.6,0.6-0.7,1c-0.1,0-0.1-0.2-0.3-0.4
				c-0.5-0.4-1.8-0.5-2.2,0.7c-0.2,0.5-0.2,0.8-0.2,1H88v0.8h1.3v0.7H88v0.9H89.2z"/>
		</g>
	</g>
	<g>
		<g>
			<path class="st22" d="M67.1,63.2c-0.1-0.1-0.2-0.2-0.2-0.4c-0.1-0.1-0.1-0.3-0.1-0.4s0.1-0.3,0.1-0.4c0.1-0.1,0.2-0.2,0.3-0.4
				c0.2-0.1,0.3-0.2,0.5-0.3c0.2,0,0.3-0.1,0.5,0s0.3,0.1,0.5,0.2c0.2,0.1,0.3,0.2,0.4,0.4c0.1,0.1,0.1,0.1,0.2,0.2s0.1,0.1,0.1,0.2
				s0.1,0.1,0.1,0.2s0.1,0.1,0.1,0.2l-0.5,0.4c0-0.1,0-0.1-0.1-0.2s-0.1-0.2-0.1-0.2c0-0.1-0.1-0.2-0.1-0.2s-0.1,0-0.2-0.1
				c-0.1-0.2-0.3-0.3-0.4-0.3s-0.3,0-0.4,0.2c-0.2,0.1-0.2,0.2-0.2,0.3s0.1,0.3,0.2,0.5l0.1,0.1l0.1,0.1l0.1,0.1l0.1,0.1l0.1,0.3
				l-1.5,1.1l-1.2-1.5l0.5-0.4l0.8,0.9l0.6-0.4l-0.1-0.1C67.2,63.4,67.2,63.3,67.1,63.2z"/>
			<path class="st22" d="M65,59.9c0.2-0.2,0.4-0.3,0.6-0.4c0.2-0.1,0.4-0.2,0.6-0.2s0.4,0,0.5,0.1c0.2,0.1,0.3,0.2,0.5,0.3
				c0.1,0.2,0.2,0.3,0.2,0.5s0,0.3,0,0.5c-0.1,0.2-0.2,0.4-0.3,0.5s-0.3,0.4-0.5,0.6s-0.4,0.3-0.6,0.4s-0.4,0.2-0.6,0.2
				s-0.4,0-0.5-0.1c-0.2-0.1-0.3-0.2-0.5-0.3c-0.1-0.2-0.2-0.3-0.2-0.5c0-0.2,0-0.3,0-0.5c0.1-0.2,0.2-0.4,0.3-0.5
				C64.6,60.3,64.7,60.1,65,59.9z M66,61.2c0.3-0.3,0.5-0.5,0.6-0.7s0.1-0.3,0-0.5c-0.1-0.1-0.3-0.2-0.5-0.1
				c-0.2,0.1-0.5,0.2-0.8,0.5s-0.5,0.5-0.6,0.7s-0.1,0.4,0,0.5c0.1,0.1,0.1,0.1,0.2,0.1s0.2,0,0.3,0s0.2-0.1,0.3-0.2
				C65.8,61.5,65.9,61.4,66,61.2z"/>
			<path class="st22" d="M63.2,57.8c0.2-0.2,0.4-0.3,0.6-0.5c0.2-0.1,0.4-0.2,0.6-0.2s0.4,0,0.5,0.1c0.2,0.1,0.3,0.2,0.5,0.3
				c0.1,0.2,0.2,0.3,0.2,0.5s0,0.3,0,0.5c-0.1,0.2-0.2,0.4-0.3,0.5s-0.3,0.4-0.5,0.5s-0.4,0.3-0.6,0.5c-0.2,0.1-0.4,0.2-0.6,0.2
				s-0.4,0-0.5-0.1c-0.2-0.1-0.3-0.2-0.5-0.3c-0.1-0.2-0.2-0.3-0.2-0.5s0-0.3,0-0.5c0.1-0.2,0.2-0.4,0.3-0.5
				C62.8,58.2,63,58,63.2,57.8z M64.3,59.1c0.3-0.3,0.5-0.5,0.6-0.7s0.1-0.3,0-0.5s-0.3-0.2-0.5-0.1c-0.2,0.1-0.5,0.2-0.8,0.5
				S63.1,58.8,63,59s-0.1,0.3,0,0.5c0.1,0.1,0.1,0.1,0.2,0.1s0.2,0,0.3,0s0.2-0.1,0.3-0.2C64,59.4,64.1,59.3,64.3,59.1z"/>
			<path class="st22" d="M60.6,57.5l-0.7-0.8c-0.3-0.4-0.5-0.7-0.5-1s0.1-0.5,0.3-0.7c0.2-0.1,0.3-0.2,0.5-0.2s0.3,0,0.5,0.2l0,0
				c-0.1-0.2-0.1-0.4-0.1-0.6c0-0.2,0.2-0.3,0.3-0.5c0.2-0.2,0.5-0.3,0.8-0.2c0.3,0.1,0.6,0.2,0.8,0.6l0.9,1L60.6,57.5z M61.2,56
				l-0.3-0.3c-0.1-0.2-0.2-0.2-0.4-0.3s-0.2,0-0.3,0.1s-0.2,0.2-0.1,0.3s0.1,0.3,0.2,0.4l0.3,0.3L61.2,56z M61.7,55.6l0.7-0.6
				l-0.3-0.4c-0.1-0.2-0.3-0.2-0.4-0.3s-0.2,0-0.4,0.1c-0.2,0.2-0.2,0.5,0.1,0.8L61.7,55.6z"/>
			<path class="st22" d="M60.3,51.6l1,1.2L61,53.1l-0.4-0.2l-1.8,1.5l0.1,0.5l-0.3,0.3l-1-1.2l0.3-0.3l0.4,0.2l1.8-1.5L60,51.9
				L60.3,51.6z"/>
			<path class="st22" d="M59,50.1l0.5,0.6l-2.2,1.9l0.6,0.7l-0.5,0.4l-1.7-2.1l0.5-0.4l0.6,0.7L59,50.1z"/>
			<path class="st22" d="M55.9,48c0.2-0.2,0.5-0.3,0.8-0.2s0.6,0.2,0.8,0.6c0.2,0.3,0.4,0.6,0.5,0.9l-0.4,0.4
				c-0.1-0.2-0.2-0.5-0.2-0.6c-0.1-0.2-0.2-0.3-0.2-0.4c-0.1-0.1-0.2-0.2-0.3-0.2s-0.2,0-0.3,0.1c0,0-0.1,0.1-0.1,0.2
				c0,0.1,0,0.1,0,0.2c0,0.1,0,0.3,0.1,0.5s0.1,0.4,0.1,0.6s0,0.3-0.1,0.4c0,0.1-0.2,0.2-0.3,0.4c-0.2,0.2-0.5,0.3-0.8,0.2
				s-0.6-0.3-0.9-0.6c-0.1-0.1-0.2-0.3-0.3-0.5s-0.1-0.3-0.2-0.5l0.6-0.2c0.1,0.2,0.1,0.3,0.2,0.5c0.1,0.1,0.1,0.2,0.2,0.3
				c0.1,0.1,0.2,0.2,0.3,0.2s0.2,0,0.3-0.1c0,0,0.1-0.1,0.1-0.2c0-0.1,0-0.1,0-0.2c0-0.1,0-0.3-0.1-0.5c-0.1-0.3-0.1-0.6-0.1-0.8
				C55.7,48.3,55.8,48.1,55.9,48z"/>
			<path class="st22" d="M56.3,46.8l-2.7,2.3l-0.5-0.6l2.3-1.9l-1-1.1l0.5-0.4L56.3,46.8z"/>
			<path class="st22" d="M53.2,43.1l1.3,1.6L51.8,47l-1.3-1.6L51,45l0.8,1l0.6-0.5l-0.8-1l0.5-0.4l0.8,0.9l0.7-0.6l-0.8-1L53.2,43.1
				z"/>
			<path class="st22" d="M51.1,42.8l1-0.9l0.5,0.6l-2.7,2.3L49.2,44c-0.3-0.4-0.5-0.7-0.5-1s0.1-0.5,0.4-0.8
				c0.2-0.1,0.3-0.2,0.5-0.2s0.4,0,0.6,0.1l0.5-1.8l0.5,0.6l-0.3,1.6L51.1,42.8z M50.7,43.2L50.5,43c-0.2-0.2-0.3-0.3-0.4-0.3
				s-0.3,0-0.4,0.1s-0.2,0.2-0.2,0.4c0,0.1,0.1,0.3,0.3,0.5l0.2,0.2L50.7,43.2z"/>
			<path class="st22" d="M46.5,39.8c0.2,0.2,0.4,0.3,0.7,0.3s0.5-0.2,0.8-0.4c0.6-0.5,0.7-1,0.3-1.5c-0.2-0.2-0.4-0.4-0.7-0.6
				l0.5-0.4c0.3,0.1,0.5,0.4,0.8,0.6c0.3,0.4,0.5,0.8,0.4,1.2s-0.3,0.8-0.8,1.2c-0.3,0.2-0.6,0.4-0.9,0.5c-0.3,0.1-0.6,0.1-0.9,0
				s-0.5-0.3-0.7-0.5c-0.2-0.3-0.4-0.6-0.5-1l0.6-0.2c0,0.1,0.1,0.3,0.1,0.4C46.3,39.5,46.4,39.7,46.5,39.8z"/>
			<path class="st22" d="M44.3,35.3c0.5-0.4,0.9-0.6,1.3-0.5s0.8,0.2,1.2,0.7s0.5,0.8,0.5,1.3S47,37.6,46.5,38s-0.9,0.6-1.3,0.5
				s-0.8-0.2-1.2-0.7s-0.5-0.8-0.5-1.3C43.6,36,43.8,35.6,44.3,35.3z M45.9,37.3c0.3-0.3,0.5-0.5,0.5-0.8c0.1-0.2,0-0.5-0.2-0.7
				c-0.4-0.5-0.9-0.4-1.5,0.1s-0.7,1-0.3,1.5c0.2,0.2,0.4,0.3,0.7,0.3C45.3,37.7,45.6,37.5,45.9,37.3z"/>
			<path class="st22" d="M44.3,32.5l1,1.2L45,34l-0.4-0.2l-1.8,1.5l0.1,0.5l-0.3,0.3l-1-1.2l0.3-0.3l0.4,0.2l1.8-1.5L44,32.8
				L44.3,32.5z"/>
			<path class="st22" d="M41.9,29.6l0.6,0.7l-1.1,2.9l0,0c0.3-0.3,0.6-0.6,0.8-0.7l1.3-1.1l0.4,0.5l-2.7,2.3l-0.6-0.6l1-2.9l0,0
				c-0.3,0.3-0.6,0.5-0.7,0.7l-1.3,1.1L39.2,32L41.9,29.6z"/>
			<path class="st22" d="M39.2,28c0.2-0.2,0.5-0.3,0.8-0.2c0.3,0.1,0.6,0.2,0.8,0.6c0.2,0.3,0.4,0.6,0.5,0.9l-0.5,0.5
				c-0.1-0.2-0.2-0.5-0.2-0.6c-0.1-0.2-0.2-0.3-0.2-0.4c-0.1-0.1-0.2-0.2-0.3-0.2s-0.2,0-0.3,0.1c0,0-0.1,0.1-0.1,0.2s0,0.1,0,0.2
				s0,0.3,0.1,0.5c0.1,0.2,0.1,0.4,0.1,0.6c0,0.1,0,0.3-0.1,0.4c0,0.1-0.2,0.2-0.3,0.4c-0.2,0.2-0.5,0.3-0.8,0.2s-0.5-0.2-0.8-0.5
				c-0.1-0.1-0.2-0.3-0.3-0.5s-0.1-0.3-0.2-0.5l0.6-0.2c0.1,0.2,0.1,0.4,0.2,0.5s0.1,0.2,0.2,0.3c0.1,0.1,0.2,0.2,0.3,0.2
				s0.2,0,0.3-0.1c0,0,0.1-0.1,0.1-0.2c0-0.1,0-0.1,0-0.2c0-0.1,0-0.3-0.1-0.5c-0.1-0.4-0.1-0.6-0.1-0.8C38.9,28.3,39,28.1,39.2,28z
				"/>
		</g>
	</g>
	<g>
		<g>
			<path class="st22" d="M55,70c0.2-0.3,0.4-0.4,0.7-0.5s0.6,0,1,0.2l0.3-0.5l0.3,0.2L57,69.9c0.4,0.2,0.7,0.5,1,0.8l-0.4,0.7
				c-0.1-0.2-0.2-0.3-0.4-0.5s-0.4-0.3-0.6-0.4l-0.5,0.8l0.1,0.2c0.3,0.3,0.4,0.6,0.5,0.8c0,0.2,0,0.5-0.1,0.7s-0.3,0.4-0.6,0.4
				c-0.3,0.1-0.6,0-1-0.2l-0.2,0.4l-0.3-0.2l0.2-0.4c-0.4-0.2-0.7-0.5-0.9-0.8l0.6-0.5c0.2,0.3,0.4,0.5,0.7,0.7l0.4-0.8
				c-0.3-0.3-0.4-0.6-0.5-0.7c-0.1-0.2-0.1-0.3-0.1-0.5C54.8,70.3,54.9,70.1,55,70z M55.9,72.5c0-0.1,0-0.2,0-0.2s-0.1-0.2-0.2-0.3
				l-0.3,0.6C55.6,72.7,55.8,72.7,55.9,72.5z M55.7,70.4c0,0.1,0,0.2,0,0.2s0.1,0.2,0.2,0.3l0.4-0.6C56,70.2,55.8,70.2,55.7,70.4z"
				/>
			<path class="st22" d="M53.4,67.5l0.8,0.4L53,70.1c0,0-0.1,0.1-0.1,0.2s-0.1,0.1-0.1,0.2s-0.2,0.1-0.2,0.2s-0.1,0.1-0.1,0.2
				c0,0,0,0,0.1,0h0.1h0.1h0.1l0.6-0.1l0.1,0.7l-1.8,0.3l-0.6-0.4L53.4,67.5z"/>
			<path class="st22" d="M48.8,67.3c0.2-0.3,0.3-0.6,0.5-0.8s0.4-0.4,0.6-0.5s0.4-0.2,0.6-0.2c0.2,0,0.4,0.1,0.7,0.2
				c0.2,0.1,0.4,0.3,0.5,0.4s0.2,0.4,0.2,0.6s0,0.5-0.1,0.7s-0.2,0.6-0.4,0.8c-0.2,0.3-0.3,0.6-0.5,0.8c-0.2,0.2-0.4,0.4-0.6,0.5
				S49.9,70,49.7,70s-0.4-0.1-0.7-0.2c-0.2-0.1-0.4-0.3-0.5-0.4c-0.1-0.2-0.2-0.4-0.2-0.6s0-0.5,0.1-0.7
				C48.5,67.9,48.6,67.7,48.8,67.3z M50.6,68.4c0.2-0.4,0.4-0.8,0.4-1c0-0.3,0-0.4-0.2-0.5s-0.4-0.1-0.6,0.1s-0.4,0.5-0.7,0.9
				c-0.2,0.4-0.4,0.8-0.4,1c0,0.3,0,0.4,0.2,0.5c0.1,0.1,0.2,0.1,0.3,0.1s0.2-0.1,0.3-0.2s0.2-0.2,0.3-0.3
				C50.3,68.8,50.4,68.6,50.6,68.4z"/>
			<path class="st22" d="M45.9,65.7c0.2-0.3,0.3-0.6,0.5-0.8s0.4-0.4,0.6-0.5c0.2-0.1,0.4-0.2,0.6-0.2c0.2,0,0.4,0.1,0.7,0.2
				c0.2,0.1,0.4,0.3,0.5,0.4c0.1,0.2,0.2,0.4,0.2,0.6s0,0.5-0.1,0.7c-0.1,0.3-0.2,0.6-0.4,0.8c-0.2,0.3-0.3,0.6-0.5,0.8
				c-0.2,0.2-0.4,0.4-0.6,0.5c-0.2,0.3-0.4,0.3-0.6,0.3s-0.4-0.1-0.7-0.2c-0.2-0.1-0.4-0.3-0.5-0.4s-0.2-0.4-0.2-0.6s0-0.5,0.1-0.7
				S45.8,66,45.9,65.7z M47.7,66.7c0.2-0.4,0.4-0.8,0.4-1s0-0.4-0.2-0.5s-0.4-0.1-0.6,0.1s-0.4,0.5-0.7,0.9c-0.2,0.4-0.4,0.8-0.4,1
				c0,0.3,0,0.4,0.2,0.5c0.1,0.1,0.2,0.1,0.3,0.1s0.2-0.1,0.3-0.2s0.2-0.2,0.3-0.3C47.5,67.1,47.6,66.9,47.7,66.7z"/>
			<path class="st22" d="M43.1,64c0.2-0.3,0.3-0.6,0.5-0.8s0.4-0.4,0.6-0.5c0.2-0.1,0.4-0.2,0.6-0.2c0.2,0,0.4,0.1,0.7,0.2
				c0.2,0.1,0.4,0.3,0.5,0.4c0.1,0.2,0.2,0.4,0.2,0.6s0,0.5-0.1,0.7s-0.3,0.8-0.5,1.1s-0.3,0.6-0.5,0.8c-0.2,0.2-0.4,0.4-0.6,0.5
				S44.1,67,43.9,67c-0.2,0-0.4-0.1-0.7-0.2c-0.2-0.1-0.4-0.3-0.5-0.4c-0.1-0.4-0.1-0.6-0.1-0.8s0-0.5,0.1-0.7
				C42.8,64.6,42.9,64.3,43.1,64z M44.8,65.1c0.2-0.4,0.4-0.8,0.4-1s0-0.4-0.2-0.5s-0.4-0.1-0.6,0.1s-0.4,0.5-0.7,0.9
				c-0.2,0.4-0.4,0.8-0.4,1c0,0.3,0,0.4,0.2,0.5c0.1,0.1,0.2,0.1,0.3,0.1s0.2-0.1,0.3-0.2s0.2-0.2,0.3-0.3S44.7,65.3,44.8,65.1z"/>
			<path class="st22" d="M40.6,62l0.8-1.4l0.8,0.5L40,64.8l-1.1-0.6c-0.5-0.3-0.8-0.6-1-0.9c-0.1-0.3-0.1-0.7,0.1-1.1
				c0.1-0.2,0.3-0.4,0.5-0.5s0.5-0.1,0.7-0.1L39,59.4l0.9,0.5l0.1,1.9L40.6,62z M40.2,62.7l-0.3-0.2c-0.2-0.1-0.5-0.2-0.6-0.2
				c-0.2,0-0.3,0.1-0.4,0.3c-0.1,0.2-0.1,0.3,0,0.5c0.1,0.1,0.2,0.3,0.5,0.4l0.2,0.1L40.2,62.7z"/>
			<path class="st22" d="M36.6,57.8l2.1,1.2l-2.1,3.8l-2.1-1.3l0.4-0.6l1.3,0.8l0.5-0.8l-1.3-0.7l0.4-0.6l1.3,0.7l0.5-1l-1.4-0.8
				L36.6,57.8z"/>
			<path class="st22" d="M32.2,55.3l0.9,0.5L32.5,58c0,0.1-0.1,0.2-0.2,0.5c-0.1,0.2-0.1,0.4-0.2,0.5c0.1-0.1,0.2-0.2,0.3-0.4
				c0.2-0.2,0.3-0.3,0.3-0.4l1.6-1.7l0.9,0.5L34,61.2l-0.8-0.5l0.7-2.3c0.1-0.4,0.3-0.8,0.4-1.1c-0.1,0.1-0.2,0.2-0.3,0.4
				s-0.3,0.3-0.4,0.4l-1.7,1.8l-0.7-0.4l0.7-2.4c0-0.1,0.1-0.3,0.2-0.5c0.1-0.2,0.1-0.4,0.2-0.5c-0.1,0.1-0.2,0.3-0.4,0.5
				c-0.2,0.2-0.3,0.3-0.4,0.4l-1.6,1.8l-0.8-0.5L32.2,55.3z"/>
			<path class="st22" d="M28.6,53.2l-0.2,1l1.4,0.8l0.8-0.7l0.8,0.5l-3.5,3l-1-0.6l0.8-4.5L28.6,53.2z M28.2,55
				c-0.2,0.9-0.3,1.5-0.4,1.6s-0.1,0.2-0.1,0.3c0.2-0.2,0.6-0.6,1.4-1.3L28.2,55z"/>
			<path class="st22" d="M25.7,53.4l0.8-1.4l0.8,0.5l-2.1,3.7l-1.1-0.7c-0.5-0.3-0.8-0.6-1-0.9c-0.1-0.3-0.1-0.7,0.1-1
				c0.1-0.2,0.3-0.4,0.5-0.5s0.5-0.1,0.7-0.1l-0.2-2.2l0.9,0.5l0.1,1.9L25.7,53.4z M25.4,54.1l-0.2-0.2c-0.2-0.1-0.5-0.2-0.6-0.2
				c-0.2,0-0.3,0.1-0.4,0.3s-0.1,0.3,0,0.5s0.2,0.3,0.5,0.4l0.2,0.1L25.4,54.1z"/>
			<path class="st22" d="M19.7,50.6c0.4-0.6,0.8-1,1.3-1.1s1.1,0,1.8,0.4l1,0.6l-2.1,3.7l-1.1-0.7c-0.6-0.3-1-0.8-1.1-1.3
				C19.3,51.7,19.4,51.2,19.7,50.6z M20.6,51c-0.5,0.8-0.3,1.4,0.4,1.8l0.4,0.2l1.4-2.4l-0.4-0.1C21.6,50,21,50.2,20.6,51z"/>
		</g>
	</g>
	<g>
		<g>
			<path class="st22" d="M38.3,122.4c0.1,0.1,0.1,0.3,0.1,0.4s0,0.2,0,0.4s-0.1,0.2-0.2,0.3c-0.1,0.1-0.2,0.2-0.2,0.3l0,0
				c0.3-0.1,0.6-0.2,0.8-0.1s0.4,0.2,0.6,0.5c0.1,0.2,0.2,0.3,0.2,0.5s0,0.3-0.1,0.5s-0.2,0.3-0.3,0.5c-0.2,0.2-0.3,0.3-0.6,0.4
				c-0.2,0.1-0.4,0.2-0.6,0.3c-0.2,0.1-0.4,0.1-0.6,0.1l-0.4-0.7c0.1,0,0.2,0,0.3,0s0.2,0,0.3-0.1c0.1,0,0.2-0.1,0.3-0.1
				s0.2-0.1,0.2-0.1c0.2-0.1,0.3-0.2,0.3-0.2c0.1-0.1,0.1-0.2,0.2-0.2c0-0.1,0-0.2,0-0.2c0-0.1,0-0.2-0.1-0.2c0-0.1-0.1-0.1-0.2-0.2
				c-0.1,0-0.2-0.1-0.2-0.1c-0.1,0-0.2,0-0.3,0.1c-0.1,0-0.3,0.1-0.4,0.2l-0.3,0.2l-0.3-0.6l0.3-0.2c0.2-0.1,0.3-0.2,0.4-0.3
				s0.2-0.2,0.2-0.2c0-0.1,0-0.2,0-0.2c0-0.1,0-0.2-0.1-0.2c-0.1-0.1-0.2-0.2-0.3-0.2s-0.3,0-0.5,0.1c-0.1,0.1-0.2,0.1-0.2,0.2
				c-0.1,0.1-0.1,0.1-0.2,0.2c0,0.1-0.1,0.1-0.1,0.2s-0.1,0.1-0.1,0.2l-0.7-0.3c0-0.1,0.1-0.2,0.2-0.3s0.1-0.2,0.2-0.3
				s0.2-0.2,0.3-0.3c0.1-0.1,0.2-0.2,0.3-0.2c0.2-0.1,0.4-0.2,0.5-0.2c0.2,0,0.3-0.1,0.5,0c0.2,0,0.3,0.1,0.4,0.1
				C38.1,122.2,38.2,122.3,38.3,122.4z"/>
			<path class="st22" d="M40.4,121.9c0.2-0.1,0.3-0.2,0.5-0.2s0.3,0,0.5,0s0.3,0.1,0.4,0.2s0.3,0.3,0.4,0.4c0.1,0.2,0.2,0.4,0.2,0.6
				s0,0.4,0,0.6c-0.1,0.2-0.2,0.3-0.3,0.5s-0.3,0.3-0.6,0.4c-0.1,0.1-0.2,0.1-0.3,0.1s-0.2,0.1-0.3,0.1s-0.2,0.1-0.3,0.1
				s-0.2,0-0.3,0l-0.4-0.7c0.1,0,0.2,0,0.3,0s0.2,0,0.3-0.1c0.1,0,0.2-0.1,0.3-0.1s0.2-0.1,0.2-0.1c0.2-0.1,0.4-0.3,0.4-0.4
				c0.1-0.2,0-0.3-0.1-0.6c-0.1-0.2-0.2-0.3-0.4-0.3s-0.4,0-0.6,0.2l-0.1,0.1l-0.1,0.1l-0.1,0.1l-0.1,0.1h-0.4l-0.9-2l2-1.1l0.4,0.7
				l-1.4,0.9l0.3,0.8c0,0,0.1-0.1,0.2-0.1C40.2,122,40.3,122,40.4,121.9z"/>
			<path class="st22" d="M44.7,120.1c0.2,0.3,0.3,0.6,0.4,0.8c0.1,0.3,0.1,0.5,0.1,0.7s-0.1,0.4-0.2,0.6c-0.1,0.2-0.3,0.3-0.5,0.5
				c-0.2,0.1-0.4,0.2-0.6,0.2c-0.2,0-0.4-0.1-0.6-0.2c-0.2-0.1-0.4-0.3-0.6-0.5c-0.2-0.2-0.4-0.5-0.5-0.8s-0.3-0.6-0.4-0.8
				c-0.1-0.3-0.1-0.5-0.1-0.7s0.1-0.4,0.2-0.6s0.3-0.3,0.5-0.5c0.2-0.1,0.4-0.2,0.6-0.2c0.2,0,0.4,0.1,0.6,0.2s0.4,0.3,0.6,0.5
				C44.4,119.6,44.6,119.8,44.7,120.1z M43,121.1c0.2,0.4,0.5,0.7,0.7,0.9c0.2,0.2,0.4,0.2,0.6,0.1s0.2-0.3,0.2-0.5
				c0-0.3-0.2-0.6-0.4-1s-0.5-0.7-0.7-0.9s-0.4-0.2-0.6-0.1c-0.1,0.1-0.2,0.1-0.2,0.2s0,0.2,0,0.3c0,0.1,0.1,0.3,0.1,0.4
				C42.8,120.7,42.8,120.9,43,121.1z"/>
			<path class="st22" d="M47.8,120.9l-2.1-3.7l0.8-0.4l1.7,3.1l1.5-0.8l0.4,0.7L47.8,120.9z"/>
			<path class="st22" d="M52.1,118.4l-0.8,0.4l-1.7-3.1l-1,0.6l-0.4-0.7L51,114l0.4,0.7l-1,0.6L52.1,118.4z"/>
			<path class="st22" d="M53.5,113.6c-0.3,0.2-0.5,0.4-0.5,0.7c0,0.3,0.1,0.7,0.3,1.1c0.5,0.8,1,1.1,1.6,0.7
				c0.3-0.2,0.5-0.4,0.8-0.7l0.4,0.7c-0.2,0.3-0.5,0.6-0.9,0.8c-0.5,0.3-1,0.4-1.5,0.2c-0.5-0.2-0.9-0.6-1.2-1.2
				c-0.2-0.4-0.3-0.8-0.4-1.1s0-0.7,0.2-1s0.4-0.6,0.8-0.8c0.4-0.2,0.8-0.3,1.2-0.3l0.1,0.8c-0.2,0-0.3,0-0.5,0.1
				C53.8,113.4,53.6,113.5,53.5,113.6z"/>
		</g>
		<g>
			<circle class="st29" cx="26.7" cy="130.2" r="7.8"/>
			<path class="st28" d="M25.8,135.1l5.5-3.1l-0.4-1.5l-3.4,1.9c0,0-0.2-0.8-0.5-1.9l0.9-1l-0.5-1l-0.6,0.8c-0.4-1.4-0.7-2.8-0.8-3
				l-2.1,1.2c0.3,0.8,0.7,2.4,1.1,3.9l-0.9,1l0.5,1l0.6-0.7C25.4,133.6,25.6,134.5,25.8,135.1z"/>
		</g>
	</g>
	<g>
		<g>
			<path class="st22" d="M104.5,50.1c-0.4-0.1-0.5-0.4-0.3-0.8c0.2-0.4,0.4-0.5,0.8-0.4c0.2,0.1,0.3,0.2,0.3,0.3s0.1,0.3,0,0.5
				C105.1,50.1,104.9,50.3,104.5,50.1z M110.1,50.8l-0.4,1.1l-4.1-1.4l0.4-1.1L110.1,50.8z"/>
			<path class="st22" d="M108.2,44.5c0.6,0.2,0.9,0.5,1.1,1s0.1,1-0.1,1.7l-0.2,0.5l1.9,0.7l-0.4,1.1l-5.4-2l0.6-1.7
				c0.2-0.7,0.6-1.1,1-1.3C107.2,44.3,107.7,44.3,108.2,44.5z M108.1,47.4l0.1-0.4c0.1-0.3,0.2-0.6,0.1-0.9
				c-0.1-0.2-0.2-0.4-0.5-0.5s-0.5-0.1-0.7,0s-0.3,0.3-0.4,0.6l-0.2,0.5L108.1,47.4z"/>
			<path class="st22" d="M113.9,40.5l-0.4,1.1l-2.3-0.8l-0.8,2.1l2.3,0.8l-0.4,1.1l-5.4-2l0.4-1.1l2.1,0.8l0.8-2.1l-2.1-0.8l0.4-1.1
				L113.9,40.5z"/>
			<path class="st22" d="M113.4,33.2c0.9,0.3,1.5,0.8,1.8,1.4c0.3,0.6,0.3,1.3,0,2.2s-0.8,1.4-1.4,1.6c-0.6,0.3-1.4,0.2-2.3-0.1
				s-1.5-0.8-1.8-1.4c-0.3-0.6-0.3-1.3,0-2.2c0.3-0.8,0.8-1.4,1.4-1.6C111.8,32.9,112.5,32.9,113.4,33.2z M112,37.2
				c0.6,0.2,1.1,0.3,1.5,0.2s0.7-0.4,0.8-0.8c0.3-0.9-0.1-1.6-1.3-2c-1.2-0.4-2-0.2-2.3,0.7c-0.2,0.5-0.1,0.8,0.1,1.2
				S111.4,36.9,112,37.2z"/>
			<path class="st22" d="M118.3,28.4l-0.5,1.4l-4.9,0.9l0,0c0.7,0.2,1.2,0.4,1.6,0.5l2.5,0.9l-0.4,1l-5.4-2l0.5-1.4l4.9-0.9l0,0
				c-0.7-0.2-1.2-0.4-1.5-0.5l-2.5-0.9l0.4-1L118.3,28.4z"/>
			<path class="st22" d="M119.9,23.9l-1.1,3.1l-5.4-2l1.1-3.1l0.9,0.3l-0.7,2l1.2,0.4l0.7-1.8l0.9,0.3l-0.7,1.8l1.4,0.5l0.7-2
				L119.9,23.9z"/>
			<path class="st22" d="M121.8,18.5l-0.4,1.1l-3.1-1.1c-0.1,0-0.1,0-0.2-0.1c-0.1,0-0.2-0.1-0.3-0.1c-0.1,0-0.2-0.1-0.3-0.1
				s-0.2-0.1-0.3-0.1c0,0,0,0,0,0.1c0,0,0,0.1,0.1,0.1s0,0.1,0.1,0.1c0,0,0,0.1,0.1,0.1l0.3,0.8l-0.9,0.3l-0.8-2.2l0.3-0.9
				L121.8,18.5z"/>
			<path class="st22" d="M119.4,12.2c0.2,0.1,0.3,0.2,0.5,0.3c0.1,0.1,0.2,0.2,0.3,0.4c0.1,0.1,0.1,0.3,0.2,0.5c0,0.2,0,0.3,0,0.5
				l0,0c0.2-0.4,0.5-0.7,0.8-0.8s0.6-0.2,1,0c0.2,0.1,0.4,0.2,0.6,0.4s0.3,0.4,0.4,0.6s0.1,0.5,0.1,0.8s-0.1,0.6-0.2,1
				c-0.1,0.3-0.2,0.5-0.4,0.8s-0.3,0.5-0.5,0.6l-1-0.4c0.1-0.1,0.2-0.2,0.3-0.3c0.1-0.1,0.2-0.2,0.2-0.3c0.1-0.1,0.1-0.2,0.2-0.3
				c0.1-0.1,0.1-0.2,0.1-0.3c0.1-0.2,0.1-0.4,0.1-0.5s0-0.3,0-0.4s-0.1-0.2-0.2-0.3c-0.1-0.1-0.2-0.1-0.3-0.2c-0.1,0-0.2,0-0.3,0
				s-0.2,0.1-0.3,0.1s-0.2,0.2-0.3,0.4s-0.2,0.4-0.3,0.6l-0.1,0.4l-0.8-0.3l0.1-0.4c0.1-0.2,0.1-0.4,0.1-0.6s0-0.3,0-0.4
				s-0.1-0.2-0.2-0.3s-0.2-0.1-0.3-0.2c-0.2-0.1-0.4-0.1-0.5,0c-0.2,0.1-0.3,0.2-0.4,0.5c0,0.1-0.1,0.2-0.1,0.3s0,0.2,0,0.3
				c0,0.1,0,0.2,0,0.3s0,0.2,0.1,0.2l-1,0.3c0-0.1-0.1-0.3-0.1-0.4s0-0.3,0-0.5s0-0.3,0.1-0.5c0-0.2,0.1-0.4,0.2-0.5
				c0.1-0.3,0.2-0.5,0.3-0.7s0.3-0.4,0.4-0.5c0.2-0.1,0.3-0.2,0.5-0.2C119,12.1,119.2,12.1,119.4,12.2z"/>
		</g>
	</g>
	<g>
		<g>
			<path class="st22" d="M127.5,99.2l-0.2,1.8l-1-0.1l0.6-4.8l1.4,0.2c0.6,0.1,1.1,0.3,1.4,0.6c0.3,0.3,0.4,0.7,0.3,1.1
				c0,0.3-0.1,0.5-0.3,0.7s-0.4,0.3-0.7,0.4l1.1,2.3l-1.1-0.2l-0.9-2H127.5z M127.6,98.4h0.3c0.3,0,0.6,0,0.7-0.1
				c0.2-0.1,0.3-0.2,0.3-0.5c0-0.2,0-0.4-0.2-0.5c-0.1-0.1-0.4-0.2-0.7-0.2h-0.3L127.6,98.4z"/>
			<path class="st22" d="M133.5,101.9l-0.2-1.2l-1.7-0.2l-0.5,1.1l-1.1-0.2l2.3-4.6l1.2,0.2l1.1,5L133.5,101.9z M133.2,99.8
				c-0.2-1.1-0.3-1.7-0.3-1.8s0-0.2,0-0.3c-0.1,0.3-0.4,0.9-0.9,2L133.2,99.8z"/>
			<path class="st22" d="M139.1,102.6l-1.1-0.2l-1-2.2l-0.5,0.2l-0.2,1.7l-1-0.1l0.6-4.8l1,0.1l-0.3,2.2l0.5-0.5l1.5-1.4l1.1,0.2
				l-1.9,1.9L139.1,102.6z"/>
			<path class="st22" d="M142.4,103.1l-2.8-0.4l0.6-4.8l2.8,0.4l-0.1,0.8l-1.7-0.2l-0.1,1.1l1.6,0.2l-0.1,0.8l-1.6-0.2l-0.2,1.2
				l1.7,0.2L142.4,103.1z"/>
			<path class="st22" d="M144,98.4l1.5,0.2c0.7,0.1,1.2,0.2,1.4,0.5c0.3,0.2,0.4,0.6,0.3,1c0,0.3-0.1,0.5-0.3,0.7s-0.4,0.2-0.6,0.3
				l0,0c0.3,0.1,0.5,0.3,0.6,0.5s0.1,0.5,0.1,0.8c-0.1,0.4-0.3,0.8-0.6,1c-0.4,0.2-0.8,0.3-1.3,0.2l-1.8-0.2L144,98.4z M144.7,101.3
				l-0.2,1.2l0.7,0.1c0.3,0,0.5,0,0.6-0.1s0.2-0.2,0.3-0.5c0.1-0.4-0.2-0.6-0.8-0.7H144.7z M144.8,100.5l0.6,0.1
				c0.3,0,0.5,0,0.6-0.1s0.2-0.2,0.2-0.4c0-0.2,0-0.3-0.1-0.4s-0.3-0.2-0.6-0.2l-0.5-0.1L144.8,100.5z"/>
			<path class="st22" d="M150.8,104.2l-0.2-1.2l-1.7-0.2l-0.5,1.1l-1.1-0.2l2.3-4.6l1.2,0.2l1.1,5L150.8,104.2z M150.4,102.1
				c-0.2-1.1-0.3-1.7-0.3-1.8s0-0.2,0-0.3c-0.1,0.3-0.4,0.9-0.9,2L150.4,102.1z"/>
			<path class="st22" d="M155,100.7c-0.4-0.1-0.7,0.1-0.9,0.3c-0.2,0.3-0.4,0.6-0.5,1.2c-0.1,1.1,0.2,1.7,1,1.8c0.3,0,0.8,0,1.2-0.1
				l-0.1,0.8c-0.4,0.1-0.9,0.1-1.4,0.1c-0.7-0.1-1.2-0.4-1.5-0.8s-0.4-1.1-0.3-1.9c0.1-0.5,0.2-0.9,0.4-1.3s0.5-0.6,0.9-0.8
				c0.4-0.2,0.8-0.2,1.2-0.1c0.5,0.1,0.9,0.2,1.4,0.5l-0.4,0.8c-0.2-0.1-0.3-0.2-0.5-0.3C155.3,100.8,155.1,100.7,155,100.7z"/>
			<path class="st22" d="M160.5,105.5l-1.1-0.2l-1-2.2l-0.5,0.2l-0.2,1.7l-1-0.1l0.6-4.8l1,0.1l-0.3,2.2l0.5-0.5l1.5-1.4l1.1,0.2
				l-1.9,1.9L160.5,105.5z"/>
			<path class="st22" d="M165.7,106.2l-3.2-0.4l0.1-0.7l1.3-1.1c0.2-0.1,0.3-0.3,0.4-0.4s0.2-0.2,0.4-0.3c0.1-0.1,0.2-0.2,0.2-0.3
				c0.1-0.1,0.1-0.2,0.1-0.4c0-0.2,0-0.3-0.1-0.4s-0.2-0.2-0.4-0.2s-0.3,0-0.5,0.1s-0.4,0.2-0.6,0.3l-0.5-0.7
				c0.1-0.1,0.2-0.2,0.3-0.2s0.2-0.1,0.4-0.2c0.1-0.1,0.3-0.1,0.4-0.1c0.2,0,0.3,0,0.5,0s0.4,0.1,0.6,0.2c0.2,0.1,0.3,0.2,0.4,0.3
				s0.2,0.3,0.2,0.5s0.1,0.4,0,0.6c0,0.2-0.1,0.4-0.2,0.5s-0.2,0.3-0.3,0.5s-0.3,0.3-0.5,0.4s-0.4,0.3-0.6,0.4l-0.6,0.5v0.1l1.9,0.3
				L165.7,106.2z"/>
			<path class="st22" d="M169.7,104.3c-0.1,0.4-0.1,0.7-0.2,1c-0.1,0.3-0.2,0.5-0.4,0.7s-0.4,0.3-0.6,0.4c-0.2,0.1-0.5,0.1-0.8,0.1
				s-0.5-0.1-0.7-0.3s-0.3-0.3-0.4-0.6c-0.1-0.2-0.2-0.5-0.2-0.8s0-0.7,0-1.1s0.1-0.7,0.2-1s0.2-0.5,0.4-0.7s0.4-0.3,0.6-0.4
				c0.2-0.1,0.5-0.1,0.8-0.1s0.5,0.1,0.7,0.3s0.3,0.3,0.4,0.6s0.2,0.5,0.2,0.8C169.8,103.6,169.8,103.9,169.7,104.3z M167.5,104
				c-0.1,0.5-0.1,1,0,1.2s0.2,0.4,0.4,0.5c0.2,0,0.4-0.1,0.5-0.3s0.2-0.7,0.3-1.2c0.1-0.6,0.1-1,0-1.2s-0.2-0.4-0.4-0.5
				c-0.1,0-0.2,0-0.3,0.1s-0.2,0.2-0.2,0.3s-0.1,0.3-0.2,0.5S167.5,103.7,167.5,104z"/>
			<path class="st22" d="M172.5,104c0,0.2-0.1,0.4-0.1,0.5s-0.1,0.3-0.3,0.3s-0.2,0.2-0.4,0.2s-0.3,0-0.5,0s-0.3-0.1-0.5-0.2
				c-0.1-0.1-0.2-0.2-0.3-0.3s-0.1-0.2-0.2-0.4c0-0.2,0-0.3,0-0.5s0.1-0.4,0.1-0.5s0.1-0.3,0.2-0.3c0.1-0.1,0.2-0.2,0.4-0.2
				c0.1,0,0.3,0,0.5,0s0.4,0.1,0.5,0.2s0.2,0.2,0.3,0.3s0.1,0.2,0.2,0.4C172.6,103.7,172.6,103.8,172.5,104z M174.8,103.2l-3.2,3.8
				l-0.8-0.1l3.2-3.8L174.8,103.2z M171.1,103.8c0,0.2,0,0.3,0,0.4s0.1,0.2,0.2,0.2c0.1,0,0.2,0,0.3-0.1s0.1-0.2,0.1-0.4
				c0.1-0.3,0-0.5-0.3-0.6c-0.1,0-0.2,0-0.3,0.1C171.1,103.5,171.1,103.7,171.1,103.8z M175.5,106.3c0,0.2-0.1,0.4-0.1,0.5
				c-0.1,0.1-0.1,0.3-0.3,0.3s-0.2,0.2-0.4,0.2s-0.3,0-0.5,0s-0.3-0.1-0.5-0.2c-0.1-0.1-0.2-0.2-0.3-0.3s-0.1-0.2-0.2-0.4
				c0-0.2,0-0.3,0-0.5s0.1-0.4,0.1-0.5s0.1-0.3,0.2-0.3c0.1-0.1,0.2-0.2,0.4-0.2c0.1,0,0.3,0,0.5,0s0.4,0.1,0.5,0.2s0.2,0.2,0.3,0.3
				c0.1,0.1,0.1,0.2,0.2,0.4C175.5,106,175.5,106.2,175.5,106.3z M174,106.2c0,0.2,0,0.3,0,0.4s0.1,0.2,0.2,0.2c0.1,0,0.2,0,0.3-0.1
				s0.1-0.2,0.1-0.4c0.1-0.3,0-0.5-0.3-0.6c-0.1,0-0.2,0-0.3,0.1C174.1,105.8,174,106,174,106.2z"/>
		</g>
	</g>
	<g>
		<g>
			<path class="st22" d="M92,129.7v1.8h-2.4c-0.1-0.3-0.2-0.6-0.2-0.8s-0.1-0.5-0.1-0.8c0-0.7,0.2-1.2,0.6-1.6
				c0.4-0.4,1-0.6,1.8-0.6s1.3,0.2,1.8,0.6s0.6,1,0.6,1.8c0,0.5-0.1,0.9-0.3,1.4l-0.8-0.3c0.2-0.3,0.2-0.7,0.2-1.1
				c0-0.4-0.1-0.8-0.4-1c-0.3-0.3-0.7-0.4-1.2-0.4s-0.9,0.1-1.2,0.3c-0.3,0.2-0.4,0.5-0.4,0.9c0,0.2,0,0.4,0.1,0.6h1v-0.9L92,129.7z
				"/>
			<path class="st22" d="M91.8,136.9c-0.8,0-1.4-0.2-1.8-0.6c-0.4-0.4-0.6-0.9-0.6-1.6s0.2-1.3,0.6-1.6s1-0.6,1.8-0.6
				s1.4,0.2,1.8,0.6c0.4,0.4,0.6,0.9,0.6,1.6s-0.2,1.3-0.6,1.6S92.5,136.9,91.8,136.9z M91.8,133.5c-0.5,0-0.9,0.1-1.2,0.3
				c-0.3,0.2-0.4,0.5-0.4,0.9c0,0.8,0.5,1.2,1.6,1.2s1.6-0.4,1.6-1.2c0-0.4-0.1-0.7-0.4-0.9S92.3,133.5,91.8,133.5z"/>
			<path class="st22" d="M89.4,137.9H94v1h-3.8v1.9h-0.8C89.4,140.8,89.4,137.9,89.4,137.9z"/>
			<path class="st22" d="M91.8,145.4c-0.8,0-1.3-0.2-1.8-0.6c-0.4-0.4-0.6-1.1-0.6-1.9v-1.3H94v1.5c0,0.8-0.2,1.4-0.6,1.8
				S92.5,145.4,91.8,145.4z M91.8,144.4c1,0,1.5-0.4,1.5-1.3v-0.6h-3v0.4C90.2,143.9,90.8,144.4,91.8,144.4z"/>
			<path class="st22" d="M89.4,149v-2.7H94v2.7h-0.8v-1.7h-1v1.6h-0.8v-1.6h-1.2v1.7H89.4z"/>
			<path class="st22" d="M89.4,154.1v-1.2l3.5-2l0,0c-0.6,0-1.1,0.1-1.3,0.1h-2.2v-0.9H94v1.2l-3.5,2l0,0c0.6,0,1-0.1,1.3-0.1H94
				v0.9H89.4z"/>
			<path class="st22" d="M93.3,158.9c0-0.4-0.1-0.7-0.4-0.9s-0.7-0.3-1.2-0.3c-1,0-1.6,0.4-1.6,1.2c0,0.3,0.1,0.7,0.2,1.2h-0.7
				c-0.2-0.4-0.2-0.8-0.2-1.3c0-0.7,0.2-1.2,0.6-1.6s1-0.5,1.8-0.5c0.5,0,0.9,0.1,1.3,0.3s0.6,0.4,0.8,0.8s0.3,0.7,0.3,1.2
				s-0.1,0.9-0.3,1.4l-0.8-0.3c0.1-0.2,0.2-0.4,0.2-0.5C93.3,159.3,93.3,159.1,93.3,158.9z"/>
			<path class="st22" d="M89.4,164.9v-1h2v-1.8h-2v-1H94v1h-1.8v1.8H94v1H89.4z"/>
			<path class="st22" d="M89.4,168.7V166H94v2.7h-0.8V167h-1v1.6h-0.8V167h-1.2v1.7H89.4z"/>
			<path class="st22" d="M90.7,172.5c-0.4,0-0.8-0.1-1-0.4s-0.4-0.7-0.4-1.3c0-0.5,0.1-0.9,0.3-1.3h0.9c-0.1,0.3-0.2,0.6-0.3,0.8
				s-0.1,0.4-0.1,0.6c0,0.2,0,0.4,0.1,0.5s0.2,0.2,0.4,0.2c0.1,0,0.2,0,0.2-0.1c0.1-0.1,0.1-0.1,0.2-0.2c0.1-0.1,0.2-0.3,0.3-0.6
				c0.1-0.3,0.3-0.5,0.4-0.6s0.3-0.2,0.4-0.3c0.2-0.1,0.3-0.1,0.6-0.1c0.4,0,0.7,0.1,1,0.4c0.2,0.3,0.3,0.7,0.3,1.2
				c0,0.2,0,0.5-0.1,0.7s-0.1,0.4-0.2,0.7l-0.8-0.3c0.1-0.2,0.2-0.4,0.2-0.6s0.1-0.3,0.1-0.5s0-0.3-0.1-0.4s-0.2-0.1-0.3-0.1
				c-0.1,0-0.2,0-0.2,0.1s-0.1,0.1-0.2,0.2s-0.2,0.3-0.3,0.6c-0.2,0.4-0.4,0.7-0.6,0.9C91.3,172.4,91,172.5,90.7,172.5z"/>
			<path class="st22" d="M89.4,175.1v-1h3.8v-1.3H94v3.5h-0.8V175L89.4,175.1z"/>
		</g>
	</g>
	<g>
		<g>
			<path class="st22" d="M127.6,72.9c0.2,0.4,0.2,0.8,0.1,1.2s-0.5,0.7-1,1s-0.9,0.4-1.4,0.4l-0.5-0.9c0.4,0,0.7-0.1,0.9-0.1
				c0.2,0,0.4-0.1,0.6-0.2c0.2-0.1,0.3-0.2,0.4-0.4s0.1-0.3,0-0.4s-0.1-0.2-0.2-0.2c-0.1,0-0.2-0.1-0.3-0.1s-0.4,0-0.7,0
				s-0.6,0-0.8,0c-0.2,0-0.4-0.1-0.5-0.2c-0.2-0.1-0.3-0.3-0.4-0.5c-0.2-0.4-0.3-0.8-0.1-1.1c0.1-0.4,0.4-0.7,0.9-0.9
				c0.2-0.1,0.5-0.2,0.7-0.3c0.2-0.1,0.5-0.1,0.8-0.1l0.1,0.9c-0.3,0-0.5,0.1-0.7,0.1c-0.2,0.1-0.3,0.1-0.5,0.2s-0.3,0.2-0.3,0.3
				s0,0.3,0,0.4c0.1,0.1,0.1,0.1,0.2,0.2s0.2,0.1,0.3,0.1c0.1,0,0.4,0,0.8,0c0.5,0,0.9,0,1.2,0.1C127.2,72.4,127.4,72.6,127.6,72.9z
				"/>
			<path class="st22" d="M130.7,72.7l-2,1.1l-0.3-0.5l0.4-0.5l-1.6-2.8l-0.7,0.1l-0.3-0.5l2-1.1l0.3,0.5l-0.4,0.5l1.6,2.8l0.7-0.1
				L130.7,72.7z"/>
			<path class="st22" d="M131.4,72.3l-2.4-4.4l0.9-0.5l2,3.6l1.8-1l0.4,0.8L131.4,72.3z"/>
			<path class="st22" d="M134.9,64.7l0.9-0.5l1,5.2l-1,0.6l-3.9-3.5l0.9-0.5l2.3,2.1c0.1,0.1,0.3,0.3,0.4,0.4
				c0.2,0.2,0.3,0.3,0.3,0.4c-0.1-0.2-0.2-0.6-0.3-1.1L134.9,64.7z"/>
			<path class="st22" d="M141.3,66.8l-2.5,1.4l-2.4-4.4l2.5-1.4l0.4,0.8l-1.6,0.9l0.5,1l1.5-0.8l0.4,0.8l-1.5,0.8l0.6,1.1l1.6-0.9
				L141.3,66.8z"/>
			<path class="st22" d="M142.2,64.1l0.9,1.7l-0.9,0.5l-2.4-4.4l1.3-0.7c0.6-0.3,1.1-0.5,1.5-0.4s0.7,0.3,1,0.7
				c0.1,0.3,0.2,0.5,0.2,0.8s-0.1,0.6-0.3,0.8l2.4,1.2l-1,0.6l-2-1.1L142.2,64.1z M141.8,63.3l0.3-0.2c0.3-0.2,0.5-0.3,0.6-0.5
				s0.1-0.4-0.1-0.6c-0.1-0.2-0.3-0.3-0.5-0.3s-0.4,0.1-0.7,0.2l-0.3,0.2L141.8,63.3z"/>
			<path class="st22" d="M147.6,58.4c-0.4,0.2-0.5,0.5-0.6,0.8c0,0.4,0.1,0.8,0.3,1.2c0.6,1,1.2,1.2,1.9,0.8c0.3-0.2,0.6-0.5,1-0.8
				l0.4,0.8c-0.3,0.3-0.6,0.7-1.1,0.9c-0.6,0.4-1.2,0.4-1.8,0.2c-0.6-0.2-1-0.7-1.4-1.4c-0.2-0.5-0.4-0.9-0.4-1.3
				c0-0.4,0.1-0.8,0.3-1.2s0.5-0.7,0.9-0.9s0.9-0.4,1.4-0.4l0.1,0.9c-0.2,0-0.4,0-0.6,0.1C148,58.3,147.8,58.3,147.6,58.4z"/>
			<path class="st22" d="M155.3,58.9l-0.9,0.5l-1.1-1.9l-1.7,1l1.1,1.9l-0.9,0.5l-2.4-4.4l0.9-0.5l1,1.7l1.7-1l-1-1.7l0.9-0.5
				L155.3,58.9z"/>
			<path class="st22" d="M158.9,56.9l-2.5,1.4l-2.4-4.4l2.5-1.4l0.4,0.8l-1.6,0.9l0.5,1l1.5-0.8l0.4,0.8l-1.5,0.8l0.6,1.1l1.6-0.9
				L158.9,56.9z"/>
			<path class="st22" d="M161.7,53.7c0.2,0.4,0.2,0.8,0.1,1.2c-0.2,0.4-0.5,0.7-1,1s-0.9,0.4-1.4,0.4l-0.5-0.9
				c0.4,0,0.7-0.1,0.9-0.1c0.2-0.1,0.4-0.1,0.6-0.2c0.2-0.1,0.3-0.2,0.4-0.4s0.1-0.3,0-0.4c-0.1-0.1-0.1-0.2-0.2-0.2
				c-0.1,0-0.2-0.1-0.3-0.1s-0.4,0-0.7,0s-0.6,0-0.8,0s-0.4-0.1-0.5-0.2c-0.2-0.1-0.3-0.3-0.4-0.5c-0.2-0.4-0.3-0.8-0.1-1.1
				c0.1-0.4,0.4-0.7,0.9-0.9c0.2-0.1,0.5-0.2,0.7-0.3s0.5-0.1,0.8-0.1l0.1,0.9c-0.3,0-0.5,0.1-0.7,0.1s-0.3,0.1-0.5,0.2
				c-0.2,0.1-0.3,0.2-0.3,0.3c-0.1,0.1,0,0.3,0,0.4c0.1,0.1,0.1,0.1,0.2,0.2c0.1,0,0.2,0.1,0.3,0.1s0.4,0,0.8,0c0.5,0,0.9,0,1.2,0.1
				C161.3,53.2,161.5,53.4,161.7,53.7z"/>
			<path class="st22" d="M164.8,53.5l-0.9,0.5l-2-3.6l-1.2,0.7l-0.4-0.8l3.3-1.8l0.4,0.8l-1.2,0.7L164.8,53.5z"/>
		</g>
	</g>
	<g>
		<g>
			<path class="st22" d="M11.6,79.6l-0.9-0.2l0.4-2.4c0-0.1,0-0.1,0-0.2s0-0.1,0.1-0.2c0-0.1,0-0.2,0.1-0.2s0-0.2,0.1-0.2
				c0,0,0,0-0.1,0c0,0-0.1,0-0.1,0.1s-0.1,0.1-0.1,0.1s-0.1,0-0.1,0.1l-0.6,0.3l-0.3-0.6l1.6-0.8l0.7,0.1L11.6,79.6z"/>
			<path class="st22" d="M15.9,78.2c-0.1,0.3-0.1,0.6-0.2,0.9s-0.2,0.5-0.4,0.6C15.2,79.9,15,80,14.8,80s-0.4,0.1-0.7,0
				c-0.2-0.1-0.5-0.1-0.6-0.3c-0.2-0.1-0.3-0.3-0.4-0.5S13,78.8,13,78.5c0-0.3,0-0.6,0.1-0.9s0.1-0.6,0.2-0.9s0.2-0.5,0.4-0.6
				c0.1-0.2,0.3-0.3,0.5-0.3s0.4-0.1,0.7,0c0.2,0,0.4,0.1,0.6,0.3c0.2,0.1,0.3,0.3,0.4,0.5S16,77,16,77.3C16,77.5,16,77.8,15.9,78.2
				z M14,77.8c-0.1,0.5-0.1,0.8-0.1,1.1s0.2,0.4,0.4,0.4s0.4-0.1,0.5-0.3s0.2-0.6,0.3-1.1c0.1-0.5,0.1-0.8,0.1-1.1s-0.2-0.3-0.4-0.3
				c-0.1,0-0.2,0-0.3,0c-0.1,0.1-0.2,0.1-0.2,0.2c-0.1,0.1-0.1,0.3-0.2,0.4C14,77.4,14,77.6,14,77.8z"/>
			<path class="st22" d="M19.2,78.8c-0.1,0.3-0.1,0.6-0.2,0.9s-0.2,0.5-0.4,0.6c-0.1,0.2-0.3,0.3-0.5,0.3s-0.4,0.1-0.7,0
				c-0.2,0-0.5-0.1-0.6-0.3c-0.2-0.1-0.3-0.3-0.4-0.5s-0.1-0.4-0.1-0.7s0-0.6,0.1-0.9s0.1-0.6,0.2-0.9s0.2-0.5,0.4-0.6
				c0.1-0.2,0.3-0.3,0.5-0.3s0.4-0.1,0.7,0c0.2,0,0.4,0.1,0.6,0.3c0.2,0.1,0.3,0.3,0.4,0.5s0.1,0.4,0.1,0.7S19.3,78.5,19.2,78.8z
				 M17.2,78.4c-0.1,0.5-0.1,0.8-0.1,1.1s0.2,0.4,0.4,0.4s0.4-0.1,0.5-0.3s0.2-0.6,0.3-1.1c0.1-0.5,0.1-0.8,0.1-1.1S18.2,77,18,77
				c-0.1,0-0.2,0-0.3,0c-0.1,0.1-0.2,0.1-0.2,0.2c-0.1,0.1-0.1,0.3-0.2,0.4C17.3,78,17.2,78.2,17.2,78.4z"/>
			<path class="st22" d="M21.9,81.5L21,81.3l0.8-4.2l2.4,0.4l-0.1,0.7L22.6,78l-0.2,1.1l1.4,0.3l-0.1,0.7l-1.4-0.3L21.9,81.5z"/>
			<path class="st22" d="M25.5,80.5l-0.3,1.6l-0.9-0.2l0.8-4.2l1.2,0.2c0.6,0.1,1,0.3,1.2,0.6c0.2,0.3,0.3,0.6,0.2,1
				c0,0.2-0.2,0.5-0.3,0.6c-0.2,0.2-0.4,0.3-0.7,0.3l0.9,2.1l-1-0.2l-0.7-1.8H25.5z M25.6,79.7l0.3,0.1c0.3,0.1,0.5,0,0.6,0
				c0.1-0.1,0.2-0.2,0.3-0.4c0-0.2,0-0.3-0.1-0.5c-0.1-0.1-0.3-0.2-0.6-0.2l-0.3-0.1L25.6,79.7z"/>
			<path class="st22" d="M30.6,83.1l-2.4-0.4l0.8-4.2l2.4,0.4l-0.1,0.7l-1.5-0.3l-0.2,1l1.4,0.3l-0.1,0.7L29.5,81l-0.2,1.1l1.5,0.3
				L30.6,83.1z"/>
			<path class="st22" d="M33.9,83.7l-2.4-0.4l0.8-4.2l2.4,0.4l-0.1,0.7l-1.5-0.3l-0.2,0.9l1.4,0.3l-0.1,0.7l-1.4-0.3l-0.2,1.1
				l1.5,0.3L33.9,83.7z"/>
			<path class="st22" d="M39,83.5c-0.1,0.4-0.3,0.7-0.6,0.8s-0.7,0.2-1.2,0.1s-0.8-0.2-1.2-0.5l0.2-0.8c0.3,0.2,0.5,0.3,0.7,0.4
				s0.4,0.2,0.5,0.2c0.2,0,0.3,0,0.5,0s0.2-0.2,0.2-0.3c0-0.1,0-0.2,0-0.2c0-0.1-0.1-0.2-0.2-0.2c-0.1-0.1-0.2-0.2-0.5-0.4
				c-0.2-0.2-0.4-0.3-0.5-0.5c-0.1-0.1-0.2-0.3-0.2-0.4c0-0.2-0.1-0.3,0-0.5c0.1-0.4,0.2-0.6,0.5-0.8s0.7-0.2,1.1-0.1
				c0.2,0,0.4,0.1,0.6,0.2s0.4,0.2,0.6,0.3l-0.4,0.6c-0.2-0.1-0.4-0.2-0.5-0.3C38.5,81,38.3,81,38.2,81c-0.2,0-0.3,0-0.4,0
				s-0.2,0.1-0.2,0.2s0,0.2,0,0.2s0.1,0.1,0.1,0.2s0.2,0.2,0.5,0.4c0.4,0.3,0.6,0.5,0.7,0.7C39,82.9,39.1,83.2,39,83.5z"/>
			<path class="st22" d="M43,82.4c-0.1,0.4-0.3,0.8-0.6,1s-0.8,0.2-1.3,0.1l-0.4-0.1l-0.3,1.5l-0.8-0.1l0.8-4.2l1.3,0.2
				c0.5,0.1,0.9,0.3,1.1,0.6C43,81.6,43.1,82,43,82.4z M40.9,82.7l0.3,0.1c0.3,0.1,0.5,0,0.7-0.1s0.2-0.2,0.3-0.4s0-0.4-0.1-0.5
				s-0.3-0.2-0.5-0.2l-0.4-0.1L40.9,82.7z"/>
			<path class="st22" d="M44.8,85.8l-1.9-0.4l0.1-0.5l0.6-0.1l0.5-2.7l-0.5-0.4l0.1-0.5l1.9,0.4l-0.1,0.5l-0.6,0.1l-0.5,2.7l0.5,0.3
				L44.8,85.8z"/>
			<path class="st22" d="M49.3,86.6l-1.1-0.2L47,82.9l0,0c-0.1,0.6-0.1,1-0.2,1.2l-0.4,2l-0.8-0.2l0.8-4.2l1.1,0.2l1.2,3.5l0,0
				c0.1-0.6,0.1-0.9,0.2-1.2l0.4-2l0.8,0.2L49.3,86.6z"/>
			<path class="st22" d="M53.1,86.1c-0.1,0.4-0.3,0.7-0.6,0.8c-0.3,0.2-0.7,0.2-1.2,0.1s-0.8-0.2-1.1-0.5l0.2-0.8
				c0.3,0.2,0.5,0.3,0.7,0.4s0.4,0.2,0.5,0.2c0.2,0,0.3,0,0.5,0s0.2-0.2,0.2-0.3c0-0.1,0-0.2,0-0.2c0-0.1-0.1-0.2-0.2-0.2
				c-0.1-0.1-0.2-0.2-0.5-0.4c-0.2-0.2-0.4-0.3-0.5-0.5c-0.1-0.1-0.2-0.3-0.2-0.4c0-0.2-0.1-0.3,0-0.5c0.1-0.4,0.2-0.6,0.5-0.8
				s0.7-0.2,1.1-0.1c0.2,0,0.4,0.1,0.6,0.2s0.4,0.2,0.6,0.3L53.3,84c-0.2-0.1-0.4-0.2-0.5-0.3c-0.1-0.1-0.3-0.1-0.4-0.1
				c-0.2,0-0.3,0-0.4,0s-0.4,0.1-0.4,0.2c0,0.1,0,0.2,0,0.2s0.1,0.1,0.1,0.2s0.2,0.2,0.5,0.4c0.4,0.3,0.6,0.5,0.7,0.7
				C53.1,85.6,53.1,85.8,53.1,86.1z"/>
		</g>
	</g>
</g>
</svg>
