<?xml version="1.0" encoding="utf-8"?>
<!-- Generator: Adobe Illustrator 26.0.3, SVG Export Plug-In . SVG Version: 6.00 Build 0)  -->
<svg version="1.1" id="Layer_1" xmlns="http://www.w3.org/2000/svg" xmlns:xlink="http://www.w3.org/1999/xlink" x="0px" y="0px"
	 viewBox="0 0 190 190" style="enable-background:new 0 0 190 190;" xml:space="preserve">
<style type="text/css">
	.st0{fill:#00264D;}
	.st1{fill:url(#SVGID_1_);}
	.st2{fill:url(#SVGID_00000182530828112806981340000005814469155072050082_);}
	.st3{fill:url(#SVGID_00000079488118907974688270000003325852992759627670_);}
	.st4{fill:url(#SVGID_00000054962449990895807300000003144687791938839435_);}
	.st5{fill:url(#SVGID_00000016761438309169942390000012467184040923021476_);}
	.st6{fill:url(#SVGID_00000008865583607713350790000015782975356811834017_);}
	.st7{fill:url(#SVGID_00000079444929623602631010000016868549943412778139_);}
	.st8{fill:url(#SVGID_00000182509966478202025840000011800150846965489598_);}
	.st9{fill:url(#SVGID_00000119834536494719272100000017575165743438558360_);}
	.st10{fill:url(#SVGID_00000119837640302026197350000016025846935775427206_);}
	.st11{fill:url(#SVGID_00000044868481015968906660000010254459803965912453_);}
	.st12{fill:url(#SVGID_00000089551623007672401450000005445050325336594579_);}
	.st13{fill:url(#SVGID_00000047020164181924801990000013977783065875552680_);}
	.st14{fill:url(#SVGID_00000166676108468713091930000012283387599865373583_);}
	.st15{fill:url(#SVGID_00000059302030186224408930000001865145597526366874_);}
	.st16{fill:url(#SVGID_00000160888235127721770300000004137226759303938439_);}
	.st17{fill:url(#SVGID_00000165221186988038844540000013053608254917707416_);}
	.st18{fill:url(#SVGID_00000033362569464028893160000008932309545445034407_);}
	.st19{fill:url(#SVGID_00000080184776210600635720000017780237446895169412_);}
	.st20{opacity:0.25;fill:#FFFFFF;enable-background:new    ;}
	.st21{fill:url(#SVGID_00000099626592333633568330000007574144580764083602_);}
	.st22{fill:#FFFFFF;}
	.st23{fill-rule:evenodd;clip-rule:evenodd;fill:#627EEA;}
	.st24{fill-rule:evenodd;clip-rule:evenodd;fill:#FFFFFF;}
	.st25{fill-rule:evenodd;clip-rule:evenodd;fill:#C1CCF7;}
	.st26{opacity:0.5;fill-rule:evenodd;clip-rule:evenodd;fill:#8198EE;enable-background:new    ;}
	.st27{fill-rule:evenodd;clip-rule:evenodd;fill:#F6911E;}
	.st28{fill-rule:evenodd;clip-rule:evenodd;fill:#F4F4F4;}
	.st29{fill-rule:evenodd;clip-rule:evenodd;fill:#345D9D;}
</style>
<ellipse class="st0" cx="95" cy="95" rx="90.4" ry="90.4"/>
<g>
	
		<radialGradient id="SVGID_1_" cx="104.5541" cy="110.3889" r="65.4348" gradientTransform="matrix(1 0 0 -1 0 192)" gradientUnits="userSpaceOnUse">
		<stop  offset="0" style="stop-color:#992E2E"/>
		<stop  offset="1" style="stop-color:#F24C4C"/>
	</radialGradient>
	<path class="st1" d="M109.1,81.2l49.6-41.7c1.2-1,1.3-2.8,0.3-4c-5.3-5.7-11.3-10.7-17.8-14.9c-1.3-0.8-3.1-0.4-3.9,1l-32.3,56.2
		C103.4,80.3,106.7,83.1,109.1,81.2z"/>
	
		<radialGradient id="SVGID_00000093872879600205946230000001229676206443607226_" cx="98.6457" cy="81.5471" r="71.1334" gradientTransform="matrix(1 0 0 -1 0 192)" gradientUnits="userSpaceOnUse">
		<stop  offset="0" style="stop-color:#992E2E"/>
		<stop  offset="1" style="stop-color:#F24C4C"/>
	</radialGradient>
	<path style="fill:url(#SVGID_00000093872879600205946230000001229676206443607226_);" d="M98.6,113.9l11.3,63.8
		c0.3,1.6,1.8,2.6,3.3,2.2c7.8-1.7,15.1-4.4,21.8-8c1.4-0.7,1.9-2.5,1.1-3.8L103.7,112C102.1,109.4,98,110.9,98.6,113.9z"/>
	
		<radialGradient id="SVGID_00000083779591324473189580000008353613606989540754_" cx="90.3138" cy="81.3985" r="72.1706" gradientTransform="matrix(1 0 0 -1 0 192)" gradientUnits="userSpaceOnUse">
		<stop  offset="0" style="stop-color:#007F12"/>
		<stop  offset="1" style="stop-color:#00BF1B"/>
	</radialGradient>
	<path style="fill:url(#SVGID_00000083779591324473189580000008353613606989540754_);" d="M53.9,172.1c6.8,3.6,14.2,6.3,21.8,8
		c1.5,0.3,3-0.7,3.3-2.2l11.2-63.9c0.5-3-3.6-4.5-5.1-1.8l-32.3,56.2C52,169.6,52.5,171.3,53.9,172.1z"/>
	
		<radialGradient id="SVGID_00000080896524163962471580000004360580946881636251_" cx="80.0037" cy="115.2542" r="81.2591" gradientTransform="matrix(1 0 0 -1 0 192)" gradientUnits="userSpaceOnUse">
		<stop  offset="0" style="stop-color:#582099"/>
		<stop  offset="1" style="stop-color:#7D33E5"/>
	</radialGradient>
	<path style="fill:url(#SVGID_00000080896524163962471580000004360580946881636251_);" d="M97.1,74.8l11.2-63.9
		c0.3-1.5-0.8-3-2.3-3.2c-7.6-1-15.4-1-23.2,0C81.1,8,80,9.4,80.3,11l11.3,63.9C92.2,77.9,96.5,77.9,97.1,74.8z"/>
	
		<radialGradient id="SVGID_00000111890609313801848500000000186415897373204897_" cx="98.7255" cy="113.2228" r="57.4049" gradientTransform="matrix(1 0 0 -1 0 192)" gradientUnits="userSpaceOnUse">
		<stop  offset="0" style="stop-color:#7B287F"/>
		<stop  offset="1" style="stop-color:#C83ECC"/>
	</radialGradient>
	<path style="fill:url(#SVGID_00000111890609313801848500000000186415897373204897_);" d="M134.9,16.9C128,13.4,120.7,10.7,113,9
		c-1.5-0.3-3,0.7-3.3,2.2L98.5,75.1c-0.5,3,3.6,4.5,5.1,1.8L136,20.8C136.8,19.4,136.2,17.7,134.9,16.9z"/>
	
		<radialGradient id="SVGID_00000142154588535004777560000008900843517143469484_" cx="109.1294" cy="105.2984" r="63.133" gradientTransform="matrix(1 0 0 -1 0 192)" gradientUnits="userSpaceOnUse">
		<stop  offset="0" style="stop-color:#CC7400"/>
		<stop  offset="1" style="stop-color:#F2A41C"/>
	</radialGradient>
	<path style="fill:url(#SVGID_00000142154588535004777560000008900843517143469484_);" d="M175.3,61.1c-3-7.3-6.9-14-11.7-20.1
		c-1-1.2-2.8-1.4-4-0.4L110,82.3c-2.4,2-0.2,5.8,2.7,4.7l60.9-22.2C175.1,64.2,175.9,62.5,175.3,61.1z"/>
	
		<radialGradient id="SVGID_00000142880661268662857140000003542609477022836130_" cx="109.2781" cy="90.1763" r="67.7658" gradientTransform="matrix(1 0 0 -1 0 192)" gradientUnits="userSpaceOnUse">
		<stop  offset="0" style="stop-color:#582099"/>
		<stop  offset="1" style="stop-color:#7D33E5"/>
	</radialGradient>
	<path style="fill:url(#SVGID_00000142880661268662857140000003542609477022836130_);" d="M110.1,106.7l49.7,41.6c1.2,1,3,0.8,4-0.4
		c4.7-6.1,8.6-12.9,11.6-20.1c0.6-1.4-0.1-3.1-1.6-3.7L112.8,102C109.9,100.9,107.7,104.7,110.1,106.7z"/>
	
		<radialGradient id="SVGID_00000175314650624351726000000001042393002101384588_" cx="111.6964" cy="112.2007" r="70.0781" gradientTransform="matrix(1 0 0 -1 0 192)" gradientUnits="userSpaceOnUse">
		<stop  offset="0" style="stop-color:#007F12"/>
		<stop  offset="1" style="stop-color:#00BF1B"/>
	</radialGradient>
	<path style="fill:url(#SVGID_00000175314650624351726000000001042393002101384588_);" d="M179.1,93.7c1.6,0,2.8-1.3,2.8-2.9
		c-0.2-3.8-0.6-7.7-1.3-11.6c-0.7-3.9-1.6-7.7-2.8-11.3c-0.5-1.5-2.1-2.3-3.6-1.8l-60.9,22.2c-2.9,1.1-2.1,5.3,0.9,5.3L179.1,93.7z"
		/>
	
		<radialGradient id="SVGID_00000147212352469294626950000010333983247819775413_" cx="111.332" cy="97.1146" r="69.231" gradientTransform="matrix(1 0 0 -1 0 192)" gradientUnits="userSpaceOnUse">
		<stop  offset="0" style="stop-color:#105B99"/>
		<stop  offset="1" style="stop-color:#1C9CF2"/>
	</radialGradient>
	<path style="fill:url(#SVGID_00000147212352469294626950000010333983247819775413_);" d="M113.3,100.6l61,22.1
		c1.5,0.5,3.1-0.3,3.6-1.8c2.3-7.3,3.7-15,4-22.9c0.1-1.6-1.2-2.9-2.8-2.9l-64.9,0.1C111.1,95.2,110.4,99.5,113.3,100.6z"/>
	
		<radialGradient id="SVGID_00000074435889539090946660000006335086935134530488_" cx="79.4489" cy="104.9543" r="69.2785" gradientTransform="matrix(1 0 0 -1 0 192)" gradientUnits="userSpaceOnUse">
		<stop  offset="0" style="stop-color:#CC7400"/>
		<stop  offset="1" style="stop-color:#F2A41C"/>
	</radialGradient>
	<path style="fill:url(#SVGID_00000074435889539090946660000006335086935134530488_);" d="M78.7,82.3L29,40.7c-1.2-1-3-0.8-4,0.4
		c-4.7,6.2-8.6,12.9-11.6,20.1c-0.6,1.5,0.1,3.1,1.6,3.7L76,87C78.9,88.1,81,84.3,78.7,82.3z"/>
	
		<radialGradient id="SVGID_00000078735691937526496460000011451871861491538357_" cx="83.6012" cy="84.942" r="78.8002" gradientTransform="matrix(1 0 0 -1 0 192)" gradientUnits="userSpaceOnUse">
		<stop  offset="0" style="stop-color:#105B99"/>
		<stop  offset="1" style="stop-color:#1C9CF2"/>
	</radialGradient>
	<path style="fill:url(#SVGID_00000078735691937526496460000011451871861491538357_);" d="M79.7,107.8L30,149.6
		c-1.2,1-1.3,2.8-0.3,4c5.3,5.7,11.3,10.8,17.8,14.9c1.3,0.8,3.1,0.4,3.9-0.9l32.3-56.2C85.3,108.7,82,105.8,79.7,107.8z"/>
	
		<radialGradient id="SVGID_00000125589872059233113690000007109076111848028035_" cx="77.0354" cy="98.257" r="66.6496" gradientTransform="matrix(1 0 0 -1 0 192)" gradientUnits="userSpaceOnUse">
		<stop  offset="0" style="stop-color:#992E2E"/>
		<stop  offset="1" style="stop-color:#F24C4C"/>
	</radialGradient>
	<path style="fill:url(#SVGID_00000125589872059233113690000007109076111848028035_);" d="M75.4,88.4L14.5,66.3
		c-1.5-0.5-3.1,0.3-3.6,1.8c-2.3,7.3-3.7,15-4,22.9c-0.1,1.6,1.2,2.9,2.8,2.9l64.9-0.1C77.6,93.8,78.3,89.5,75.4,88.4z"/>
	
		<radialGradient id="SVGID_00000131343943169892214280000000390467408907510938_" cx="108.3693" cy="79.6342" r="66.8792" gradientTransform="matrix(1 0 0 -1 0 192)" gradientUnits="userSpaceOnUse">
		<stop  offset="0" style="stop-color:#CC7400"/>
		<stop  offset="1" style="stop-color:#F2A41C"/>
	</radialGradient>
	<path style="fill:url(#SVGID_00000131343943169892214280000000390467408907510938_);" d="M91.7,114.2l-11.2,63.9
		c-0.3,1.5,0.8,3,2.3,3.2c7.6,1,15.4,1,23.2,0c1.6-0.2,2.6-1.7,2.3-3.2l-11.3-63.9C96.6,111.1,92.2,111.1,91.7,114.2z"/>
	
		<radialGradient id="SVGID_00000085934114429662122180000008495025108913437589_" cx="104.6404" cy="85.1638" r="68.2381" gradientTransform="matrix(1 0 0 -1 0 192)" gradientUnits="userSpaceOnUse">
		<stop  offset="0" style="stop-color:#7B287F"/>
		<stop  offset="1" style="stop-color:#C83ECC"/>
	</radialGradient>
	<path style="fill:url(#SVGID_00000085934114429662122180000008495025108913437589_);" d="M104.9,111.3l32.5,56.1
		c0.8,1.4,2.6,1.8,3.9,0.9c6.6-4.2,12.6-9.3,17.8-15c1.1-1.2,0.9-3-0.3-4l-49.7-41.6C106.7,105.8,103.4,108.6,104.9,111.3z"/>
	
		<radialGradient id="SVGID_00000113320202656069171960000016131167237962726577_" cx="90.0813" cy="113.9075" r="73.5921" gradientTransform="matrix(1 0 0 -1 0 192)" gradientUnits="userSpaceOnUse">
		<stop  offset="0" style="stop-color:#105B99"/>
		<stop  offset="1" style="stop-color:#1C9CF2"/>
	</radialGradient>
	<path style="fill:url(#SVGID_00000113320202656069171960000016131167237962726577_);" d="M90.2,75.1L78.8,11.2
		c-0.3-1.5-1.8-2.6-3.3-2.2c-7.8,1.7-15.1,4.4-21.8,8c-1.4,0.7-1.9,2.5-1.1,3.8l32.5,56.1C86.6,79.6,90.7,78.1,90.2,75.1z"/>
	
		<radialGradient id="SVGID_00000070116468375902610580000002211632550543906461_" cx="83.9847" cy="110.3611" r="70.8136" gradientTransform="matrix(1 0 0 -1 0 192)" gradientUnits="userSpaceOnUse">
		<stop  offset="0" style="stop-color:#007F12"/>
		<stop  offset="1" style="stop-color:#00BF1B"/>
	</radialGradient>
	<path style="fill:url(#SVGID_00000070116468375902610580000002211632550543906461_);" d="M83.8,77.7L51.3,21.6
		c-0.8-1.4-2.5-1.8-3.9-0.9c-6.6,4.2-12.6,9.3-17.8,15c-1,1.2-0.9,3,0.3,4l49.7,41.6C82,83.2,85.3,80.4,83.8,77.7z"/>
	
		<radialGradient id="SVGID_00000114033041589370594030000016017671303393410473_" cx="77.5016" cy="83.1774" r="77.4179" gradientTransform="matrix(1 0 0 -1 0 192)" gradientUnits="userSpaceOnUse">
		<stop  offset="0" style="stop-color:#7B287F"/>
		<stop  offset="1" style="stop-color:#C83ECC"/>
	</radialGradient>
	<path style="fill:url(#SVGID_00000114033041589370594030000016017671303393410473_);" d="M9.7,95.3c-1.6,0-2.8,1.3-2.8,2.9
		c0.2,3.8,0.6,7.7,1.3,11.6c0.7,3.9,1.6,7.7,2.8,11.3c0.5,1.5,2.1,2.3,3.6,1.8l60.9-22.2c2.9-1.1,2.1-5.3-0.9-5.3L9.7,95.3z"/>
	
		<radialGradient id="SVGID_00000079449731935780045610000015159135826460836025_" cx="79.9042" cy="89.9379" r="92.5834" gradientTransform="matrix(1 0 0 -1 0 192)" gradientUnits="userSpaceOnUse">
		<stop  offset="0" style="stop-color:#582099"/>
		<stop  offset="1" style="stop-color:#7D33E5"/>
	</radialGradient>
	<path style="fill:url(#SVGID_00000079449731935780045610000015159135826460836025_);" d="M13.4,127.9c3,7.3,6.9,14,11.7,20.1
		c1,1.2,2.8,1.4,4,0.4l49.6-41.7c2.4-2,0.2-5.8-2.7-4.7l-60.9,22.2C13.6,124.8,12.9,126.4,13.4,127.9z"/>
</g>
<ellipse class="st0" cx="94.4" cy="94.5" rx="30.2" ry="30.2"/>
<g>
	
		<linearGradient id="SVGID_00000018218964322482014590000016096527664446348948_" gradientUnits="userSpaceOnUse" x1="94.36" y1="124.8626" x2="94.36" y2="70.4503" gradientTransform="matrix(1 0 0 -1 0 192)">
		<stop  offset="0" style="stop-color:#FFC033"/>
		<stop  offset="1" style="stop-color:#E5962E"/>
	</linearGradient>
	<circle style="fill:url(#SVGID_00000018218964322482014590000016096527664446348948_);" cx="94.4" cy="94.5" r="28.6"/>
	<ellipse class="st20" cx="94.4" cy="94.5" rx="23.9" ry="23.9"/>
	
		<linearGradient id="SVGID_00000152247762701691192370000004225894471485393075_" gradientUnits="userSpaceOnUse" x1="94.36" y1="-335.8551" x2="94.36" y2="-380.6074" gradientTransform="matrix(1 0 0 1 0 452.86)">
		<stop  offset="0" style="stop-color:#FFC033"/>
		<stop  offset="1" style="stop-color:#E5962E"/>
	</linearGradient>
	<circle style="fill:url(#SVGID_00000152247762701691192370000004225894471485393075_);" cx="94.4" cy="94.5" r="23.6"/>
</g>
<g>
	<path class="st22" d="M80.7,90.7c-0.5,0-0.9,0.2-0.9,0.6c0,1.5,5.5,0.6,5.5,4.4c0,2.2-2,3.3-4.3,3.3c-1.8,0-3.7-0.6-5-1.7l1.2-2.4
		c1.1,0.9,2.8,1.6,3.9,1.6c0.7,0,1.1-0.2,1.1-0.7c0-1.6-5.5-0.6-5.5-4.3c0-2,1.7-3.3,4.3-3.3c1.6,0,3.2,0.5,4.4,1.2l-1.2,2.4
		C83.1,91.2,81.5,90.7,80.7,90.7z"/>
	<path class="st22" d="M95.4,92.1c0,2.5-1.6,3.9-4.3,3.9h-1.6v2.8h-3.1V88.4h4.8C93.8,88.4,95.4,89.7,95.4,92.1z M92.4,92.2
		c0-0.9-0.5-1.4-1.5-1.4h-1.5v2.9H91C91.9,93.7,92.4,93.1,92.4,92.2z"/>
	<path class="st22" d="M99.7,88.4v10.5h-3.1V88.4H99.7z"/>
	<path class="st22" d="M104.1,88.4l4.4,5.9v-5.9h2.8v10.5h-2.6l-4.4-5.8v5.8h-2.8V88.4H104.1z"/>
</g>
<g>
	<g>
		<g>
			<path class="st22" d="M48.7,101l1-0.2l0.7,4.1l1.3-0.2l0.2,0.9l-3.7,0.7l-0.2-0.9l1.3-0.2L48.7,101z"/>
			<path class="st22" d="M45.9,103.5l-0.3-1.9l1-0.2l0.9,4.9l-1.4,0.2c-0.7,0.1-1.2,0.1-1.5-0.1c-0.4-0.2-0.6-0.5-0.7-1
				c0-0.3,0-0.6,0.1-0.8s0.3-0.5,0.6-0.7l-1.8-1.9l1.2-0.2l1.5,1.7L45.9,103.5z M46,104.3l-0.3,0.1c-0.3,0.1-0.6,0.2-0.7,0.3
				c-0.1,0.1-0.2,0.3-0.1,0.6c0,0.2,0.2,0.4,0.3,0.5c0.2,0.1,0.4,0.1,0.8,0l0.3-0.1L46,104.3z"/>
			<path class="st22" d="M41,105.4l-0.7,2.2l-1.1,0.2l1.1-3.3l-0.3-1.9l1-0.2l0.3,1.9l2.2,2.8l-1.1,0.2L41,105.4z"/>
			<path class="st22" d="M32.9,103.8l0.6,1.1l1.8-0.3l0.2-1.2l1.1-0.2l-0.9,5.2l-1.3,0.2l-2.6-4.6L32.9,103.8z M33.9,105.8
				c0.5,1,0.8,1.6,0.9,1.7s0.1,0.2,0.2,0.3c0-0.3,0.1-1.1,0.3-2.2L33.9,105.8z"/>
			<path class="st22" d="M29.9,107.2l-2,0.3l-0.5-2.6c0.3-0.2,0.6-0.3,0.9-0.4c0.3-0.1,0.5-0.2,0.8-0.2c0.7-0.1,1.4,0,1.8,0.3
				s0.8,1,0.9,1.8c0.1,0.8,0,1.4-0.4,2c-0.4,0.5-1,0.9-1.8,1c-0.5,0.1-1,0.1-1.5,0l0.2-0.9c0.4,0.1,0.8,0.1,1.2,0.1
				c0.5-0.1,0.8-0.3,1-0.7c0.2-0.3,0.3-0.8,0.2-1.3c-0.1-0.5-0.3-0.9-0.5-1.2c-0.3-0.2-0.6-0.3-1-0.2c-0.2,0-0.4,0.1-0.6,0.2l0.2,1
				l0.9-0.2L29.9,107.2z"/>
			<path class="st22" d="M23.2,105.6l0.6,1.1l1.8-0.3l0.1-1.2l1.1-0.2l-0.9,5.2l-1.3,0.2l-2.6-4.6L23.2,105.6z M24.2,107.5
				c0.5,1,0.8,1.6,0.9,1.7s0.1,0.2,0.1,0.3c0-0.3,0.1-1.1,0.3-2.2L24.2,107.5z"/>
			<path class="st22" d="M19.7,106.2l2.2-0.4l0.1,0.6l-0.5,0.4l0.6,3.2l0.6,0.2l0.1,0.6l-2.2,0.4l-0.1-0.6l0.5-0.4l-0.6-3.2
				l-0.6-0.2L19.7,106.2z"/>
			<path class="st22" d="M14.4,107.1l1.3-0.2l2.8,3.3h0c-0.2-0.7-0.3-1.1-0.3-1.4l-0.4-2.3l0.9-0.2l0.9,4.9l-1.3,0.2l-2.8-3.3h0
				c0.1,0.6,0.2,1.1,0.3,1.3l0.4,2.3l-0.9,0.2L14.4,107.1z"/>
		</g>
	</g>
	<g>
		<g>
			<path class="st22" d="M67.2,128.2c-0.1,0.1-0.2,0.2-0.4,0.3c-0.2,0.1-0.3,0.1-0.5,0.1c-0.2,0-0.3,0-0.5-0.1s-0.3-0.1-0.5-0.3
				c-0.2-0.1-0.3-0.3-0.4-0.5c-0.1-0.2-0.2-0.4-0.2-0.6c0-0.2,0-0.4,0.1-0.6s0.2-0.4,0.4-0.6c0.1-0.1,0.1-0.2,0.2-0.2
				s0.2-0.1,0.2-0.2s0.2-0.1,0.2-0.2c0.1-0.1,0.2-0.1,0.2-0.1l0.6,0.5c-0.1,0-0.2,0.1-0.2,0.1c-0.1,0.1-0.2,0.1-0.2,0.2
				c-0.1,0.1-0.2,0.1-0.2,0.2c-0.1,0.1-0.1,0.1-0.2,0.2c-0.2,0.2-0.3,0.4-0.3,0.6c0,0.2,0.1,0.3,0.3,0.5c0.2,0.1,0.3,0.2,0.5,0.2
				s0.3-0.2,0.5-0.4c0,0,0.1-0.1,0.1-0.1c0-0.1,0.1-0.1,0.1-0.2s0.1-0.1,0.1-0.1c0-0.1,0-0.1,0.1-0.1l0.4-0.2l1.6,1.5l-1.5,1.7
				l-0.6-0.5l0.9-1.1l-0.6-0.6c0,0.1-0.1,0.1-0.1,0.2C67.4,128,67.3,128.1,67.2,128.2z"/>
			<path class="st22" d="M63.8,131.4c-0.3-0.2-0.5-0.4-0.7-0.7c-0.2-0.2-0.3-0.4-0.4-0.6s-0.1-0.4,0-0.6s0.2-0.4,0.3-0.6
				c0.2-0.2,0.3-0.3,0.5-0.4s0.4-0.1,0.6-0.1c0.2,0,0.5,0.1,0.7,0.2c0.2,0.1,0.5,0.3,0.8,0.5s0.5,0.4,0.7,0.7
				c0.2,0.2,0.3,0.4,0.4,0.6s0.1,0.4,0,0.6s-0.2,0.4-0.3,0.6c-0.2,0.2-0.3,0.3-0.5,0.4c-0.2,0.1-0.4,0.1-0.6,0.1
				c-0.2,0-0.5-0.1-0.7-0.2C64.3,131.8,64,131.6,63.8,131.4z M65.1,129.8c-0.4-0.3-0.7-0.5-0.9-0.6c-0.2-0.1-0.4-0.1-0.6,0.1
				c-0.1,0.2-0.1,0.3,0,0.6s0.4,0.5,0.8,0.8c0.4,0.3,0.7,0.5,0.9,0.6s0.4,0.1,0.6-0.1c0.1-0.1,0.1-0.2,0.1-0.3s0-0.2-0.1-0.3
				s-0.2-0.2-0.3-0.4C65.4,130.1,65.2,129.9,65.1,129.8z"/>
			<path class="st22" d="M60.1,132.4l0.6-0.7l3.3,2.8l-1.6,1.9l-0.6-0.5l1-1.2l-0.8-0.7l-0.9,1.1l-0.6-0.5l0.9-1.1L60.1,132.4z"/>
			<path class="st22" d="M59.2,136l-1.2-1.1l0.6-0.7l3.3,2.8l-0.8,0.9c-0.4,0.4-0.7,0.7-1.1,0.8s-0.7,0-1-0.3
				c-0.2-0.2-0.3-0.4-0.4-0.6s0-0.5,0-0.8l-2.2-0.2l0.7-0.8l1.9,0.3L59.2,136z M59.7,136.4l-0.2,0.2c-0.2,0.2-0.3,0.4-0.3,0.6
				c0,0.2,0,0.3,0.2,0.4c0.2,0.1,0.3,0.2,0.5,0.1s0.3-0.2,0.5-0.4l0.2-0.2L59.7,136.4z"/>
			<path class="st22" d="M54.4,139.1l1.6-1.9l3.3,2.8l-1.6,1.9l-0.6-0.5l1-1.2l-0.7-0.6l-0.9,1.1l-0.6-0.5l0.9-1.1l-0.8-0.7l-1,1.2
				L54.4,139.1z"/>
			<path class="st22" d="M52.2,141.7l1.6-1.9l3.3,2.8l-1.6,1.9l-0.6-0.5l1-1.2l-0.7-0.6l-0.9,1.1l-0.6-0.5l0.9-1.1l-0.8-0.7l-1,1.2
				L52.2,141.7z"/>
			<path class="st22" d="M49.9,146.3c-0.3-0.2-0.4-0.6-0.4-0.9s0.2-0.7,0.5-1.1c0.3-0.4,0.6-0.6,1-0.8l0.6,0.5
				c-0.3,0.1-0.5,0.3-0.7,0.4c-0.2,0.1-0.3,0.2-0.4,0.4c-0.1,0.1-0.2,0.3-0.2,0.4s0,0.2,0.2,0.3c0.1,0.1,0.1,0.1,0.2,0.1
				c0.1,0,0.2,0,0.3,0c0.1,0,0.3-0.1,0.6-0.2c0.3-0.1,0.5-0.2,0.7-0.2c0.2,0,0.3,0,0.5,0c0.2,0,0.3,0.1,0.5,0.2
				c0.3,0.2,0.4,0.5,0.4,0.9c0,0.3-0.2,0.7-0.4,1c-0.1,0.2-0.3,0.3-0.5,0.4s-0.4,0.2-0.6,0.3l-0.3-0.7c0.2-0.1,0.4-0.2,0.5-0.3
				s0.2-0.2,0.3-0.3c0.1-0.1,0.2-0.3,0.2-0.4c0-0.1,0-0.2-0.2-0.3c-0.1-0.1-0.1-0.1-0.2-0.1s-0.2,0-0.2,0c-0.1,0-0.3,0.1-0.6,0.2
				c-0.4,0.2-0.7,0.3-1,0.3C50.3,146.5,50.1,146.4,49.9,146.3z"/>
			<path class="st22" d="M48.8,150.2c-0.3-0.3-0.5-0.6-0.5-1c0-0.4,0.2-0.8,0.5-1.2l0.2-0.3l-1.2-1l0.6-0.7l3.3,2.8l-0.9,1
				c-0.3,0.4-0.7,0.6-1,0.7C49.5,150.6,49.2,150.5,48.8,150.2z M49.6,148.2l-0.2,0.2c-0.2,0.2-0.3,0.4-0.3,0.6s0.1,0.3,0.2,0.5
				s0.3,0.2,0.5,0.2s0.3-0.1,0.5-0.3l0.3-0.3L49.6,148.2z"/>
			<path class="st22" d="M45,150.2l1.3-1.5l0.4,0.3l-0.2,0.6l2.1,1.8l0.5-0.2l0.4,0.3l-1.3,1.5l-0.4-0.3l0.2-0.6l-2.1-1.8l-0.5,0.2
				L45,150.2z"/>
			<path class="st22" d="M42.1,153.6l0.8-0.9l3.7,0.7l0,0c-0.5-0.3-0.8-0.6-1-0.8l-1.5-1.3l0.5-0.6l3.3,2.8l-0.7,0.9l-3.7-0.6l0,0
				c0.4,0.3,0.8,0.6,0.9,0.7l1.5,1.3l-0.5,0.6L42.1,153.6z"/>
			<path class="st22" d="M40.7,157.2c-0.3-0.2-0.4-0.6-0.4-0.9s0.2-0.7,0.5-1.1c0.3-0.4,0.6-0.6,1-0.8l0.6,0.5
				c-0.3,0.1-0.5,0.3-0.7,0.4c-0.2,0.1-0.3,0.2-0.4,0.4c-0.1,0.1-0.2,0.3-0.2,0.4s0,0.2,0.2,0.3c0.1,0.1,0.1,0.1,0.2,0.1
				c0.1,0,0.2,0,0.3,0c0.1,0,0.3-0.1,0.6-0.2c0.3-0.1,0.5-0.2,0.7-0.2c0.2,0,0.3,0,0.5,0c0.2,0,0.3,0.1,0.5,0.2
				c0.3,0.2,0.4,0.5,0.4,0.9c0,0.3-0.2,0.7-0.4,1c-0.1,0.2-0.3,0.3-0.5,0.4s-0.4,0.2-0.6,0.3l-0.3-0.7c0.2-0.1,0.4-0.2,0.5-0.3
				c0.1-0.1,0.2-0.2,0.3-0.3c0.1-0.1,0.2-0.3,0.2-0.4c0-0.1,0-0.2-0.2-0.3c-0.1-0.1-0.1-0.1-0.2-0.1s-0.2,0-0.2,0
				c-0.1,0-0.3,0.1-0.6,0.2c-0.4,0.2-0.7,0.3-1,0.3C41.1,157.4,40.9,157.4,40.7,157.2z"/>
		</g>
	</g>
	<g>
		<g>
			<path class="st22" d="M78.9,130.9l0.8-2.2l0.5,0.2l0.6,1.1c0.1,0.1,0.1,0.3,0.2,0.4c0.1,0.1,0.1,0.2,0.2,0.3s0.1,0.2,0.2,0.2
				s0.2,0.1,0.3,0.2c0.1,0,0.2,0,0.3,0c0.1,0,0.2-0.1,0.2-0.2c0.1-0.1,0.1-0.2,0-0.4s-0.1-0.3-0.1-0.4l0.6-0.2
				c0,0.1,0.1,0.2,0.1,0.3c0,0.1,0.1,0.2,0.1,0.3c0,0.1,0,0.2,0,0.3c0,0.1-0.1,0.2-0.1,0.4c-0.1,0.2-0.1,0.3-0.2,0.4
				c-0.1,0.1-0.2,0.2-0.3,0.2c-0.1,0.1-0.2,0.1-0.4,0.1c-0.1,0-0.3,0-0.4-0.1c-0.1-0.1-0.2-0.1-0.3-0.2c-0.1-0.1-0.2-0.2-0.3-0.3
				c-0.1-0.1-0.2-0.3-0.2-0.4c-0.1-0.1-0.2-0.3-0.2-0.5l-0.2-0.6l0,0l-0.5,1.4L78.9,130.9z"/>
			<path class="st22" d="M80.4,133.2c-0.1,0.1-0.1,0.3-0.2,0.4s-0.2,0.2-0.3,0.2s-0.2,0.1-0.4,0.1s-0.3,0-0.5-0.1
				c-0.2-0.1-0.3-0.2-0.4-0.3c-0.1-0.1-0.2-0.2-0.3-0.4s-0.1-0.3-0.1-0.5c0-0.2,0.1-0.4,0.1-0.6c0-0.1,0.1-0.2,0.1-0.2
				c0-0.1,0.1-0.1,0.1-0.2s0.1-0.1,0.1-0.2s0.1-0.1,0.2-0.1l0.6,0.2c-0.1,0-0.1,0.1-0.2,0.1c-0.1,0.1-0.1,0.1-0.2,0.2
				S79.1,132,79,132s-0.1,0.1-0.1,0.2c-0.1,0.2-0.1,0.4-0.1,0.5c0,0.1,0.2,0.2,0.3,0.3c0.2,0.1,0.3,0.1,0.4,0s0.2-0.2,0.3-0.4
				c0,0,0-0.1,0-0.1s0-0.1,0-0.1s0-0.1,0-0.1c0,0,0-0.1,0-0.1l0.3-0.2l1.7,0.8l-0.7,1.8l-0.6-0.2l0.4-1.1l-0.6-0.3
				c0,0.1,0,0.1,0,0.2C80.5,133,80.5,133.1,80.4,133.2z"/>
			<path class="st22" d="M78.6,136.6c-0.3-0.1-0.5-0.2-0.7-0.3s-0.3-0.3-0.5-0.4s-0.2-0.3-0.2-0.5c0-0.2,0-0.4,0.1-0.6
				c0.1-0.2,0.2-0.4,0.3-0.5s0.3-0.2,0.5-0.2s0.4,0,0.6,0c0.2,0,0.5,0.1,0.8,0.2c0.3,0.1,0.5,0.2,0.7,0.3c0.2,0.1,0.3,0.3,0.5,0.4
				c0.1,0.1,0.2,0.3,0.2,0.5s0,0.4-0.1,0.6c-0.1,0.2-0.2,0.3-0.3,0.5c-0.1,0.1-0.3,0.2-0.5,0.2s-0.4,0-0.6,0
				C79.1,136.8,78.8,136.7,78.6,136.6z M79.2,135.1c-0.4-0.1-0.7-0.2-0.9-0.2s-0.4,0.1-0.4,0.2c-0.1,0.2,0,0.3,0.2,0.4
				c0.2,0.1,0.4,0.3,0.8,0.4c0.4,0.1,0.7,0.2,0.9,0.2s0.4-0.1,0.4-0.2c0-0.1,0-0.2,0-0.2s-0.1-0.1-0.2-0.2c-0.1-0.1-0.2-0.1-0.3-0.2
				C79.5,135.2,79.4,135.1,79.2,135.1z"/>
			<path class="st22" d="M79.6,139.1l-0.4,1c-0.2,0.5-0.4,0.8-0.6,0.9c-0.2,0.2-0.5,0.2-0.8,0.1c-0.2-0.1-0.3-0.2-0.4-0.3
				c-0.1-0.1-0.1-0.3-0.1-0.5l0,0c-0.1,0.2-0.3,0.3-0.4,0.4c-0.2,0-0.3,0-0.6-0.1c-0.3-0.1-0.5-0.3-0.6-0.6c-0.1-0.3-0.1-0.6,0.1-1
				l0.5-1.2L79.6,139.1z M77.4,139l-0.9-0.3l-0.2,0.5c-0.1,0.2-0.1,0.4-0.1,0.5s0.1,0.2,0.3,0.3c0.3,0.1,0.5,0,0.6-0.4L77.4,139z
				 M78,139.2l-0.2,0.4c-0.1,0.2-0.1,0.3-0.1,0.4s0.1,0.2,0.2,0.2c0.1,0.1,0.2,0,0.3,0c0.1-0.1,0.2-0.2,0.2-0.4l0.1-0.4L78,139.2z"
				/>
			<path class="st22" d="M74.6,142.2l0.6-1.5l0.4,0.1l0,0.5l2.2,0.8l0.3-0.3l0.4,0.1l-0.6,1.5l-0.4-0.1l0-0.5l-2.2-0.8l-0.3,0.3
				L74.6,142.2z"/>
			<path class="st22" d="M73.8,144l0.3-0.7l2.8,1.1l0.3-0.9l0.6,0.2l-1,2.5l-0.6-0.2l0.3-0.9L73.8,144z"/>
			<path class="st22" d="M73.5,147.8c-0.3-0.1-0.5-0.3-0.6-0.6c-0.1-0.3-0.1-0.6,0.1-1c0.1-0.4,0.3-0.6,0.6-0.9l0.7,0.2
				c-0.2,0.2-0.3,0.4-0.4,0.5s-0.2,0.3-0.2,0.4c-0.1,0.1-0.1,0.3-0.1,0.4c0,0.1,0.1,0.2,0.2,0.2c0.1,0,0.1,0,0.2,0
				c0.1,0,0.1-0.1,0.2-0.1c0.1-0.1,0.2-0.2,0.4-0.4c0.2-0.2,0.3-0.3,0.4-0.4c0.1-0.1,0.3-0.1,0.4-0.1s0.3,0,0.4,0.1
				c0.3,0.1,0.5,0.3,0.6,0.6c0.1,0.3,0.1,0.6-0.1,0.9c-0.1,0.2-0.2,0.3-0.2,0.5s-0.2,0.3-0.4,0.4l-0.5-0.4c0.1-0.1,0.2-0.3,0.3-0.4
				s0.1-0.2,0.2-0.3c0.1-0.1,0.1-0.2,0-0.3c0-0.1-0.1-0.2-0.2-0.2c-0.1,0-0.1,0-0.2,0s-0.1,0-0.2,0.1s-0.2,0.2-0.4,0.4
				c-0.3,0.2-0.5,0.4-0.7,0.5C73.9,147.9,73.7,147.8,73.5,147.8z"/>
			<path class="st22" d="M72.3,148l3.3,1.3l-0.3,0.7l-2.8-1.1l-0.5,1.4l-0.6-0.2L72.3,148z"/>
			<path class="st22" d="M70.6,152.6l0.7-1.9l3.3,1.3l-0.7,1.9l-0.6-0.2l0.5-1.2l-0.7-0.3l-0.4,1.1L72,153l0.4-1.1l-0.9-0.3
				l-0.5,1.2L70.6,152.6z"/>
			<path class="st22" d="M71.3,154.5L70,154l0.3-0.7l3.3,1.3l-0.4,1c-0.2,0.4-0.4,0.8-0.6,0.9c-0.2,0.1-0.5,0.2-0.9,0
				c-0.2-0.1-0.3-0.2-0.5-0.4c-0.1-0.2-0.2-0.4-0.2-0.6l-1.8,0.4l0.3-0.8l1.6-0.3L71.3,154.5z M71.9,154.7l-0.1,0.2
				c-0.1,0.2-0.1,0.4-0.1,0.5s0.1,0.2,0.3,0.3s0.3,0.1,0.4,0s0.2-0.2,0.3-0.5l0.1-0.2L71.9,154.7z"/>
			<path class="st22" d="M70.9,160.1c0.1-0.3,0.1-0.5-0.1-0.7s-0.4-0.4-0.8-0.5c-0.7-0.3-1.2-0.1-1.4,0.4c-0.1,0.2-0.1,0.5-0.2,0.9
				l-0.6-0.2c0-0.3,0.1-0.6,0.2-1c0.2-0.5,0.5-0.8,0.9-0.9c0.4-0.1,0.9-0.1,1.4,0.1c0.3,0.1,0.6,0.3,0.8,0.5s0.3,0.5,0.4,0.8
				c0.1,0.3,0,0.6-0.1,0.9s-0.3,0.6-0.6,0.9l-0.5-0.4c0.1-0.1,0.2-0.2,0.3-0.3C70.8,160.3,70.9,160.2,70.9,160.1z"/>
			<path class="st22" d="M68.1,164.2c-0.6-0.2-0.9-0.5-1.1-0.9c-0.2-0.4-0.2-0.8,0-1.4c0.2-0.5,0.5-0.9,0.9-1
				c0.4-0.2,0.9-0.1,1.4,0.1s0.9,0.5,1.1,0.9c0.2,0.4,0.2,0.8,0,1.4c-0.2,0.5-0.5,0.9-0.9,1C69.1,164.4,68.6,164.4,68.1,164.2z
				 M69,161.7c-0.4-0.1-0.7-0.2-0.9-0.1c-0.2,0.1-0.4,0.2-0.5,0.5c-0.2,0.6,0.1,1,0.8,1.3s1.2,0.1,1.4-0.4c0.1-0.3,0.1-0.5,0-0.8
				C69.6,162.1,69.4,161.9,69,161.7z"/>
			<path class="st22" d="M65.7,165.5l0.6-1.5l0.4,0.1l0,0.5l2.2,0.8l0.3-0.3l0.4,0.1l-0.6,1.5l-0.4-0.1l0-0.5l-2.2-0.8l-0.3,0.3
				L65.7,165.5z"/>
			<path class="st22" d="M64.3,169l0.3-0.9l3.1-0.5l0,0c-0.5-0.1-0.8-0.2-1-0.3l-1.6-0.6l0.2-0.6l3.3,1.3l-0.3,0.9l-3.1,0.5l0,0
				c0.4,0.1,0.8,0.2,0.9,0.3l1.6,0.6l-0.2,0.6L64.3,169z"/>
			<path class="st22" d="M64.2,172.1c-0.3-0.1-0.5-0.3-0.6-0.6c-0.1-0.3-0.1-0.6,0.1-1c0.1-0.4,0.3-0.6,0.6-0.9l0.7,0.2
				c-0.2,0.2-0.3,0.4-0.4,0.5s-0.2,0.3-0.2,0.4c-0.1,0.2-0.1,0.3-0.1,0.4s0.1,0.2,0.2,0.2c0.1,0,0.1,0,0.2,0c0.1,0,0.1-0.1,0.2-0.1
				c0.1-0.1,0.2-0.2,0.4-0.4c0.2-0.2,0.3-0.3,0.4-0.4c0.1-0.1,0.3-0.1,0.4-0.1s0.3,0,0.4,0.1c0.3,0.1,0.5,0.3,0.6,0.6
				c0.1,0.3,0.1,0.6-0.1,0.9c-0.1,0.2-0.2,0.3-0.2,0.5s-0.2,0.3-0.4,0.4l-0.5-0.4c0.1-0.1,0.2-0.3,0.3-0.4c0.1-0.1,0.1-0.2,0.2-0.3
				c0.1-0.1,0.1-0.2,0-0.3c0-0.1-0.1-0.2-0.2-0.2c-0.1,0-0.1,0-0.2,0s-0.1,0-0.2,0.1s-0.2,0.2-0.4,0.4c-0.3,0.2-0.5,0.4-0.7,0.5
				C64.6,172.2,64.4,172.2,64.2,172.1z"/>
		</g>
	</g>
	<g>
		<g>
			<path class="st22" d="M107.2,142.1c-0.1-0.3-0.2-0.5-0.2-0.7l0.9-0.3c0,0.2,0.1,0.4,0.1,0.6c0.1,0.2,0.2,0.4,0.4,0.4
				s0.5,0,0.8-0.1l5-1.8l0.4,1.1l-5,1.8c-0.6,0.2-1.2,0.3-1.6,0.1C107.8,143,107.4,142.6,107.2,142.1z"/>
			<path class="st22" d="M111.1,147.9l1.1-0.9l-0.7-2l-1.4,0.1l-0.4-1.2l6.1-0.1l0.5,1.4l-4.7,3.9L111.1,147.9z M113.1,146.4
				c1-0.8,1.6-1.2,1.8-1.3s0.2-0.2,0.3-0.2c-0.3,0-1.2,0.1-2.6,0.1L113.1,146.4z"/>
			<path class="st22" d="M117.1,150.3c-0.2-0.4-0.4-0.7-0.8-0.8c-0.4-0.1-0.9-0.1-1.5,0.1c-1.2,0.4-1.6,1.1-1.3,2
				c0.1,0.4,0.4,0.8,0.8,1.3l-1,0.3c-0.3-0.4-0.6-0.8-0.8-1.4c-0.3-0.8-0.3-1.5,0.1-2.1c0.3-0.6,0.9-1,1.8-1.4
				c0.6-0.2,1.1-0.3,1.6-0.2c0.5,0.1,0.9,0.2,1.3,0.5s0.6,0.7,0.8,1.2c0.2,0.5,0.2,1.1,0.2,1.7l-1.1,0c0-0.2,0-0.5,0-0.7
				C117.2,150.8,117.2,150.5,117.1,150.3z"/>
			<path class="st22" d="M115.1,158.8l-0.5-1.3l1.8-2.2l-0.5-0.4l-1.9,0.7l-0.4-1.1l5.4-1.9l0.4,1.1l-2.5,0.9l0.8,0.2l2.3,0.8
				l0.5,1.3l-3.1-1L115.1,158.8z"/>
			<path class="st22" d="M120.3,161.9c-0.6,0.2-1.1,0.2-1.5-0.1c-0.4-0.2-0.8-0.7-1-1.4l-0.2-0.5l-1.9,0.7l-0.4-1.1l5.4-1.9l0.6,1.7
				c0.2,0.6,0.3,1.2,0.1,1.6C121.2,161.3,120.9,161.6,120.3,161.9z M118.6,159.6l0.1,0.4c0.1,0.4,0.3,0.6,0.5,0.7
				c0.2,0.1,0.4,0.1,0.7,0s0.4-0.2,0.5-0.4c0.1-0.2,0.1-0.4-0.1-0.8l-0.2-0.5L118.6,159.6z"/>
			<path class="st22" d="M121.5,168.1c-0.9,0.3-1.7,0.4-2.3,0.1s-1.1-0.8-1.4-1.6c-0.3-0.8-0.3-1.5,0-2.1s0.9-1.1,1.8-1.4
				c0.9-0.3,1.7-0.4,2.3-0.1c0.6,0.3,1.1,0.8,1.4,1.6s0.3,1.5,0,2.1C122.9,167.3,122.3,167.8,121.5,168.1z M120,164.2
				c-0.6,0.2-1,0.5-1.2,0.8s-0.2,0.7-0.1,1.2c0.3,0.9,1.1,1.1,2.3,0.7c1.2-0.4,1.7-1.1,1.3-2c-0.2-0.4-0.4-0.7-0.8-0.9
				C121.1,163.9,120.6,164,120,164.2z"/>
			<path class="st22" d="M119.9,172.1l-0.4-1.1l4.4-1.6l-0.5-1.5l0.9-0.3l1.5,4.1l-0.9,0.3l-0.5-1.5L119.9,172.1z"/>
		</g>
	</g>
	<g>
		<g>
			<path class="st22" d="M123.1,128.4l1.3,1.5l-2,1.7c-0.3-0.2-0.5-0.4-0.8-0.6s-0.4-0.4-0.6-0.6c-0.5-0.6-0.7-1.2-0.6-1.8
				s0.4-1.2,1.1-1.7c0.6-0.5,1.2-0.8,1.9-0.7c0.6,0.1,1.2,0.4,1.8,1c0.3,0.4,0.6,0.8,0.7,1.3l-0.9,0.3c-0.1-0.4-0.3-0.8-0.5-1.1
				c-0.3-0.3-0.7-0.5-1.1-0.6c-0.4,0-0.8,0.2-1.2,0.5c-0.4,0.3-0.7,0.7-0.7,1s0,0.7,0.3,1c0.1,0.2,0.3,0.3,0.5,0.5l0.8-0.7l-0.6-0.7
				L123.1,128.4z"/>
			<path class="st22" d="M125,134.9l0.7-1l-1.2-1.4l-1.1,0.5l-0.7-0.9l5-1.9l0.8,1l-2.7,4.6L125,134.9z M126.2,133.1
				c0.6-0.9,1-1.5,1-1.6s0.2-0.2,0.2-0.3c-0.3,0.1-1,0.4-2.1,0.9L126.2,133.1z"/>
			<path class="st22" d="M126.1,136.3l3.8-3.2l0.7,0.8l-3.2,2.6l1.3,1.6l-0.7,0.6L126.1,136.3z"/>
			<path class="st22" d="M130.6,141.7l0.7-1l-1.2-1.4l-1.1,0.5l-0.7-0.9l5-1.9l0.8,1l-2.7,4.6L130.6,141.7z M131.8,139.9
				c0.6-0.9,1-1.5,1-1.6c0.1-0.1,0.1-0.2,0.2-0.3c-0.3,0.1-1,0.4-2.1,0.9L131.8,139.9z"/>
			<path class="st22" d="M134.4,146.1l-0.8-0.9l0.7-2.1l-2.2,0.3l-0.7-0.9l3-0.4l0.9-2.7l0.8,0.9l-0.7,2l2.1-0.3l0.7,0.9l-2.9,0.4
				L134.4,146.1z"/>
			<path class="st22" d="M138,145.9l2.2-0.5l0.7,0.9l-3.4,0.7l-1.5,1.2l-0.7-0.8l1.5-1.2l1.3-3.2l0.7,0.9L138,145.9z"/>
			<path class="st22" d="M141.7,152.7c-0.4,0.3-0.7,0.4-1.1,0.3s-0.8-0.3-1.2-0.8c-0.3-0.4-0.6-0.8-0.7-1.3l0.8-0.6
				c0.1,0.4,0.2,0.6,0.3,0.9c0.1,0.2,0.2,0.4,0.3,0.6c0.1,0.2,0.3,0.3,0.4,0.3c0.1,0,0.3,0,0.4-0.1c0.1-0.1,0.1-0.1,0.1-0.2
				s0-0.2,0-0.3c0-0.1-0.1-0.4-0.2-0.7c-0.1-0.3-0.1-0.6-0.1-0.8s0-0.4,0.1-0.6c0.1-0.2,0.2-0.4,0.4-0.5c0.3-0.3,0.7-0.4,1.1-0.3
				c0.4,0.1,0.8,0.3,1.1,0.7c0.2,0.2,0.3,0.4,0.4,0.6c0.1,0.2,0.2,0.5,0.3,0.7l-0.9,0.3c-0.1-0.3-0.2-0.5-0.2-0.6s-0.2-0.3-0.3-0.4
				c-0.1-0.1-0.3-0.2-0.4-0.3c-0.1,0-0.3,0-0.4,0.1c-0.1,0.1-0.1,0.1-0.1,0.2s0,0.2,0,0.3c0,0.1,0.1,0.4,0.2,0.7
				c0.1,0.5,0.2,0.9,0.1,1.2C142.1,152.3,141.9,152.5,141.7,152.7z"/>
			<path class="st22" d="M143.1,156.6L141,154l0.6-0.5l1.7,0.1c0.2,0,0.4,0,0.6,0c0.2,0,0.4,0,0.5,0c0.1,0,0.3-0.1,0.4-0.1
				c0.1-0.1,0.3-0.1,0.4-0.2c0.1-0.1,0.2-0.2,0.2-0.4c0-0.1,0-0.3-0.2-0.4c-0.1-0.1-0.3-0.2-0.4-0.3c-0.2-0.1-0.4-0.1-0.6-0.2
				l0.1-0.9c0.1,0,0.3,0,0.4,0.1s0.3,0.1,0.4,0.1s0.3,0.1,0.4,0.2c0.1,0.1,0.3,0.2,0.4,0.4c0.1,0.2,0.3,0.4,0.3,0.6
				c0.1,0.2,0.1,0.4,0.1,0.6c0,0.2-0.1,0.4-0.1,0.5c-0.1,0.2-0.2,0.3-0.4,0.5c-0.1,0.1-0.3,0.2-0.5,0.3s-0.4,0.1-0.6,0.1
				c-0.2,0-0.4,0-0.7,0c-0.2,0-0.5,0-0.7-0.1l-0.9-0.1l0,0l1.3,1.6L143.1,156.6z"/>
			<path class="st22" d="M145.6,159.6l-2.1-2.6l0.6-0.5l1.7,0.1c0.2,0,0.4,0,0.6,0c0.2,0,0.4,0,0.5,0c0.1,0,0.3-0.1,0.4-0.1
				s0.3-0.1,0.4-0.2c0.1-0.1,0.2-0.2,0.2-0.4c0-0.1,0-0.3-0.2-0.4c-0.1-0.1-0.3-0.2-0.4-0.3c-0.2-0.1-0.4-0.1-0.6-0.2l0.1-0.9
				c0.1,0,0.3,0,0.4,0.1s0.3,0.1,0.4,0.1s0.3,0.1,0.4,0.2c0.1,0.1,0.3,0.2,0.4,0.4c0.1,0.2,0.3,0.4,0.3,0.6c0.1,0.2,0.1,0.4,0.1,0.6
				c0,0.2-0.1,0.4-0.1,0.5c-0.1,0.2-0.2,0.3-0.4,0.5c-0.1,0.1-0.3,0.2-0.5,0.3s-0.4,0.1-0.6,0.1c-0.2,0-0.4,0-0.7,0
				c-0.2,0-0.5,0-0.7-0.1l-0.9-0.1l0,0l1.3,1.6L145.6,159.6z"/>
		</g>
	</g>
	<g>
		<g>
			<path class="st22" d="M80.4,58.4c-0.1-0.2-0.1-0.5-0.1-0.7c0-0.2,0-0.4,0.1-0.6c0.1-0.2,0.2-0.4,0.4-0.5c0.2-0.2,0.4-0.3,0.7-0.4
				c0.3-0.1,0.6-0.2,0.8-0.2c0.3,0,0.5,0.1,0.7,0.2s0.4,0.3,0.6,0.5s0.3,0.5,0.4,0.8c0.1,0.1,0.1,0.3,0.1,0.4s0.1,0.3,0.1,0.4
				c0,0.1,0,0.2,0,0.4c0,0.1,0,0.2,0,0.3l-1,0.3c0-0.1,0-0.2,0-0.3c0-0.1,0-0.3,0-0.4c0-0.1,0-0.3-0.1-0.4s-0.1-0.2-0.1-0.4
				c-0.1-0.3-0.3-0.5-0.5-0.7c-0.2-0.1-0.4-0.1-0.7,0c-0.3,0.1-0.4,0.2-0.5,0.5c-0.1,0.2-0.1,0.5,0.1,0.8c0,0.1,0.1,0.1,0.1,0.2
				s0.1,0.1,0.1,0.2s0.1,0.1,0.1,0.2c0,0.1,0.1,0.1,0.1,0.2l-0.1,0.5L79,60.7l-1-2.8l1-0.3l0.7,1.8l1.1-0.3c0-0.1-0.1-0.2-0.2-0.3
				C80.5,58.7,80.5,58.6,80.4,58.4z"/>
			<path class="st22" d="M79,52.3c0.4-0.2,0.8-0.3,1.2-0.3c0.4-0.1,0.7,0,1,0c0.3,0.1,0.5,0.2,0.8,0.4c0.2,0.2,0.4,0.5,0.5,0.8
				c0.1,0.3,0.2,0.6,0.1,0.9s-0.2,0.5-0.3,0.8s-0.4,0.5-0.7,0.7s-0.7,0.4-1.1,0.5s-0.8,0.3-1.2,0.3c-0.4,0.1-0.7,0-1,0
				c-0.3-0.1-0.5-0.2-0.8-0.4c-0.2-0.2-0.4-0.5-0.5-0.8c-0.1-0.3-0.2-0.6-0.1-0.9s0.2-0.5,0.3-0.8c0.2-0.2,0.4-0.5,0.8-0.7
				C78.2,52.6,78.6,52.4,79,52.3z M80,54.8c0.6-0.2,1.1-0.4,1.3-0.7c0.3-0.2,0.4-0.5,0.3-0.7c-0.1-0.2-0.3-0.4-0.7-0.4
				c-0.3,0-0.8,0.1-1.4,0.3c-0.6,0.2-1.1,0.4-1.3,0.7c-0.3,0.2-0.4,0.5-0.3,0.7c0.1,0.1,0.1,0.2,0.2,0.3s0.2,0.1,0.4,0.1
				c0.2,0,0.4,0,0.6-0.1C79.4,55,79.7,55,80,54.8z"/>
			<path class="st22" d="M75.1,47.5l5.7,1.3l0.3,0.8l-5.7-1.3L75.1,47.5z M77.2,49.5c0.2-0.1,0.4-0.1,0.6-0.1c0.2,0,0.4,0,0.5,0.1
				s0.3,0.2,0.4,0.3c0.1,0.1,0.2,0.3,0.3,0.5c0.1,0.2,0.1,0.4,0.1,0.6s-0.1,0.3-0.1,0.5s-0.2,0.3-0.3,0.4c-0.2,0.1-0.3,0.2-0.5,0.3
				s-0.4,0.1-0.6,0.1c-0.2,0-0.4,0-0.5-0.1s-0.3-0.2-0.4-0.3s-0.2-0.3-0.3-0.5c-0.1-0.2-0.1-0.4-0.1-0.6s0-0.3,0.1-0.5
				s0.2-0.3,0.3-0.4C76.8,49.6,77,49.5,77.2,49.5z M78,45.1c0.2-0.1,0.4-0.1,0.6-0.1c0.2,0,0.4,0,0.5,0.1s0.3,0.2,0.4,0.3
				c0.1,0.1,0.2,0.3,0.3,0.5c0.1,0.2,0.1,0.4,0.1,0.6s-0.1,0.3-0.1,0.5c-0.1,0.2-0.2,0.3-0.3,0.4c-0.2,0.1-0.3,0.2-0.5,0.3
				s-0.4,0.1-0.6,0.1c-0.2,0-0.4,0-0.5-0.1s-0.3-0.2-0.4-0.3s-0.2-0.3-0.3-0.5C77,46.7,77,46.5,77,46.3s0-0.3,0.1-0.5
				s0.2-0.3,0.3-0.4C77.6,45.3,77.8,45.2,78,45.1z M77.8,51.1c0.2-0.1,0.3-0.2,0.4-0.2c0.1-0.1,0.1-0.2,0-0.3
				c-0.1-0.1-0.1-0.2-0.2-0.2c-0.1,0-0.3,0-0.5,0.1c-0.4,0.1-0.6,0.3-0.4,0.6c0.1,0.1,0.1,0.2,0.2,0.2
				C77.4,51.2,77.6,51.2,77.8,51.1z M78.6,46.8c0.2-0.1,0.3-0.2,0.4-0.2s0.1-0.2,0-0.3C79,46,79,45.9,78.8,45.9s-0.3,0-0.5,0.1
				c-0.4,0.1-0.6,0.3-0.5,0.6c0.1,0.1,0.1,0.2,0.2,0.2C78.3,46.8,78.4,46.8,78.6,46.8z"/>
			<path class="st22" d="M72.9,43.6L72.3,42c-0.3-0.8-0.4-1.4-0.3-1.8s0.4-0.7,0.8-0.9c0.3-0.1,0.6-0.1,0.9-0.1
				c0.3,0.1,0.5,0.2,0.6,0.5l0,0c-0.1-0.4,0-0.7,0.2-0.9s0.4-0.4,0.8-0.5c0.5-0.2,0.9-0.1,1.3,0.1c0.4,0.2,0.7,0.7,0.9,1.3l0.7,2
				L72.9,43.6z M74.6,41.7l-0.2-0.7c-0.1-0.3-0.2-0.5-0.4-0.6c-0.1-0.1-0.3-0.1-0.6,0c-0.2,0.1-0.3,0.2-0.4,0.4c0,0.2,0,0.4,0.1,0.8
				l0.2,0.6L74.6,41.7z M75.5,41.4l1.4-0.5l-0.3-0.7c-0.1-0.3-0.3-0.5-0.4-0.6s-0.4-0.1-0.6,0c-0.4,0.2-0.6,0.6-0.3,1.2L75.5,41.4z"
				/>
			<path class="st22" d="M72,32.7c0.9-0.3,1.7-0.3,2.3-0.1c0.6,0.3,1.1,0.8,1.4,1.6s0.3,1.5,0,2.2s-0.9,1.1-1.8,1.4
				s-1.7,0.3-2.3,0.1c-0.6-0.3-1.1-0.8-1.4-1.7s-0.3-1.5,0-2.2C70.5,33.5,71.1,33,72,32.7z M73.4,36.6c0.6-0.2,1-0.5,1.2-0.8
				s0.2-0.7,0.1-1.2c-0.3-0.9-1.1-1.2-2.3-0.7c-1.2,0.4-1.7,1.1-1.3,2c0.2,0.5,0.4,0.7,0.8,0.9C72.3,36.9,72.8,36.9,73.4,36.6z"/>
			<path class="st22" d="M72.6,25.9l0.5,1.5l-3.2,3.8l0,0c0.7-0.3,1.2-0.5,1.5-0.6l2.5-0.9l0.4,1l-5.4,1.9l-0.5-1.4l3.2-3.8l0,0
				c-0.7,0.3-1.2,0.5-1.5,0.6l-2.5,0.9l-0.4-1L72.6,25.9z"/>
			<path class="st22" d="M65.1,22.1l3.5-1.2c0.4-0.1,0.8-0.2,1.1-0.1s0.7,0.2,1,0.5s0.5,0.6,0.7,1.1c0.2,0.7,0.3,1.3,0.1,1.8
				c-0.2,0.5-0.6,0.9-1.2,1.1l-3.5,1.2l-0.4-1.1l3.3-1.2c0.4-0.1,0.7-0.3,0.8-0.6s0.1-0.5,0-0.9c-0.1-0.4-0.3-0.6-0.6-0.7
				c-0.2-0.1-0.6-0.1-1,0.1l-3.3,1.2L65.1,22.1z"/>
			<path class="st22" d="M67.4,16.2c0.5-0.2,0.9-0.1,1.3,0.1c0.4,0.2,0.7,0.7,0.9,1.3c0.2,0.6,0.3,1.1,0.2,1.6l-1.1,0.4
				c0-0.4,0-0.8,0-1c0-0.3-0.1-0.5-0.2-0.7c-0.1-0.2-0.2-0.4-0.3-0.5s-0.3-0.1-0.5,0c-0.1,0-0.2,0.1-0.2,0.2s-0.1,0.2-0.1,0.3
				s-0.1,0.4-0.1,0.8c0,0.4-0.1,0.7-0.2,0.9S67,20,66.8,20.1c-0.2,0.2-0.4,0.3-0.6,0.4c-0.5,0.2-0.9,0.1-1.3-0.1
				c-0.4-0.2-0.7-0.6-0.9-1.2c-0.1-0.3-0.2-0.6-0.2-0.8c0-0.3,0-0.6,0-0.9l1,0c0,0.3,0,0.6,0,0.8s0.1,0.4,0.1,0.6
				c0.1,0.2,0.2,0.4,0.3,0.4s0.3,0.1,0.5,0c0.1,0,0.2-0.1,0.2-0.2s0.1-0.2,0.1-0.3c0-0.1,0.1-0.4,0.1-0.9c0.1-0.6,0.2-1,0.3-1.3
				S67,16.3,67.4,16.2z"/>
		</g>
	</g>
	<g>
		<g>
			<path class="st22" d="M141.9,89.3l-1.1,0.2l-0.7-4.1l-1.3,0.2l-0.1-0.9l3.7-0.6l0.1,0.9l-1.3,0.2L141.9,89.3z"/>
			<path class="st22" d="M144.7,86.8l0.3,1.9l-1,0.2l-0.8-4.9l1.4-0.2c0.7-0.1,1.2-0.1,1.6,0.1s0.6,0.5,0.7,1c0.1,0.3,0,0.6-0.1,0.8
				s-0.3,0.5-0.6,0.6l1.8,1.9l-1.2,0.2l-1.5-1.7L144.7,86.8z M144.6,86l0.3-0.1c0.3-0.1,0.6-0.2,0.7-0.3s0.2-0.3,0.1-0.6
				c0-0.2-0.1-0.4-0.3-0.5c-0.2-0.1-0.4-0.1-0.8,0l-0.3,0.1L144.6,86z"/>
			<path class="st22" d="M149.6,85l0.7-2.2l1.1-0.2l-1.1,3.3l0.3,1.9l-1,0.2l-0.3-1.9l-2.1-2.8l1.1-0.2L149.6,85z"/>
			<path class="st22" d="M157.7,86.6l-0.6-1.1l-1.8,0.3l-0.2,1.2l-1.1,0.2l0.9-5.2l1.3-0.2l2.6,4.7L157.7,86.6z M156.7,84.7
				c-0.5-1-0.8-1.6-0.9-1.7c-0.1-0.1-0.1-0.2-0.1-0.3c0,0.3-0.1,1.1-0.3,2.2L156.7,84.7z"/>
			<path class="st22" d="M160.8,83.3l2-0.3l0.4,2.6c-0.3,0.2-0.6,0.3-0.9,0.4c-0.3,0.1-0.6,0.2-0.9,0.2c-0.7,0.1-1.4,0-1.8-0.4
				s-0.8-1-0.9-1.8c-0.1-0.8,0-1.4,0.4-2c0.4-0.5,1-0.8,1.8-1c0.5-0.1,1-0.1,1.5,0.1l-0.2,0.9c-0.4-0.1-0.8-0.2-1.2-0.1
				c-0.4,0.1-0.8,0.3-1,0.6s-0.3,0.8-0.2,1.3c0.1,0.5,0.3,0.9,0.5,1.2c0.3,0.2,0.6,0.3,1,0.3c0.2,0,0.4-0.1,0.6-0.2l-0.2-1l-0.9,0.2
				L160.8,83.3z"/>
			<path class="st22" d="M167.4,85l-0.6-1.1l-1.8,0.3l-0.2,1.2l-1.1,0.2l0.9-5.2l1.3-0.2l2.6,4.7L167.4,85z M166.4,83.1
				c-0.5-1-0.8-1.6-0.9-1.7s-0.1-0.2-0.1-0.3c0,0.3-0.1,1.1-0.3,2.2L166.4,83.1z"/>
			<path class="st22" d="M171,84.4l-2.2,0.4l-0.1-0.6l0.6-0.4l-0.5-3.2l-0.6-0.2l-0.1-0.6l2.2-0.4l0.1,0.6l-0.6,0.4l0.5,3.2l0.6,0.2
				L171,84.4z"/>
			<path class="st22" d="M176.2,83.5l-1.3,0.2l-2.8-3.4h0c0.1,0.7,0.2,1.1,0.3,1.4l0.4,2.3l-0.9,0.2l-0.8-4.9l1.3-0.2l2.8,3.3h0
				c-0.1-0.6-0.2-1.1-0.3-1.3l-0.4-2.3l0.9-0.2L176.2,83.5z"/>
		</g>
	</g>
	<g>
		<g>
			<path class="st22" d="M129.7,119.1l-1.1-0.6l1.5-2.9c0-0.1,0.1-0.1,0.1-0.2c0-0.1,0.1-0.2,0.1-0.3c0.1-0.1,0.1-0.2,0.1-0.3
				s0.1-0.2,0.1-0.2c0,0-0.1,0-0.1,0s-0.1,0-0.1,0c-0.1,0-0.1,0-0.2,0.1c-0.1,0-0.1,0-0.2,0l-0.8,0.2l-0.2-0.9l2.3-0.4l0.9,0.5
				L129.7,119.1z"/>
			<path class="st22" d="M134.5,117.5c0.2,0.1,0.4,0.2,0.6,0.4c0.1,0.2,0.3,0.3,0.3,0.6s0.1,0.4,0.1,0.7s-0.1,0.5-0.2,0.7
				c-0.1,0.3-0.3,0.5-0.5,0.7s-0.4,0.3-0.7,0.4s-0.5,0.1-0.8,0s-0.6-0.2-0.9-0.3c-0.1-0.1-0.2-0.1-0.4-0.2c-0.1-0.1-0.2-0.2-0.3-0.2
				c-0.1-0.1-0.2-0.2-0.3-0.2c-0.1-0.1-0.2-0.2-0.2-0.3l0.5-0.9c0.1,0.1,0.1,0.2,0.2,0.3c0.1,0.1,0.2,0.2,0.3,0.3s0.2,0.2,0.3,0.2
				s0.2,0.1,0.3,0.2c0.3,0.2,0.6,0.2,0.8,0.2s0.4-0.2,0.6-0.5c0.1-0.2,0.1-0.5,0.1-0.7s-0.3-0.4-0.6-0.6c-0.1,0-0.1-0.1-0.2-0.1
				c-0.1,0-0.1-0.1-0.2-0.1c-0.1,0-0.1,0-0.2-0.1s-0.1,0-0.2,0l-0.3-0.4l1.5-2.5l2.7,1.4l-0.5,0.9l-1.8-0.9l-0.6,0.9
				c0.1,0,0.2,0.1,0.3,0.1C134.2,117.4,134.4,117.4,134.5,117.5z"/>
			<path class="st22" d="M140.1,124.5l-2.9-1.5l2.6-5.1l2.9,1.5l-0.5,0.9l-1.8-1l-0.6,1.1l1.7,0.9l-0.5,0.9l-1.7-0.9l-0.7,1.3l1.8,1
				L140.1,124.5z"/>
			<path class="st22" d="M143.1,126.1l-1.1-0.6l2.2-4.2l-1.4-0.7l0.5-0.9l3.8,2l-0.5,0.9l-1.4-0.7L143.1,126.1z"/>
			<path class="st22" d="M149.4,129.4l-1.1-0.6l1.1-2.2l-2-1l-1.1,2.2l-1.1-0.6l2.6-5.1l1.1,0.6l-1,2l2,1l1-2l1.1,0.6L149.4,129.4z"
				/>
		</g>
		<g>
			<circle class="st23" cx="160.7" cy="132.6" r="7.8"/>
			<g>
				<polygon class="st24" points="161.4,131.3 163.3,127.6 163.6,131 163.9,134.5 				"/>
				<polygon class="st24" points="159.5,134.9 158.1,137.7 160.9,136.3 163.7,134.8 				"/>
				<polygon class="st24" points="163.3,127.6 161.4,131.3 157.3,131.1 160.3,129.3 				"/>
				<polygon class="st24" points="158.1,137.7 159.5,134.9 157.1,131.4 157.6,134.6 				"/>
				<polygon class="st25" points="163.9,134.5 161.8,134.5 159.7,134.6 160.3,133.3 161.4,131.3 				"/>
				<polygon class="st25" points="157.3,131.1 158.5,132.8 159.7,134.6 160.3,133.3 161.4,131.3 				"/>
				<path class="st26" d="M163.9,134.5l-0.3-3.4l-0.3-3.4l-1.9,3.7l-1,2l-0.7,1.3l2.1-0.1L163.9,134.5L163.9,134.5z M163.7,134.8
					l-2.8,1.4l-2.8,1.4l1.4-2.8L163.7,134.8z"/>
			</g>
		</g>
	</g>
	<g>
		<g>
			<path class="st22" d="M122.6,64.8l-0.6,0.7l-1.9-1.6c0,0-0.1-0.1-0.1-0.1c-0.1,0-0.1-0.1-0.2-0.2c-0.1,0-0.1-0.1-0.2-0.2
				c-0.1,0-0.1-0.1-0.2-0.1c0,0,0,0,0,0.1s0,0.1,0,0.1s0,0.1,0,0.1c0,0,0,0.1,0,0.1l0,0.6l-0.7,0l0-1.8l0.5-0.6L122.6,64.8z"/>
			<path class="st22" d="M123.5,60.3c0.3,0.2,0.5,0.4,0.7,0.7s0.3,0.4,0.4,0.6s0.1,0.4,0,0.6c0,0.2-0.2,0.4-0.3,0.6
				c-0.2,0.2-0.3,0.3-0.5,0.4c-0.2,0.1-0.4,0.1-0.6,0.1c-0.2,0-0.5-0.1-0.7-0.2s-0.5-0.3-0.8-0.5s-0.5-0.4-0.7-0.7s-0.3-0.4-0.4-0.6
				s-0.1-0.4,0-0.6c0-0.2,0.2-0.4,0.3-0.6c0.2-0.2,0.3-0.3,0.5-0.4c0.2-0.1,0.4-0.1,0.6-0.1c0.2,0,0.5,0.1,0.7,0.2
				C122.9,59.9,123.2,60.1,123.5,60.3z M122.2,61.8c0.4,0.3,0.7,0.5,0.9,0.6c0.2,0.1,0.4,0.1,0.6-0.1s0.1-0.3,0-0.6
				s-0.4-0.5-0.8-0.8c-0.4-0.3-0.7-0.5-0.9-0.6s-0.4-0.1-0.6,0.1c-0.1,0.1-0.1,0.2-0.1,0.3s0,0.2,0.1,0.3c0.1,0.1,0.2,0.2,0.3,0.4
				C121.8,61.5,122,61.7,122.2,61.8z"/>
			<path class="st22" d="M125.6,57.7c0.3,0.2,0.5,0.4,0.7,0.7s0.3,0.4,0.4,0.6s0.1,0.4,0,0.6c0,0.2-0.2,0.4-0.3,0.6
				c-0.2,0.2-0.3,0.3-0.5,0.4c-0.2,0.1-0.4,0.1-0.6,0.1c-0.2,0-0.5-0.1-0.7-0.2c-0.2-0.1-0.5-0.3-0.8-0.5s-0.5-0.4-0.7-0.7
				c-0.2-0.2-0.3-0.4-0.4-0.6s-0.1-0.4,0-0.6s0.2-0.4,0.3-0.6c0.2-0.2,0.3-0.3,0.5-0.4c0.2-0.1,0.4-0.1,0.6-0.1
				c0.2,0,0.5,0.1,0.7,0.2S125.3,57.5,125.6,57.7z M124.3,59.3c0.4,0.3,0.7,0.5,0.9,0.6c0.2,0.1,0.4,0.1,0.6-0.1s0.1-0.3,0-0.6
				s-0.4-0.5-0.8-0.8c-0.4-0.3-0.7-0.5-0.9-0.6s-0.4-0.1-0.6,0.1c-0.1,0.1-0.1,0.2-0.1,0.3s0,0.2,0.1,0.3c0.1,0.1,0.2,0.2,0.3,0.4
				C123.9,59,124.1,59.2,124.3,59.3z"/>
			<path class="st22" d="M129.3,56.7l-0.6,0.7l-3.3-2.7l1.6-1.9l0.6,0.5l-1,1.2l0.8,0.7l0.9-1.1l0.6,0.5l-0.9,1.1L129.3,56.7z"/>
			<path class="st22" d="M130.1,53.1l1.3,1l-0.6,0.7l-3.3-2.7l0.8-1c0.4-0.5,0.7-0.7,1.1-0.8c0.3-0.1,0.7,0,1,0.3
				c0.2,0.2,0.3,0.4,0.4,0.6s0.1,0.5,0,0.8l2.2,0.2l-0.6,0.8l-1.9-0.3L130.1,53.1z M129.6,52.6l0.2-0.2c0.2-0.2,0.3-0.4,0.3-0.6
				s-0.1-0.3-0.2-0.5c-0.2-0.1-0.3-0.2-0.5-0.1c-0.1,0-0.3,0.2-0.5,0.4l-0.2,0.2L129.6,52.6z"/>
			<path class="st22" d="M134.9,49.9l-1.6,1.9L130,49l1.6-1.9l0.6,0.5l-1,1.2l0.7,0.6l0.9-1.1l0.6,0.5l-0.9,1.1l0.9,0.7l1-1.2
				L134.9,49.9z"/>
			<path class="st22" d="M137.1,47.3l-1.6,1.9l-3.3-2.7l1.6-1.9l0.6,0.5l-1,1.2l0.7,0.6l0.9-1.1l0.6,0.5l-0.9,1.1l0.9,0.7l1-1.2
				L137.1,47.3z"/>
			<path class="st22" d="M139.3,42.7c0.3,0.2,0.4,0.5,0.4,0.9c0,0.4-0.2,0.7-0.5,1.1c-0.3,0.3-0.6,0.6-1,0.8l-0.6-0.5
				c0.3-0.1,0.5-0.3,0.7-0.4s0.3-0.2,0.4-0.4c0.1-0.2,0.2-0.3,0.2-0.4c0-0.1,0-0.2-0.2-0.3c-0.1,0-0.1-0.1-0.2-0.1s-0.2,0-0.3,0
				c-0.1,0-0.3,0.1-0.6,0.2c-0.3,0.1-0.5,0.2-0.6,0.2s-0.3,0-0.5,0c-0.2,0-0.3-0.1-0.5-0.2c-0.3-0.2-0.4-0.5-0.4-0.9
				c0-0.3,0.1-0.7,0.4-1c0.1-0.2,0.3-0.3,0.5-0.4s0.4-0.2,0.6-0.3l0.4,0.7c-0.2,0.1-0.4,0.2-0.5,0.3s-0.2,0.2-0.3,0.3
				c-0.1,0.1-0.2,0.3-0.2,0.4c0,0.1,0.1,0.2,0.1,0.3c0.1,0,0.1,0.1,0.2,0.1c0.1,0,0.1,0,0.2,0s0.3-0.1,0.6-0.2
				c0.4-0.2,0.7-0.3,1-0.3C138.9,42.4,139.1,42.5,139.3,42.7z"/>
			<path class="st22" d="M140.4,38.7c0.4,0.3,0.5,0.6,0.5,1c0,0.4-0.2,0.8-0.5,1.2l-0.2,0.3l1.2,1l-0.6,0.7l-3.3-2.7l0.9-1
				c0.3-0.4,0.7-0.6,1-0.7C139.7,38.3,140,38.4,140.4,38.7z M139.6,40.7l0.2-0.2c0.2-0.2,0.3-0.4,0.3-0.6s-0.1-0.3-0.2-0.5
				s-0.3-0.2-0.5-0.2c-0.1,0-0.3,0.1-0.5,0.3l-0.3,0.3L139.6,40.7z"/>
			<path class="st22" d="M144.2,38.7l-1.2,1.5l-0.4-0.3l0.1-0.5l-2.1-1.8l-0.5,0.2l-0.4-0.3l1.2-1.5l0.4,0.3l-0.1,0.5l2.1,1.8
				l0.5-0.2L144.2,38.7z"/>
			<path class="st22" d="M147.1,35.2l-0.7,0.9l-3.7-0.6l0,0c0.5,0.3,0.8,0.6,1,0.7l1.6,1.3l-0.5,0.6l-3.3-2.7l0.7-0.9l3.7,0.6l0,0
				c-0.4-0.3-0.8-0.6-0.9-0.7l-1.6-1.3l0.5-0.6L147.1,35.2z"/>
			<path class="st22" d="M148.4,31.7c0.3,0.2,0.4,0.5,0.4,0.9c0,0.4-0.2,0.7-0.5,1.1c-0.3,0.3-0.6,0.6-1,0.8l-0.6-0.5
				c0.3-0.1,0.5-0.3,0.7-0.4s0.3-0.2,0.4-0.4c0.1-0.2,0.2-0.3,0.2-0.4c0-0.1,0-0.2-0.2-0.3c-0.1,0-0.1-0.1-0.2-0.1s-0.2,0-0.3,0
				s-0.3,0.1-0.6,0.2c-0.3,0.1-0.5,0.2-0.6,0.2s-0.3,0-0.5,0c-0.2,0-0.3-0.1-0.5-0.2c-0.3-0.2-0.4-0.5-0.4-0.9c0-0.3,0.1-0.7,0.4-1
				c0.1-0.2,0.3-0.3,0.5-0.4s0.4-0.2,0.6-0.4l0.4,0.7c-0.2,0.1-0.4,0.2-0.5,0.3s-0.2,0.2-0.3,0.3c-0.1,0.1-0.2,0.3-0.2,0.4
				s0.1,0.2,0.1,0.3c0.1,0,0.1,0.1,0.2,0.1c0.1,0,0.1,0,0.2,0s0.3-0.1,0.6-0.2c0.4-0.2,0.7-0.3,1-0.3S148.2,31.5,148.4,31.7z"/>
		</g>
	</g>
	<g>
		<g>
			<path class="st22" d="M97.7,51.5v1.3H94c-0.1,0-0.2,0-0.3,0c-0.1,0-0.2,0-0.3,0c-0.1,0-0.2,0-0.3,0c-0.1,0-0.2,0-0.3,0
				c0,0,0,0,0.1,0.1c0,0,0.1,0.1,0.1,0.1c0,0,0.1,0.1,0.1,0.1c0,0,0.1,0.1,0.1,0.1l0.6,0.7L93,54.7l-1.6-2v-1.1L97.7,51.5z"/>
			<path class="st22" d="M91.3,47.1v-2c0-0.9,0.1-1.5,0.4-2s0.7-0.6,1.2-0.6c0.4,0,0.7,0.1,0.9,0.3s0.4,0.4,0.4,0.7h0
				c0.1-0.4,0.3-0.7,0.5-0.9c0.2-0.2,0.6-0.3,1-0.3c0.6,0,1,0.2,1.3,0.6c0.3,0.4,0.5,1,0.5,1.7v2.4H91.3z M93.8,45.8V45
				c0-0.4-0.1-0.6-0.2-0.8s-0.3-0.2-0.6-0.2c-0.2,0-0.4,0.1-0.5,0.3s-0.2,0.5-0.2,0.8v0.7H93.8z M94.9,45.8h1.7v-0.9
				c0-0.4-0.1-0.6-0.2-0.8s-0.4-0.3-0.7-0.3c-0.5,0-0.8,0.4-0.8,1.1V45.8z"/>
			<path class="st22" d="M97.7,38.8v1.3h-5.2v1.7h-1.1v-4.8h1.1v1.7H97.7z"/>
			<path class="st22" d="M92.4,33.5c0,0.5,0.2,0.9,0.6,1.2s0.9,0.4,1.6,0.4c1.4,0,2.1-0.5,2.1-1.6c0-0.4-0.1-1-0.3-1.6h1.1
				c0.2,0.5,0.3,1.1,0.3,1.7c0,0.9-0.3,1.6-0.8,2.1s-1.4,0.7-2.4,0.7c-0.7,0-1.2-0.1-1.7-0.4s-0.9-0.6-1.1-1c-0.3-0.5-0.4-1-0.4-1.6
				c0-0.6,0.2-1.2,0.4-1.9l1.1,0.4c-0.1,0.2-0.2,0.5-0.3,0.7C92.4,33.1,92.4,33.3,92.4,33.5z"/>
		</g>
		<g>
			<circle class="st27" cx="94.8" cy="20.4" r="7.8"/>
			<path class="st28" d="M96.9,21.1c-0.1,0-1.7,0-1.8,0c0-0.2,0-0.5,0-0.7c0-0.5,0-0.8,0.3-1.2c0.1-0.2,0.3-0.3,0.6-0.4
				c0.5,0,0.8,0.3,0.9,0.9C96.9,20,96.9,20.8,96.9,21.1L96.9,21.1z M92.6,21.1c-0.1-0.2,0-1,0-1.2c0.1-0.3,0.2-0.7,0.7-0.8
				c0.9-0.1,0.9,1.2,0.9,1.9L92.6,21.1L92.6,21.1z M91.6,22l0,1.7c0.1,0,0.7,0,0.9,0c0-0.2,0-0.6,0-0.8c0.1-0.3,0.3-0.3,0.6-0.3l3,0
				c0.2,0,0.6-0.1,0.7,0.1c0.1,0.2,0,0.6,0.1,0.8l1,0.1v-1.7l1.4,0l0-0.8l-1.3,0c0-0.1,0-0.6,0-0.7l1.3,0l0-0.8l-1.4,0
				c0-0.1,0-0.3,0-0.4c0-0.1,0-0.3-0.1-0.4c-0.2-0.8-0.4-1.4-1.2-1.6c-0.4-0.1-1-0.1-1.4,0.1c-0.4,0.2-0.6,0.6-0.7,1
				c-0.1,0-0.1-0.2-0.3-0.4c-0.5-0.4-1.8-0.5-2.2,0.7c-0.2,0.5-0.2,0.8-0.2,1l-1.4,0l0,0.8l1.3,0l0,0.7l-1.3,0V22L91.6,22z"/>
		</g>
	</g>
	<g>
		<g>
			<path class="st22" d="M69.5,65.7c-0.1-0.1-0.2-0.2-0.2-0.4c-0.1-0.1-0.1-0.3-0.1-0.4c0-0.1,0.1-0.3,0.1-0.4
				c0.1-0.1,0.2-0.2,0.3-0.4c0.2-0.1,0.3-0.2,0.5-0.3c0.2,0,0.3-0.1,0.5,0s0.3,0.1,0.5,0.2c0.2,0.1,0.3,0.2,0.4,0.4
				c0.1,0.1,0.1,0.1,0.2,0.2s0.1,0.1,0.1,0.2c0,0.1,0.1,0.1,0.1,0.2s0.1,0.1,0.1,0.2l-0.5,0.4c0-0.1,0-0.1-0.1-0.2s-0.1-0.2-0.1-0.2
				c0-0.1-0.1-0.2-0.1-0.2S71.1,65,71,64.9c-0.1-0.2-0.3-0.3-0.4-0.3c-0.1,0-0.3,0-0.4,0.2C70,64.9,70,65,70,65.1s0.1,0.3,0.2,0.5
				c0,0,0.1,0.1,0.1,0.1s0.1,0.1,0.1,0.1s0.1,0.1,0.1,0.1c0,0,0.1,0.1,0.1,0.1l0.1,0.3l-1.5,1.1L68,65.9l0.5-0.4l0.8,0.9l0.6-0.4
				c0,0-0.1-0.1-0.1-0.1C69.6,65.9,69.6,65.8,69.5,65.7z"/>
			<path class="st22" d="M67.4,62.4c0.2-0.2,0.4-0.3,0.6-0.4c0.2-0.1,0.4-0.2,0.6-0.2c0.2,0,0.4,0,0.5,0.1c0.2,0.1,0.3,0.2,0.5,0.3
				c0.1,0.2,0.2,0.3,0.2,0.5c0,0.2,0,0.3,0,0.5c-0.1,0.2-0.2,0.4-0.3,0.5s-0.3,0.4-0.5,0.6s-0.4,0.3-0.6,0.4
				c-0.2,0.1-0.4,0.2-0.6,0.2s-0.4,0-0.5-0.1c-0.2-0.1-0.3-0.2-0.5-0.3c-0.1-0.2-0.2-0.3-0.2-0.5c0-0.2,0-0.3,0-0.5
				c0.1-0.2,0.2-0.4,0.3-0.5C67,62.8,67.1,62.6,67.4,62.4z M68.4,63.7c0.3-0.3,0.5-0.5,0.6-0.7c0.1-0.2,0.1-0.3,0-0.5
				c-0.1-0.1-0.3-0.2-0.5-0.1c-0.2,0.1-0.5,0.2-0.8,0.5c-0.3,0.3-0.5,0.5-0.6,0.7s-0.1,0.4,0,0.5c0.1,0.1,0.1,0.1,0.2,0.1
				c0.1,0,0.2,0,0.3,0s0.2-0.1,0.3-0.2C68.2,64,68.3,63.9,68.4,63.7z"/>
			<path class="st22" d="M65.6,60.3c0.2-0.2,0.4-0.3,0.6-0.5c0.2-0.1,0.4-0.2,0.6-0.2s0.4,0,0.5,0.1c0.2,0.1,0.3,0.2,0.5,0.3
				c0.1,0.2,0.2,0.3,0.2,0.5c0,0.2,0,0.3,0,0.5c-0.1,0.2-0.2,0.4-0.3,0.5s-0.3,0.4-0.5,0.5s-0.4,0.3-0.6,0.5
				c-0.2,0.1-0.4,0.2-0.6,0.2s-0.4,0-0.5-0.1c-0.2-0.1-0.3-0.2-0.5-0.3c-0.1-0.2-0.2-0.3-0.2-0.5c0-0.2,0-0.3,0-0.5
				c0.1-0.2,0.2-0.4,0.3-0.5C65.2,60.7,65.4,60.5,65.6,60.3z M66.7,61.6c0.3-0.3,0.5-0.5,0.6-0.7c0.1-0.2,0.1-0.3,0-0.5
				s-0.3-0.2-0.5-0.1c-0.2,0.1-0.5,0.2-0.8,0.5c-0.3,0.3-0.5,0.5-0.6,0.7s-0.1,0.3,0,0.5c0.1,0.1,0.1,0.1,0.2,0.1s0.2,0,0.3,0
				s0.2-0.1,0.3-0.2C66.4,61.9,66.5,61.8,66.7,61.6z"/>
			<path class="st22" d="M63,60l-0.7-0.8c-0.3-0.4-0.5-0.7-0.5-1c0-0.3,0.1-0.5,0.3-0.7c0.2-0.1,0.3-0.2,0.5-0.2
				c0.2,0,0.3,0,0.5,0.2l0,0c-0.1-0.2-0.1-0.4-0.1-0.6c0-0.2,0.2-0.3,0.3-0.5c0.2-0.2,0.5-0.3,0.8-0.2c0.3,0.1,0.6,0.2,0.8,0.6
				l0.9,1L63,60z M63.6,58.5l-0.3-0.3c-0.1-0.2-0.2-0.2-0.4-0.3s-0.2,0-0.3,0.1c-0.1,0.1-0.2,0.2-0.1,0.3s0.1,0.3,0.2,0.4L63,59
				L63.6,58.5z M64.1,58.1l0.7-0.6l-0.3-0.4c-0.1-0.2-0.3-0.2-0.4-0.3s-0.2,0-0.4,0.1c-0.2,0.2-0.2,0.5,0.1,0.8L64.1,58.1z"/>
			<path class="st22" d="M62.7,54.1l1,1.2l-0.3,0.3L63,55.4l-1.8,1.5l0.1,0.5L61,57.7l-1-1.2l0.3-0.3l0.4,0.2l1.8-1.5l-0.1-0.5
				L62.7,54.1z"/>
			<path class="st22" d="M61.4,52.6l0.5,0.6l-2.2,1.9l0.6,0.7l-0.5,0.4l-1.7-2.1l0.5-0.4l0.6,0.7L61.4,52.6z"/>
			<path class="st22" d="M58.3,50.5c0.2-0.2,0.5-0.3,0.8-0.2c0.3,0.1,0.6,0.2,0.8,0.6c0.2,0.3,0.4,0.6,0.5,0.9L60,52.2
				c-0.1-0.2-0.2-0.5-0.2-0.6c-0.1-0.2-0.2-0.3-0.2-0.4c-0.1-0.1-0.2-0.2-0.3-0.2s-0.2,0-0.3,0.1c0,0-0.1,0.1-0.1,0.2
				c0,0.1,0,0.1,0,0.2c0,0.1,0,0.3,0.1,0.5c0.1,0.2,0.1,0.4,0.1,0.6s0,0.3-0.1,0.4c0,0.1-0.2,0.2-0.3,0.4c-0.2,0.2-0.5,0.3-0.8,0.2
				S57.3,53.3,57,53c-0.1-0.1-0.2-0.3-0.3-0.5s-0.1-0.3-0.2-0.5l0.6-0.2c0.1,0.2,0.1,0.3,0.2,0.5c0.1,0.1,0.1,0.2,0.2,0.3
				c0.1,0.1,0.2,0.2,0.3,0.2c0.1,0,0.2,0,0.3-0.1c0,0,0.1-0.1,0.1-0.2c0-0.1,0-0.1,0-0.2c0-0.1,0-0.3-0.1-0.5C58,51.5,58,51.2,58,51
				C58.1,50.8,58.2,50.6,58.3,50.5z"/>
			<path class="st22" d="M58.7,49.3L56,51.6L55.5,51l2.3-1.9L56.8,48l0.5-0.4L58.7,49.3z"/>
			<path class="st22" d="M55.6,45.6l1.3,1.6l-2.7,2.3l-1.3-1.6l0.5-0.4l0.8,1l0.6-0.5L54,47l0.5-0.4l0.8,0.9l0.7-0.6l-0.8-1
				L55.6,45.6z"/>
			<path class="st22" d="M53.5,45.3l1-0.9l0.5,0.6l-2.7,2.3l-0.7-0.8c-0.3-0.4-0.5-0.7-0.5-1c0-0.3,0.1-0.5,0.4-0.8
				c0.2-0.1,0.3-0.2,0.5-0.2s0.4,0,0.6,0.1l0.5-1.8l0.5,0.6L53.3,45L53.5,45.3z M53.1,45.7l-0.2-0.2c-0.2-0.2-0.3-0.3-0.4-0.3
				s-0.3,0-0.4,0.1s-0.2,0.2-0.2,0.4c0,0.1,0.1,0.3,0.3,0.5l0.2,0.2L53.1,45.7z"/>
			<path class="st22" d="M48.9,42.3c0.2,0.2,0.4,0.3,0.7,0.3s0.5-0.2,0.8-0.4c0.6-0.5,0.7-1,0.3-1.5c-0.2-0.2-0.4-0.4-0.7-0.6
				l0.5-0.4c0.3,0.1,0.5,0.4,0.8,0.6c0.3,0.4,0.5,0.8,0.4,1.2s-0.3,0.8-0.8,1.2c-0.3,0.2-0.6,0.4-0.9,0.5c-0.3,0.1-0.6,0.1-0.9,0
				s-0.5-0.3-0.7-0.5c-0.2-0.3-0.4-0.6-0.5-1l0.6-0.2c0,0.1,0.1,0.3,0.1,0.4C48.7,42,48.8,42.2,48.9,42.3z"/>
			<path class="st22" d="M46.7,37.8c0.5-0.4,0.9-0.6,1.3-0.5s0.8,0.2,1.2,0.7s0.5,0.8,0.5,1.3s-0.3,0.8-0.8,1.2
				c-0.5,0.4-0.9,0.6-1.3,0.5s-0.8-0.2-1.2-0.7s-0.5-0.8-0.5-1.3C46,38.5,46.2,38.1,46.7,37.8z M48.3,39.8c0.3-0.3,0.5-0.5,0.5-0.8
				c0.1-0.2,0-0.5-0.2-0.7c-0.4-0.5-0.9-0.4-1.5,0.1c-0.6,0.5-0.7,1-0.3,1.5c0.2,0.2,0.4,0.3,0.7,0.3C47.7,40.2,48,40,48.3,39.8z"/>
			<path class="st22" d="M46.7,35l1,1.2l-0.3,0.3L47,36.3l-1.8,1.5l0.1,0.5L45,38.6l-1-1.2l0.3-0.3l0.4,0.2l1.8-1.5l-0.1-0.5
				L46.7,35z"/>
			<path class="st22" d="M44.3,32.1l0.6,0.7l-1.1,2.9l0,0c0.3-0.3,0.6-0.6,0.8-0.7l1.3-1.1l0.4,0.5l-2.7,2.3L43,36.1l1-2.9l0,0
				c-0.3,0.3-0.6,0.5-0.7,0.7L42,35l-0.4-0.5L44.3,32.1z"/>
			<path class="st22" d="M41.6,30.5c0.2-0.2,0.5-0.3,0.8-0.2c0.3,0.1,0.6,0.2,0.8,0.6c0.2,0.3,0.4,0.6,0.5,0.9l-0.5,0.5
				c-0.1-0.2-0.2-0.5-0.2-0.6c-0.1-0.2-0.2-0.3-0.2-0.4c-0.1-0.1-0.2-0.2-0.3-0.2c-0.1,0-0.2,0-0.3,0.1c0,0-0.1,0.1-0.1,0.2
				s0,0.1,0,0.2s0,0.3,0.1,0.5c0.1,0.2,0.1,0.4,0.1,0.6c0,0.1,0,0.3-0.1,0.4c0,0.1-0.2,0.2-0.3,0.4c-0.2,0.2-0.5,0.3-0.8,0.2
				s-0.5-0.2-0.8-0.5c-0.1-0.1-0.2-0.3-0.3-0.5s-0.1-0.3-0.2-0.5l0.6-0.2c0.1,0.2,0.1,0.4,0.2,0.5s0.1,0.2,0.2,0.3
				c0.1,0.1,0.2,0.2,0.3,0.2c0.1,0,0.2,0,0.3-0.1c0,0,0.1-0.1,0.1-0.2c0-0.1,0-0.1,0-0.2c0-0.1,0-0.3-0.1-0.5
				c-0.1-0.4-0.1-0.6-0.1-0.8C41.3,30.8,41.4,30.6,41.6,30.5z"/>
		</g>
	</g>
	<g>
		<g>
			<path class="st22" d="M57.4,72.5c0.2-0.3,0.4-0.4,0.7-0.5s0.6,0,1,0.2l0.3-0.5l0.3,0.2l-0.3,0.5c0.4,0.2,0.7,0.5,1,0.8l-0.4,0.7
				c-0.1-0.2-0.2-0.3-0.4-0.5S59.2,73.1,59,73l-0.5,0.8l0.1,0.2c0.3,0.3,0.4,0.6,0.5,0.8c0,0.2,0,0.5-0.1,0.7
				c-0.1,0.2-0.3,0.4-0.6,0.4c-0.3,0.1-0.6,0-1-0.2l-0.2,0.4l-0.3-0.2l0.2-0.4c-0.4-0.2-0.7-0.5-0.9-0.8l0.6-0.5
				c0.2,0.3,0.4,0.5,0.7,0.7l0.4-0.8c-0.3-0.3-0.4-0.6-0.5-0.7c-0.1-0.2-0.1-0.3-0.1-0.5C57.2,72.8,57.3,72.6,57.4,72.5z M58.3,75
				c0-0.1,0-0.2,0-0.2s-0.1-0.2-0.2-0.3l-0.3,0.6C58,75.2,58.2,75.2,58.3,75z M58.1,72.9c0,0.1,0,0.2,0,0.2s0.1,0.2,0.2,0.3l0.4-0.6
				C58.4,72.7,58.2,72.7,58.1,72.9z"/>
			<path class="st22" d="M55.8,70l0.8,0.4l-1.2,2.2c0,0-0.1,0.1-0.1,0.2c0,0.1-0.1,0.1-0.1,0.2S55,73.1,55,73.2
				c0,0.1-0.1,0.1-0.1,0.2c0,0,0,0,0.1,0c0,0,0.1,0,0.1,0s0.1,0,0.1,0c0,0,0.1,0,0.1,0l0.6-0.1l0.1,0.7l-1.8,0.3l-0.6-0.4L55.8,70z"
				/>
			<path class="st22" d="M51.2,69.8c0.2-0.3,0.3-0.6,0.5-0.8s0.4-0.4,0.6-0.5s0.4-0.2,0.6-0.2c0.2,0,0.4,0.1,0.7,0.2
				c0.2,0.1,0.4,0.3,0.5,0.4s0.2,0.4,0.2,0.6s0,0.5-0.1,0.7s-0.2,0.6-0.4,0.8c-0.2,0.3-0.3,0.6-0.5,0.8c-0.2,0.2-0.4,0.4-0.6,0.5
				s-0.4,0.2-0.6,0.2s-0.4-0.1-0.7-0.2c-0.2-0.1-0.4-0.3-0.5-0.4c-0.1-0.2-0.2-0.4-0.2-0.6c0-0.2,0-0.5,0.1-0.7
				C50.9,70.4,51,70.2,51.2,69.8z M53,70.9c0.2-0.4,0.4-0.8,0.4-1c0-0.3,0-0.4-0.2-0.5s-0.4-0.1-0.6,0.1s-0.4,0.5-0.7,0.9
				c-0.2,0.4-0.4,0.8-0.4,1c0,0.3,0,0.4,0.2,0.5c0.1,0.1,0.2,0.1,0.3,0.1c0.1,0,0.2-0.1,0.3-0.2s0.2-0.2,0.3-0.3
				C52.7,71.3,52.8,71.1,53,70.9z"/>
			<path class="st22" d="M48.3,68.2c0.2-0.3,0.3-0.6,0.5-0.8s0.4-0.4,0.6-0.5c0.2-0.1,0.4-0.2,0.6-0.2c0.2,0,0.4,0.1,0.7,0.2
				c0.2,0.1,0.4,0.3,0.5,0.4c0.1,0.2,0.2,0.4,0.2,0.6s0,0.5-0.1,0.7c-0.1,0.3-0.2,0.6-0.4,0.8c-0.2,0.3-0.3,0.6-0.5,0.8
				c-0.2,0.2-0.4,0.4-0.6,0.5C49.6,71,49.4,71,49.2,71s-0.4-0.1-0.7-0.2c-0.2-0.1-0.4-0.3-0.5-0.4s-0.2-0.4-0.2-0.6s0-0.5,0.1-0.7
				S48.2,68.5,48.3,68.2z M50.1,69.2c0.2-0.4,0.4-0.8,0.4-1c0-0.2,0-0.4-0.2-0.5c-0.2-0.1-0.4-0.1-0.6,0.1s-0.4,0.5-0.7,0.9
				c-0.2,0.4-0.4,0.8-0.4,1c0,0.3,0,0.4,0.2,0.5c0.1,0.1,0.2,0.1,0.3,0.1s0.2-0.1,0.3-0.2s0.2-0.2,0.3-0.3
				C49.9,69.6,50,69.4,50.1,69.2z"/>
			<path class="st22" d="M45.5,66.5c0.2-0.3,0.3-0.6,0.5-0.8s0.4-0.4,0.6-0.5c0.2-0.1,0.4-0.2,0.6-0.2c0.2,0,0.4,0.1,0.7,0.2
				c0.2,0.1,0.4,0.3,0.5,0.4c0.1,0.2,0.2,0.4,0.2,0.6c0,0.2,0,0.5-0.1,0.7S48.2,67.7,48,68c-0.2,0.3-0.3,0.6-0.5,0.8
				c-0.2,0.2-0.4,0.4-0.6,0.5s-0.4,0.2-0.6,0.2c-0.2,0-0.4-0.1-0.7-0.2c-0.2-0.1-0.4-0.3-0.5-0.4C45,68.5,45,68.3,45,68.1
				s0-0.5,0.1-0.7C45.2,67.1,45.3,66.8,45.5,66.5z M47.2,67.6c0.2-0.4,0.4-0.8,0.4-1c0-0.2,0-0.4-0.2-0.5c-0.2-0.1-0.4-0.1-0.6,0.1
				s-0.4,0.5-0.7,0.9c-0.2,0.4-0.4,0.8-0.4,1c0,0.3,0,0.4,0.2,0.5c0.1,0.1,0.2,0.1,0.3,0.1c0.1,0,0.2-0.1,0.3-0.2
				c0.1-0.1,0.2-0.2,0.3-0.3S47.1,67.8,47.2,67.6z"/>
			<path class="st22" d="M43,64.5l0.8-1.4l0.8,0.5l-2.2,3.7l-1.1-0.6c-0.5-0.3-0.8-0.6-1-0.9c-0.1-0.3-0.1-0.7,0.1-1.1
				c0.1-0.2,0.3-0.4,0.5-0.5c0.2-0.1,0.5-0.1,0.7-0.1l-0.2-2.2l0.9,0.5l0.1,1.9L43,64.5z M42.6,65.2L42.3,65
				c-0.2-0.1-0.5-0.2-0.6-0.2c-0.2,0-0.3,0.1-0.4,0.3c-0.1,0.2-0.1,0.3,0,0.5c0.1,0.1,0.2,0.3,0.5,0.4l0.2,0.1L42.6,65.2z"/>
			<path class="st22" d="M39,60.3l2.1,1.2L39,65.3L36.9,64l0.4-0.6l1.3,0.8l0.5-0.8l-1.3-0.7l0.4-0.6l1.3,0.7l0.5-1L38.6,61L39,60.3
				z"/>
			<path class="st22" d="M34.6,57.8l0.9,0.5l-0.6,2.2c0,0.1-0.1,0.2-0.2,0.5c-0.1,0.2-0.1,0.4-0.2,0.5c0.1-0.1,0.2-0.2,0.3-0.4
				c0.2-0.2,0.3-0.3,0.3-0.4l1.6-1.7l0.9,0.5l-1.2,4.2l-0.8-0.5l0.7-2.3c0.1-0.4,0.3-0.8,0.4-1.1c-0.1,0.1-0.2,0.2-0.3,0.4
				s-0.3,0.3-0.4,0.4l-1.7,1.8l-0.7-0.4l0.7-2.4c0-0.1,0.1-0.3,0.2-0.5c0.1-0.2,0.1-0.4,0.2-0.5c-0.1,0.1-0.2,0.3-0.4,0.5
				c-0.2,0.2-0.3,0.3-0.4,0.4l-1.6,1.8l-0.8-0.5L34.6,57.8z"/>
			<path class="st22" d="M31,55.7l-0.2,1l1.4,0.8l0.8-0.7l0.8,0.5l-3.5,3l-1-0.6l0.8-4.5L31,55.7z M30.6,57.5
				c-0.2,0.9-0.3,1.5-0.4,1.6s-0.1,0.2-0.1,0.3c0.2-0.2,0.6-0.6,1.4-1.3L30.6,57.5z"/>
			<path class="st22" d="M28.1,55.9l0.8-1.4l0.8,0.5l-2.1,3.7L26.5,58c-0.5-0.3-0.8-0.6-1-0.9c-0.1-0.3-0.1-0.7,0.1-1
				c0.1-0.2,0.3-0.4,0.5-0.5c0.2-0.1,0.5-0.1,0.7-0.1l-0.2-2.2l0.9,0.5l0.1,1.9L28.1,55.9z M27.8,56.6l-0.2-0.2
				c-0.2-0.1-0.5-0.2-0.6-0.2c-0.2,0-0.3,0.1-0.4,0.3s-0.1,0.3,0,0.5s0.2,0.3,0.5,0.4l0.2,0.1L27.8,56.6z"/>
			<path class="st22" d="M22.1,53.1c0.4-0.6,0.8-1,1.3-1.1c0.5-0.1,1.1,0,1.8,0.4l1,0.6l-2.1,3.7L23,56c-0.6-0.3-1-0.8-1.1-1.3
				C21.7,54.2,21.8,53.7,22.1,53.1z M23,53.5c-0.5,0.8-0.3,1.4,0.4,1.8l0.4,0.2l1.4-2.4L24.8,53C24,52.5,23.4,52.7,23,53.5z"/>
		</g>
	</g>
	<g>
		<g>
			<path class="st22" d="M40.7,124.9c0.1,0.1,0.1,0.3,0.1,0.4s0,0.2,0,0.4s-0.1,0.2-0.2,0.3c-0.1,0.1-0.2,0.2-0.2,0.3l0,0
				c0.3-0.1,0.6-0.2,0.8-0.1s0.4,0.2,0.6,0.5c0.1,0.2,0.2,0.3,0.2,0.5c0,0.2,0,0.3-0.1,0.5c-0.1,0.2-0.2,0.3-0.3,0.5
				c-0.2,0.2-0.3,0.3-0.6,0.4c-0.2,0.1-0.4,0.2-0.6,0.3c-0.2,0.1-0.4,0.1-0.6,0.1l-0.4-0.7c0.1,0,0.2,0,0.3,0s0.2,0,0.3-0.1
				c0.1,0,0.2-0.1,0.3-0.1c0.1,0,0.2-0.1,0.2-0.1c0.2-0.1,0.3-0.2,0.3-0.2c0.1-0.1,0.1-0.2,0.2-0.2c0-0.1,0-0.2,0-0.2
				c0-0.1,0-0.2-0.1-0.2c0-0.1-0.1-0.1-0.2-0.2c-0.1,0-0.2-0.1-0.2-0.1c-0.1,0-0.2,0-0.3,0.1c-0.1,0-0.3,0.1-0.4,0.2l-0.3,0.2
				l-0.3-0.6l0.3-0.2c0.2-0.1,0.3-0.2,0.4-0.3s0.2-0.2,0.2-0.2c0-0.1,0-0.2,0-0.2c0-0.1,0-0.2-0.1-0.2c-0.1-0.1-0.2-0.2-0.3-0.2
				c-0.1,0-0.3,0-0.5,0.1c-0.1,0.1-0.2,0.1-0.2,0.2c-0.1,0.1-0.1,0.1-0.2,0.2c0,0.1-0.1,0.1-0.1,0.2c0,0.1-0.1,0.1-0.1,0.2l-0.7-0.3
				c0-0.1,0.1-0.2,0.2-0.3s0.1-0.2,0.2-0.3s0.2-0.2,0.3-0.3c0.1-0.1,0.2-0.2,0.3-0.2c0.2-0.1,0.4-0.2,0.5-0.2c0.2,0,0.3-0.1,0.5,0
				c0.2,0,0.3,0.1,0.4,0.1C40.5,124.7,40.6,124.8,40.7,124.9z"/>
			<path class="st22" d="M42.8,124.4c0.2-0.1,0.3-0.2,0.5-0.2c0.2,0,0.3,0,0.5,0c0.2,0,0.3,0.1,0.4,0.2s0.3,0.3,0.4,0.4
				c0.1,0.2,0.2,0.4,0.2,0.6c0,0.2,0,0.4,0,0.6c-0.1,0.2-0.2,0.3-0.3,0.5s-0.3,0.3-0.6,0.4c-0.1,0.1-0.2,0.1-0.3,0.1
				c-0.1,0-0.2,0.1-0.3,0.1s-0.2,0.1-0.3,0.1c-0.1,0-0.2,0-0.3,0l-0.4-0.7c0.1,0,0.2,0,0.3,0s0.2,0,0.3-0.1c0.1,0,0.2-0.1,0.3-0.1
				c0.1,0,0.2-0.1,0.2-0.1c0.2-0.1,0.4-0.3,0.4-0.4c0.1-0.2,0-0.3-0.1-0.6c-0.1-0.2-0.2-0.3-0.4-0.3s-0.4,0-0.6,0.2
				c0,0-0.1,0.1-0.1,0.1c0,0-0.1,0.1-0.1,0.1c0,0-0.1,0.1-0.1,0.1c0,0-0.1,0.1-0.1,0.1l-0.4,0l-0.9-2l2-1.1l0.4,0.7L42,124l0.3,0.8
				c0,0,0.1-0.1,0.2-0.1C42.6,124.5,42.7,124.5,42.8,124.4z"/>
			<path class="st22" d="M47.1,122.6c0.2,0.3,0.3,0.6,0.4,0.8c0.1,0.3,0.1,0.5,0.1,0.7s-0.1,0.4-0.2,0.6c-0.1,0.2-0.3,0.3-0.5,0.5
				c-0.2,0.1-0.4,0.2-0.6,0.2c-0.2,0-0.4-0.1-0.6-0.2c-0.2-0.1-0.4-0.3-0.6-0.5c-0.2-0.2-0.4-0.5-0.5-0.8s-0.3-0.6-0.4-0.8
				c-0.1-0.3-0.1-0.5-0.1-0.7c0-0.2,0.1-0.4,0.2-0.6s0.3-0.3,0.5-0.5c0.2-0.1,0.4-0.2,0.6-0.2c0.2,0,0.4,0.1,0.6,0.2
				s0.4,0.3,0.6,0.5C46.8,122.1,47,122.3,47.1,122.6z M45.4,123.6c0.2,0.4,0.5,0.7,0.7,0.9c0.2,0.2,0.4,0.2,0.6,0.1s0.2-0.3,0.2-0.5
				c0-0.3-0.2-0.6-0.4-1s-0.5-0.7-0.7-0.9s-0.4-0.2-0.6-0.1c-0.1,0.1-0.2,0.1-0.2,0.2s0,0.2,0,0.3c0,0.1,0.1,0.3,0.1,0.4
				C45.2,123.2,45.2,123.4,45.4,123.6z"/>
			<path class="st22" d="M50.2,123.4l-2.1-3.7l0.8-0.4l1.7,3.1l1.5-0.8l0.4,0.7L50.2,123.4z"/>
			<path class="st22" d="M54.5,120.9l-0.8,0.4l-1.7-3.1l-1,0.6l-0.4-0.7l2.8-1.6l0.4,0.7l-1,0.6L54.5,120.9z"/>
			<path class="st22" d="M55.9,116.1c-0.3,0.2-0.5,0.4-0.5,0.7c0,0.3,0.1,0.7,0.3,1.1c0.5,0.8,1,1.1,1.6,0.7
				c0.3-0.2,0.5-0.4,0.8-0.7l0.4,0.7c-0.2,0.3-0.5,0.6-0.9,0.8c-0.5,0.3-1,0.4-1.5,0.2c-0.5-0.2-0.9-0.6-1.2-1.2
				c-0.2-0.4-0.3-0.8-0.4-1.1s0-0.7,0.2-1s0.4-0.6,0.8-0.8c0.4-0.2,0.8-0.3,1.2-0.3l0.1,0.8c-0.2,0-0.3,0-0.5,0.1
				C56.2,115.9,56,116,55.9,116.1z"/>
		</g>
		<g>
			<circle class="st29" cx="29.1" cy="132.7" r="7.8"/>
			<path class="st28" d="M28.2,137.6l5.5-3.1l-0.4-1.5l-3.4,1.9c0,0-0.2-0.8-0.5-1.9l0.9-1l-0.5-1l-0.6,0.8c-0.4-1.4-0.7-2.8-0.8-3
				l-2.1,1.2c0.3,0.8,0.7,2.4,1.1,3.9l-0.9,1l0.5,1l0.6-0.7C27.8,136.1,28,137,28.2,137.6z"/>
		</g>
	</g>
	<g>
		<g>
			<path class="st22" d="M106.9,52.6c-0.4-0.1-0.5-0.4-0.3-0.8c0.2-0.4,0.4-0.5,0.8-0.4c0.2,0.1,0.3,0.2,0.3,0.3s0.1,0.3,0,0.5
				C107.5,52.6,107.3,52.8,106.9,52.6z M112.5,53.3l-0.4,1.1L108,53l0.4-1.1L112.5,53.3z"/>
			<path class="st22" d="M110.6,47c0.6,0.2,0.9,0.5,1.1,1c0.2,0.5,0.1,1-0.1,1.7l-0.2,0.5l1.9,0.7l-0.4,1.1l-5.4-2l0.6-1.7
				c0.2-0.7,0.6-1.1,1-1.3C109.6,46.8,110.1,46.8,110.6,47z M110.5,49.9l0.1-0.4c0.1-0.3,0.2-0.6,0.1-0.9c-0.1-0.2-0.2-0.4-0.5-0.5
				c-0.3-0.1-0.5-0.1-0.7,0s-0.3,0.3-0.4,0.6l-0.2,0.5L110.5,49.9z"/>
			<path class="st22" d="M116.3,43l-0.4,1.1l-2.3-0.8l-0.8,2.1l2.3,0.8l-0.4,1.1l-5.4-2l0.4-1.1l2.1,0.8l0.8-2.1l-2.1-0.8l0.4-1.1
				L116.3,43z"/>
			<path class="st22" d="M115.8,35.7c0.9,0.3,1.5,0.8,1.8,1.4c0.3,0.6,0.3,1.3,0,2.2s-0.8,1.4-1.4,1.6c-0.6,0.3-1.4,0.2-2.3-0.1
				c-0.9-0.3-1.5-0.8-1.8-1.4c-0.3-0.6-0.3-1.3,0-2.2c0.3-0.8,0.8-1.4,1.4-1.6C114.2,35.4,114.9,35.4,115.8,35.7z M114.4,39.7
				c0.6,0.2,1.1,0.3,1.5,0.2c0.4-0.1,0.7-0.4,0.8-0.8c0.3-0.9-0.1-1.6-1.3-2c-1.2-0.4-2-0.2-2.3,0.7c-0.2,0.5-0.1,0.8,0.1,1.2
				S113.8,39.4,114.4,39.7z"/>
			<path class="st22" d="M120.7,30.9l-0.5,1.4l-4.9,0.9l0,0c0.7,0.2,1.2,0.4,1.6,0.5l2.5,0.9l-0.4,1l-5.4-2l0.5-1.4l4.9-0.9l0,0
				c-0.7-0.2-1.2-0.4-1.5-0.5l-2.5-0.9l0.4-1L120.7,30.9z"/>
			<path class="st22" d="M122.3,26.4l-1.1,3.1l-5.4-2l1.1-3.1l0.9,0.3l-0.7,2l1.2,0.4l0.7-1.8l0.9,0.3l-0.7,1.8l1.4,0.5l0.7-2
				L122.3,26.4z"/>
			<path class="st22" d="M124.2,21l-0.4,1.1l-3.1-1.1c-0.1,0-0.1,0-0.2-0.1c-0.1,0-0.2-0.1-0.3-0.1c-0.1,0-0.2-0.1-0.3-0.1
				s-0.2-0.1-0.3-0.1c0,0,0,0,0,0.1c0,0,0,0.1,0.1,0.1s0,0.1,0.1,0.1c0,0,0,0.1,0.1,0.1l0.3,0.8l-0.9,0.3l-0.8-2.2l0.3-0.9L124.2,21
				z"/>
			<path class="st22" d="M121.8,14.7c0.2,0.1,0.3,0.2,0.5,0.3c0.1,0.1,0.2,0.2,0.3,0.4c0.1,0.1,0.1,0.3,0.2,0.5c0,0.2,0,0.3,0,0.5
				l0,0c0.2-0.4,0.5-0.7,0.8-0.8c0.3-0.1,0.6-0.2,1,0c0.2,0.1,0.4,0.2,0.6,0.4c0.2,0.2,0.3,0.4,0.4,0.6s0.1,0.5,0.1,0.8
				c0,0.3-0.1,0.6-0.2,1c-0.1,0.3-0.2,0.5-0.4,0.8s-0.3,0.5-0.5,0.6l-1-0.4c0.1-0.1,0.2-0.2,0.3-0.3c0.1-0.1,0.2-0.2,0.2-0.3
				c0.1-0.1,0.1-0.2,0.2-0.3c0.1-0.1,0.1-0.2,0.1-0.3c0.1-0.2,0.1-0.4,0.1-0.5c0-0.1,0-0.3,0-0.4s-0.1-0.2-0.2-0.3
				c-0.1-0.1-0.2-0.1-0.3-0.2c-0.1,0-0.2,0-0.3,0s-0.2,0.1-0.3,0.1s-0.2,0.2-0.3,0.4s-0.2,0.4-0.3,0.6l-0.1,0.4l-0.8-0.3l0.1-0.4
				c0.1-0.2,0.1-0.4,0.1-0.6s0-0.3,0-0.4c0-0.1-0.1-0.2-0.2-0.3s-0.2-0.1-0.3-0.2c-0.2-0.1-0.4-0.1-0.5,0c-0.2,0.1-0.3,0.2-0.4,0.5
				c0,0.1-0.1,0.2-0.1,0.3s0,0.2,0,0.3c0,0.1,0,0.2,0,0.3s0,0.2,0.1,0.2l-1,0.3c0-0.1-0.1-0.3-0.1-0.4s0-0.3,0-0.5s0-0.3,0.1-0.5
				c0-0.2,0.1-0.4,0.2-0.5c0.1-0.3,0.2-0.5,0.3-0.7s0.3-0.4,0.4-0.5c0.2-0.1,0.3-0.2,0.5-0.2C121.4,14.6,121.6,14.6,121.8,14.7z"/>
		</g>
	</g>
	<g>
		<g>
			<path class="st22" d="M129.9,101.7l-0.2,1.8l-1-0.1l0.6-4.8l1.4,0.2c0.6,0.1,1.1,0.3,1.4,0.6c0.3,0.3,0.4,0.7,0.3,1.1
				c0,0.3-0.1,0.5-0.3,0.7c-0.2,0.2-0.4,0.3-0.7,0.4l1.1,2.3l-1.1-0.2l-0.9-2L129.9,101.7z M130,100.9l0.3,0c0.3,0,0.6,0,0.7-0.1
				c0.2-0.1,0.3-0.2,0.3-0.5c0-0.2,0-0.4-0.2-0.5c-0.1-0.1-0.4-0.2-0.7-0.2l-0.3,0L130,100.9z"/>
			<path class="st22" d="M135.9,104.4l-0.2-1.2L134,103l-0.5,1.1l-1.1-0.2l2.3-4.6l1.2,0.2l1.1,5L135.9,104.4z M135.6,102.3
				c-0.2-1.1-0.3-1.7-0.3-1.8s0-0.2,0-0.3c-0.1,0.3-0.4,0.9-0.9,2L135.6,102.3z"/>
			<path class="st22" d="M141.5,105.1l-1.1-0.2l-1-2.2l-0.5,0.2l-0.2,1.7l-1-0.1l0.6-4.8l1,0.1l-0.3,2.2l0.5-0.5l1.5-1.4l1.1,0.2
				l-1.9,1.9L141.5,105.1z"/>
			<path class="st22" d="M144.8,105.6l-2.8-0.4l0.6-4.8l2.8,0.4l-0.1,0.8l-1.7-0.2l-0.1,1.1l1.6,0.2l-0.1,0.8l-1.6-0.2l-0.2,1.2
				l1.7,0.2L144.8,105.6z"/>
			<path class="st22" d="M146.4,100.9l1.5,0.2c0.7,0.1,1.2,0.2,1.4,0.5c0.3,0.2,0.4,0.6,0.3,1c0,0.3-0.1,0.5-0.3,0.7
				c-0.2,0.2-0.4,0.2-0.6,0.3v0c0.3,0.1,0.5,0.3,0.6,0.5c0.1,0.2,0.1,0.5,0.1,0.8c-0.1,0.4-0.3,0.8-0.6,1c-0.4,0.2-0.8,0.3-1.3,0.2
				l-1.8-0.2L146.4,100.9z M147.1,103.8l-0.2,1.2l0.7,0.1c0.3,0,0.5,0,0.6-0.1c0.1-0.1,0.2-0.2,0.3-0.5c0.1-0.4-0.2-0.6-0.8-0.7
				L147.1,103.8z M147.2,103l0.6,0.1c0.3,0,0.5,0,0.6-0.1s0.2-0.2,0.2-0.4c0-0.2,0-0.3-0.1-0.4c-0.1-0.1-0.3-0.2-0.6-0.2l-0.5-0.1
				L147.2,103z"/>
			<path class="st22" d="M153.2,106.7l-0.2-1.2l-1.7-0.2l-0.5,1.1l-1.1-0.2l2.3-4.6l1.2,0.2l1.1,5L153.2,106.7z M152.8,104.6
				c-0.2-1.1-0.3-1.7-0.3-1.8s0-0.2,0-0.3c-0.1,0.3-0.4,0.9-0.9,2L152.8,104.6z"/>
			<path class="st22" d="M157.4,103.2c-0.4-0.1-0.7,0.1-0.9,0.3c-0.2,0.3-0.4,0.6-0.5,1.2c-0.1,1.1,0.2,1.7,1,1.8
				c0.3,0,0.8,0,1.2-0.1l-0.1,0.8c-0.4,0.1-0.9,0.1-1.4,0.1c-0.7-0.1-1.2-0.4-1.5-0.8s-0.4-1.1-0.3-1.9c0.1-0.5,0.2-0.9,0.4-1.3
				s0.5-0.6,0.9-0.8c0.4-0.2,0.8-0.2,1.2-0.1c0.5,0.1,0.9,0.2,1.4,0.5l-0.4,0.8c-0.2-0.1-0.3-0.2-0.5-0.3
				C157.7,103.3,157.5,103.2,157.4,103.2z"/>
			<path class="st22" d="M162.9,108l-1.1-0.2l-1-2.2l-0.5,0.2l-0.2,1.7l-1-0.1l0.6-4.8l1,0.1l-0.3,2.2l0.5-0.5l1.5-1.4l1.1,0.2
				l-1.9,1.9L162.9,108z"/>
			<path class="st22" d="M168.1,108.7l-3.2-0.4l0.1-0.7l1.3-1.1c0.2-0.1,0.3-0.3,0.4-0.4s0.2-0.2,0.4-0.3c0.1-0.1,0.2-0.2,0.2-0.3
				c0.1-0.1,0.1-0.2,0.1-0.4c0-0.2,0-0.3-0.1-0.4s-0.2-0.2-0.4-0.2c-0.2,0-0.3,0-0.5,0.1s-0.4,0.2-0.6,0.3l-0.5-0.7
				c0.1-0.1,0.2-0.2,0.3-0.2s0.2-0.1,0.4-0.2c0.1-0.1,0.3-0.1,0.4-0.1c0.2,0,0.3,0,0.5,0c0.2,0,0.4,0.1,0.6,0.2
				c0.2,0.1,0.3,0.2,0.4,0.3s0.2,0.3,0.2,0.5s0.1,0.4,0,0.6c0,0.2-0.1,0.4-0.2,0.5s-0.2,0.3-0.3,0.5c-0.1,0.2-0.3,0.3-0.5,0.4
				c-0.2,0.1-0.4,0.3-0.6,0.4l-0.6,0.5l0,0.1l1.9,0.3L168.1,108.7z"/>
			<path class="st22" d="M172.1,106.8c-0.1,0.4-0.1,0.7-0.2,1c-0.1,0.3-0.2,0.5-0.4,0.7s-0.4,0.3-0.6,0.4c-0.2,0.1-0.5,0.1-0.8,0.1
				c-0.3,0-0.5-0.1-0.7-0.3s-0.3-0.3-0.4-0.6c-0.1-0.2-0.2-0.5-0.2-0.8s0-0.7,0-1.1s0.1-0.7,0.2-1s0.2-0.5,0.4-0.7
				c0.2-0.2,0.4-0.3,0.6-0.4c0.2-0.1,0.5-0.1,0.8-0.1c0.3,0,0.5,0.1,0.7,0.3s0.3,0.3,0.4,0.6s0.2,0.5,0.2,0.8
				C172.2,106.1,172.2,106.4,172.1,106.8z M169.9,106.5c-0.1,0.5-0.1,1,0,1.2s0.2,0.4,0.4,0.5c0.2,0,0.4-0.1,0.5-0.3
				s0.2-0.7,0.3-1.2c0.1-0.6,0.1-1,0-1.2s-0.2-0.4-0.4-0.5c-0.1,0-0.2,0-0.3,0.1s-0.2,0.2-0.2,0.3s-0.1,0.3-0.2,0.5
				S169.9,106.2,169.9,106.5z"/>
			<path class="st22" d="M174.9,106.5c0,0.2-0.1,0.4-0.1,0.5s-0.1,0.3-0.3,0.3s-0.2,0.2-0.4,0.2s-0.3,0-0.5,0
				c-0.2,0-0.3-0.1-0.5-0.2c-0.1-0.1-0.2-0.2-0.3-0.3s-0.1-0.2-0.2-0.4c0-0.2,0-0.3,0-0.5s0.1-0.4,0.1-0.5s0.1-0.3,0.2-0.3
				c0.1-0.1,0.2-0.2,0.4-0.2c0.1,0,0.3,0,0.5,0c0.2,0,0.4,0.1,0.5,0.2c0.1,0.1,0.2,0.2,0.3,0.3s0.1,0.2,0.2,0.4
				C175,106.2,175,106.3,174.9,106.5z M177.2,105.7l-3.2,3.8l-0.8-0.1l3.2-3.8L177.2,105.7z M173.5,106.3c0,0.2,0,0.3,0,0.4
				c0,0.1,0.1,0.2,0.2,0.2c0.1,0,0.2,0,0.3-0.1c0.1-0.1,0.1-0.2,0.1-0.4c0.1-0.3,0-0.5-0.3-0.6c-0.1,0-0.2,0-0.3,0.1
				C173.5,106,173.5,106.2,173.5,106.3z M177.9,108.8c0,0.2-0.1,0.4-0.1,0.5c-0.1,0.1-0.1,0.3-0.3,0.3s-0.2,0.2-0.4,0.2
				s-0.3,0-0.5,0c-0.2,0-0.3-0.1-0.5-0.2c-0.1-0.1-0.2-0.2-0.3-0.3s-0.1-0.2-0.2-0.4c0-0.2,0-0.3,0-0.5c0-0.2,0.1-0.4,0.1-0.5
				s0.1-0.3,0.2-0.3c0.1-0.1,0.2-0.2,0.4-0.2c0.1,0,0.3,0,0.5,0c0.2,0,0.4,0.1,0.5,0.2c0.1,0.1,0.2,0.2,0.3,0.3
				c0.1,0.1,0.1,0.2,0.2,0.4C177.9,108.5,177.9,108.7,177.9,108.8z M176.4,108.7c0,0.2,0,0.3,0,0.4c0,0.1,0.1,0.2,0.2,0.2
				c0.1,0,0.2,0,0.3-0.1c0.1-0.1,0.1-0.2,0.1-0.4c0.1-0.3,0-0.5-0.3-0.6c-0.1,0-0.2,0-0.3,0.1C176.5,108.3,176.4,108.5,176.4,108.7z
				"/>
		</g>
	</g>
	<g>
		<g>
			<path class="st22" d="M94.4,132.2v1.8H92c-0.1-0.3-0.2-0.6-0.2-0.8s-0.1-0.5-0.1-0.8c0-0.7,0.2-1.2,0.6-1.6
				c0.4-0.4,1-0.6,1.8-0.6c0.8,0,1.3,0.2,1.8,0.6s0.6,1,0.6,1.8c0,0.5-0.1,0.9-0.3,1.4l-0.8-0.3c0.2-0.3,0.2-0.7,0.2-1.1
				c0-0.4-0.1-0.8-0.4-1c-0.3-0.3-0.7-0.4-1.2-0.4c-0.5,0-0.9,0.1-1.2,0.3c-0.3,0.2-0.4,0.5-0.4,0.9c0,0.2,0,0.4,0.1,0.6h1v-0.9
				L94.4,132.2z"/>
			<path class="st22" d="M94.2,139.4c-0.8,0-1.4-0.2-1.8-0.6c-0.4-0.4-0.6-0.9-0.6-1.6s0.2-1.3,0.6-1.6s1-0.6,1.8-0.6
				c0.8,0,1.4,0.2,1.8,0.6c0.4,0.4,0.6,0.9,0.6,1.6s-0.2,1.3-0.6,1.6S94.9,139.4,94.2,139.4z M94.2,136c-0.5,0-0.9,0.1-1.2,0.3
				c-0.3,0.2-0.4,0.5-0.4,0.9c0,0.8,0.5,1.2,1.6,1.2c1.1,0,1.6-0.4,1.6-1.2c0-0.4-0.1-0.7-0.4-0.9S94.7,136,94.2,136z"/>
			<path class="st22" d="M91.8,140.4h4.6v1h-3.8v1.9h-0.8V140.4z"/>
			<path class="st22" d="M94.2,147.9c-0.8,0-1.3-0.2-1.8-0.6c-0.4-0.4-0.6-1.1-0.6-1.9v-1.3h4.6v1.5c0,0.8-0.2,1.4-0.6,1.8
				S94.9,147.9,94.2,147.9z M94.2,146.9c1,0,1.5-0.4,1.5-1.3V145h-3v0.4C92.6,146.4,93.2,146.9,94.2,146.9z"/>
			<path class="st22" d="M91.8,151.5v-2.7h4.6v2.7h-0.8v-1.7h-1v1.6h-0.8v-1.6h-1.2v1.7H91.8z"/>
			<path class="st22" d="M91.8,156.6v-1.2l3.5-2v0c-0.6,0-1.1,0.1-1.3,0.1h-2.2v-0.9h4.6v1.2l-3.5,2v0c0.6,0,1-0.1,1.3-0.1h2.2v0.9
				H91.8z"/>
			<path class="st22" d="M95.7,161.4c0-0.4-0.1-0.7-0.4-0.9s-0.7-0.3-1.2-0.3c-1,0-1.6,0.4-1.6,1.2c0,0.3,0.1,0.7,0.2,1.2H92
				c-0.2-0.4-0.2-0.8-0.2-1.3c0-0.7,0.2-1.2,0.6-1.6s1-0.5,1.8-0.5c0.5,0,0.9,0.1,1.3,0.3c0.4,0.2,0.6,0.4,0.8,0.8s0.3,0.7,0.3,1.2
				s-0.1,0.9-0.3,1.4l-0.8-0.3c0.1-0.2,0.2-0.4,0.2-0.5C95.7,161.8,95.7,161.6,95.7,161.4z"/>
			<path class="st22" d="M91.8,167.4v-1h2v-1.8h-2v-1h4.6v1h-1.8v1.8h1.8v1H91.8z"/>
			<path class="st22" d="M91.8,171.2v-2.7h4.6v2.7h-0.8v-1.7h-1v1.6h-0.8v-1.6h-1.2v1.7H91.8z"/>
			<path class="st22" d="M93.1,175c-0.4,0-0.8-0.1-1-0.4s-0.4-0.7-0.4-1.3c0-0.5,0.1-0.9,0.3-1.3h0.9c-0.1,0.3-0.2,0.6-0.3,0.8
				s-0.1,0.4-0.1,0.6c0,0.2,0,0.4,0.1,0.5s0.2,0.2,0.4,0.2c0.1,0,0.2,0,0.2-0.1c0.1-0.1,0.1-0.1,0.2-0.2c0.1-0.1,0.2-0.3,0.3-0.6
				c0.1-0.3,0.3-0.5,0.4-0.6c0.1-0.1,0.3-0.2,0.4-0.3c0.2-0.1,0.3-0.1,0.6-0.1c0.4,0,0.7,0.1,1,0.4c0.2,0.3,0.3,0.7,0.3,1.2
				c0,0.2,0,0.5-0.1,0.7s-0.1,0.4-0.2,0.7l-0.8-0.3c0.1-0.2,0.2-0.4,0.2-0.6s0.1-0.3,0.1-0.5c0-0.2,0-0.3-0.1-0.4s-0.2-0.1-0.3-0.1
				c-0.1,0-0.2,0-0.2,0.1s-0.1,0.1-0.2,0.2s-0.2,0.3-0.3,0.6c-0.2,0.4-0.4,0.7-0.6,0.9C93.7,174.9,93.4,175,93.1,175z"/>
			<path class="st22" d="M91.8,177.6v-1h3.8v-1.3h0.8v3.5h-0.8v-1.3L91.8,177.6z"/>
		</g>
	</g>
	<g>
		<g>
			<path class="st22" d="M130,75.4c0.2,0.4,0.2,0.8,0.1,1.2s-0.5,0.7-1,1c-0.5,0.3-0.9,0.4-1.4,0.4l-0.5-0.9c0.4,0,0.7-0.1,0.9-0.1
				s0.4-0.1,0.6-0.2c0.2-0.1,0.3-0.2,0.4-0.4s0.1-0.3,0-0.4c-0.1-0.1-0.1-0.2-0.2-0.2c-0.1,0-0.2-0.1-0.3-0.1c-0.1,0-0.4,0-0.7,0
				c-0.3,0-0.6,0-0.8,0c-0.2,0-0.4-0.1-0.5-0.2c-0.2-0.1-0.3-0.3-0.4-0.5c-0.2-0.4-0.3-0.8-0.1-1.1c0.1-0.4,0.4-0.7,0.9-0.9
				c0.2-0.1,0.5-0.2,0.7-0.3c0.2-0.1,0.5-0.1,0.8-0.1l0.1,0.9c-0.3,0-0.5,0.1-0.7,0.1c-0.2,0.1-0.3,0.1-0.5,0.2
				c-0.2,0.1-0.3,0.2-0.3,0.3s0,0.3,0,0.4c0.1,0.1,0.1,0.1,0.2,0.2s0.2,0.1,0.3,0.1c0.1,0,0.4,0,0.8,0c0.5,0,0.9,0,1.2,0.1
				C129.6,74.9,129.8,75.1,130,75.4z"/>
			<path class="st22" d="M133.1,75.2l-2,1.1l-0.3-0.5l0.4-0.5l-1.6-2.8l-0.7,0.1l-0.3-0.5l2-1.1l0.3,0.5l-0.4,0.5l1.6,2.8l0.7-0.1
				L133.1,75.2z"/>
			<path class="st22" d="M133.8,74.8l-2.4-4.4l0.9-0.5l2,3.6l1.8-1l0.4,0.8L133.8,74.8z"/>
			<path class="st22" d="M137.3,67.2l0.9-0.5l1,5.2l-1,0.6l-3.9-3.5l0.9-0.5l2.3,2.1c0.1,0.1,0.3,0.3,0.4,0.4
				c0.2,0.2,0.3,0.3,0.3,0.4c-0.1-0.2-0.2-0.6-0.3-1.1L137.3,67.2z"/>
			<path class="st22" d="M143.7,69.3l-2.5,1.4l-2.4-4.4l2.5-1.4l0.4,0.8l-1.6,0.9l0.5,1l1.5-0.8l0.4,0.8l-1.5,0.8l0.6,1.1l1.6-0.9
				L143.7,69.3z"/>
			<path class="st22" d="M144.6,66.6l0.9,1.7l-0.9,0.5l-2.4-4.4l1.3-0.7c0.6-0.3,1.1-0.5,1.5-0.4c0.4,0.1,0.7,0.3,1,0.7
				c0.1,0.3,0.2,0.5,0.2,0.8s-0.1,0.6-0.3,0.8l2.4,1.2l-1,0.6l-2-1.1L144.6,66.6z M144.2,65.8l0.3-0.2c0.3-0.2,0.5-0.3,0.6-0.5
				c0.1-0.2,0.1-0.4-0.1-0.6c-0.1-0.2-0.3-0.3-0.5-0.3s-0.4,0.1-0.7,0.2l-0.3,0.2L144.2,65.8z"/>
			<path class="st22" d="M150,60.9c-0.4,0.2-0.5,0.5-0.6,0.8c0,0.4,0.1,0.8,0.3,1.2c0.6,1,1.2,1.2,1.9,0.8c0.3-0.2,0.6-0.5,1-0.8
				l0.4,0.8c-0.3,0.3-0.6,0.7-1.1,0.9c-0.6,0.4-1.2,0.4-1.8,0.2c-0.6-0.2-1-0.7-1.4-1.4c-0.2-0.5-0.4-0.9-0.4-1.3
				c0-0.4,0.1-0.8,0.3-1.2s0.5-0.7,0.9-0.9c0.4-0.2,0.9-0.4,1.4-0.4l0.1,0.9c-0.2,0-0.4,0-0.6,0.1C150.4,60.8,150.2,60.8,150,60.9z"
				/>
			<path class="st22" d="M157.7,61.4l-0.9,0.5l-1.1-1.9l-1.7,1l1.1,1.9l-0.9,0.5l-2.4-4.4l0.9-0.5l1,1.7l1.7-1l-1-1.7l0.9-0.5
				L157.7,61.4z"/>
			<path class="st22" d="M161.3,59.4l-2.5,1.4l-2.4-4.4l2.5-1.4l0.4,0.8l-1.6,0.9l0.5,1l1.5-0.8l0.4,0.8l-1.5,0.8l0.6,1.1l1.6-0.9
				L161.3,59.4z"/>
			<path class="st22" d="M164.1,56.2c0.2,0.4,0.2,0.8,0.1,1.2c-0.2,0.4-0.5,0.7-1,1c-0.5,0.3-0.9,0.4-1.4,0.4l-0.5-0.9
				c0.4,0,0.7-0.1,0.9-0.1c0.2-0.1,0.4-0.1,0.6-0.2c0.2-0.1,0.3-0.2,0.4-0.4s0.1-0.3,0-0.4c-0.1-0.1-0.1-0.2-0.2-0.2
				c-0.1,0-0.2-0.1-0.3-0.1s-0.4,0-0.7,0c-0.3,0-0.6,0-0.8,0s-0.4-0.1-0.5-0.2c-0.2-0.1-0.3-0.3-0.4-0.5c-0.2-0.4-0.3-0.8-0.1-1.1
				c0.1-0.4,0.4-0.7,0.9-0.9c0.2-0.1,0.5-0.2,0.7-0.3c0.2-0.1,0.5-0.1,0.8-0.1l0.1,0.9c-0.3,0-0.5,0.1-0.7,0.1
				c-0.2,0-0.3,0.1-0.5,0.2c-0.2,0.1-0.3,0.2-0.3,0.3c-0.1,0.1,0,0.3,0,0.4c0.1,0.1,0.1,0.1,0.2,0.2c0.1,0,0.2,0.1,0.3,0.1
				c0.1,0,0.4,0,0.8,0c0.5,0,0.9,0,1.2,0.1C163.7,55.7,163.9,55.9,164.1,56.2z"/>
			<path class="st22" d="M167.2,56l-0.9,0.5l-2-3.6l-1.2,0.7l-0.4-0.8L166,51l0.4,0.8l-1.2,0.7L167.2,56z"/>
		</g>
	</g>
	<g>
		<g>
			<path class="st22" d="M14,82.1l-0.9-0.2l0.4-2.4c0-0.1,0-0.1,0-0.2c0-0.1,0-0.1,0.1-0.2c0-0.1,0-0.2,0.1-0.2s0-0.2,0.1-0.2
				c0,0,0,0-0.1,0c0,0-0.1,0-0.1,0.1s-0.1,0.1-0.1,0.1s-0.1,0-0.1,0.1l-0.6,0.3l-0.3-0.6l1.6-0.8l0.7,0.1L14,82.1z"/>
			<path class="st22" d="M18.3,80.7c-0.1,0.3-0.1,0.6-0.2,0.9s-0.2,0.5-0.4,0.6c-0.1,0.2-0.3,0.3-0.5,0.3s-0.4,0.1-0.7,0
				c-0.2-0.1-0.5-0.1-0.6-0.3c-0.2-0.1-0.3-0.3-0.4-0.5s-0.1-0.4-0.1-0.7c0-0.3,0-0.6,0.1-0.9c0.1-0.3,0.1-0.6,0.2-0.9
				s0.2-0.5,0.4-0.6c0.1-0.2,0.3-0.3,0.5-0.3s0.4-0.1,0.7,0c0.2,0,0.4,0.1,0.6,0.3c0.2,0.1,0.3,0.3,0.4,0.5c0.1,0.2,0.1,0.4,0.1,0.7
				C18.4,80,18.4,80.3,18.3,80.7z M16.4,80.3c-0.1,0.5-0.1,0.8-0.1,1.1s0.2,0.4,0.4,0.4s0.4-0.1,0.5-0.3s0.2-0.6,0.3-1.1
				c0.1-0.5,0.1-0.8,0.1-1.1S17.4,79,17.2,79c-0.1,0-0.2,0-0.3,0c-0.1,0.1-0.2,0.1-0.2,0.2c-0.1,0.1-0.1,0.3-0.2,0.4
				C16.4,79.9,16.4,80.1,16.4,80.3z"/>
			<path class="st22" d="M21.6,81.3c-0.1,0.3-0.1,0.6-0.2,0.9s-0.2,0.5-0.4,0.6c-0.1,0.2-0.3,0.3-0.5,0.3s-0.4,0.1-0.7,0
				c-0.2,0-0.5-0.1-0.6-0.3c-0.2-0.1-0.3-0.3-0.4-0.5s-0.1-0.4-0.1-0.7s0-0.6,0.1-0.9s0.1-0.6,0.2-0.9s0.2-0.5,0.4-0.6
				c0.1-0.2,0.3-0.3,0.5-0.3s0.4-0.1,0.7,0c0.2,0,0.4,0.1,0.6,0.3c0.2,0.1,0.3,0.3,0.4,0.5c0.1,0.2,0.1,0.4,0.1,0.7
				C21.7,80.7,21.7,81,21.6,81.3z M19.6,80.9c-0.1,0.5-0.1,0.8-0.1,1.1s0.2,0.4,0.4,0.4s0.4-0.1,0.5-0.3s0.2-0.6,0.3-1.1
				c0.1-0.5,0.1-0.8,0.1-1.1s-0.2-0.4-0.4-0.4c-0.1,0-0.2,0-0.3,0c-0.1,0.1-0.2,0.1-0.2,0.2c-0.1,0.1-0.1,0.3-0.2,0.4
				C19.7,80.5,19.6,80.7,19.6,80.9z"/>
			<path class="st22" d="M24.3,84l-0.9-0.2l0.8-4.2l2.4,0.4l-0.1,0.7L25,80.5l-0.2,1.1l1.4,0.3l-0.1,0.7l-1.4-0.3L24.3,84z"/>
			<path class="st22" d="M27.9,83l-0.3,1.6l-0.9-0.2l0.8-4.2l1.2,0.2c0.6,0.1,1,0.3,1.2,0.6c0.2,0.3,0.3,0.6,0.2,1
				c0,0.2-0.2,0.5-0.3,0.6c-0.2,0.2-0.4,0.3-0.7,0.3l0.9,2.1l-1-0.2l-0.7-1.8L27.9,83z M28,82.2l0.3,0.1c0.3,0.1,0.5,0,0.6,0
				c0.1-0.1,0.2-0.2,0.3-0.4c0-0.2,0-0.3-0.1-0.5c-0.1-0.1-0.3-0.2-0.6-0.2l-0.3-0.1L28,82.2z"/>
			<path class="st22" d="M33,85.6l-2.4-0.4l0.8-4.2l2.4,0.4l-0.1,0.7l-1.5-0.3L32,82.8l1.4,0.3l-0.1,0.7l-1.4-0.3l-0.2,1.1l1.5,0.3
				L33,85.6z"/>
			<path class="st22" d="M36.3,86.2l-2.4-0.4l0.8-4.2l2.4,0.4l-0.1,0.7l-1.5-0.3l-0.2,0.9l1.4,0.3l-0.1,0.7l-1.4-0.3l-0.2,1.1
				l1.5,0.3L36.3,86.2z"/>
			<path class="st22" d="M41.4,86c-0.1,0.4-0.3,0.7-0.6,0.8s-0.7,0.2-1.2,0.1c-0.5-0.1-0.8-0.2-1.2-0.5l0.2-0.8
				c0.3,0.2,0.5,0.3,0.7,0.4c0.2,0.1,0.4,0.2,0.5,0.2c0.2,0,0.3,0,0.5,0s0.2-0.2,0.2-0.3c0-0.1,0-0.2,0-0.2c0-0.1-0.1-0.2-0.2-0.2
				c-0.1-0.1-0.2-0.2-0.5-0.4c-0.2-0.2-0.4-0.3-0.5-0.5c-0.1-0.1-0.2-0.3-0.2-0.4c0-0.2-0.1-0.3,0-0.5c0.1-0.4,0.2-0.6,0.5-0.8
				s0.7-0.2,1.1-0.1c0.2,0,0.4,0.1,0.6,0.2s0.4,0.2,0.6,0.3l-0.4,0.6c-0.2-0.1-0.4-0.2-0.5-0.3c-0.1-0.1-0.3-0.1-0.4-0.1
				c-0.2,0-0.3,0-0.4,0S40,83.6,40,83.7c0,0.1,0,0.2,0,0.2s0.1,0.1,0.1,0.2s0.2,0.2,0.5,0.4c0.4,0.3,0.6,0.5,0.7,0.7
				C41.4,85.4,41.5,85.7,41.4,86z"/>
			<path class="st22" d="M45.4,84.9c-0.1,0.4-0.3,0.8-0.6,1c-0.3,0.2-0.8,0.2-1.3,0.1l-0.4-0.1l-0.3,1.5L42,87.3l0.8-4.2l1.3,0.2
				c0.5,0.1,0.9,0.3,1.1,0.6C45.4,84.1,45.5,84.5,45.4,84.9z M43.3,85.2l0.3,0.1c0.3,0.1,0.5,0,0.7-0.1c0.2-0.1,0.2-0.2,0.3-0.4
				s0-0.4-0.1-0.5c-0.1-0.1-0.3-0.2-0.5-0.2l-0.4-0.1L43.3,85.2z"/>
			<path class="st22" d="M47.2,88.3l-1.9-0.4l0.1-0.5l0.6-0.1l0.5-2.7L46,84.2l0.1-0.5l1.9,0.4l-0.1,0.5l-0.6,0.1l-0.5,2.7l0.5,0.3
				L47.2,88.3z"/>
			<path class="st22" d="M51.7,89.1l-1.1-0.2l-1.2-3.5h0c-0.1,0.6-0.1,1-0.2,1.2l-0.4,2L48,88.4l0.8-4.2l1.1,0.2l1.2,3.5h0
				c0.1-0.6,0.1-0.9,0.2-1.2l0.4-2l0.8,0.2L51.7,89.1z"/>
			<path class="st22" d="M55.5,88.6c-0.1,0.4-0.3,0.7-0.6,0.8c-0.3,0.2-0.7,0.2-1.2,0.1c-0.5-0.1-0.8-0.2-1.1-0.5l0.2-0.8
				c0.3,0.2,0.5,0.3,0.7,0.4c0.2,0.1,0.4,0.2,0.5,0.2c0.2,0,0.3,0,0.5,0s0.2-0.2,0.2-0.3c0-0.1,0-0.2,0-0.2c0-0.1-0.1-0.2-0.2-0.2
				c-0.1-0.1-0.2-0.2-0.5-0.4c-0.2-0.2-0.4-0.3-0.5-0.5c-0.1-0.1-0.2-0.3-0.2-0.4c0-0.2-0.1-0.3,0-0.5c0.1-0.4,0.2-0.6,0.5-0.8
				s0.7-0.2,1.1-0.1c0.2,0,0.4,0.1,0.6,0.2s0.4,0.2,0.6,0.3l-0.4,0.6c-0.2-0.1-0.4-0.2-0.5-0.3c-0.1-0.1-0.3-0.1-0.4-0.1
				c-0.2,0-0.3,0-0.4,0S54,86.2,54,86.3c0,0.1,0,0.2,0,0.2s0.1,0.1,0.1,0.2s0.2,0.2,0.5,0.4c0.4,0.3,0.6,0.5,0.7,0.7
				C55.5,88.1,55.5,88.3,55.5,88.6z"/>
		</g>
	</g>
</g>
</svg>
