<svg width="832" height="832" viewBox="0 0 832 832" fill="none" xmlns="http://www.w3.org/2000/svg">
<path opacity="0.5" fill-rule="evenodd" clip-rule="evenodd" d="M415.691 53.0288C215.77 53.0288 53.0991 215.7 53.0991 415.621C53.0991 615.577 215.77 778.213 415.691 778.213C615.647 778.213 778.283 615.542 778.283 415.621C778.283 215.7 615.647 53.0288 415.691 53.0288ZM415.691 771.466C219.495 771.466 59.8463 611.852 59.8463 415.621C59.8463 219.425 219.46 59.776 415.691 59.776C611.887 59.776 771.536 219.39 771.536 415.621C771.536 611.817 611.922 771.466 415.691 771.466Z" fill="white"/>
<path d="M615.085 691.132C559.034 731.826 490.121 755.828 415.691 755.828C341.261 755.828 272.348 731.826 216.297 691.132" stroke="white" stroke-width="2.978" stroke-miterlimit="10" stroke-linecap="round" stroke-linejoin="round"/>
<path d="M86.765 501.964C69.0887 434.984 71.5837 362.065 98.5023 292.66C125.386 223.255 172.686 167.696 230.881 130.13" stroke="white" stroke-width="2.978" stroke-miterlimit="10" stroke-linecap="round" stroke-linejoin="round"/>
<path d="M744.442 501.964C762.118 434.984 759.623 362.065 732.704 292.66C705.821 223.255 658.52 167.696 600.326 130.13" stroke="white" stroke-width="2.978" stroke-miterlimit="10" stroke-linecap="round" stroke-linejoin="round"/>
<path d="M415.691 103.984L349.73 60.3031C395.344 54.1533 439.342 54.0479 481.652 60.3031L415.691 103.984Z" fill="#247CC2"/>
<path d="M372.01 65.6446C387.332 64.2038 402.443 63.501 417.202 63.501C431.47 63.501 445.667 64.1687 459.583 65.5392L415.691 94.6014L372.01 65.6446Z" fill="url(#paint0_linear_702_557)"/>
<path opacity="0.2" fill-rule="evenodd" clip-rule="evenodd" d="M726.484 691.308C726.836 690.921 727.187 690.499 727.539 690.113C735.516 681.081 743.106 671.663 750.275 661.964C750.416 661.753 750.556 661.578 750.697 661.367C752.911 658.345 755.09 655.287 757.233 652.23C757.479 651.879 757.725 651.527 757.936 651.211C760.185 647.978 762.364 644.71 764.508 641.406C788.966 603.734 807.486 561.846 818.766 517.11C819.048 516.021 819.294 514.967 819.54 513.877C820.348 510.609 821.086 507.306 821.824 503.967C822.035 502.983 822.281 501.999 822.456 500.98C823.335 496.798 824.143 492.581 824.916 488.364C825.022 487.732 825.127 487.099 825.233 486.467C825.865 482.847 826.427 479.227 826.954 475.573C827.13 474.378 827.306 473.148 827.446 471.953C827.938 468.404 828.36 464.819 828.747 461.235C828.817 460.462 828.922 459.689 829.028 458.916C829.485 454.628 829.836 450.341 830.152 446.018C830.223 444.929 830.293 443.84 830.363 442.785C830.574 439.412 830.75 436.003 830.89 432.594C830.925 431.364 830.996 430.099 831.031 428.869C831.171 424.477 831.277 420.084 831.277 415.656C831.277 412.107 831.242 408.557 831.136 405.043C831.101 403.005 830.996 401.002 830.89 398.964C830.82 397.488 830.785 396.012 830.715 394.536C830.574 391.795 830.398 389.019 830.188 386.278C830.152 385.54 830.117 384.837 830.047 384.099C829.801 380.901 829.52 377.738 829.204 374.575C829.168 374.294 829.168 374.048 829.133 373.767C823.159 314.413 804.675 258.713 776.35 209.339C774.383 205.895 772.344 202.486 770.271 199.113C769.884 198.48 769.498 197.883 769.111 197.286C767.46 194.615 765.773 191.979 764.051 189.343C763.489 188.465 762.926 187.622 762.364 186.743C760.712 184.283 759.061 181.823 757.374 179.398C756.847 178.625 756.32 177.852 755.757 177.079C753.649 174.092 751.505 171.14 749.326 168.188C749.221 168.048 749.151 167.907 749.045 167.802C746.656 164.569 744.196 161.371 741.701 158.243C741.49 157.962 741.244 157.681 741.033 157.4C738.854 154.659 736.64 151.953 734.391 149.247C733.864 148.614 733.337 147.982 732.81 147.384C730.737 144.96 728.663 142.535 726.555 140.18C726.063 139.618 725.571 139.056 725.044 138.493C722.513 135.682 719.983 132.906 717.383 130.165C717.348 130.13 717.277 130.059 717.242 130.024C711.725 124.191 705.997 118.533 700.163 113.016C699.777 112.664 699.39 112.313 699.039 111.961C696.473 109.572 693.908 107.217 691.272 104.898C690.886 104.547 690.464 104.195 690.078 103.809C681.046 95.8314 671.628 88.2408 661.929 81.0719C661.718 80.9313 661.542 80.7908 661.332 80.6502C658.309 78.4363 655.252 76.2575 652.16 74.1138C651.808 73.8679 651.492 73.657 651.141 73.411C610.06 45.0517 563.638 23.8964 513.737 11.7725C498.169 7.97717 482.25 5.06041 466.049 3.09247C465.452 3.02219 464.854 2.9519 464.257 2.88162C461.059 2.49506 457.826 2.17879 454.593 1.86251C453.539 1.75709 452.485 1.6868 451.43 1.58138C448.619 1.33538 445.772 1.12453 442.926 0.948826C441.696 0.878542 440.501 0.773117 439.271 0.702833C436.46 0.527125 433.613 0.421701 430.802 0.316276C429.642 0.281134 428.518 0.210851 427.358 0.175709C423.422 0.0702841 419.486 0 415.551 0C411.58 0 407.644 0.0702841 403.743 0.175709C402.583 0.210851 401.459 0.281134 400.299 0.316276C397.453 0.421701 394.641 0.527125 391.795 0.702833C390.565 0.773117 389.37 0.843401 388.14 0.948826C385.294 1.12453 382.482 1.33538 379.636 1.58138C378.582 1.6868 377.527 1.75709 376.473 1.86251C373.24 2.17879 370.042 2.49506 366.809 2.88162C366.212 2.9519 365.614 3.02219 365.017 3.09247C348.817 5.06041 332.932 7.97717 317.365 11.7725C267.463 23.8964 221.041 45.0517 179.961 73.411C179.609 73.657 179.293 73.8679 178.942 74.1138C175.849 76.2575 172.792 78.4363 169.77 80.6502C169.559 80.7908 169.383 80.9313 169.172 81.0719C159.438 88.2408 150.055 95.8314 141.024 103.809C140.637 104.16 140.215 104.511 139.829 104.863C137.228 107.182 134.628 109.537 132.063 111.926C131.676 112.278 131.325 112.629 130.938 112.981C125.069 118.498 119.376 124.156 113.859 129.989C113.824 130.024 113.789 130.059 113.754 130.095C111.153 132.836 108.588 135.612 106.058 138.458C105.566 139.021 105.074 139.583 104.547 140.145C102.438 142.535 100.33 144.96 98.2913 147.384C97.7642 148.017 97.2371 148.614 96.71 149.247C94.4609 151.953 92.2118 154.659 90.033 157.435C89.8222 157.716 89.5762 157.997 89.3653 158.243C86.8703 161.406 84.4104 164.604 82.0207 167.837C81.9504 167.942 81.845 168.083 81.7747 168.188C79.5959 171.14 77.4523 174.127 75.3087 177.114C74.7815 177.887 74.2544 178.66 73.7273 179.398C72.0405 181.823 70.3537 184.283 68.7372 186.778C68.1749 187.622 67.6126 188.5 67.0504 189.343C65.3284 191.979 63.6416 194.65 61.99 197.321C61.6034 197.918 61.2168 198.551 60.8654 199.148C36.0905 239.737 17.9925 284.929 8.2583 333.143V333.178C6.25522 343.159 4.56842 353.28 3.30332 363.506V363.541C2.88162 366.914 2.49506 370.323 2.14364 373.767C2.1085 374.013 2.1085 374.294 2.07336 374.54C1.75708 377.703 1.47595 380.901 1.22996 384.064C1.15968 384.766 1.15968 385.504 1.08939 386.207C0.913684 388.948 0.702833 391.689 0.562267 394.466C0.491983 395.942 0.456841 397.417 0.386557 398.893C0.316274 400.932 0.21085 402.935 0.140567 404.973C0.0351416 408.487 0 412.036 0 415.586C0 420.014 0.105424 424.406 0.245991 428.799C0.281133 430.064 0.351416 431.294 0.386557 432.524C0.527124 435.933 0.702833 439.306 0.913683 442.715C0.983967 443.805 1.05425 444.894 1.12453 445.948C1.44081 450.271 1.82737 454.558 2.24907 458.845C2.31935 459.618 2.42478 460.391 2.5302 461.165C2.91676 464.749 3.3736 468.333 3.83044 471.883C4.00615 473.078 4.14672 474.308 4.32243 475.502C4.84955 479.157 5.41182 482.777 6.04437 486.396C6.1498 487.029 6.25522 487.661 6.36065 488.294C7.09862 492.511 7.94202 496.728 8.82057 500.91C9.03142 501.894 9.24227 502.913 9.48826 503.897C10.1911 507.2 10.9642 510.504 11.7725 513.807C12.0185 514.896 12.2996 515.951 12.5456 517.04C24.81 565.711 45.6491 610.974 73.3759 651.141C73.6219 651.492 73.8327 651.808 74.0787 652.16C76.2223 655.252 78.4011 658.31 80.6151 661.332C80.7556 661.507 80.8962 661.718 81.0368 661.894C88.2057 671.628 95.7963 681.011 103.773 690.042C104.125 690.429 104.476 690.851 104.828 691.237C107.147 693.838 109.502 696.438 111.891 699.004C112.243 699.39 112.594 699.742 112.945 700.128C118.463 705.997 124.12 711.69 129.954 717.207C129.989 717.242 130.024 717.277 130.095 717.312C132.836 719.913 135.612 722.443 138.423 724.973C138.985 725.465 139.548 725.992 140.11 726.484C142.5 728.593 144.889 730.666 147.314 732.74C147.947 733.267 148.579 733.794 149.212 734.321C151.882 736.57 154.623 738.784 157.365 740.963C157.646 741.174 157.927 741.42 158.208 741.63C161.371 744.126 164.533 746.585 167.766 748.975C167.907 749.081 168.048 749.186 168.188 749.291C171.105 751.47 174.092 753.614 177.044 755.687C177.817 756.214 178.59 756.741 179.363 757.304C181.788 758.99 184.248 760.642 186.708 762.294C187.586 762.856 188.43 763.418 189.308 764.016C191.944 765.738 194.58 767.424 197.25 769.076C197.883 769.463 198.48 769.849 199.113 770.236C202.486 772.309 205.895 774.347 209.339 776.315C242.759 795.503 279.06 810.157 317.47 819.469C333.038 823.265 348.957 826.181 365.122 828.149C365.72 828.22 366.317 828.29 366.914 828.36C370.112 828.747 373.345 829.063 376.578 829.379C377.633 829.485 378.687 829.555 379.741 829.66C382.553 829.906 385.399 830.117 388.246 830.293C389.475 830.363 390.67 830.469 391.9 830.539C394.712 830.715 397.558 830.82 400.405 830.926C401.564 830.961 402.689 831.031 403.848 831.066C407.784 831.172 411.72 831.242 415.656 831.242C419.627 831.242 423.563 831.172 427.464 831.066C428.623 831.031 429.748 830.961 430.908 830.926C433.754 830.82 436.565 830.715 439.377 830.539C440.607 830.469 441.801 830.398 443.031 830.293C445.878 830.117 448.689 829.906 451.536 829.66C452.59 829.555 453.644 829.485 454.698 829.379C457.931 829.063 461.129 828.747 464.362 828.36C464.96 828.29 465.557 828.22 466.155 828.149C482.355 826.181 498.239 823.265 513.842 819.469C556.188 809.173 596.003 792.41 632.199 770.236C632.797 769.849 633.429 769.463 634.027 769.111C636.697 767.46 639.368 765.773 642.004 764.051C642.882 763.489 643.726 762.926 644.569 762.364C647.064 760.712 649.489 759.061 651.949 757.374C652.722 756.847 653.495 756.32 654.233 755.793C657.22 753.684 660.207 751.54 663.124 749.362C663.264 749.256 663.37 749.186 663.51 749.081C666.743 746.691 669.941 744.231 673.069 741.736C673.35 741.525 673.631 741.279 673.912 741.068C676.653 738.889 679.394 736.676 682.065 734.391C682.698 733.864 683.33 733.337 683.928 732.81C686.353 730.737 688.777 728.663 691.132 726.555C691.694 726.063 692.256 725.571 692.819 725.044C695.63 722.513 698.406 719.983 701.147 717.383C701.182 717.348 701.217 717.312 701.288 717.277C707.121 711.76 712.779 706.032 718.296 700.198C718.648 699.812 718.999 699.46 719.351 699.074C721.81 696.509 724.165 693.943 726.484 691.308ZM415.691 786.085C381.709 786.085 348.816 781.481 317.54 772.871V814.233C280.571 805.132 245.535 791.005 213.24 772.625L242.689 743.177C183.791 711.936 134.276 665.303 99.5916 608.654L70.5645 637.681C49.1984 604.578 32.4709 568.206 21.2959 529.515H63.1496C51.5177 493.635 45.2274 455.366 45.2274 415.656C45.2274 387.332 48.4253 359.71 54.5048 333.178H13.5296C22.2798 290.376 37.7422 249.998 58.7218 213.17L88.1705 242.618C119.411 183.721 166.045 134.206 222.693 99.5213L193.666 70.4943C231.197 46.2465 272.946 28.0079 317.505 17.0086V58.3704C348.781 49.7607 381.674 45.1571 415.656 45.1571C449.638 45.1571 482.531 49.7607 513.807 58.3704V17.0086C558.366 27.9728 600.115 46.2465 637.646 70.4943L608.619 99.5213C665.268 134.241 711.901 183.756 743.142 242.618L772.59 213.17C793.57 249.998 809.032 290.376 817.783 333.178H776.807C782.852 359.71 786.085 387.297 786.085 415.656C786.085 455.366 779.794 493.6 768.162 529.515H810.016C798.841 568.206 782.114 604.578 760.747 637.681L731.72 608.654C697 665.303 647.486 711.936 588.623 743.177L618.072 772.625C585.777 791.005 550.741 805.132 513.772 814.233V772.871C482.566 781.481 449.673 786.085 415.691 786.085Z" fill="white"/>
<path opacity="0.2" fill-rule="evenodd" clip-rule="evenodd" d="M712.463 133.714C712.463 133.714 710.741 144.292 711.479 155.783C699.988 155.08 689.41 156.767 689.41 156.767C689.41 156.767 691.132 146.189 690.394 134.698C701.815 135.471 712.463 133.714 712.463 133.714Z" fill="white"/>
<path opacity="0.2" fill-rule="evenodd" clip-rule="evenodd" d="M680.66 691.378C680.66 691.378 677.848 684.631 682.346 679.957C687.126 674.896 697.106 679.219 698.547 690.007C699.531 697.738 699.812 706.313 698.968 709.687C695.595 710.495 687.055 710.249 679.289 709.265C668.501 707.859 664.248 697.914 669.239 693.065C673.912 688.531 680.66 691.378 680.66 691.378Z" fill="white"/>
<path opacity="0.2" fill-rule="evenodd" clip-rule="evenodd" d="M802.215 420.049C802.285 421.279 802.531 422.368 803.023 423.422C801.477 421.665 799.263 420.611 796.838 420.611C792.34 420.611 788.65 424.196 788.545 428.694C788.65 433.192 792.305 436.776 796.838 436.776C799.333 436.776 801.547 435.652 803.023 433.965C802.531 434.984 802.215 436.144 802.215 437.338C802.32 441.837 805.975 445.421 810.508 445.421C815.006 445.421 818.696 441.837 818.802 437.338C818.696 433.649 816.201 430.556 812.828 429.572C815.885 429.994 822.597 431.048 825.479 432.384V424.969C822.632 426.304 815.92 427.358 812.828 427.78C816.201 426.761 818.696 423.704 818.802 420.014C818.696 415.515 815.042 411.931 810.508 411.931C806.045 411.931 802.32 415.551 802.215 420.049Z" fill="white"/>
<path opacity="0.2" fill-rule="evenodd" clip-rule="evenodd" d="M117.971 133.714C117.971 133.714 119.693 144.292 118.955 155.783C130.446 155.08 141.024 156.767 141.024 156.767C141.024 156.767 139.302 146.189 140.04 134.698C128.584 135.471 117.971 133.714 117.971 133.714Z" fill="white"/>
<path opacity="0.2" fill-rule="evenodd" clip-rule="evenodd" d="M149.739 691.378C149.739 691.378 152.55 684.631 148.052 679.957C143.273 674.896 133.293 679.219 131.852 690.007C130.868 697.738 130.587 706.313 131.43 709.687C134.804 710.495 143.343 710.249 151.109 709.265C161.898 707.859 166.15 697.914 161.16 693.065C156.486 688.531 149.739 691.378 149.739 691.378Z" fill="white"/>
<path opacity="0.2" fill-rule="evenodd" clip-rule="evenodd" d="M28.1836 420.049C28.1133 421.279 27.8673 422.368 27.3753 423.422C28.9216 421.665 31.1355 420.611 33.5603 420.611C38.0584 420.611 41.7483 424.196 41.8537 428.694C41.7483 433.192 38.0936 436.776 33.5603 436.776C31.0652 436.776 28.8513 435.652 27.3753 433.965C27.8673 434.984 28.1836 436.144 28.1836 437.338C28.0782 441.837 24.4234 445.421 19.8902 445.421C15.392 445.421 11.7021 441.837 11.5967 437.338C11.7021 433.649 14.1972 430.556 17.5708 429.572C14.5135 429.994 7.80142 431.048 4.9198 432.384V424.969C7.76628 426.304 14.4783 427.358 17.5708 427.78C14.1972 426.761 11.7021 423.704 11.5967 420.014C11.7021 415.515 15.3569 411.931 19.8902 411.931C24.3883 411.931 28.0782 415.551 28.1836 420.049Z" fill="white"/>
<path opacity="0.2" fill-rule="evenodd" clip-rule="evenodd" d="M426.761 804.253C421.49 800.001 418.713 797.927 415.691 791.953C412.669 797.927 409.893 800.001 404.622 804.253C396.363 810.824 400.967 819.469 407.398 819.891C411.439 820.137 413.899 817.291 414.988 815.463C414.637 817.923 413.899 822.246 412.985 824.178H418.432C417.554 822.246 416.816 817.888 416.429 815.463C417.519 817.291 419.978 820.102 424.02 819.891C430.486 819.434 435.019 810.86 426.761 804.253Z" fill="white"/>
<path opacity="0.2" fill-rule="evenodd" clip-rule="evenodd" d="M426.761 26.9888C421.49 31.241 418.713 33.3143 415.691 39.2884C412.669 33.3143 409.893 31.241 404.622 26.9888C396.363 20.4173 400.967 11.7725 407.398 11.3508C411.439 11.1048 413.899 13.9513 414.988 15.7786C414.637 13.3187 413.899 8.99627 412.985 7.06348H418.432C417.554 8.99627 416.816 13.3538 416.429 15.7786C417.519 13.9513 419.978 11.1399 424.02 11.3508C430.486 11.8076 435.019 20.3822 426.761 26.9888Z" fill="white"/>
<defs>
<linearGradient id="paint0_linear_702_557" x1="415.799" y1="64.1792" x2="415.799" y2="93.7116" gradientUnits="userSpaceOnUse">
<stop stop-color="#FFC033"/>
<stop offset="1" stop-color="#E5962E"/>
</linearGradient>
</defs>
</svg>
